
<svg xmlns="http://www.w3.org/2000/svg" version="1.1" xmlns:xlink="http://www.w3.org/1999/xlink" preserveAspectRatio="none" x="0px" y="0px" width="1080px" height="1920px" viewBox="0 0 1080 1920">
<defs>
<g id="Layer4_0_FILL">
<path fill="#045EB8" stroke="none" d="
M 563 554.3
Q 549.45 556.5 546.25 569.5 539.65 564.25 537.2 555.8 525.95 553.65 515.9 554.3 494.15 563.15 474.75 578.6 479.95 676.25 483.85 776.5 486.05 824.15 502.2 867.85 515 903.7 544.75 925.7 557.95 921.7 566.05 910.45 590.5 869.05 602.65 822.2 610.6 717.05 614.75 606.05 624.15 589.85 613.25 575.6 591.15 557.45 563 554.3
M 593.45 621.25
L 584.4 627.35
Q 568.45 622.7 552.4 625.85 549.75 632.3 546.25 639.55 542.8 631.85 537.2 625.85 520.8 622.7 505.2 627.35 498.8 617.85 489.95 624.3 481.4 620.15 491.5 616.7 516.35 609.85 540.2 606.05 544.15 594.1 543.25 581.7 550.9 592.95 552.4 607.55 579.8 609.2 604.15 621.25 599.45 625.8 593.45 621.25
M 503.7 692.8
Q 495.45 691.8 488.45 688.25 513.15 685.7 540.2 680.6 544.4 667.25 543.25 651.7 550.9 664.5 552.4 680.6 577.25 685.85 601.05 688.25 577.35 699.25 552.4 698.85 549.25 715.75 546.2 715.75 543.15 715.75 540.2 698.85 522.3 695.7 505.2 700.35 497 698.1 503.7 692.8
M 500.6 767.35
L 497.5 761.3
Q 511 757.1 537.2 756.75 544.05 745.15 546.25 730.85 549.25 741.7 552.4 755.2 565.8 759.75 579.75 758.25 589.7 752.45 601.05 758.25 600.5 761.05 598 761.3
L 585.9 761.3 588.95 767.35
Q 572.7 771.55 552.4 775
L 546.25 794.8
Q 543.6 784.05 537.2 775 518.55 772.75 500.6 767.35
M 543.25 806.95
Q 549.1 830.1 549.3 857.2
L 546.25 907.35
Q 541.75 856.75 543.25 806.95 Z"/>
</g>
</defs>

<g transform="matrix( 1, 0, 0, 1, 0,0) ">
<use xlink:href="#Layer4_0_FILL"/>
</g>
</svg>
