
<svg xmlns="http://www.w3.org/2000/svg" version="1.1" xmlns:xlink="http://www.w3.org/1999/xlink" preserveAspectRatio="none" x="0px" y="0px" width="1080px" height="1920px" viewBox="0 0 1080 1920">
<defs>
<g id="Layer4_0_FILL">
<path fill="#045EB8" stroke="none" d="
M 710.7 502.55
Q 697.7 515 703.05 533
L 721.3 563.45
Q 759.2 604.45 789.8 650.2 802.8 658.2 817.2 663.85 837.35 661.45 835.45 641.05 816.55 558.5 747.2 510.15 729.75 502.1 710.7 502.55
M 258.6 654.75
Q 260.05 658.65 263.2 660.85 282.15 668.05 296.7 653.25 341.15 600.7 380.35 548.2
L 386.45 536.05
Q 395.3 498.95 357.5 502.55 307.9 531.65 276.85 581.7 252.6 614.9 258.6 654.75 Z"/>
</g>
</defs>

<g transform="matrix( 1, 0, 0, 1, 0,0) ">
<use xlink:href="#Layer4_0_FILL"/>
</g>
</svg>
