
<svg xmlns="http://www.w3.org/2000/svg" version="1.1" xmlns:xlink="http://www.w3.org/1999/xlink" preserveAspectRatio="none" x="0px" y="0px" width="1080px" height="1920px" viewBox="0 0 1080 1920">
<defs>
<g id="Layer3_0_FILL">
<path fill="#045EB8" stroke="none" d="
M 359.1 1378.25
Q 356.85 1374.8 353 1375.2 327.35 1453.65 336.25 1536.5 339.05 1564.95 357.6 1585.25 371.3 1571.25 383.5 1554.85 388.1 1557.3 391.1 1560.95 393.8 1579.55 407.85 1591.35 417.9 1585.3 421.5 1573.1 437.9 1526.75 438.25 1477.2 441 1444.35 420 1419.35
L 380.45 1416.35
Q 368.3 1399.05 359.1 1378.25
M 675.75 1419.35
Q 663.5 1427.8 659 1442.2 650.75 1510.9 674.2 1576.1 678.4 1598.75 695.5 1585.25 699.1 1571.4 704.65 1557.85 707.2 1555.45 710.75 1554.85 722.65 1568.85 733.5 1583.7 736.45 1586.95 739.65 1583.7 751.95 1568.7 756.4 1548.7 765.55 1468.95 747.25 1390.45 743 1381.8 736.55 1375.2 727.05 1397.8 712.25 1416.35
L 675.75 1419.35 Z"/>
</g>
</defs>

<g transform="matrix( 1, 0, 0, 1, 0,0) ">
<use xlink:href="#Layer3_0_FILL"/>
</g>
</svg>
