
<svg xmlns="http://www.w3.org/2000/svg" version="1.1" xmlns:xlink="http://www.w3.org/1999/xlink" preserveAspectRatio="none" x="0px" y="0px" width="1080px" height="1920px" viewBox="0 0 1080 1920">
<defs>
<g id="Layer4_0_FILL">
<path fill="#045EB8" stroke="none" d="
M 541.7 429.5
Q 538.25 421.75 531.05 415.75 493.85 405.5 454.95 408.15 404.7 446.4 363.7 494.9 386.55 497.15 401.7 514.7 412.85 537.85 433.7 552.75 576.45 570 541.7 429.5
M 634.55 409.65
Q 606.25 407.4 576.7 408.15 562.75 415.75 550.9 426.4 547.7 472.15 550.9 517.75 576.6 554.1 622.45 555.8 651.6 563.45 672.65 542.1 688.55 503.3 728.95 494.9 685.55 447.35 634.55 409.65 Z"/>
</g>
</defs>

<g transform="matrix( 1, 0, 0, 1, 0,0) ">
<use xlink:href="#Layer4_0_FILL"/>
</g>
</svg>
