
<svg xmlns="http://www.w3.org/2000/svg" version="1.1" xmlns:xlink="http://www.w3.org/1999/xlink" preserveAspectRatio="none" x="0px" y="0px" width="1080px" height="1920px" viewBox="0 0 1080 1920">
<defs>
<g id="Layer3_0_FILL">
<path fill="#575974" stroke="none" d="
M 765.5 452.8
Q 755.55 420.2 730.5 396.5 667.2 384.8 611.75 352.4 648.6 309.25 655.95 251.9 679.2 138.9 575.25 95.2 548.35 89.25 520.5 90.6 468.25 107 445.85 157.6 426.25 219.6 442.85 282.4 456.4 322.2 479.35 355.4 444.85 372.95 407.85 387.4 370.7 383.6 348.5 413.25 324.95 459.15 308.85 507.65 292.35 525.5 278.45 547.25 246.35 611.35 196.3 662.85 121.5 781.85 62.3 906.45 52.55 943.25 65.4 979.5 68.1 990.15 77.55 994.7 84.4 984.45 97.3 984 99.8 981.4 100.4 978 80.3 942.45 106.5 912.5 108.75 933.35 115.55 952.05 124 958 132.35 952.05 140.55 899.1 147.55 839.45 208.15 777.65 266.25 711.55
L 299.75 653.75
Q 348.75 592.9 391.1 525.95 402.7 587.1 424.6 647.7 434.35 686.6 430.6 726.8 410.35 774.9 388 821.2 360.35 907.05 353 996.25 359.5 1096.55 360.6 1201.7 362 1241.85 368.25 1282.35 364.45 1311.65 357.6 1338.7 337.05 1394.55 330.2 1454.35 330.05 1573 345.45 1688.75 348.45 1729.8 345.45 1770.95 344.85 1789.3 339.35 1807.45 321.1 1823.05 301.25 1834.85 329.25 1877.3 380.45 1872.95 398.7 1871.1 403.25 1853.1 401.75 1749.8 412.35 1646.1 420.2 1585.5 439.75 1527.45 446.45 1469.55 442.85 1411.7 461.8 1364.8 476.35 1314.35 475.4 1253.1 488.5 1192.6 516 1095.8 531.15 994.7
L 540.25 976.45
Q 553.75 970.3 558.5 985.55 582.95 1103.9 610.25 1216.95 606.3 1315.35 649.8 1402.6 643.55 1504.45 674.2 1600.45 695.9 1727.3 692.45 1856.2 698.25 1869.6 712.25 1872.95 764.25 1879.3 791.4 1834.85 770.1 1823.45 753.3 1804.45
L 745.75 1731.35
Q 756.7 1614.5 764 1498.45
L 762.5 1442.2
Q 744.9 1357.65 727.5 1282.35 738.45 1120.55 738.15 958.2 723.45 838.3 665 732.95 661.85 700.9 665 669 682.55 597.95 704.65 525.95 729.6 568.4 756.4 605 801.3 656.3 832.5 717.7 887.95 782.5 948.15 839.45
L 951.2 888.2
Q 962.35 919.6 963.4 952.05 970.85 958.2 978.55 952.05 983.45 931.85 986.25 912.5
L 995.3 918.55
Q 1000.7 934.75 1001.45 952.05 999.55 968.05 996.9 982.5 1008.95 986.5 1018.2 994.7 1024.65 990.6 1027.3 982.5 1042.4 938.5 1027.3 894.25 1009.3 861.6 989.95 825.05 964 776.2 939 726.8 907.2 668.1 859.9 620.25 824.55 561.8 783.75 504.55 774.55 476.7 765.5 452.8
M 706.15 1560.95
Q 709.45 1560.4 712.25 1562.45 720.45 1580.7 736.55 1591.35 747.05 1584.6 753.3 1573.1 744.95 1654.2 742.7 1731.35 743.45 1768.5 747.25 1804.45 758.05 1826.15 782.25 1830.35 784.65 1833.2 785.25 1836.35 756.7 1873.85 709.2 1866.85
L 698.5 1856.2
Q 695.95 1836.15 700.05 1816.6 693.25 1786.15 697 1755.7 692.3 1677.85 678.75 1600.45
L 695.5 1594.35
Q 702.9 1578.6 706.15 1560.95
M 757.9 487.9
L 770.05 493.9
Q 819.3 554.5 849.25 624.8
L 847.7 632.45
Q 837.8 623.6 826.4 629.45 820.3 645.4 821.8 662.85 813.4 663.15 806.55 658.3 751.2 592.4 707.7 519.8 704.05 499.6 709.2 480.25 732.9 487.4 757.9 487.9
M 852.25 634
Q 855.95 629.35 855.3 623.3 933.9 706.4 974 815.05 972.5 842.05 948.15 833.35
L 932.95 812
Q 865.35 756.7 817.25 684.2 815.35 678.3 812.7 672 817.75 668.55 823.3 665.95 828.15 650.75 829.45 635.5 840.05 633.45 852.25 634
M 659 1442.2
Q 663.5 1427.8 675.75 1419.35
L 712.25 1416.35
Q 727.05 1397.8 736.55 1375.2 743 1381.8 747.25 1390.45 765.55 1468.95 756.4 1548.7 751.95 1568.7 739.65 1583.7 736.45 1586.95 733.5 1583.7 722.65 1568.85 710.75 1554.85 707.2 1555.45 704.65 1557.85 699.1 1571.4 695.5 1585.25 678.4 1598.75 674.2 1576.1 650.75 1510.9 659 1442.2
M 246.5 629.45
Q 245.6 619.3 248.05 608.05 279.45 552.6 318 501.5 323.65 494.35 331.75 490.9 354.6 487.35 377.35 480.25 381.85 479.9 385 483.25 388 503.25 385 522.85 350.95 580.55 308.85 635.5 294.85 651.85 276.95 662.85 269.65 647.2 267.75 629.45 257.25 625.4 246.5 629.45
M 474.75 778.55
Q 477.55 745.75 485.45 714.6 510 682.5 531.15 647.7 533.85 620.1 529.55 592.85 544.5 602.9 561.5 595.95
L 564.55 647.7
Q 580.7 678.7 604.2 705.5 614.85 740.25 620.95 774 562.5 783.05 546.3 839.45 534.5 780.8 474.75 778.55
M 977.05 815.05
Q 985.55 831.35 989.95 839.5 1006.6 870.6 1024.3 900.3
L 1031.9 942.95
Q 1028.1 965.3 1018.2 985.55
L 1015.15 930.75
Q 1005.45 918.05 992.25 907.95 991.05 907.45 989.95 907.25 985 905.9 980.15 906.45 981.05 928.2 975.5 949 971 955.35 966.45 949 958.75 896.3 952.75 842.5 980.55 843.25 977.05 815.05
M 1004.5 927.75
Q 1007.45 928.55 1009 930.75 1011.95 952.2 1009 973.35 1006.9 979.1 1002.95 982.5 1005.8 966.9 1007.5 952.05 1006.15 937.5 1004.5 927.75
M 729 1326.5
Q 736.25 1347.5 738.15 1369.1 721.45 1390.7 709.2 1413.25 692.4 1412.05 675.75 1413.25 664.1 1418.9 659 1430
L 655.95 1405.7
Q 643.75 1374.45 636.15 1353.95 648.9 1355.9 655.95 1344.75 670.4 1303.55 672.7 1259.5
L 704.65 1311.25
Q 713.3 1324.7 729 1326.5
M 517.45 96.7
Q 539.7 96.05 566.15 98.2 585.05 108.7 605.7 116.45 642.5 141.4 649.8 184.95 658.35 249.3 634.65 309.75 616.45 347.6 609.6 346.05 602.75 344.55 607.25 303.65 598.55 285.7 578.25 283.9 564.8 279.6 550.9 279.3
L 550.9 227.6 541.75 227.6
Q 542.5 254.7 538.75 279.3
L 526.5 279.3
Q 527.65 262.15 520.5 245.85 517.4 266.35 511.35 285.4 471.8 304.1 490 344.75 482.2 346.1 476.35 340.25 420.65 253.5 452 154.5 475.5 114.95 517.45 96.7
M 380.45 1560.95
Q 384.25 1560.4 386.5 1563.95 391.65 1579.05 397.2 1591.35 403.6 1599.1 413.95 1597.45 407.85 1654.25 400.25 1710.1 398.4 1759.8 395.6 1808.95 416.2 1885.75 340.85 1863.75 323.9 1851.1 308.85 1837.95 305.65 1834.25 310.45 1831.85 321.7 1826.3 334.75 1821.2
L 348.5 1801.35 353 1726.85
Q 346.95 1654.25 342.35 1576.1 355.9 1603.2 372.85 1579.2 378 1570.15 380.45 1560.95
M 687.9 457.4
Q 697.65 466.7 706.15 477.15 695.65 555.4 668.05 629.45 649.55 688.6 665 748.1 675.05 765.4 678.75 781.6 651.6 775.6 625.5 772.5 623.65 709.8 579.8 665.95 561.35 643.25 567.65 614.2 580.25 532.95 607.25 455.9 615.85 435.85 630 419.4 659.1 435.45 687.9 457.4
M 659 781.6
Q 675.85 786.45 684.8 789.25 730.5 889 733.5 999.25 726.65 1192.25 722.9 1320.45
L 704.65 1302.2
Q 689.8 1274 672.7 1247.35 669.7 1248.65 668.05 1250.45 668.9 1299.85 649.8 1344.75 638.05 1351.2 631.55 1338.7 629.25 1330.6 625.5 1323.45 620.5 1273.4 616.3 1219.95 586.85 1103.65 567.65 988.6 621.9 1027 678.75 993.2 705.4 968.1 703.05 930.75 698.55 884.95 689.4 839.45 681.9 804.7 654.4 784.7 655.3 782.05 659 781.6
M 633.05 411.75
Q 611.95 430.15 601.15 455.9 583.8 520 564.55 583.75 551.7 597.9 534.15 589.8 510.15 522.95 491.5 452.8 480.75 429.4 462.6 411.75 487.6 405.6 514.4 401.05 574.9 398.8 633.05 411.75
M 488.5 458.9
L 522 577.7
Q 528.25 612.8 525 647.7 507.35 675.9 485.45 702.5 473.75 737.15 468.75 772.5 441.7 775.45 415.45 781.6 423 758.8 433.7 735.95 439.95 685.1 427.6 635.5 399.25 557.4 389.6 477.15 391.15 468.85 398.7 463.5
L 456.5 419.4
Q 462.35 418.75 467.2 422.4 480.15 439.7 488.5 458.9
M 429.1 781.6
Q 435.05 781 441.35 783.1 420.95 795.6 412.35 818.1 385.25 890.7 397.2 967.25 424.75 1016.6 480.85 1008.35 502.7 1002.65 523.5 991.7
L 526.5 994.7
Q 507.05 1104.85 479.35 1210.85 471 1262.6 470.25 1314.35 467.8 1336.2 452 1350.85 433.35 1330.4 430.6 1302.2
L 427.6 1250.45
Q 425.9 1248.7 423 1247.35 404.45 1276.2 388 1305.2 380.6 1313.4 371.25 1320.45
L 368.25 1309.75
Q 370.35 1293 371.25 1277.75
L 359.1 1000.75
Q 363.7 892.4 406.25 793.75 417.6 786.3 429.1 781.6
M 540.25 836.45
Q 547.1 902.2 543.25 967.25 498.95 1015.9 435.25 999.25 392.25 976.75 398.7 927.75 398.55 864 424.6 806 437.35 789.35 456.5 781.6 519.6 777.2 540.25 836.45
M 353 1375.2
Q 356.85 1374.8 359.1 1378.25 368.3 1399.05 380.45 1416.35
L 420 1419.35
Q 441 1444.35 438.25 1477.2 437.9 1526.75 421.5 1573.1 417.9 1585.3 407.85 1591.35 393.8 1579.55 391.1 1560.95 388.1 1557.3 383.5 1554.85 371.3 1571.25 357.6 1585.25 339.05 1564.95 336.25 1536.5 327.35 1453.65 353 1375.2
M 518.95 285.4
Q 522.55 267.7 523.5 285.4
L 541.75 285.4
Q 544.1 273.7 544.8 264.15 549.25 274 547.8 285.4 618 279.8 596.55 346.25 547.7 334.45 499.1 346.25 499.8 326.1 496.1 305.25 503.05 290.55 518.95 285.4
M 365.25 1323.45
Q 376.35 1324.35 385 1317.35 405.65 1289.6 420 1256.45 424.75 1295.95 433.7 1335.6
L 444.35 1352.35
Q 451.7 1355.9 458 1350.85 454.4 1371.5 442.85 1390.45
L 433.7 1426.95
Q 414.85 1404.65 386.5 1413.25 372.1 1396.1 363.7 1375.2 357.2 1370.1 353 1364.6 360.4 1344.2 365.25 1323.45
M 91.25 979.5
Q 85.15 976.9 83.65 970.3 79.05 946.55 88.15 924.7 88.55 947.8 89.75 967.25 95.3 973.85 91.25 979.5
M 672.7 387.4
Q 658.95 393.4 648.3 402.65 596.6 401.1 543.25 395 497.2 401.65 447.35 402.65 435.65 391.55 420 387.4 470.35 362.8 523.5 346.25 556.15 345.25 587.45 350.9 631.1 367.85 672.7 387.4
M 112.55 818.1
Q 117.6 840.25 139.9 842.5 133.95 900.3 127.8 949 120.3 949.75 117.15 942.95 114.7 924.35 115.55 906.45 90.8 911.55 77.55 933.8 76.05 961.55 77.55 988.6 64.1 966.5 63.8 939.95 65.5 922.05 68.4 903.35 92.9 863.55 112.55 818.1
M 744.2 419.4
Q 760 452.4 773.15 487.9 746.7 480.25 715.25 475.65 679.55 441.75 639.2 414.75 657.35 401.95 675.75 392 718 386.75 744.2 419.4
M 683.3 836.45
Q 695.9 892.25 695.5 949 678.7 1014.2 611.75 1002.3 576.4 993.55 552.45 967.25 548.3 897.7 555.5 830.3 571.4 793.85 608.75 781.6 669.65 776.6 683.3 836.45
M 269.35 662.85
Q 274.1 669.8 283 670.5 269.05 703.75 245 729.85 192.95 780.4 143 834.85 129.9 839.1 123.15 827.25 120 815.25 123.15 802.95 164.9 702.65 237.35 623.3 241.6 628.45 240.35 635.5
L 264.75 632.45
Q 263.8 648.25 269.35 662.85
M 429.1 396.5
Q 441.35 407.15 453.5 416.3 413.65 441.85 380.45 475.65 352.5 483.25 324.1 489.4 331.45 440.35 365.25 402.65
L 386.5 392
Q 408.05 392.9 429.1 396.5 Z"/>

<path fill="#E2E2E3" stroke="none" d="
M 453.5 416.3
Q 441.35 407.15 429.1 396.5 408.05 392.9 386.5 392
L 365.25 402.65
Q 331.45 440.35 324.1 489.4 352.5 483.25 380.45 475.65 413.65 441.85 453.5 416.3 Z"/>

<path fill="#E4E5E5" stroke="none" d="
M 283 670.5
Q 274.1 669.8 269.35 662.85 263.8 648.25 264.75 632.45
L 240.35 635.5
Q 241.6 628.45 237.35 623.3 164.9 702.65 123.15 802.95 120 815.25 123.15 827.25 129.9 839.1 143 834.85 192.95 780.4 245 729.85 269.05 703.75 283 670.5 Z"/>

<path fill="#E5E5E6" stroke="none" d="
M 695.5 949
Q 695.9 892.25 683.3 836.45 669.65 776.6 608.75 781.6 571.4 793.85 555.5 830.3 548.3 897.7 552.45 967.25 576.4 993.55 611.75 1002.3 678.7 1014.2 695.5 949 Z"/>

<path fill="#E3E3E4" stroke="none" d="
M 773.15 487.9
Q 760 452.4 744.2 419.4 718 386.75 675.75 392 657.35 401.95 639.2 414.75 679.55 441.75 715.25 475.65 746.7 480.25 773.15 487.9 Z"/>

<path fill="#E3E4E4" stroke="none" d="
M 139.9 842.5
Q 117.6 840.25 112.55 818.1 92.9 863.55 68.4 903.35 65.5 922.05 63.8 939.95 64.1 966.5 77.55 988.6 76.05 961.55 77.55 933.8 90.8 911.55 115.55 906.45 114.7 924.35 117.15 942.95 120.3 949.75 127.8 949 133.95 900.3 139.9 842.5
M 648.3 402.65
Q 658.95 393.4 672.7 387.4 631.1 367.85 587.45 350.9 556.15 345.25 523.5 346.25 470.35 362.8 420 387.4 435.65 391.55 447.35 402.65 497.2 401.65 543.25 395 596.6 401.1 648.3 402.65 Z"/>

<path fill="#CFD0D5" stroke="none" d="
M 83.65 970.3
Q 85.15 976.9 91.25 979.5 95.3 973.85 89.75 967.25 88.55 947.8 88.15 924.7 79.05 946.55 83.65 970.3 Z"/>

<path fill="#DDE3E9" stroke="none" d="
M 385 1317.35
Q 376.35 1324.35 365.25 1323.45 360.4 1344.2 353 1364.6 357.2 1370.1 363.7 1375.2 372.1 1396.1 386.5 1413.25 414.85 1404.65 433.7 1426.95
L 442.85 1390.45
Q 454.4 1371.5 458 1350.85 451.7 1355.9 444.35 1352.35
L 433.7 1335.6
Q 424.75 1295.95 420 1256.45 405.65 1289.6 385 1317.35
M 523.5 285.4
Q 522.55 267.7 518.95 285.4 503.05 290.55 496.1 305.25 499.8 326.1 499.1 346.25 547.7 334.45 596.55 346.25 618 279.8 547.8 285.4 549.25 274 544.8 264.15 544.1 273.7 541.75 285.4
L 523.5 285.4 Z"/>

<path fill="#E5E5E5" stroke="none" d="
M 359.1 1378.25
Q 356.85 1374.8 353 1375.2 327.35 1453.65 336.25 1536.5 339.05 1564.95 357.6 1585.25 371.3 1571.25 383.5 1554.85 388.1 1557.3 391.1 1560.95 393.8 1579.55 407.85 1591.35 417.9 1585.3 421.5 1573.1 437.9 1526.75 438.25 1477.2 441 1444.35 420 1419.35
L 380.45 1416.35
Q 368.3 1399.05 359.1 1378.25
M 543.25 967.25
Q 547.1 902.2 540.25 836.45 519.6 777.2 456.5 781.6 437.35 789.35 424.6 806 398.55 864 398.7 927.75 392.25 976.75 435.25 999.25 498.95 1015.9 543.25 967.25
M 441.35 783.1
Q 435.05 781 429.1 781.6 417.6 786.3 406.25 793.75 363.7 892.4 359.1 1000.75
L 371.25 1277.75
Q 370.35 1293 368.25 1309.75
L 371.25 1320.45
Q 380.6 1313.4 388 1305.2 404.45 1276.2 423 1247.35 425.9 1248.7 427.6 1250.45
L 430.6 1302.2
Q 433.35 1330.4 452 1350.85 467.8 1336.2 470.25 1314.35 471 1262.6 479.35 1210.85 507.05 1104.85 526.5 994.7
L 523.5 991.7
Q 502.7 1002.65 480.85 1008.35 424.75 1016.6 397.2 967.25 385.25 890.7 412.35 818.1 420.95 795.6 441.35 783.1
M 522 577.7
L 488.5 458.9
Q 480.15 439.7 467.2 422.4 462.35 418.75 456.5 419.4
L 398.7 463.5
Q 391.15 468.85 389.6 477.15 399.25 557.4 427.6 635.5 439.95 685.1 433.7 735.95 423 758.8 415.45 781.6 441.7 775.45 468.75 772.5 473.75 737.15 485.45 702.5 507.35 675.9 525 647.7 528.25 612.8 522 577.7
M 601.15 455.9
Q 611.95 430.15 633.05 411.75 574.9 398.8 514.4 401.05 487.6 405.6 462.6 411.75 480.75 429.4 491.5 452.8 510.15 522.95 534.15 589.8 551.7 597.9 564.55 583.75 583.8 520 601.15 455.9
M 684.8 789.25
Q 675.85 786.45 659 781.6 655.3 782.05 654.4 784.7 681.9 804.7 689.4 839.45 698.55 884.95 703.05 930.75 705.4 968.1 678.75 993.2 621.9 1027 567.65 988.6 586.85 1103.65 616.3 1219.95 620.5 1273.4 625.5 1323.45 629.25 1330.6 631.55 1338.7 638.05 1351.2 649.8 1344.75 668.9 1299.85 668.05 1250.45 669.7 1248.65 672.7 1247.35 689.8 1274 704.65 1302.2
L 722.9 1320.45
Q 726.65 1192.25 733.5 999.25 730.5 889 684.8 789.25
M 706.15 477.15
Q 697.65 466.7 687.9 457.4 659.1 435.45 630 419.4 615.85 435.85 607.25 455.9 580.25 532.95 567.65 614.2 561.35 643.25 579.8 665.95 623.65 709.8 625.5 772.5 651.6 775.6 678.75 781.6 675.05 765.4 665 748.1 649.55 688.6 668.05 629.45 695.65 555.4 706.15 477.15 Z"/>

<path fill="#DFE5EB" stroke="none" d="
M 386.5 1563.95
Q 384.25 1560.4 380.45 1560.95 378 1570.15 372.85 1579.2 355.9 1603.2 342.35 1576.1 346.95 1654.25 353 1726.85
L 348.5 1801.35 334.75 1821.2
Q 321.7 1826.3 310.45 1831.85 305.65 1834.25 308.85 1837.95 323.9 1851.1 340.85 1863.75 416.2 1885.75 395.6 1808.95 398.4 1759.8 400.25 1710.1 407.85 1654.25 413.95 1597.45 403.6 1599.1 397.2 1591.35 391.65 1579.05 386.5 1563.95
M 566.15 98.2
Q 539.7 96.05 517.45 96.7 475.5 114.95 452 154.5 420.65 253.5 476.35 340.25 482.2 346.1 490 344.75 471.8 304.1 511.35 285.4 517.4 266.35 520.5 245.85 527.65 262.15 526.5 279.3
L 538.75 279.3
Q 542.5 254.7 541.75 227.6
L 550.9 227.6 550.9 279.3
Q 564.8 279.6 578.25 283.9 598.55 285.7 607.25 303.65 602.75 344.55 609.6 346.05 616.45 347.6 634.65 309.75 658.35 249.3 649.8 184.95 642.5 141.4 605.7 116.45 585.05 108.7 566.15 98.2 Z"/>

<path fill="#DEE3EA" stroke="none" d="
M 738.15 1369.1
Q 736.25 1347.5 729 1326.5 713.3 1324.7 704.65 1311.25
L 672.7 1259.5
Q 670.4 1303.55 655.95 1344.75 648.9 1355.9 636.15 1353.95 643.75 1374.45 655.95 1405.7
L 659 1430
Q 664.1 1418.9 675.75 1413.25 692.4 1412.05 709.2 1413.25 721.45 1390.7 738.15 1369.1 Z"/>

<path fill="#DCDCDE" stroke="none" d="
M 1009 930.75
Q 1007.45 928.55 1004.5 927.75 1006.15 937.5 1007.5 952.05 1005.8 966.9 1002.95 982.5 1006.9 979.1 1009 973.35 1011.95 952.2 1009 930.75 Z"/>

<path fill="#E0E0E1" stroke="none" d="
M 989.95 839.5
Q 985.55 831.35 977.05 815.05 980.55 843.25 952.75 842.5 958.75 896.3 966.45 949 971 955.35 975.5 949 981.05 928.2 980.15 906.45 985 905.9 989.95 907.25 991.05 907.45 992.25 907.95 1005.45 918.05 1015.15 930.75
L 1018.2 985.55
Q 1028.1 965.3 1031.9 942.95
L 1024.3 900.3
Q 1006.6 870.6 989.95 839.5 Z"/>

<path fill="#E4E4E5" stroke="none" d="
M 485.45 714.6
Q 477.55 745.75 474.75 778.55 534.5 780.8 546.3 839.45 562.5 783.05 620.95 774 614.85 740.25 604.2 705.5 580.7 678.7 564.55 647.7
L 561.5 595.95
Q 544.5 602.9 529.55 592.85 533.85 620.1 531.15 647.7 510 682.5 485.45 714.6
M 248.05 608.05
Q 245.6 619.3 246.5 629.45 257.25 625.4 267.75 629.45 269.65 647.2 276.95 662.85 294.85 651.85 308.85 635.5 350.95 580.55 385 522.85 388 503.25 385 483.25 381.85 479.9 377.35 480.25 354.6 487.35 331.75 490.9 323.65 494.35 318 501.5 279.45 552.6 248.05 608.05
M 675.75 1419.35
Q 663.5 1427.8 659 1442.2 650.75 1510.9 674.2 1576.1 678.4 1598.75 695.5 1585.25 699.1 1571.4 704.65 1557.85 707.2 1555.45 710.75 1554.85 722.65 1568.85 733.5 1583.7 736.45 1586.95 739.65 1583.7 751.95 1568.7 756.4 1548.7 765.55 1468.95 747.25 1390.45 743 1381.8 736.55 1375.2 727.05 1397.8 712.25 1416.35
L 675.75 1419.35
M 855.3 623.3
Q 855.95 629.35 852.25 634 840.05 633.45 829.45 635.5 828.15 650.75 823.3 665.95 817.75 668.55 812.7 672 815.35 678.3 817.25 684.2 865.35 756.7 932.95 812
L 948.15 833.35
Q 972.5 842.05 974 815.05 933.9 706.4 855.3 623.3
M 770.05 493.9
L 757.9 487.9
Q 732.9 487.4 709.2 480.25 704.05 499.6 707.7 519.8 751.2 592.4 806.55 658.3 813.4 663.15 821.8 662.85 820.3 645.4 826.4 629.45 837.8 623.6 847.7 632.45
L 849.25 624.8
Q 819.3 554.5 770.05 493.9 Z"/>

<path fill="#DEE4EA" stroke="none" d="
M 712.25 1562.45
Q 709.45 1560.4 706.15 1560.95 702.9 1578.6 695.5 1594.35
L 678.75 1600.45
Q 692.3 1677.85 697 1755.7 693.25 1786.15 700.05 1816.6 695.95 1836.15 698.5 1856.2
L 709.2 1866.85
Q 756.7 1873.85 785.25 1836.35 784.65 1833.2 782.25 1830.35 758.05 1826.15 747.25 1804.45 743.45 1768.5 742.7 1731.35 744.95 1654.2 753.3 1573.1 747.05 1584.6 736.55 1591.35 720.45 1580.7 712.25 1562.45 Z"/>
</g>
</defs>

<g transform="matrix( 1, 0, 0, 1, 0,0) ">
<use xlink:href="#Layer3_0_FILL"/>
</g>
</svg>
