
<svg xmlns="http://www.w3.org/2000/svg" version="1.1" xmlns:xlink="http://www.w3.org/1999/xlink" preserveAspectRatio="none" x="0px" y="0px" width="1080px" height="1920px" viewBox="0 0 1080 1920">
<defs>
<g id="Layer3_1_MEMBER_0_MEMBER_0_MEMBER_0_FILL">
<path fill="#575975" stroke="none" d="
M 763.95 459.9
Q 742.65 388.25 668.05 397.5 644 388.9 622.45 379.25 601.7 363.65 602.65 338.15
L 608.7 344.25
Q 666 272.25 657.45 179.85 641.75 66.25 528 76.35 469.75 92.85 447.35 149.45 426.8 244.9 474.75 329 478.85 337.95 488.45 338.15 490.35 361.05 473.2 376.15 448.3 388.2 424.5 397.5 396.15 399.9 369.7 403.65 340.85 421.8 328.6 453.9 292.1 590.4 182.55 679.1 121.8 772.85 69.8 873.95 61.9 894 57.7 916.55 50.95 951.25 72.9 977.45 79.65 971.15 88.15 962.2 89.8 946 83.55 930.25 87.6 913.15 98.8 899.8 103.85 898.05 104.9 904.35 99.3 918.35 104.9 931.75 114.8 937.75 124.65 931.75 129.75 898.6 143 867.85 144.95 847.9 143 828.25 180.5 793.8 220.55 762.8 277.8 715.55 310.35 648.6 348.4 599.7 389.5 542.1 400.8 589.95 416.95 636.5 427.35 676.75 423 718.7
L 371.25 867.85
Q 359.35 915.35 349.95 968.3 350.85 1127.25 366.7 1281.85 366.4 1303.85 362.1 1324.45 334.75 1397.3 336.25 1475.1 340.6 1570.35 352.95 1662.35 355.95 1689.75 352.95 1717.1 344.3 1745.2 328.6 1768.85
L 289 1820.6
Q 285.75 1832.2 292.1 1841.95 320.35 1857.2 351.45 1858.7 366.65 1846.75 383.45 1838.85 386.5 1827.9 391 1814.6 401.85 1810.65 404.7 1799.35 410.9 1735.6 407.75 1671.45 419.2 1611.6 426 1549.7 453.5 1476.15 444.25 1397.45
L 471.7 1330.6
Q 475.65 1273.55 483.85 1214.85 509.2 1109.15 526.5 1004.8 540.15 967.3 563 998.75 579.05 1095.35 602.65 1190.45 612.15 1252.5 617.8 1318.35 631.15 1363.35 649.75 1406.6 644.65 1448.95 648.25 1491.85 672.05 1579.95 681.75 1668.45 684.95 1700 680.2 1730.85 687.9 1768.5 687.9 1805.45 692.5 1811 698.5 1814.6 700.4 1831.85 713.7 1843.45 731.9 1851.65 747.2 1860.2 765.95 1853.8 786.75 1849.6 814.25 1836.5 797.45 1811.45 759.25 1772.1 739.65 1720.2 736.45 1676.15 739.65 1631.85
L 754.8 1513.2
Q 757.8 1469.15 754.8 1424.85 736.55 1356.4 722.9 1284.85 742.35 1118.7 739.65 953.05 715.4 836.65 669.55 724.75 660.45 682.1 672.65 639.55 689.7 591.05 701.5 545.1 766.3 620.05 815.7 706.5 876.65 773.6 946.65 825.2 942.3 852.65 949.65 880 965.4 903.25 966.4 931.75 976.25 937.75 986.2 931.75
L 989.2 898.3
Q 1013.7 920.9 1002.95 953.05 1003.25 963.25 1010.5 971.35 1014.1 978.5 1021.2 975.85 1041 937.75 1028.75 895.25 976.35 777.05 903.95 673 800.95 588.4 763.95 459.9
M 742.65 429.5
Q 754.05 446.8 760.95 466 770.05 498.1 782.2 533 765.8 512.35 741.15 501 699.6 453.5 652.8 412.75 668.1 407.95 680.2 405.15 719.35 399.15 742.65 429.5
M 695.45 517.75
Q 700.5 526 696.95 536.05 673.95 614.65 658.95 689.75 659.2 707.65 663.45 724.75 677.7 767.65 695.45 808.5 650.45 824 633.05 779.55
L 619.4 625.85
Q 616.8 605.95 630 590.8 667.45 559.3 695.45 517.75
M 703.05 533
Q 697.7 515 710.7 502.55 729.75 502.1 747.2 510.15 816.55 558.5 835.45 641.05 837.35 661.45 817.2 663.85 802.8 658.2 789.8 650.2 759.2 604.45 721.3 563.45
L 703.05 533
M 728.95 494.9
Q 688.55 503.3 672.65 542.1 651.6 563.45 622.45 555.8 576.6 554.1 550.9 517.75 547.7 472.15 550.9 426.4 562.75 415.75 576.7 408.15 606.25 407.4 634.55 409.65 685.55 447.35 728.95 494.9
M 806.55 685.2
Q 798.95 673.45 797.45 660.85 836.65 685.7 838.5 639.55 837.75 626.55 835.45 615.2 870.3 654.05 907 685.2 937.55 732.75 964.9 779.55 968.2 812.65 935.95 808.5 865 754 806.55 685.2
M 546.25 129.65
Q 542.45 126.75 540.2 131.15 561.9 163.5 598 178.35 607.8 185.15 608.7 195.1 580.25 178.65 549.3 169.2 529.45 159.95 511.25 146.4 509 151.3 512.75 155.5 498 168 483.85 182.9 485.05 169.85 494.5 158.5
L 491.5 155.5
Q 471.4 178.15 470.2 208.75 465.2 218.75 456.45 225.5 449.65 260.3 480.85 274.25 492.55 302.4 485.45 332 437.6 261.8 447.35 176.75 450.6 127.55 491.5 100.7 494.15 101.9 496 103.7 506.25 89.25 521.95 82.45 614.9 64.1 645.2 152.45 672.45 252.2 611.7 335.15 608.55 341.25 605.7 335.15 596.8 308 605.7 280.25 641.75 263.2 633.05 222.5 628.2 218.9 622.45 219.45 618 180.6 598 146.4
L 595 149.45
Q 601.75 164.3 605.7 179.85 585.35 165.45 567.65 154 555.3 143.55 546.25 129.65
M 489.95 182.9
Q 502.4 169.8 515.9 158.5 556.4 178.5 598 193.5 624.35 213.7 614.75 246.9 602.45 275.8 593.45 304.65 543.25 360.1 496 301.65 489.2 275.85 477.75 252.9 470.25 215.6 489.95 182.9
M 476.25 262
L 473.2 265.15
Q 455.85 246.8 464.1 222.5 471.1 241.45 476.25 262
M 461 388.4
Q 476.1 381.75 485.45 368.65 489.65 384.7 485.45 402.15 465.1 400.5 445.75 408.15 435.05 404.95 424.5 403.65 440.45 395.95 461 388.4
M 622.45 222.5
Q 632.4 226.15 631.5 237.7 628.85 253.55 619.4 265.15
L 616.3 262
Q 622.7 243.4 622.45 222.5
M 493 386.9
Q 495.25 349.85 494.5 310.75 542.45 357.35 593.45 313.75 594.85 355.85 601.05 399 569.1 403.95 544.75 423.4 539.4 412.9 528 409.65 509.8 404.15 488.45 399 490.8 393.6 493 386.9
M 604.15 368.65
Q 610 372.5 613.25 379.25 638.2 392.35 665 403.65 655.25 405.45 645.2 408.15 626.55 402.5 607.2 399 602.7 383.9 604.15 368.65
M 252.55 654.75
Q 254.55 661.35 260.2 665.35 279.45 668.45 296.7 662.35 289.35 674.65 282.95 688.25 225.75 754.55 156.65 808.5 130.25 814.45 126.25 787.1 150.35 734.95 182.55 688.25 216.05 655.65 251.05 618.2 251.45 637.9 252.55 654.75
M 263.2 660.85
Q 260.05 658.65 258.6 654.75 252.6 614.9 276.85 581.7 307.9 531.65 357.5 502.55 395.3 498.95 386.45 536.05
L 380.35 548.2
Q 341.15 600.7 296.7 653.25 282.15 668.05 263.2 660.85
M 531.05 415.75
Q 538.25 421.75 541.7 429.5 576.45 570 433.7 552.75 412.85 537.85 401.7 514.7 386.55 497.15 363.7 494.9 404.7 446.4 454.95 408.15 493.85 405.5 531.05 415.75
M 537.2 534.5
Q 540.75 529.45 543.25 523.85 556.25 537.75 573.7 546.7 611.05 563.05 652.8 561.85
L 626.95 587.8
Q 613.2 557.85 579.75 552.75 561.05 548.35 544.75 557.35 530.2 548.25 512.75 552.75 478.75 557.3 464.1 587.8 450.5 577.55 439.75 563.45 492.35 563.25 537.2 534.5
M 537.2 555.8
Q 539.65 564.25 546.25 569.5 549.45 556.5 563 554.3 591.15 557.45 613.25 575.6 624.15 589.85 614.75 606.05 610.6 717.05 602.65 822.2 590.5 869.05 566.05 910.45 557.95 921.7 544.75 925.7 515 903.7 502.2 867.85 486.05 824.15 483.85 776.5 479.95 676.25 474.75 578.6 494.15 563.15 515.9 554.3 525.95 553.65 537.2 555.8
M 363.7 412.75
Q 372.3 409.2 378.85 405.15 410.6 405.9 439.75 412.75 390.2 457.7 345.35 504.05 328.2 513.85 313.45 526.85 321.65 462.45 363.7 412.75
M 395.6 539.05
Q 393.2 528.2 394 517.75 429.7 563.65 468.7 603 466.7 661.7 462.5 764.35 456.2 820.75 400.2 811.5 397.55 808.9 397.1 805.45 413.75 762.05 429.1 718.7 432.1 693 429.1 666.95 411.55 604.25 395.6 539.05
M 465.6 773.45
Q 470 732.2 471.7 688.25 476.7 744.25 480.85 803.85 486.8 874.55 534.15 927.2 544.6 930.35 555.45 927.2 598.6 881.3 608.7 819.1 616.3 748.6 616.3 679.1 622.9 722.1 623.95 767.35 626.65 809.8 668.05 817.6 650.05 827.75 636.15 843.5 602.7 915 544.75 968.3 488.45 912.1 453.45 840.45 438.95 826.1 421.45 817.6 458.55 810.85 465.6 773.45
M 489.95 913.5
Q 515.3 942.4 540.2 974.35 525.4 988.4 520.45 1007.85 487.8 1155.5 462.5 1303.1 456.4 1319.9 447.35 1336.6 436.55 1349.05 426 1336.6 420.4 1311.25 409.25 1289.45 393.85 1290.2 380.35 1287.95 371.15 1262.6 368.2 1236.2 356.75 1096.4 356 959.1 369.5 885.6 394 816.1 428.15 819.85 450.45 846.55
L 489.95 913.5
M 599.55 916.55
L 645.2 840.45
Q 662.6 822.95 686.3 816.1
L 698.5 816.1
Q 720.55 882.3 733.5 953.05 735.3 1101.4 721.3 1251.35
L 710.7 1287.95
Q 696.4 1289.9 683.25 1289.45 670.3 1313.9 663.45 1339.7 650.1 1346.85 642.2 1333.6 635 1321.3 630 1306.2 602.1 1159.6 569.15 1001.8 563.3 984.9 549.3 974.35 574.4 944 599.55 916.55
M 144.5 816.1
Q 138.2 825.1 138.35 835.85 144.2 871.25 124.65 901.3
L 120.05 931.75
Q 113.95 932.75 109.5 928.7 106.65 914.05 111 899.8 110.85 893.65 106.4 889.1 57.65 915.7 77.5 966.75
L 74.5 971.35
Q 61.8 955.2 62.25 934.8 63.6 910.8 69.8 886.1 92.3 838.1 120.05 791.75 124.45 811.45 144.5 816.1
M 82.05 959.1
Q 76.3 949.3 77.5 937.85 85.7 946.95 82.05 959.1
M 623.95 1306.2
Q 631.1 1329.4 646.75 1347.35 665.65 1352.75 672.65 1333.6 675.7 1315 681.75 1297.1 685 1292.3 690.9 1290.95 708.1 1305.4 716.75 1284.85 724.9 1332.65 733.5 1373.1 722.35 1394.5 713.7 1414.2 689.85 1422.15 665 1415.85 648.05 1383.35 633.05 1351.85 623.75 1329.65 623.95 1306.2
M 372.75 1287.95
Q 379.3 1294.65 388 1297.1 396.1 1291.1 406.25 1292.45 413.9 1313.65 419.95 1336.6 436.6 1360.95 453.45 1336.6 462.45 1318.45 468.7 1297.1 469.45 1340.7 444.25 1376.2 439.9 1400.25 424.5 1417.35 371.95 1435.6 365.2 1382.35 361.65 1374.55 354.5 1368.6 367.8 1329.1 372.75 1287.95
M 351.45 1379.2
Q 356.1 1379 359 1382.35 367.25 1437.7 421.45 1423.35 432 1422.05 438.2 1412.7 445.95 1481.6 423 1546.7 410.95 1615.25 401.7 1677.6 403.5 1740.85 398.7 1802.35
L 383.45 1814.6
Q 383.9 1830.35 372.75 1840.45 357.35 1846.4 342.25 1854.1 322.05 1846.6 301.2 1841.95 287.7 1830.1 298.2 1814.6 345.15 1769.1 359 1704.95 360.35 1662.8 356 1622.85 338.25 1528.55 340.75 1430.95
L 351.45 1379.2
M 983.15 928.7
Q 978.3 933.65 972.45 930.25 966.7 903.5 955.7 880 948.2 856.9 954.2 832.85 954.2 824.75 948.15 819.1 954 812.65 963.3 806.95 969.85 800.85 969.45 791.75 1000.8 839.85 1022.7 892.2 1029.9 921.2 1028.75 950.05 1023.75 961.45 1016.65 971.35 1032.85 917.3 984.7 889.1 981.7 908.65 983.15 928.7
M 1009 940.85
Q 1014.8 949.55 1009 959.1 1004.2 950.3 1009 940.85
M 707.65 1423.35
Q 720.7 1416.45 727.45 1403.6 727.7 1388.3 735 1376.2 753.9 1418.9 750.25 1465.95 747.6 1554.15 733.5 1637.95 730.25 1679.05 733.5 1720.2 753.15 1771.9 791.4 1811.45 804.15 1825.9 792.9 1840.45 769.15 1848 745.7 1854.1 725.55 1845.6 709.2 1829.85
L 706.15 1811.45
Q 696.9 1807.1 690.9 1799.35 684.45 1733.75 687.9 1668.45 676.25 1581.35 654.4 1497.95 651.15 1455.5 654.4 1412.7
L 665 1423.35
Q 686.15 1426.6 707.65 1423.35 Z"/>
</g>

<g id="Layer3_1_MEMBER_0_MEMBER_0_MEMBER_1_FILL">
<path fill="#E4E4E5" stroke="none" d="
M 359 1382.35
Q 356.1 1379 351.45 1379.2
L 340.75 1430.95
Q 338.25 1528.55 356 1622.85 360.35 1662.8 359 1704.95 345.15 1769.1 298.2 1814.6 287.7 1830.1 301.2 1841.95 322.05 1846.6 342.25 1854.1 357.35 1846.4 372.75 1840.45 383.9 1830.35 383.45 1814.6
L 398.7 1802.35
Q 403.5 1740.85 401.7 1677.6 410.95 1615.25 423 1546.7 445.95 1481.6 438.2 1412.7 432 1422.05 421.45 1423.35 367.25 1437.7 359 1382.35
M 260.2 665.35
Q 254.55 661.35 252.55 654.75 251.45 637.9 251.05 618.2 216.05 655.65 182.55 688.25 150.35 734.95 126.25 787.1 130.25 814.45 156.65 808.5 225.75 754.55 282.95 688.25 289.35 674.65 296.7 662.35 279.45 668.45 260.2 665.35
M 258.6 654.75
Q 260.05 658.65 263.2 660.85 282.15 668.05 296.7 653.25 341.15 600.7 380.35 548.2
L 386.45 536.05
Q 395.3 498.95 357.5 502.55 307.9 531.65 276.85 581.7 252.6 614.9 258.6 654.75
M 710.7 502.55
Q 697.7 515 703.05 533
L 721.3 563.45
Q 759.2 604.45 789.8 650.2 802.8 658.2 817.2 663.85 837.35 661.45 835.45 641.05 816.55 558.5 747.2 510.15 729.75 502.1 710.7 502.55 Z"/>
</g>

<g id="Layer3_1_MEMBER_0_MEMBER_0_MEMBER_2_FILL">
<path fill="#DDE3E9" stroke="none" d="
M 388 1297.1
Q 379.3 1294.65 372.75 1287.95 367.8 1329.1 354.5 1368.6 361.65 1374.55 365.2 1382.35 371.95 1435.6 424.5 1417.35 439.9 1400.25 444.25 1376.2 469.45 1340.7 468.7 1297.1 462.45 1318.45 453.45 1336.6 436.6 1360.95 419.95 1336.6 413.9 1313.65 406.25 1292.45 396.1 1291.1 388 1297.1 Z"/>
</g>

<g id="Layer3_1_MEMBER_0_MEMBER_0_MEMBER_3_FILL">
<path fill="#BBBEC6" stroke="none" d="
M 77.5 937.85
Q 76.3 949.3 82.05 959.1 85.7 946.95 77.5 937.85 Z"/>
</g>

<g id="Layer3_1_MEMBER_0_MEMBER_0_MEMBER_4_FILL">
<path fill="#E1E2E3" stroke="none" d="
M 972.45 930.25
Q 978.3 933.65 983.15 928.7 981.7 908.65 984.7 889.1 1032.85 917.3 1016.65 971.35 1023.75 961.45 1028.75 950.05 1029.9 921.2 1022.7 892.2 1000.8 839.85 969.45 791.75 969.85 800.85 963.3 806.95 954 812.65 948.15 819.1 954.2 824.75 954.2 832.85 948.2 856.9 955.7 880 966.7 903.5 972.45 930.25
M 138.35 835.85
Q 138.2 825.1 144.5 816.1 124.45 811.45 120.05 791.75 92.3 838.1 69.8 886.1 63.6 910.8 62.25 934.8 61.8 955.2 74.5 971.35
L 77.5 966.75
Q 57.65 915.7 106.4 889.1 110.85 893.65 111 899.8 106.65 914.05 109.5 928.7 113.95 932.75 120.05 931.75
L 124.65 901.3
Q 144.2 871.25 138.35 835.85 Z"/>
</g>

<g id="Layer3_1_MEMBER_0_MEMBER_0_MEMBER_5_FILL">
<path fill="#E5E5E6" stroke="none" d="
M 540.2 974.35
Q 515.3 942.4 489.95 913.5
L 450.45 846.55
Q 428.15 819.85 394 816.1 369.5 885.6 356 959.1 356.75 1096.4 368.2 1236.2 371.15 1262.6 380.35 1287.95 393.85 1290.2 409.25 1289.45 420.4 1311.25 426 1336.6 436.55 1349.05 447.35 1336.6 456.4 1319.9 462.5 1303.1 487.8 1155.5 520.45 1007.85 525.4 988.4 540.2 974.35 Z"/>
</g>

<g id="Layer3_1_MEMBER_0_MEMBER_0_MEMBER_6_FILL">
<path fill="#E5E5E5" stroke="none" d="
M 727.45 1403.6
Q 720.7 1416.45 707.65 1423.35 686.15 1426.6 665 1423.35
L 654.4 1412.7
Q 651.15 1455.5 654.4 1497.95 676.25 1581.35 687.9 1668.45 684.45 1733.75 690.9 1799.35 696.9 1807.1 706.15 1811.45
L 709.2 1829.85
Q 725.55 1845.6 745.7 1854.1 769.15 1848 792.9 1840.45 804.15 1825.9 791.4 1811.45 753.15 1771.9 733.5 1720.2 730.25 1679.05 733.5 1637.95 747.6 1554.15 750.25 1465.95 753.9 1418.9 735 1376.2 727.7 1388.3 727.45 1403.6
M 541.7 429.5
Q 538.25 421.75 531.05 415.75 493.85 405.5 454.95 408.15 404.7 446.4 363.7 494.9 386.55 497.15 401.7 514.7 412.85 537.85 433.7 552.75 576.45 570 541.7 429.5
M 672.65 542.1
Q 688.55 503.3 728.95 494.9 685.55 447.35 634.55 409.65 606.25 407.4 576.7 408.15 562.75 415.75 550.9 426.4 547.7 472.15 550.9 517.75 576.6 554.1 622.45 555.8 651.6 563.45 672.65 542.1 Z"/>
</g>

<g id="Layer3_1_MEMBER_0_MEMBER_0_MEMBER_7_FILL">
<path fill="#DDE3EA" stroke="none" d="
M 623.95 1306.2
Q 623.75 1329.65 633.05 1351.85 648.05 1383.35 665 1415.85 689.85 1422.15 713.7 1414.2 722.35 1394.5 733.5 1373.1 724.9 1332.65 716.75 1284.85 708.1 1305.4 690.9 1290.95 685 1292.3 681.75 1297.1 675.7 1315 672.65 1333.6 665.65 1352.75 646.75 1347.35 631.1 1329.4 623.95 1306.2 Z"/>
</g>

<g id="Layer3_1_MEMBER_0_MEMBER_0_MEMBER_8_FILL">
<path fill="#E6E6E6" stroke="none" d="
M 599.55 916.55
Q 574.4 944 549.3 974.35 563.3 984.9 569.15 1001.8 602.1 1159.6 630 1306.2 635 1321.3 642.2 1333.6 650.1 1346.85 663.45 1339.7 670.3 1313.9 683.25 1289.45 696.4 1289.9 710.7 1287.95
L 721.3 1251.35
Q 735.3 1101.4 733.5 953.05 720.55 882.3 698.5 816.1
L 686.3 816.1
Q 662.6 822.95 645.2 840.45
L 599.55 916.55 Z"/>
</g>

<g id="Layer3_1_MEMBER_0_MEMBER_0_MEMBER_9_FILL">
<path fill="#B0B4BC" stroke="none" d="
M 1009 959.1
Q 1014.8 949.55 1009 940.85 1004.2 950.3 1009 959.1 Z"/>
</g>

<g id="Layer3_1_MEMBER_0_MEMBER_0_MEMBER_10_FILL">
<path fill="#E4E4E4" stroke="none" d="
M 797.45 660.85
Q 798.95 673.45 806.55 685.2 865 754 935.95 808.5 968.2 812.65 964.9 779.55 937.55 732.75 907 685.2 870.3 654.05 835.45 615.2 837.75 626.55 838.5 639.55 836.65 685.7 797.45 660.85
M 696.95 536.05
Q 700.5 526 695.45 517.75 667.45 559.3 630 590.8 616.8 605.95 619.4 625.85
L 633.05 779.55
Q 650.45 824 695.45 808.5 677.7 767.65 663.45 724.75 659.2 707.65 658.95 689.75 673.95 614.65 696.95 536.05 Z"/>
</g>

<g id="Layer3_1_MEMBER_0_MEMBER_0_MEMBER_11_FILL">
<path fill="#E3E3E4" stroke="none" d="
M 378.85 405.15
Q 372.3 409.2 363.7 412.75 321.65 462.45 313.45 526.85 328.2 513.85 345.35 504.05 390.2 457.7 439.75 412.75 410.6 405.9 378.85 405.15
M 760.95 466
Q 754.05 446.8 742.65 429.5 719.35 399.15 680.2 405.15 668.1 407.95 652.8 412.75 699.6 453.5 741.15 501 765.8 512.35 782.2 533 770.05 498.1 760.95 466 Z"/>
</g>

<g id="Layer3_1_MEMBER_0_MEMBER_0_MEMBER_12_FILL">
<path fill="#DBE1E7" stroke="none" d="
M 471.7 688.25
Q 470 732.2 465.6 773.45 458.55 810.85 421.45 817.6 438.95 826.1 453.45 840.45 488.45 912.1 544.75 968.3 602.7 915 636.15 843.5 650.05 827.75 668.05 817.6 626.65 809.8 623.95 767.35 622.9 722.1 616.3 679.1 616.3 748.6 608.7 819.1 598.6 881.3 555.45 927.2 544.6 930.35 534.15 927.2 486.8 874.55 480.85 803.85 476.7 744.25 471.7 688.25 Z"/>
</g>

<g id="Layer3_1_MEMBER_0_MEMBER_0_MEMBER_13_FILL">
<path fill="#E3E4E4" stroke="none" d="
M 394 517.75
Q 393.2 528.2 395.6 539.05 411.55 604.25 429.1 666.95 432.1 693 429.1 718.7 413.75 762.05 397.1 805.45 397.55 808.9 400.2 811.5 456.2 820.75 462.5 764.35 466.7 661.7 468.7 603 429.7 563.65 394 517.75
M 546.25 569.5
Q 539.65 564.25 537.2 555.8 525.95 553.65 515.9 554.3 494.15 563.15 474.75 578.6 479.95 676.25 483.85 776.5 486.05 824.15 502.2 867.85 515 903.7 544.75 925.7 557.95 921.7 566.05 910.45 590.5 869.05 602.65 822.2 610.6 717.05 614.75 606.05 624.15 589.85 613.25 575.6 591.15 557.45 563 554.3 549.45 556.5 546.25 569.5
M 604.15 621.25
Q 599.45 625.8 593.45 621.25
L 584.4 627.35
Q 568.45 622.7 552.4 625.85 549.75 632.3 546.25 639.55 542.8 631.85 537.2 625.85 520.8 622.7 505.2 627.35 498.8 617.85 489.95 624.3 481.4 620.15 491.5 616.7 516.35 609.85 540.2 606.05 544.15 594.1 543.25 581.7 550.9 592.95 552.4 607.55 579.8 609.2 604.15 621.25
M 503.7 692.8
Q 495.45 691.8 488.45 688.25 513.15 685.7 540.2 680.6 544.4 667.25 543.25 651.7 550.9 664.5 552.4 680.6 577.25 685.85 601.05 688.25 577.35 699.25 552.4 698.85 549.25 715.75 546.2 715.75 543.15 715.75 540.2 698.85 522.3 695.7 505.2 700.35 497 698.1 503.7 692.8
M 500.6 767.35
L 497.5 761.3
Q 511 757.1 537.2 756.75 544.05 745.15 546.25 730.85 549.25 741.7 552.4 755.2 565.8 759.75 579.75 758.25 589.7 752.45 601.05 758.25 600.5 761.05 598 761.3
L 585.9 761.3 588.95 767.35
Q 572.7 771.55 552.4 775
L 546.25 794.8
Q 543.6 784.05 537.2 775 518.55 772.75 500.6 767.35
M 543.25 806.95
Q 549.1 830.1 549.3 857.2
L 546.25 907.35
Q 541.75 856.75 543.25 806.95 Z"/>
</g>

<g id="Layer3_1_MEMBER_0_MEMBER_0_MEMBER_14_FILL">
<path fill="#5D6178" stroke="none" d="
M 549.3 857.2
Q 549.1 830.1 543.25 806.95 541.75 856.75 546.25 907.35
L 549.3 857.2 Z"/>
</g>

<g id="Layer3_1_MEMBER_0_MEMBER_0_MEMBER_15_FILL">
<path fill="#8D8FA0" stroke="none" d="
M 588.95 767.35
L 585.9 761.3 552.4 761.3 570.7 767.35 588.95 767.35 Z"/>
</g>

<g id="Layer3_1_MEMBER_0_MEMBER_0_MEMBER_16_FILL">
<path fill="#9697A7" stroke="none" d="
M 598 761.3
Q 600.5 761.05 601.05 758.25 589.7 752.45 579.75 758.25 589.95 757 598 761.3 Z"/>
</g>

<g id="Layer3_1_MEMBER_0_MEMBER_0_MEMBER_17_FILL">
<path fill="#464766" stroke="none" d="
M 540.2 761.3
Q 543.5 759.4 544.75 755.2 548 759.35 552.4 761.3
L 598 761.3
Q 589.95 757 579.75 758.25 565.8 759.75 552.4 755.2 549.25 741.7 546.25 730.85 544.05 745.15 537.2 756.75 511 757.1 497.5 761.3
L 540.2 761.3 Z"/>
</g>

<g id="Layer3_1_MEMBER_0_MEMBER_0_MEMBER_18_FILL">
<path fill="#DBDBDE" stroke="none" d="
M 544.75 755.2
Q 543.5 759.4 540.2 761.3
L 521.95 767.35
Q 535.2 766.45 546.25 773.45 556.95 765.85 570.7 767.35
L 552.4 761.3
Q 548 759.35 544.75 755.2 Z"/>
</g>

<g id="Layer3_1_MEMBER_0_MEMBER_0_MEMBER_19_FILL">
<path fill="#9295A4" stroke="none" d="
M 497.5 761.3
L 500.6 767.35 521.95 767.35 540.2 761.3 497.5 761.3 Z"/>
</g>

<g id="Layer3_1_MEMBER_0_MEMBER_0_MEMBER_20_FILL">
<path fill="#555672" stroke="none" d="
M 521.95 767.35
L 500.6 767.35
Q 518.55 772.75 537.2 775 543.6 784.05 546.25 794.8
L 552.4 775
Q 572.7 771.55 588.95 767.35
L 570.7 767.35
Q 556.95 765.85 546.25 773.45 535.2 766.45 521.95 767.35 Z"/>
</g>

<g id="Layer3_1_MEMBER_0_MEMBER_0_MEMBER_21_FILL">
<path fill="#5E607A" stroke="none" d="
M 488.45 688.25
Q 495.45 691.8 503.7 692.8 497 698.1 505.2 700.35 522.3 695.7 540.2 698.85 543.15 715.75 546.2 715.75 549.25 715.75 552.4 698.85 577.35 699.25 601.05 688.25 577.25 685.85 552.4 680.6 550.9 664.5 543.25 651.7 544.4 667.25 540.2 680.6 513.15 685.7 488.45 688.25
M 534.15 689.75
Q 540.55 688.25 543.25 682.1 568.65 688.3 546.25 697.35 540.65 692.65 534.15 689.75 Z"/>
</g>

<g id="Layer3_1_MEMBER_0_MEMBER_0_MEMBER_22_FILL">
<path fill="#D1D2D6" stroke="none" d="
M 543.25 682.1
Q 540.55 688.25 534.15 689.75 540.65 692.65 546.25 697.35 568.65 688.3 543.25 682.1 Z"/>
</g>

<g id="Layer3_1_MEMBER_0_MEMBER_0_MEMBER_23_FILL">
<path fill="#60637C" stroke="none" d="
M 593.45 621.25
Q 599.45 625.8 604.15 621.25 579.8 609.2 552.4 607.55 550.9 592.95 543.25 581.7 544.15 594.1 540.2 606.05 516.35 609.85 491.5 616.7 481.4 620.15 489.95 624.3 498.8 617.85 505.2 627.35 520.8 622.7 537.2 625.85 542.8 631.85 546.25 639.55 549.75 632.3 552.4 625.85 568.45 622.7 584.4 627.35
L 593.45 621.25
M 540.2 613.6
Q 542.5 612.05 543.25 609.1 558.45 616.25 576.7 616.7 560.4 617 546.25 624.3 531.15 617 512.75 616.7
L 540.2 613.6 Z"/>
</g>

<g id="Layer3_1_MEMBER_0_MEMBER_0_MEMBER_24_FILL">
<path fill="#CBCDD2" stroke="none" d="
M 543.25 609.1
Q 542.5 612.05 540.2 613.6
L 512.75 616.7
Q 531.15 617 546.25 624.3 560.4 617 576.7 616.7 558.45 616.25 543.25 609.1 Z"/>
</g>

<g id="Layer3_1_MEMBER_0_MEMBER_0_MEMBER_25_FILL">
<path fill="#CFD5DD" stroke="none" d="
M 543.25 523.85
Q 540.75 529.45 537.2 534.5 492.35 563.25 439.75 563.45 450.5 577.55 464.1 587.8 478.75 557.3 512.75 552.75 530.2 548.25 544.75 557.35 561.05 548.35 579.75 552.75 613.2 557.85 626.95 587.8
L 652.8 561.85
Q 611.05 563.05 573.7 546.7 556.25 537.75 543.25 523.85 Z"/>
</g>

<g id="Layer3_1_MEMBER_0_MEMBER_0_MEMBER_26_FILL">
<path fill="#DDDEE0" stroke="none" d="
M 613.25 379.25
Q 610 372.5 604.15 368.65 602.7 383.9 607.2 399 626.55 402.5 645.2 408.15 655.25 405.45 665 403.65 638.2 392.35 613.25 379.25
M 485.45 368.65
Q 476.1 381.75 461 388.4 440.45 395.95 424.5 403.65 435.05 404.95 445.75 408.15 465.1 400.5 485.45 402.15 489.65 384.7 485.45 368.65 Z"/>
</g>

<g id="Layer3_1_MEMBER_0_MEMBER_0_MEMBER_27_FILL">
<path fill="#DEE4EA" stroke="none" d="
M 494.5 310.75
Q 495.25 349.85 493 386.9 490.8 393.6 488.45 399 509.8 404.15 528 409.65 539.4 412.9 544.75 423.4 569.1 403.95 601.05 399 594.85 355.85 593.45 313.75 542.45 357.35 494.5 310.75 Z"/>
</g>

<g id="Layer3_1_MEMBER_0_MEMBER_0_MEMBER_28_FILL">
<path fill="#CFD4DC" stroke="none" d="
M 631.5 237.7
Q 632.4 226.15 622.45 222.5 622.7 243.4 616.3 262
L 619.4 265.15
Q 628.85 253.55 631.5 237.7 Z"/>
</g>

<g id="Layer3_1_MEMBER_0_MEMBER_0_MEMBER_29_FILL">
<path fill="#D0D6DD" stroke="none" d="
M 473.2 265.15
L 476.25 262
Q 471.1 241.45 464.1 222.5 455.85 246.8 473.2 265.15 Z"/>
</g>

<g id="Layer3_1_MEMBER_0_MEMBER_0_MEMBER_30_FILL">
<path fill="#DFE5EB" stroke="none" d="
M 515.9 158.5
Q 502.4 169.8 489.95 182.9 470.25 215.6 477.75 252.9 489.2 275.85 496 301.65 543.25 360.1 593.45 304.65 602.45 275.8 614.75 246.9 624.35 213.7 598 193.5 556.4 178.5 515.9 158.5 Z"/>
</g>

<g id="Layer3_1_MEMBER_0_MEMBER_0_MEMBER_31_FILL">
<path fill="#DCE1E8" stroke="none" d="
M 540.2 131.15
Q 542.45 126.75 546.25 129.65 555.3 143.55 567.65 154 585.35 165.45 605.7 179.85 601.75 164.3 595 149.45
L 598 146.4
Q 618 180.6 622.45 219.45 628.2 218.9 633.05 222.5 641.75 263.2 605.7 280.25 596.8 308 605.7 335.15 608.55 341.25 611.7 335.15 672.45 252.2 645.2 152.45 614.9 64.1 521.95 82.45 506.25 89.25 496 103.7 494.15 101.9 491.5 100.7 450.6 127.55 447.35 176.75 437.6 261.8 485.45 332 492.55 302.4 480.85 274.25 449.65 260.3 456.45 225.5 465.2 218.75 470.2 208.75 471.4 178.15 491.5 155.5
L 494.5 158.5
Q 485.05 169.85 483.85 182.9 498 168 512.75 155.5 509 151.3 511.25 146.4 529.45 159.95 549.3 169.2 580.25 178.65 608.7 195.1 607.8 185.15 598 178.35 561.9 163.5 540.2 131.15 Z"/>
</g>
</defs>

<g transform="matrix( 1, 0, 0, 1, 0,0) ">
<use xlink:href="#Layer3_1_MEMBER_0_MEMBER_0_MEMBER_0_FILL"/>
</g>

<g transform="matrix( 1, 0, 0, 1, 0,0) ">
<use xlink:href="#Layer3_1_MEMBER_0_MEMBER_0_MEMBER_1_FILL"/>
</g>

<g transform="matrix( 1, 0, 0, 1, 0,0) ">
<use xlink:href="#Layer3_1_MEMBER_0_MEMBER_0_MEMBER_2_FILL"/>
</g>

<g transform="matrix( 1, 0, 0, 1, 0,0) ">
<use xlink:href="#Layer3_1_MEMBER_0_MEMBER_0_MEMBER_3_FILL"/>
</g>

<g transform="matrix( 1, 0, 0, 1, 0,0) ">
<use xlink:href="#Layer3_1_MEMBER_0_MEMBER_0_MEMBER_4_FILL"/>
</g>

<g transform="matrix( 1, 0, 0, 1, 0,0) ">
<use xlink:href="#Layer3_1_MEMBER_0_MEMBER_0_MEMBER_5_FILL"/>
</g>

<g transform="matrix( 1, 0, 0, 1, 0,0) ">
<use xlink:href="#Layer3_1_MEMBER_0_MEMBER_0_MEMBER_6_FILL"/>
</g>

<g transform="matrix( 1, 0, 0, 1, 0,0) ">
<use xlink:href="#Layer3_1_MEMBER_0_MEMBER_0_MEMBER_7_FILL"/>
</g>

<g transform="matrix( 1, 0, 0, 1, 0,0) ">
<use xlink:href="#Layer3_1_MEMBER_0_MEMBER_0_MEMBER_8_FILL"/>
</g>

<g transform="matrix( 1, 0, 0, 1, 0,0) ">
<use xlink:href="#Layer3_1_MEMBER_0_MEMBER_0_MEMBER_9_FILL"/>
</g>

<g transform="matrix( 1, 0, 0, 1, 0,0) ">
<use xlink:href="#Layer3_1_MEMBER_0_MEMBER_0_MEMBER_10_FILL"/>
</g>

<g transform="matrix( 1, 0, 0, 1, 0,0) ">
<use xlink:href="#Layer3_1_MEMBER_0_MEMBER_0_MEMBER_11_FILL"/>
</g>

<g transform="matrix( 1, 0, 0, 1, 0,0) ">
<use xlink:href="#Layer3_1_MEMBER_0_MEMBER_0_MEMBER_12_FILL"/>
</g>

<g transform="matrix( 1, 0, 0, 1, 0,0) ">
<use xlink:href="#Layer3_1_MEMBER_0_MEMBER_0_MEMBER_13_FILL"/>
</g>

<g transform="matrix( 1, 0, 0, 1, 0,0) ">
<use xlink:href="#Layer3_1_MEMBER_0_MEMBER_0_MEMBER_14_FILL"/>
</g>

<g transform="matrix( 1, 0, 0, 1, 0,0) ">
<use xlink:href="#Layer3_1_MEMBER_0_MEMBER_0_MEMBER_15_FILL"/>
</g>

<g transform="matrix( 1, 0, 0, 1, 0,0) ">
<use xlink:href="#Layer3_1_MEMBER_0_MEMBER_0_MEMBER_16_FILL"/>
</g>

<g transform="matrix( 1, 0, 0, 1, 0,0) ">
<use xlink:href="#Layer3_1_MEMBER_0_MEMBER_0_MEMBER_17_FILL"/>
</g>

<g transform="matrix( 1, 0, 0, 1, 0,0) ">
<use xlink:href="#Layer3_1_MEMBER_0_MEMBER_0_MEMBER_18_FILL"/>
</g>

<g transform="matrix( 1, 0, 0, 1, 0,0) ">
<use xlink:href="#Layer3_1_MEMBER_0_MEMBER_0_MEMBER_19_FILL"/>
</g>

<g transform="matrix( 1, 0, 0, 1, 0,0) ">
<use xlink:href="#Layer3_1_MEMBER_0_MEMBER_0_MEMBER_20_FILL"/>
</g>

<g transform="matrix( 1, 0, 0, 1, 0,0) ">
<use xlink:href="#Layer3_1_MEMBER_0_MEMBER_0_MEMBER_21_FILL"/>
</g>

<g transform="matrix( 1, 0, 0, 1, 0,0) ">
<use xlink:href="#Layer3_1_MEMBER_0_MEMBER_0_MEMBER_22_FILL"/>
</g>

<g transform="matrix( 1, 0, 0, 1, 0,0) ">
<use xlink:href="#Layer3_1_MEMBER_0_MEMBER_0_MEMBER_23_FILL"/>
</g>

<g transform="matrix( 1, 0, 0, 1, 0,0) ">
<use xlink:href="#Layer3_1_MEMBER_0_MEMBER_0_MEMBER_24_FILL"/>
</g>

<g transform="matrix( 1, 0, 0, 1, 0,0) ">
<use xlink:href="#Layer3_1_MEMBER_0_MEMBER_0_MEMBER_25_FILL"/>
</g>

<g transform="matrix( 1, 0, 0, 1, 0,0) ">
<use xlink:href="#Layer3_1_MEMBER_0_MEMBER_0_MEMBER_26_FILL"/>
</g>

<g transform="matrix( 1, 0, 0, 1, 0,0) ">
<use xlink:href="#Layer3_1_MEMBER_0_MEMBER_0_MEMBER_27_FILL"/>
</g>

<g transform="matrix( 1, 0, 0, 1, 0,0) ">
<use xlink:href="#Layer3_1_MEMBER_0_MEMBER_0_MEMBER_28_FILL"/>
</g>

<g transform="matrix( 1, 0, 0, 1, 0,0) ">
<use xlink:href="#Layer3_1_MEMBER_0_MEMBER_0_MEMBER_29_FILL"/>
</g>

<g transform="matrix( 1, 0, 0, 1, 0,0) ">
<use xlink:href="#Layer3_1_MEMBER_0_MEMBER_0_MEMBER_30_FILL"/>
</g>

<g transform="matrix( 1, 0, 0, 1, 0,0) ">
<use xlink:href="#Layer3_1_MEMBER_0_MEMBER_0_MEMBER_31_FILL"/>
</g>
</svg>
