
<svg xmlns="http://www.w3.org/2000/svg" version="1.1" xmlns:xlink="http://www.w3.org/1999/xlink" preserveAspectRatio="none" x="0px" y="0px" width="1080px" height="1920px" viewBox="0 0 1080 1920">
<defs>
<image id="S_logo_7_png" x="0" y="0" width="2816" height="2816" xlink:href="./images/S_logo_7_png.png"/>

<g id="Layer4_0_FILL">
<path fill="#575974" stroke="none" d="
M -3936.35 4781.35
Q -3923.35 4809.45 -3905.35 4834.8 -3899.5 4843 -3892.7 4850.7 -3875 4870.65 -3849.85 4880 -3814.4 4893.35 -3776.15 4894 -3759.8 4894.3 -3743.9 4894.25 -3637.6 4894 -3532.3 4880.65 -3508.75 4877.45 -3485.45 4873.4 -3449.75 4867.35 -3414.65 4856.8 -3399.85 4852.3 -3385.75 4845.95 -3371.8 4839.65 -3358.45 4831.5 -3355.75 4829.9 -3353.15 4828.2 -3350.55 4826.5 -3347.95 4824.75 -3346.75 4823.95 -3345.6 4823.1 -3337.85 4817.45 -3330.85 4809.8 -3320.05 4798.05 -3313.8 4784 -3310.05 4775.55 -3307.45 4766.65 -3304.6 4756.75 -3303.4 4746.35 -3302.2 4735.7 -3303.35 4725.35 -3304.25 4717.35 -3305.95 4709.2 -3307.85 4700.1 -3310.1 4691.1 -3312.3 4682.05 -3314.85 4673.1 -3317.4 4664.1 -3320.05 4655.2 -3325.15 4637.95 -3332.15 4621.4 -3342.15 4597.8 -3356.8 4576.5 -3358.05 4574.7 -3359.55 4573.2 -3381.65 4550.55 -3409.05 4534.55 -3447.95 4511.75 -3489.35 4493.7 -3548.7 4467.95 -3611 4450.3 -3612.7 4449.8 -3614.4 4449.3 -3611.35 4448.5 -3608.3 4447.75 -3592.95 4443.55 -3578.1 4438.8 -3564.95 4434.4 -3553.25 4427.1 -3536.35 4416.6 -3528.15 4398.15 -3519.5 4378.7 -3531.35 4361.4 -3537.95 4351.75 -3549 4348.6 -3559.55 4345.75 -3570.05 4349.55 -3587.2 4355.95 -3604.6 4361.6 -3619.7 4366.5 -3634.8 4369.45 -3647.45 4371.8 -3659.35 4375.95 -3668.8 4379.25 -3678.25 4382.5 -3687.7 4385.9 -3697.15 4389.2 -3706.7 4392.4 -3716.1 4395.9 -3732.75 4401.85 -3750.3 4405.2 -3767.2 4408.6 -3784.6 4407.45 -3802.4 4406.85 -3819.45 4404.8 -3837.5 4402.6 -3855.35 4400 -3875.1 4397 -3894.5 4395.35 -3909.6 4394.45 -3923.95 4393.7 -3943.45 4393.35 -3962.95 4393.25 -3982.5 4393.1 -4002 4393.1 -4021.9 4393.15 -4041.75 4392.95 -4060.75 4392.75 -4079.15 4395.9 -4086.55 4397.05 -4093.95 4398.15 -4103.6 4399.35 -4110.2 4405.95 -4124.45 4420.25 -4120.25 4440.15 -4119.75 4442.55 -4118.7 4444.75 -4113.55 4455.35 -4103.3 4461.85 -4085.75 4472.95 -4065 4470.5 -4064 4470.5 -4063 4470.5
L -3899.35 4473.55
Q -3919.1 4487.9 -3933.95 4506.9 -3943 4518.6 -3949.85 4531.4 -3953.5 4538.15 -3956.25 4544.7 -3960.1 4553.95 -3963 4563.35 -3967.35 4577.5 -3969.75 4592.15 -3972.15 4606.7 -3972.45 4621.6 -3972.7 4636.1 -3971.9 4650.55 -3971.15 4664.8 -3968.7 4678.7 -3965.2 4698.2 -3959.85 4717.35 -3950.65 4750.25 -3936.35 4781.35
M -3402.7 4767.15
Q -3419.4 4777.15 -3438.45 4782.1 -3456.2 4786.6 -3474.25 4790.2 -3493.6 4793.95 -3512.35 4796.85 -3532.3 4799.85 -3551.8 4802.3 -3567.25 4804.3 -3581.75 4805.35 -3601.4 4806.7 -3621.05 4808.1 -3640.35 4808.85 -3659.6 4809.3 -3679.1 4809.8 -3698.55 4809.85 -3718.25 4809.9 -3737.95 4809.4 -3752.65 4809.05 -3767.55 4809.4 -3780.7 4810.45 -3793.9 4809.55 -3812.1 4807.85 -3828.5 4799.75 -3846.55 4790.95 -3856.85 4774 -3867.2 4756.95 -3874.45 4738.35 -3881.65 4719.75 -3886.35 4700.3 -3890.95 4681.05 -3893.15 4661.35 -3895.35 4641.8 -3895.5 4621.9 -3895.65 4606.5 -3891.3 4591.65 -3885.75 4572.7 -3873.8 4556.9 -3861.8 4540.95 -3845.1 4529.5 -3828.3 4518.05 -3809.05 4512.7 -3790.1 4507.25 -3770.7 4504.8 -3751.5 4502.75 -3731.65 4503.3 -3711.95 4504.2 -3692.1 4507.15 -3672.6 4510.2 -3653.4 4515.35 -3634.4 4520.55 -3615.6 4526.95 -3596.95 4533.2 -3578.4 4540.55 -3559.9 4547.8 -3541.55 4555.4 -3523.25 4562.9 -3505.05 4570.65 -3487.05 4578.4 -3469.75 4587.95 -3452.75 4597.45 -3436.4 4608.65 -3422.45 4618.25 -3412.75 4631.95 -3401.25 4648.25 -3394 4667 -3386.8 4685.65 -3384.1 4705.4 -3383.65 4706.75 -3383.2 4708.1 -3377.05 4726.85 -3381.85 4745.75 -3383.4 4751.75 -3387.75 4755.85 -3394.55 4762.35 -3402.7 4767.15
M 11555.75 -3945.55
Q 11563.5 -3951.2 11570.5 -3958.85 11581.3 -3970.6 11587.55 -3984.65 11591.3 -3993.1 11593.9 -4002 11596.75 -4011.9 11597.95 -4022.3 11599.15 -4032.95 11598 -4043.3 11597.1 -4051.3 11595.4 -4059.45 11593.5 -4068.55 11591.25 -4077.55 11589.05 -4086.6 11586.5 -4095.55 11583.95 -4104.55 11581.3 -4113.45 11576.2 -4130.7 11569.2 -4147.25 11559.2 -4170.85 11544.55 -4192.15 11543.3 -4193.95 11541.8 -4195.45 11519.7 -4218.1 11492.3 -4234.1 11453.4 -4256.9 11412 -4274.95 11352.65 -4300.7 11290.35 -4318.35 11288.65 -4318.85 11286.95 -4319.35 11290 -4320.15 11293.05 -4320.9 11308.4 -4325.1 11323.25 -4329.85 11336.4 -4334.25 11348.1 -4341.55 11365 -4352.05 11373.2 -4370.5 11381.85 -4389.95 11370 -4407.25 11363.4 -4416.9 11352.35 -4420.05 11341.8 -4422.9 11331.3 -4419.1 11314.15 -4412.7 11296.75 -4407.05 11281.65 -4402.15 11266.55 -4399.2 11253.9 -4396.85 11242 -4392.7 11232.55 -4389.4 11223.1 -4386.15 11213.65 -4382.75 11204.2 -4379.45 11194.65 -4376.25 11185.25 -4372.75 11168.6 -4366.8 11151.05 -4363.45 11134.15 -4360.05 11116.75 -4361.2 11098.95 -4361.8 11081.9 -4363.85 11063.85 -4366.05 11046 -4368.65 11026.25 -4371.65 11006.85 -4373.3 10991.75 -4374.2 10977.4 -4374.95 10957.9 -4375.3 10938.4 -4375.4 10918.85 -4375.55 10899.35 -4375.55 10879.45 -4375.5 10859.6 -4375.7 10840.6 -4375.9 10822.2 -4372.75 10814.8 -4371.6 10807.4 -4370.5 10797.75 -4369.3 10791.15 -4362.7 10776.9 -4348.4 10781.1 -4328.5 10781.6 -4326.1 10782.65 -4323.9 10787.8 -4313.3 10798.05 -4306.8 10815.6 -4295.7 10836.35 -4298.15 10837.35 -4298.15 10838.35 -4298.15
L 11002 -4295.1
Q 10982.25 -4280.75 10967.4 -4261.75 10958.35 -4250.05 10951.5 -4237.25 10947.85 -4230.5 10945.1 -4223.95 10941.25 -4214.7 10938.35 -4205.3 10934 -4191.15 10931.6 -4176.5 10929.2 -4161.95 10928.9 -4147.05 10928.65 -4132.55 10929.45 -4118.1 10930.2 -4103.85 10932.65 -4089.95 10936.15 -4070.45 10941.5 -4051.3 10950.7 -4018.4 10965 -3987.3 10978 -3959.2 10996 -3933.85 11001.85 -3925.65 11008.65 -3917.95 11026.35 -3898 11051.5 -3888.65 11086.95 -3875.3 11125.2 -3874.65 11141.55 -3874.35 11157.45 -3874.4 11263.75 -3874.65 11369.05 -3888 11392.6 -3891.2 11415.9 -3895.25 11451.6 -3901.3 11486.7 -3911.85 11501.5 -3916.35 11515.6 -3922.7 11529.55 -3929 11542.9 -3937.15 11545.6 -3938.75 11548.2 -3940.45 11550.8 -3942.15 11553.4 -3943.9 11554.6 -3944.7 11555.75 -3945.55
M 11044.5 -3994.65
Q 11034.15 -4011.7 11026.9 -4030.3 11019.7 -4048.9 11015 -4068.35 11010.4 -4087.6 11008.2 -4107.3 11006 -4126.85 11005.85 -4146.75 11005.7 -4162.15 11010.05 -4177 11015.6 -4195.95 11027.55 -4211.75 11039.55 -4227.7 11056.25 -4239.15 11073.05 -4250.6 11092.3 -4255.95 11111.25 -4261.4 11130.65 -4263.85 11149.85 -4265.9 11169.7 -4265.35 11189.4 -4264.45 11209.25 -4261.5 11228.75 -4258.45 11247.95 -4253.3 11266.95 -4248.1 11285.75 -4241.7 11304.4 -4235.45 11322.95 -4228.1 11341.45 -4220.85 11359.8 -4213.25 11378.1 -4205.75 11396.3 -4198 11414.3 -4190.25 11431.6 -4180.7 11448.6 -4171.2 11464.95 -4160 11478.9 -4150.4 11488.6 -4136.7 11500.1 -4120.4 11507.35 -4101.65 11514.55 -4083 11517.25 -4063.25 11517.7 -4061.9 11518.15 -4060.55 11524.3 -4041.8 11519.5 -4022.9 11517.95 -4016.9 11513.6 -4012.8 11506.8 -4006.3 11498.65 -4001.5 11481.95 -3991.5 11462.9 -3986.55 11445.15 -3982.05 11427.1 -3978.45 11407.75 -3974.7 11389 -3971.8 11369.05 -3968.8 11349.55 -3966.35 11334.1 -3964.35 11319.6 -3963.3 11299.95 -3961.95 11280.3 -3960.55 11261 -3959.8 11241.75 -3959.35 11222.25 -3958.85 11202.8 -3958.8 11183.1 -3958.75 11163.4 -3959.25 11148.7 -3959.6 11133.8 -3959.25 11120.65 -3958.2 11107.45 -3959.1 11089.25 -3960.8 11072.85 -3968.9 11054.8 -3977.7 11044.5 -3994.65 Z"/>

<path fill="#045EB8" stroke="none" d="
M 4913.2 -655.2
Q 4908.9 -652.75 4904.1 -651.4 4883.4 -645.75 4866.7 -659.1 4865.45 -660.15 4864.75 -661.45 4855.85 -677.15 4838.25 -679.7 4824.7 -648.95 4819.85 -615.8 4813.3 -570.9 4824.7 -527.25 4826.75 -519.35 4830.55 -512.75 4837.15 -501.35 4850.5 -503.8
L 4882.65 -548.15 4888.75 -545.1 4901 -499.2
Q 4903.05 -498.3 4905.15 -497.55 4910.35 -495.75 4915.5 -497.65 4928.3 -502.25 4934.4 -514.75 4935.2 -516.3 4935.6 -518 4945.25 -556.7 4939.8 -596.4 4938.15 -608.45 4937.45 -620.7 4937.05 -627.15 4935.3 -633.5 4930.5 -650.55 4913.2 -655.2
M 3675.3 -1438.8
L 3673.15 -1444.4
Q 3659.1 -1432.15 3647.05 -1417.9 3635 -1403.6 3625.35 -1387.7 3615.2 -1370.95 3606.3 -1353.45 3597.45 -1336 3590.25 -1317.85 3583 -1299.65 3576.2 -1281.25 3571.1 -1267.45 3565.95 -1253.6 3561.65 -1241.95 3560.1 -1229.75 3558.8 -1219.7 3567.65 -1214.1 3577.55 -1207.95 3587.9 -1214.5 3591.05 -1216.5 3593.7 -1219.05 3608.05 -1233.2 3622.4 -1247.35 3629.55 -1254.4 3636.6 -1261.55 3643.65 -1268.7 3650.7 -1275.85 3661.1 -1286.4 3670.55 -1297.6 3683.2 -1312.7 3694.25 -1328.9 3706.2 -1346.5 3717.3 -1364.85 3725.35 -1378.15 3733.4 -1391.4 3727.25 -1388.8 3720.65 -1387.85 3714.6 -1387 3708.4 -1387.6 3702.35 -1388.3 3696.7 -1390.75 3690.55 -1393.35 3685.5 -1397.25 3684.5 -1397.95 3683.7 -1398.9 3682.9 -1399.85 3682.3 -1400.9 3676.25 -1411.6 3675.1 -1423.85 3674.4 -1431.3 3675.3 -1438.8
M 3812.3 -1497.5
Q 3818.8 -1515.2 3815.85 -1534.2 3813.4 -1550.05 3803.8 -1562.7 3779.8 -1567.55 3756.25 -1560.9 3732.35 -1554.2 3717.7 -1534.75 3699.6 -1510.65 3690.5 -1482 3686.25 -1468.55 3683.7 -1454.7 3682.55 -1448.3 3681.4 -1441.85 3678.8 -1421.65 3686.9 -1403.1 3688.4 -1399.6 3691.6 -1397.8 3710.05 -1387 3727.4 -1399.35 3732.6 -1403.05 3737.45 -1407.2 3752.35 -1419.85 3765.5 -1434.3 3775.45 -1445.2 3784.45 -1456.85 3795.9 -1471.7 3806.85 -1487.2 3810.3 -1492.05 3812.3 -1497.5
M 5033.05 -1503.4
Q 5031.2 -1494.7 5025 -1488.5 5018.65 -1482.05 5009.85 -1480.75 5005.55 -1482.45 5002.45 -1486.2 4996.05 -1493.85 4993.25 -1503.4
L 4933.6 -1281.6
Q 4956.6 -1282.55 4977.8 -1273.95 4990.35 -1268.9 4999.35 -1259.25 5001.5 -1257 5003.15 -1254.3 5008.1 -1246.35 5010.1 -1237.25 5018.95 -1258.15 5038.4 -1269.7 5062 -1283.6 5089.65 -1280.05
L 5034.55 -1485.05 5033.05 -1503.4
M 3936.45 -1131.95
Q 3929.55 -1149.3 3917.75 -1163.8 3906.15 -1178.1 3890.8 -1188.6 3874.25 -1199.9 3855.2 -1205.85 3853.2 -1206.45 3851.25 -1207
L 3811.85 -956.6 3839.05 -745.05 3869.65 -745.05
Q 3872.8 -735.15 3875.75 -725.1 3877.65 -718.7 3881.35 -713.2 3882.4447265625 -711.5962890625 3883.7 -710.2
L 3916.55 -710.2
Q 3923.1935546875 -715.5541015625 3926.6 -723.55 3927.5 -725.6 3928.2 -727.75 3929.9 -733 3931.5 -738.3 3944.75 -782.15 3952.65 -826.9 3957.55 -854.7 3967.75 -881.1 3976.3 -903.3 3982.3 -926.4 3993.2 -968.15 3994.8 -1011.3 3994.95 -1015.85 3995.05 -1020.4 3993.35 -1020.6 3991.7 -1020.75 3986.65 -1021.5 3983.45 -1025.35 3971 -1040.5 3963.95 -1058.85 3959.7 -1070 3955.7 -1081.2 3946.45 -1106.75 3936.45 -1131.95
M 4148.75 -1198.85
L 4140.35 -1203.95
Q 4127.9 -1199.65 4116.55 -1193.25 4105.25 -1186.85 4096.1 -1177.5 4071.65 -1152.45 4058.2 -1119.55 4056.8 -1116.2 4055.4 -1112.85 4046.4 -1091.5 4042 -1068.75 4039.55 -1055.9 4032.95 -1044.4 4028.35 -1036.4 4022 -1029.95 4016.75 -1024.65 4010.35 -1020.4 4009.4 -1012.2 4008.85 -1004 4008.3 -995.85 4008.4 -987.7 4008.65 -966.8 4013.6 -946.55 4015.2 -940.05 4017.45 -933.85 4036.15 -882.5 4048 -829.1 4054.65 -799.3 4059.8 -769.1 4064.45 -741.75 4078.6 -717.95 4079.1 -717.05 4079.8 -716.15 4082.4 -712.8181640625 4085.55 -710.2
L 4116.5 -710.2
Q 4124.8650390625 -728.25234375 4132.7 -746.6
L 4160.25 -746.75
Q 4161.7 -749.35 4163.1 -751.95 4172 -768.6 4176.7 -786.55 4181.7 -805.5 4184.5 -825.1 4187.25 -844.6 4187.8 -864.35
L 4148.75 -1198.85
M 4072.2 -1450.7
Q 4073.05 -1464.15 4073.9 -1477.55 4074.3 -1484.3 4074.7 -1491.05
L 4002.8 -1517.05 3993.65 -1503.3
Q 3989.25 -1512.8 3979.8 -1516.95 3974.2 -1519.25 3968.05 -1518.85 3958.95 -1517.95 3950.2 -1514.75 3938.8 -1510.6 3927.95 -1505.15 3923.15 -1502.75 3919.2 -1499.4 3917.1 -1497.65 3915.3 -1495.6 3913.5 -1493.6 3912.05 -1491.3 3910.65 -1488.95 3909.6 -1486.4 3908.85 -1484.6 3908.5 -1482.7 3908.15 -1480.75 3908.6 -1478.95 3909.5 -1475.4 3911 -1471.95 3911.75 -1470.3 3912.4 -1468.55 3918.8 -1451.3 3918.75 -1432.95 3918.75 -1424.55 3918 -1416.05 3917.25 -1407.35 3917.45 -1398.8 3918.75 -1340.75 3923.8 -1283.05 3927.55 -1240.3 3943.8 -1200.7 3953.75 -1176.55 3971.3 -1157 3979 -1148.5 3989.5 -1144 3991.6 -1143.2 3993.65 -1142.3 4011.9 -1151 4024.8 -1166.4 4036.1 -1179.85 4041.8 -1196.6 4047.95 -1214.65 4052.45 -1233.15 4057 -1251.7 4058.9 -1270.9 4060.25 -1284.6 4061.35 -1298.35 4062.95 -1318.15 4064.4 -1337.95 4065.85 -1357.8 4067.2 -1377.6 4068.6 -1397.5 4069.95 -1417.4 4071.1 -1434.05 4072.2 -1450.7
M 3945.65 -1448.25
L 3944.7 -1451.3 3926.3 -1451.3 3956.9 -1460.45
Q 3971.3 -1454.15 3983.4 -1463.5 3989.3 -1468 3991.95 -1474.9 3994.35 -1481.25 3993.65 -1488
L 3999.75 -1463.55 4060.95 -1449.75
Q 4030.35 -1448.25 3999.75 -1446.7
L 3992.1 -1432.95 3984.45 -1446.7 3945.65 -1448.25
M 3990.55 -1417.65
L 3999.75 -1388.6 4054.8 -1380.95 4039.5 -1376.35 4042.55 -1373.3 3999.75 -1370.2 3993.55 -1353.2 3987.5 -1370.2 3929.4 -1380.95 3984.45 -1388.6 3990.55 -1417.65
M 4042.55 -1307.5
L 4039.5 -1298.35 3999.75 -1293.75 3993.65 -1273.85 3984.45 -1293.75 3944.7 -1301.4 3944.7 -1307.5 3984.45 -1312.1 3993.65 -1338.1 3999.75 -1312.1 4042.55 -1307.5
M 4270.3 -1395.95
L 4268.8 -1392.9 4412.55 -1210.9
Q 4423.6 -1208.3 4433.8 -1213 4436.55 -1214.3 4438.4 -1216.75 4448.6 -1230.3 4442.35 -1246.1 4435 -1264.5 4427.6 -1282.8 4420.15 -1301.25 4412.95 -1319.7 4405.7 -1338.05 4396.7 -1355.6 4387.65 -1373.2 4377.1 -1389.85 4366.45 -1406.55 4353.9 -1422 4341.3 -1437.4 4326.9 -1451.05 4328.2 -1444.4 4329.25 -1437.7 4332.25 -1418.25 4321.2 -1402.15 4319.5 -1399.7 4317.6 -1397.4 4316.75 -1396.35 4315.75 -1395.4 4312.8 -1392.45 4309.1 -1390.95 4304.3 -1388.9 4299.05 -1388.1 4293 -1387.15 4286.9 -1388.55 4277.8 -1390.3 4270.3 -1395.95
M 4270.55 -1551.15
Q 4262.65 -1557.95 4252.7 -1561.05 4234.65 -1566.85 4215.95 -1563.55 4202.45 -1561.4 4192.2 -1552.75 4190.65 -1551.4 4189.65 -1549.5 4185.6 -1542.05 4186.2 -1533.65 4184.8 -1513.45 4192.2 -1494.85 4199.75 -1476.05 4214.45 -1462.2 4227.2 -1450.2 4238.45 -1436.8 4248.6 -1424.8 4259.15 -1413.05 4264.9 -1406.7 4271.05 -1400.7 4273.7 -1398.05 4277.4 -1396.85 4297.45 -1390.65 4314.35 -1402.75 4322.3 -1408.45 4323.3 -1418.45 4323.7 -1422.15 4323.9 -1425.8 4325 -1443.45 4320.25 -1460.5 4315.05 -1479.15 4307.8 -1497.2 4301.15 -1513.8 4290.9 -1528.55 4282.1 -1541.2 4270.55 -1551.15
M 4130.45 -1698.8
Q 4110.6 -1697.65 4091.5 -1692
L 4112.95 -1678.25 4213.9 -1580.35 4229.2 -1577.3 4259.75 -1568.1 4262.85 -1572.7
Q 4261.35 -1578.45 4259.8 -1584.15 4254.05 -1605 4245.55 -1625 4240.25 -1637.4 4233.6 -1648.95 4225.45 -1663.1 4214.25 -1674.8 4210.7 -1678.55 4206.05 -1681.35 4189.45 -1691.45 4170.3 -1695.8 4150.55 -1700.4 4130.45 -1698.8
M 4002.85 -1673.2
Q 3999.15 -1649.05 3998.8 -1624.75 3998.45 -1600.4 4001.75 -1576.55 4002.8 -1569.1 4004.25 -1561.7 4004.6 -1559.95 4005.45 -1558.3 4011.4 -1546.3 4020.75 -1536.7 4031.25 -1525.95 4044.9 -1519.4 4057.4 -1513.35 4071.35 -1511.6 4093.8 -1508.6 4115.15 -1515.9 4126.75 -1519.7 4137.45 -1525.65 4148.15 -1531.5 4157.5 -1539.4 4165.05 -1545.75 4171.2 -1553.2 4175.95 -1558.9 4181.75 -1563.6 4190.5 -1570.65 4201.65 -1571.95 4203.95 -1572.1 4206.25 -1572.25 4190.35 -1583.6 4176.65 -1597.45 4162.85 -1611.35 4151.65 -1627.2 4140.75 -1642.55 4127.45 -1656.1 4115 -1668.85 4099.25 -1677.2 4081.75 -1686.5 4061.95 -1688.65 4042.2 -1691.15 4023.25 -1685.75 4011.35 -1682.35 4002.85 -1673.2
M 3948.8 -1689.5
Q 3935.25 -1690.65 3921.8 -1687.8 3908.2 -1684.7 3895.6 -1678.75 3871.75 -1667.7 3855.1 -1647.05 3838.45 -1626.3 3820.5 -1606.8 3806 -1591 3789.6 -1576.95 3786.85 -1574.55 3784.1 -1572.25 3803.45 -1569.05 3817.9 -1555.9 3826.45 -1548.2 3833.65 -1539.15 3835.65 -1536.55 3838.2 -1534.45 3854.55 -1520.7 3875.15 -1514.75 3892.65 -1509.6 3910.8 -1510.65 3914.75 -1510.85 3918.7 -1511.05 3938.55 -1514.45 3955.4 -1525.65 3972.2 -1536.75 3982.9 -1553.95 3989.2 -1564.1 3991.3 -1575.75 3994.4 -1593.2 3994.35 -1610.95 3994.35 -1628.5 3991.9 -1645.95 3990.75 -1654 3989.9 -1662.1 3989.5 -1666.15 3989.05 -1670.15 3972.3 -1686.9 3948.8 -1689.5
M 3889.8 -1685.3
Q 3894.3 -1688.65 3898.8 -1692
L 3831.5 -1699.65
Q 3824.5 -1697.75 3817.6 -1695.55 3812.45 -1693.95 3807.5 -1691.95 3799.25 -1688.5 3791.45 -1683.95 3776.85 -1675.55 3766.6 -1662.7 3758.75 -1652.85 3752.9 -1641.5 3747.55 -1631.05 3743.75 -1619.9 3739.8 -1608.4 3736.4 -1596.6 3733.05 -1584.95 3730.6 -1572.95 3729.8 -1569 3729 -1565.05 3746.45 -1570.35 3763.05 -1577.3 3778.85 -1583.9 3792.2 -1594.25 3805.9 -1604.85 3818.2 -1617.25 3829.5 -1628.65 3840.4 -1640.55 3851.7 -1652.9 3864.05 -1664 3876.4 -1675.2 3889.8 -1685.3
M 5098.8 -1683.95
L 4924.45 -1683.95 5011.6 -1485.95 5098.8 -1683.95
M 4817.35 -1615.05
Q 4817 -1608.3 4816.75 -1601.55 4816.2 -1588 4816.7 -1574.55 4817.05 -1565.15 4818.1 -1555.7 4819.9 -1539.75 4822.8 -1523.95 4825.2 -1510.7 4828.7 -1497.95 4834.3 -1477.55 4843.9 -1458.75 4850.95 -1445.05 4856.35 -1430.65 4860.55 -1419.55 4862.65 -1408.05 4868.9 -1373.65 4868.45 -1338.65 4867.9 -1295.2 4861.4 -1252.1 4860.05 -1243.15 4858.65 -1234.15 4863.25 -1238.85 4868.05 -1243.4 4882.2 -1256.9 4899.4 -1266.65 4901 -1267.55 4902.75 -1267.95 4918.25 -1272 4928.85 -1283.65 4930.65 -1285.7 4930.85 -1288.2 4932 -1303.1 4933.25 -1318 4934.4 -1332.1 4935.65 -1346.2 4935.9 -1349.5 4936.2 -1352.75 4936.8 -1359.25 4938.25 -1365.7 4940 -1373.7 4943.25 -1381.25 4947.8 -1391.8 4953.5 -1401.55 4959.5 -1411.9 4964.6 -1422.9 4970.85 -1436.35 4975.3 -1450.55 4981.3 -1469.8 4983.6 -1489.95 4984.1 -1494.25 4983.55 -1498.45 4978.65 -1534.9 4967 -1569.7 4950.25 -1619.55 4924.4 -1665.6 4918.35 -1676.35 4912.2 -1686.95
L 4817.35 -1615.05
M 5238.15 -652.35
Q 5236.35 -658.5 5235.15 -664.75 5232.8 -677.05 5220.65 -679.7
L 5183.95 -647.55
Q 5168.6 -651.3 5153.15 -654.25 5151 -654.75 5148.6 -654.05 5145 -652.9 5142.3 -650.3 5138.5 -646.5 5136.15 -641.3 5133.65 -635.75 5132.5 -629.95 5125.25 -592.9 5124.35 -554.9 5124 -541.1 5128.35 -528.1 5131.55 -518.6 5136.6 -510 5142 -500.8 5151.9 -497.6 5155.25 -496.55 5158.85 -497.25 5161.15 -497.7 5162.7 -499.65 5177.3 -518.15 5176.3 -542
L 5183.95 -548.15
Q 5192.95 -537.95 5199.3 -526.05 5203 -519.2 5207.15 -512.85 5214.4 -501.85 5227.1 -504.35 5227.95 -504.35 5228.35 -504.95 5238.7 -520.4 5243.4 -538.65 5247.9 -556.05 5248.4 -574 5248.9 -593.8 5246.3 -613.55 5243.75 -633.25 5238.15 -652.35
M 5211.15 -1598.7
Q 5211.1 -1601.3 5209.95 -1603.35 5201.7 -1617.9 5187.35 -1627.65 5170.9 -1638.7 5155.7 -1651.35 5140.5 -1663.95 5126.35 -1677.75
L 5112.6 -1686.95
Q 5094.65 -1655.2 5079.3 -1622.15 5072.55 -1607.6 5065.85 -1593 5050.7 -1560 5044.8 -1524.35 5037.85 -1482.65 5053.25 -1443.3 5056.1 -1436.05 5059.7 -1429.1 5072.55 -1404.3 5080.8 -1377.6 5085.35 -1362.85 5087.15 -1347.55 5090.8 -1316.9 5094.25 -1286.2
L 5167.65 -1231.1
Q 5166.1 -1243.65 5164.6 -1256.2 5162.5 -1273.7 5160.45 -1291.2 5158.1 -1310.9 5157 -1330.85 5155.9 -1350.65 5156.7 -1370.45 5157.5 -1390 5162.6 -1409.1 5167.15 -1426.1 5174.3 -1442.2 5182.15 -1459.85 5188.4 -1478.4 5194.65 -1496.85 5198.5 -1515.9 5202.45 -1535.15 5204.3 -1554.55 5204.75 -1559 5206.05 -1563.2 5211.35 -1580.6 5211.15 -1598.7 Z"/>
</g>

<g id="Layer3_0_FILL">
<path fill="#E5E5E6" stroke="none" d="
M 6566.65 -1698.95
Q 6528 -1699.15 6489.7 -1699.35 6450.8 -1699.65 6412.05 -1699.65 6372.65 -1699.55 6333.5 -1699.25 6301.55 -1690.45 6272.75 -1673.45 6239.9 -1654.15 6216.45 -1623.4 6194.5 -1594.7 6182.5 -1560.25 6179.95 -1552.95 6178.75 -1545.35 6172.5 -1507.15 6176.95 -1468.55 6181.4 -1430.35 6200.2 -1396.25 6218.6 -1363.1 6248.5 -1340.05 6277.5 -1317.7 6312 -1304.6 6322.7 -1300.45 6333.8 -1299.4 6371.85 -1295.4 6410.45 -1294.75 6449.05 -1294.25 6487.15 -1294.05 6525.8 -1293.85 6564 -1293.75 6602.2 -1293.75 6640.85 -1294.45 6666.4 -1294.95 6692 -1292.95 6731.8 -1292.15 6769.1 -1303.25 6804.7 -1313.45 6834.4 -1334.8 6865.75 -1357.45 6885.15 -1391.5 6904.05 -1424.55 6910.85 -1462.2 6915.6 -1488.05 6912.85 -1514.35 6908.9 -1552.95 6892.55 -1587.85 6875.25 -1624.75 6843.3 -1650 6812.3 -1674.35 6775 -1687.3 6764.55 -1690.65 6754.05 -1692.25 6723.75 -1695.8 6693.2 -1697.6 6667.9 -1698 6642.75 -1698.3 6604.55 -1698.75 6566.65 -1698.95
M 6493.35 -1671.25
Q 6532.75 -1671.05 6572 -1670.85 6611.1 -1670.65 6649.95 -1670.2 6688.75 -1669.8 6727.05 -1667.3 6745.35 -1667 6763.05 -1662.55 6773.65 -1660.1 6783.65 -1655.35 6819.45 -1638.7 6846.25 -1610.15 6873.35 -1581.35 6881.65 -1542.65 6889.6 -1505.25 6882.85 -1467.35 6878.4 -1442.55 6868.1 -1419.6 6860.2 -1402.35 6848.55 -1387.45 6826.15 -1358.95 6794 -1341.7 6758.4 -1322.35 6717.75 -1323 6692.1 -1323.4 6666.5 -1323 6627.8 -1322.45 6589.7 -1322.25 6551.45 -1321.95 6512.85 -1321.95 6474.35 -1321.95 6435.9 -1322.45 6397.5 -1323 6359.3 -1325.8 6342.1 -1325.7 6325.45 -1329.05 6317.05 -1330.95 6309.05 -1334.6 6272.25 -1351.5 6245.35 -1381.3 6219.6 -1409.8 6209.4 -1446.7 6199.05 -1483.8 6202.1 -1522.2 6202.6 -1529.1 6204.45 -1535.75 6215.25 -1574 6239.3 -1605.2 6262.75 -1635.55 6296.4 -1654.35 6314.3 -1664.35 6333.5 -1671.35 6373.65 -1671.35 6413.9 -1671.45 6453.6 -1671.45 6493.35 -1671.25 Z"/>

<path fill="#3979B8" stroke="none" d="
M 6572 -1670.85
Q 6532.75 -1671.05 6493.35 -1671.25 6453.6 -1671.45 6413.9 -1671.45 6373.65 -1671.35 6333.5 -1671.35 6314.3 -1664.35 6296.4 -1654.35 6262.75 -1635.55 6239.3 -1605.2 6215.25 -1574 6204.45 -1535.75 6202.6 -1529.1 6202.1 -1522.2 6199.05 -1483.8 6209.4 -1446.7 6219.6 -1409.8 6245.35 -1381.3 6272.25 -1351.5 6309.05 -1334.6 6317.05 -1330.95 6325.45 -1329.05 6342.1 -1325.7 6359.3 -1325.8 6397.5 -1323 6435.9 -1322.45 6474.35 -1321.95 6512.85 -1321.95 6551.45 -1321.95 6589.7 -1322.25 6627.8 -1322.45 6666.5 -1323 6692.1 -1323.4 6717.75 -1323 6758.4 -1322.35 6794 -1341.7 6826.15 -1358.95 6848.55 -1387.45 6860.2 -1402.35 6868.1 -1419.6 6878.4 -1442.55 6882.85 -1467.35 6889.6 -1505.25 6881.65 -1542.65 6873.35 -1581.35 6846.25 -1610.15 6819.45 -1638.7 6783.65 -1655.35 6773.65 -1660.1 6763.05 -1662.55 6745.35 -1667 6727.05 -1667.3 6688.75 -1669.8 6649.95 -1670.2 6611.1 -1670.65 6572 -1670.85
M 6513.25 -1543.65
Q 6516.1 -1534.55 6516.5 -1524.85 6517.3 -1504.15 6514.25 -1483.4 6508.4 -1443.8 6484.15 -1412.05 6461.3 -1382.3 6426.1 -1369.8 6389 -1356.45 6349.5 -1356.85 6310.15 -1359.15 6277.6 -1382.5 6247.4 -1404.45 6231 -1438.3 6213.95 -1473.5 6217.25 -1512.8 6219.1 -1535.15 6226.05 -1556.6 6238.4 -1594 6268.6 -1619.35 6299.55 -1645.25 6338.15 -1657.4 6377.1 -1659.6 6414.1 -1648 6450.5 -1636.35 6476.45 -1607.85 6501.95 -1579.75 6513.25 -1543.65 Z"/>

<path fill="#F6F7F8" stroke="none" d="
M 6516.5 -1524.85
Q 6516.1 -1534.55 6513.25 -1543.65 6501.95 -1579.75 6476.45 -1607.85 6450.5 -1636.35 6414.1 -1648 6377.1 -1659.6 6338.15 -1657.4 6299.55 -1645.25 6268.6 -1619.35 6238.4 -1594 6226.05 -1556.6 6219.1 -1535.15 6217.25 -1512.8 6213.95 -1473.5 6231 -1438.3 6247.4 -1404.45 6277.6 -1382.5 6310.15 -1359.15 6349.5 -1356.85 6389 -1356.45 6426.1 -1369.8 6461.3 -1382.3 6484.15 -1412.05 6508.4 -1443.8 6514.25 -1483.4 6517.3 -1504.15 6516.5 -1524.85
M 6412.25 -1556.6
Q 6412.05 -1557.1 6411.75 -1557.3 6410.55 -1558.2 6409.25 -1558.4 6402.05 -1560.45 6394.05 -1559.55
L 6394.05 -1573.5 6440.55 -1573.5 6440.55 -1527 6426.6 -1527 6424.9 -1544.55
Q 6424.4 -1544.85 6423.9 -1545.15 6423.4 -1545.15 6423 -1544.95 6421.55 -1544.45 6420.55 -1543.45 6414.6 -1538.3 6410.35 -1531.65 6411.25 -1528.3 6412.15 -1524.95 6419.45 -1498.05 6412.25 -1472.3 6411.25 -1468.65 6409.35 -1465.2 6394.6 -1439.45 6365.75 -1435.8 6343.95 -1433.45 6325.55 -1445.3 6319.25 -1449.15 6314.5 -1455.3 6293.2 -1483.1 6306.85 -1514.85 6316.95 -1538.5 6341.3 -1545.35 6363.55 -1551.45 6386.2 -1546.3 6392.45 -1544.75 6398.7 -1543.25
L 6412.45 -1555.5
Q 6412.35 -1556.1 6412.25 -1556.6 Z"/>

<path fill="#293E7E" stroke="none" d="
M 6411.75 -1557.3
Q 6412.05 -1557.1 6412.25 -1556.6 6412.35 -1556.1 6412.45 -1555.5
L 6398.7 -1543.25
Q 6392.45 -1544.75 6386.2 -1546.3 6363.55 -1551.45 6341.3 -1545.35 6316.95 -1538.5 6306.85 -1514.85 6293.2 -1483.1 6314.5 -1455.3 6319.25 -1449.15 6325.55 -1445.3 6343.95 -1433.45 6365.75 -1435.8 6394.6 -1439.45 6409.35 -1465.2 6411.25 -1468.65 6412.25 -1472.3 6419.45 -1498.05 6412.15 -1524.95 6411.25 -1528.3 6410.35 -1531.65 6414.6 -1538.3 6420.55 -1543.45 6421.55 -1544.45 6423 -1544.95 6423.4 -1545.15 6423.9 -1545.15 6424.4 -1544.85 6424.9 -1544.55
L 6426.6 -1527 6440.55 -1527 6440.55 -1573.5 6394.05 -1573.5 6394.05 -1559.55
Q 6402.05 -1560.45 6409.25 -1558.4 6410.55 -1558.2 6411.75 -1557.3
M 6335.35 -1530.6
Q 6339.1 -1533.45 6342.8 -1536.3 6373.45 -1539.3 6391.95 -1515.95 6411.65 -1491.2 6393.65 -1465.4 6383.25 -1450.45 6364.95 -1448.45 6330.9 -1445.9 6317.95 -1476.95 6316.15 -1481.3 6315.75 -1485.95 6313.1 -1513.65 6335.35 -1530.6 Z"/>

<path fill="#F0F1F4" stroke="none" d="
M 6342.8 -1536.3
Q 6339.1 -1533.45 6335.35 -1530.6 6313.1 -1513.65 6315.75 -1485.95 6316.15 -1481.3 6317.95 -1476.95 6330.9 -1445.9 6364.95 -1448.45 6383.25 -1450.45 6393.65 -1465.4 6411.65 -1491.2 6391.95 -1515.95 6373.45 -1539.3 6342.8 -1536.3 Z"/>
</g>

<g id="Layer2_0_FILL">
<path fill="#E5E5E6" stroke="none" d="
M 7850.7 -1108.05
Q 7841.6 -1112.7 7832.5 -1117.15 7795.7 -1136.05 7754.75 -1135.75 7715.95 -1135.55 7677.3 -1136.15 7638.1 -1136.75 7599.15 -1136.95 7559.85 -1137.15 7520.3 -1137.15 7480.3 -1137.25 7440.65 -1137.25 7400.75 -1137.35 7360.2 -1137.15 7327.25 -1128.3 7297.8 -1110.8 7264.05 -1090.75 7240.1 -1059.55 7217.45 -1029.9 7205.3 -994.65 7202.8 -987.15 7201.6 -979.45 7195.3 -940.25 7199.75 -900.7 7204.1 -861.2 7223.3 -826.4 7242.1 -792.45 7273.05 -768.7 7302.85 -745.85 7338.05 -732.5 7349.05 -728.25 7360.5 -726.65 7385.85 -723.6 7411.55 -723.1 7450.05 -722.4 7488.45 -721.9 7527 -721.4 7565.4 -721.5 7603.8 -721.6 7642.45 -721.8 7681.15 -722.1 7719.45 -723 7745.05 -723.6 7770.5 -726.45 7807 -729.25 7840.45 -744.25 7874.35 -759.2 7899.8 -786.6 7925.6 -814.3 7940.15 -849.15 7955.5 -886.25 7954.8 -926 7954.1 -962.4 7943.7 -996.95 7932.75 -1032.75 7908.9 -1061.45 7884.55 -1090.55 7850.7 -1108.05
M 7821.05 -1092.1
Q 7855.35 -1076.5 7881.2 -1049.1 7908.9 -1019.7 7919.1 -980.5 7929.25 -941.35 7924.05 -901.35 7922.75 -891.2 7920.05 -881.7 7909.8 -845.2 7886.05 -815.9 7862.4 -786.6 7828.85 -768.7 7816.9 -762.35 7803.75 -760.2 7780.3 -756.45 7756.55 -755.15 7732.7 -754.15 7708.85 -753.15 7685 -752.3 7661.15 -751.6 7637.3 -751 7613.4 -750.6 7589.55 -750.2 7565.7 -750 7541.75 -749.7 7517.9 -749.7 7494.05 -749.7 7470.2 -749.9 7446.2 -750.2 7422.25 -750.5 7381.4 -750.3 7342.7 -762.55 7304.9 -774.65 7276.9 -802.95 7248.3 -832.2 7234.65 -870.5 7221.6 -906.8 7223.6 -945.1 7224.75 -967.25 7231.5 -987.95 7243.75 -1024.85 7271.55 -1052.45 7294.1 -1074.8 7322 -1089.45 7351.3 -1109.25 7386.35 -1109.15 7412.25 -1106.95 7438.25 -1107.35 7477.25 -1108.05 7516.05 -1108.25 7555.1 -1108.55 7593.9 -1108.45 7632.75 -1108.35 7671.75 -1107.75 7710.75 -1107.25 7749.6 -1107.55 7786.8 -1107.85 7821.05 -1092.1
M 7914.35 -1615.75
Q 7891.9 -1645.65 7859.25 -1664.85 7841.7 -1675.05 7823.1 -1683.35 7790.35 -1697.9 7754.65 -1697.4 7715.95 -1696.9 7677.2 -1697.4 7638.1 -1698 7599.05 -1698.2 7559.65 -1698.55 7520.2 -1698.65 7480.3 -1698.85 7440.55 -1698.75 7400.2 -1698.65 7360.1 -1698.55 7327.15 -1689.65 7297.7 -1672.15 7264.05 -1652.15 7240.2 -1620.8 7217.45 -1591.15 7205.2 -1556 7202.7 -1548.5 7201.5 -1540.85 7195.2 -1501.6 7199.65 -1462 7204.2 -1422.35 7223.3 -1387.75 7242.1 -1353.8 7272.95 -1330.05 7302.65 -1307.2 7337.95 -1293.75 7348.95 -1289.6 7360.4 -1288.3 7398.9 -1284.15 7437.1 -1283.65 7475.55 -1283.15 7514.05 -1283.15 7552.25 -1283.15 7591 -1283.15 7629.7 -1283.15 7668 -1283.65 7706.55 -1284.15 7745.05 -1284.85 7762.65 -1286 7780 -1288.6 7815.9 -1293.25 7848.05 -1309.25 7881.2 -1325.8 7905.05 -1353.9 7929.85 -1382.9 7943.1 -1419 7953.3 -1446.9 7954.2 -1476.05 7955.3 -1513.35 7946.3 -1549.1 7937.1 -1585.5 7914.35 -1615.75
M 7784.95 -1663.75
Q 7794.35 -1662.15 7803.55 -1659.2 7840.65 -1646.85 7870 -1621.5 7900.3 -1595.2 7913.75 -1557.3 7927.1 -1519.4 7925.3 -1479.15 7923.65 -1441.55 7906.2 -1407.5 7887.8 -1371.9 7855.55 -1347.35 7831.7 -1329.35 7803.15 -1323.1 7780.2 -1317.8 7756.45 -1316.5 7732.6 -1315.5 7708.75 -1314.5 7684.9 -1313.7 7661.05 -1312.95 7637.2 -1312.35 7613.3 -1311.95 7589.45 -1311.45 7565.6 -1311.25 7541.65 -1310.95 7517.8 -1310.95 7493.95 -1310.95 7470.1 -1311.15 7446.1 -1311.45 7422.15 -1311.85 7381.5 -1311.55 7342.6 -1323.9 7304.7 -1336 7276.8 -1364.3 7248.3 -1393.35 7234.55 -1431.85 7221.5 -1468.25 7223.6 -1506.45 7224.85 -1528.6 7231.6 -1549.3 7243.75 -1586.2 7271.45 -1613.8 7294.1 -1636.25 7321.9 -1650.8 7351.3 -1670.5 7386.15 -1667.9 7412.15 -1668.3 7438.15 -1668.7 7477.25 -1669.4 7515.95 -1669.5 7554.9 -1669.7 7593.9 -1669.7 7632.75 -1669.7 7671.75 -1669.2 7710.75 -1668.7 7749.6 -1667.9 7767.4 -1666.5 7784.95 -1663.75 Z"/>

<path fill="#3979B8" stroke="none" d="
M 7881.2 -1049.1
Q 7855.35 -1076.5 7821.05 -1092.1 7786.8 -1107.85 7749.6 -1107.55 7710.75 -1107.25 7671.75 -1107.75 7632.75 -1108.35 7593.9 -1108.45 7555.1 -1108.55 7516.05 -1108.25 7477.25 -1108.05 7438.25 -1107.35 7412.25 -1106.95 7386.35 -1109.15 7351.3 -1109.25 7322 -1089.45 7294.1 -1074.8 7271.55 -1052.45 7243.75 -1024.85 7231.5 -987.95 7224.75 -967.25 7223.6 -945.1 7221.6 -906.8 7234.65 -870.5 7248.3 -832.2 7276.9 -802.95 7304.9 -774.65 7342.7 -762.55 7381.4 -750.3 7422.25 -750.5 7446.2 -750.2 7470.2 -749.9 7494.05 -749.7 7517.9 -749.7 7541.75 -749.7 7565.7 -750 7589.55 -750.2 7613.4 -750.6 7637.3 -751 7661.15 -751.6 7685 -752.3 7708.85 -753.15 7732.7 -754.15 7756.55 -755.15 7780.3 -756.45 7803.75 -760.2 7816.9 -762.35 7828.85 -768.7 7862.4 -786.6 7886.05 -815.9 7909.8 -845.2 7920.05 -881.7 7922.75 -891.2 7924.05 -901.35 7929.25 -941.35 7919.1 -980.5 7908.9 -1019.7 7881.2 -1049.1
M 7784.15 -1078.75
Q 7819.45 -1067.6 7850.6 -1046.9 7877.35 -1019.6 7891.8 -984.75 7907.6 -946.6 7900 -906.2 7892.95 -868.9 7871 -837.65 7866.45 -831.05 7860.8 -825.4 7832.4 -797.2 7794.8 -784.25 7759 -771.85 7721.9 -777.9 7691.95 -782.85 7665.3 -797.7 7657.6 -802.05 7650.8 -807.8 7620.4 -834.2 7604.1 -870.9 7587.75 -907.8 7594.5 -948.05 7600.7 -984.95 7620 -1017.7 7625.35 -1026.8 7632.45 -1034.45 7658.5 -1062.45 7694.2 -1075.7 7700.75 -1078.15 7707.45 -1080.25 7715.6 -1081.65 7723.9 -1083.1 7754.75 -1088.05 7784.15 -1078.75 Z"/>

<path fill="#F8F8F9" stroke="none" d="
M 7850.6 -1046.9
Q 7819.45 -1067.6 7784.15 -1078.75 7754.75 -1088.05 7723.9 -1083.1 7715.6 -1081.65 7707.45 -1080.25 7700.75 -1078.15 7694.2 -1075.7 7658.5 -1062.45 7632.45 -1034.45 7625.35 -1026.8 7620 -1017.7 7600.7 -984.95 7594.5 -948.05 7587.75 -907.8 7604.1 -870.9 7620.4 -834.2 7650.8 -807.8 7657.6 -802.05 7665.3 -797.7 7691.95 -782.85 7721.9 -777.9 7759 -771.85 7794.8 -784.25 7832.4 -797.2 7860.8 -825.4 7866.45 -831.05 7871 -837.65 7892.95 -868.9 7900 -906.2 7907.6 -946.6 7891.8 -984.75 7877.35 -1019.6 7850.6 -1046.9
M 7275.9 -1599.85
Q 7271.35 -1594.3 7267.8 -1588.25 7248.6 -1555.8 7242.3 -1518.6 7235.65 -1478.45 7252.1 -1441.45 7268.4 -1404.65 7298.75 -1378.35 7305.5 -1372.6 7313.2 -1368.25 7339.85 -1353.5 7369.8 -1348.45 7406.9 -1342.4 7442.7 -1354.8 7480.2 -1367.55 7508.7 -1395.85 7514.35 -1401.5 7518.9 -1408.1 7540.65 -1439.35 7547.8 -1476.65 7555.5 -1516.95 7539.85 -1555.3 7525.45 -1590.45 7498.6 -1617.35 7467.45 -1638.2 7432.05 -1649.4 7402.75 -1658.6 7371.8 -1653.65 7363.55 -1652.25 7355.35 -1650.8 7345.35 -1647.9 7335.75 -1643.85 7300.55 -1629 7275.9 -1599.85 Z"/>

<path fill="#666666" stroke="none" d="
M 7803.55 -1659.2
Q 7794.35 -1662.15 7784.95 -1663.75 7767.4 -1666.5 7749.6 -1667.9 7710.75 -1668.7 7671.75 -1669.2 7632.75 -1669.7 7593.9 -1669.7 7554.9 -1669.7 7515.95 -1669.5 7477.25 -1669.4 7438.15 -1668.7 7412.15 -1668.3 7386.15 -1667.9 7351.3 -1670.5 7321.9 -1650.8 7294.1 -1636.25 7271.45 -1613.8 7243.75 -1586.2 7231.6 -1549.3 7224.85 -1528.6 7223.6 -1506.45 7221.5 -1468.25 7234.55 -1431.85 7248.3 -1393.35 7276.8 -1364.3 7304.7 -1336 7342.6 -1323.9 7381.5 -1311.55 7422.15 -1311.85 7446.1 -1311.45 7470.1 -1311.15 7493.95 -1310.95 7517.8 -1310.95 7541.65 -1310.95 7565.6 -1311.25 7589.45 -1311.45 7613.3 -1311.95 7637.2 -1312.35 7661.05 -1312.95 7684.9 -1313.7 7708.75 -1314.5 7732.6 -1315.5 7756.45 -1316.5 7780.2 -1317.8 7803.15 -1323.1 7831.7 -1329.35 7855.55 -1347.35 7887.8 -1371.9 7906.2 -1407.5 7923.65 -1441.55 7925.3 -1479.15 7927.1 -1519.4 7913.75 -1557.3 7900.3 -1595.2 7870 -1621.5 7840.65 -1646.85 7803.55 -1659.2
M 7267.8 -1588.25
Q 7271.35 -1594.3 7275.9 -1599.85 7300.55 -1629 7335.75 -1643.85 7345.35 -1647.9 7355.35 -1650.8 7363.55 -1652.25 7371.8 -1653.65 7402.75 -1658.6 7432.05 -1649.4 7467.45 -1638.2 7498.6 -1617.35 7525.45 -1590.45 7539.85 -1555.3 7555.5 -1516.95 7547.8 -1476.65 7540.65 -1439.35 7518.9 -1408.1 7514.35 -1401.5 7508.7 -1395.85 7480.2 -1367.55 7442.7 -1354.8 7406.9 -1342.4 7369.8 -1348.45 7339.85 -1353.5 7313.2 -1368.25 7305.5 -1372.6 7298.75 -1378.35 7268.4 -1404.65 7252.1 -1441.45 7235.65 -1478.45 7242.3 -1518.6 7248.6 -1555.8 7267.8 -1588.25 Z"/>
</g>

<g id="Layer1_0_FILL">
<path fill="#E5E5E6" stroke="none" d="
M 6801.15 -1130.5
Q 6768.5 -1144.95 6732.7 -1144.65 6694.1 -1144.25 6655.3 -1144.65 6616.15 -1145.15 6577.15 -1145.35 6537.7 -1145.55 6498.3 -1145.75 6458.35 -1145.95 6418.65 -1145.95 6378.5 -1146.05 6338.15 -1145.65 6305.1 -1136.65 6275.8 -1119.3 6242.05 -1099.15 6218.15 -1067.95 6195.55 -1038.4 6183.3 -1003.15 6180.75 -995.65 6179.55 -987.95 6173.1 -948.75 6177.75 -909.2 6182.4 -869.6 6201.6 -834.9 6220.2 -801.05 6251.15 -777.2 6280.85 -754.45 6316.15 -741 6327.05 -736.75 6338.45 -735.15 6364.45 -732.1 6390.75 -731.7 6429.85 -731.1 6469.5 -730.6 6508.9 -730.1 6548.15 -730 6587.65 -729.8 6627 -730.3 6666.4 -730.9 6705.85 -731.6 6732 -732.1 6758 -735.35 6792.85 -739.1 6824.5 -754.95 6860.4 -773.05 6885.75 -804.1 6909.35 -832.8 6921.85 -867.55 6931.55 -894.75 6932.4 -923.15 6933.5 -960.05 6924.4 -996.05 6915.1 -1032.45 6892.45 -1062.65 6869.8 -1092.6 6837.35 -1111.8 6819.65 -1122.3 6801.15 -1130.5
M 6660.05 -1116.05
Q 6698.65 -1115.65 6737.45 -1115.95 6774.15 -1116.25 6806.4 -1097.65 6824.2 -1087.45 6840.9 -1075 6870.6 -1052.95 6887.5 -1019.9 6904.35 -986.95 6904.15 -949.75 6903.95 -911.85 6892.45 -875.65 6880.5 -837.95 6852.2 -810.05 6823.5 -781.75 6785.5 -768.7 6772.05 -763.95 6758.2 -762.75 6732 -760.8 6705.85 -760.3 6666.4 -759.5 6627 -759.1 6587.65 -758.8 6548.15 -758.8 6508.9 -758.8 6469.5 -759.2 6429.85 -759.7 6390.75 -760.4 6364.45 -760.8 6338.45 -764.15 6329.45 -764.75 6320.8 -768.1 6285.3 -782.55 6257.3 -808.2 6228.4 -834.8 6214.85 -871.6 6201.7 -907.5 6200.9 -945.6 6200.5 -966.25 6207.15 -985.65 6219.3 -1021 6242.75 -1050.55 6267.8 -1082.1 6303.5 -1100.5 6322.5 -1110.4 6342.9 -1117.05 6383.15 -1117.15 6423.4 -1117.25 6463.2 -1117.25 6503.05 -1117.05 6542.55 -1116.95 6581.9 -1116.75 6621.2 -1116.45 6660.05 -1116.05 Z"/>

<path fill="#F96A88" stroke="none" d="
M 6737.45 -1115.95
Q 6698.65 -1115.65 6660.05 -1116.05 6621.2 -1116.45 6581.9 -1116.75 6542.55 -1116.95 6503.05 -1117.05 6463.2 -1117.25 6423.4 -1117.25 6383.15 -1117.15 6342.9 -1117.05 6322.5 -1110.4 6303.5 -1100.5 6267.8 -1082.1 6242.75 -1050.55 6219.3 -1021 6207.15 -985.65 6200.5 -966.25 6200.9 -945.6 6201.7 -907.5 6214.85 -871.6 6228.4 -834.8 6257.3 -808.2 6285.3 -782.55 6320.8 -768.1 6329.45 -764.75 6338.45 -764.15 6364.45 -760.8 6390.75 -760.4 6429.85 -759.7 6469.5 -759.2 6508.9 -758.8 6548.15 -758.8 6587.65 -758.8 6627 -759.1 6666.4 -759.5 6705.85 -760.3 6732 -760.8 6758.2 -762.75 6772.05 -763.95 6785.5 -768.7 6823.5 -781.75 6852.2 -810.05 6880.5 -837.95 6892.45 -875.65 6903.95 -911.85 6904.15 -949.75 6904.35 -986.95 6887.5 -1019.9 6870.6 -1052.95 6840.9 -1075 6824.2 -1087.45 6806.4 -1097.65 6774.15 -1116.25 6737.45 -1115.95
M 6696.25 -1102.7
Q 6736.85 -1103.8 6775.5 -1092.2 6811.9 -1081.15 6837.55 -1053.05 6863.75 -1024.45 6872.85 -986.55 6880 -956.85 6878.5 -926.2 6878.1 -918.3 6875.95 -910.55 6865.65 -872.3 6839.35 -842.6 6812.2 -812.05 6772.95 -800.05 6736.55 -788.9 6699.45 -795.5 6661.75 -802.55 6631.65 -826.2 6599.2 -851.6 6583.3 -889.9 6568.25 -926 6574.7 -965.6 6578.25 -987.45 6586.65 -1008 6601.6 -1044.65 6633.15 -1068.85 6661.95 -1091.1 6696.25 -1102.7 Z"/>

<path fill="#F9F7F7" stroke="none" d="
M 6775.5 -1092.2
Q 6736.85 -1103.8 6696.25 -1102.7 6661.95 -1091.1 6633.15 -1068.85 6601.6 -1044.65 6586.65 -1008 6578.25 -987.45 6574.7 -965.6 6568.25 -926 6583.3 -889.9 6599.2 -851.6 6631.65 -826.2 6661.75 -802.55 6699.45 -795.5 6736.55 -788.9 6772.95 -800.05 6812.2 -812.05 6839.35 -842.6 6865.65 -872.3 6875.95 -910.55 6878.1 -918.3 6878.5 -926.2 6880 -956.85 6872.85 -986.55 6863.75 -1024.45 6837.55 -1053.05 6811.9 -1081.15 6775.5 -1092.2
M 6753.75 -1019.6
Q 6766 -1014.45 6775.5 -1005.15 6788 -992.8 6787.7 -974.8 6787.5 -962.9 6785.1 -951.25 6781.95 -936.3 6770.65 -925.1 6756.6 -911.25 6739.2 -902.25 6742 -899.6 6745.95 -898 6752.05 -895.95 6758.3 -897.5
L 6758.3 -883.15
Q 6751.3 -876.95 6742 -877.9 6740.6 -878.2 6739.2 -878.4
L 6739.2 -859.3 6720.1 -859.3 6720.1 -878.4
Q 6710.8 -876.15 6703.1 -881.6 6702 -882.3 6701 -883.15
L 6701 -897.5
Q 6704.8 -896.5 6708.55 -897 6715.15 -897.9 6720.1 -902.25 6686.75 -916.8 6675.2 -950.35 6672.25 -958.85 6673.4 -968.15 6676.5 -993.6 6691.5 -1014.45 6721.8 -1033.15 6753.75 -1019.6 Z"/>

<path fill="#CC9EA9" stroke="none" d="
M 6701 -883.15
Q 6702 -882.3 6703.1 -881.6 6710.8 -876.15 6720.1 -878.4
L 6720.1 -859.3 6739.2 -859.3 6739.2 -878.4
Q 6740.6 -878.2 6742 -877.9 6751.3 -876.95 6758.3 -883.15
L 6734.45 -883.15 6729.7 -864.05 6724.95 -883.15 6701 -883.15 Z"/>

<path fill="#9B3D53" stroke="none" d="
M 6775.5 -1005.15
Q 6766 -1014.45 6753.75 -1019.6 6721.8 -1033.15 6691.5 -1014.45 6676.5 -993.6 6673.4 -968.15 6672.25 -958.85 6675.2 -950.35 6686.75 -916.8 6720.1 -902.25 6715.15 -897.9 6708.55 -897 6704.8 -896.5 6701 -897.5
L 6701 -883.15 6724.95 -883.15 6729.7 -864.05 6734.45 -883.15 6758.3 -883.15 6758.3 -897.5
Q 6752.05 -895.95 6745.95 -898 6742 -899.6 6739.2 -902.25 6756.6 -911.25 6770.65 -925.1 6781.95 -936.3 6785.1 -951.25 6787.5 -962.9 6787.7 -974.8 6788 -992.8 6775.5 -1005.15
M 6710.6 -1012
Q 6740.3 -1016.05 6761.05 -995.85 6765.15 -991.9 6767.2 -987.05 6775.5 -966.55 6766.7 -947.2 6764.45 -942.25 6760.95 -937.9 6741.3 -913.95 6713.9 -925.8 6702.9 -930.65 6694.6 -939.35 6691.8 -942.25 6689.05 -945.2 6684.5 -966.65 6689.05 -988.15
L 6710.6 -1012 Z"/>

<path fill="#F6F3F4" stroke="none" d="
M 6761.05 -995.85
Q 6740.3 -1016.05 6710.6 -1012
L 6689.05 -988.15
Q 6684.5 -966.65 6689.05 -945.2 6691.8 -942.25 6694.6 -939.35 6702.9 -930.65 6713.9 -925.8 6741.3 -913.95 6760.95 -937.9 6764.45 -942.25 6766.7 -947.2 6775.5 -966.55 6767.2 -987.05 6765.15 -991.9 6761.05 -995.85 Z"/>
</g>

<g id="Layer0_0_FILL">
<path fill="#575975" stroke="none" d="
M 622.45 379.25
Q 601.75 363.6 602.65 338.1
L 608.7 344.25
Q 666.05 272.25 657.45 179.8 641.85 66.25 528 76.3 469.75 92.8 447.4 149.45 426.85 244.9 474.8 329 478.85 337.95 488.45 338.1 490.35 361 473.2 376.15 449.1 387.85 424.55 397.5 396.3 399.85 369.7 403.6 340.8 421.85 328.65 453.85 292.1 590.45 182.55 679.1 121.65 773.2 69.85 873.9 61.95 893.85 57.7 916.55 51 951.25 72.95 977.4 79.65 971.1 88.2 962.15 89.8 945.9 83.6 930.2 87.6 913.2 98.85 899.8 103.85 898 104.95 904.35 99.25 918.35 104.95 931.7 114.8 937.7 124.7 931.7 129.75 898.65 143 867.85 145 847.9 143 828.2 179.75 794.45 220.55 762.8 277.85 715.45 310.4 648.6 348.1 600 389.55 542.1 400.8 589.8 416.95 636.45 427.4 676.8 423.05 718.65
L 371.3 867.85
Q 359.35 915.4 349.95 968.3 350.85 1126.75 366.7 1281.8 366.45 1303.6 362.15 1324.45 334.75 1397.35 336.3 1475.1 340.6 1570.05 352.95 1662.3 356 1689.75 352.95 1717.1 344.35 1745.15 328.65 1768.85
L 289.05 1820.6
Q 285.75 1832.1 292.15 1841.95 320.45 1857.2 351.45 1858.7 366.7 1846.7 383.45 1838.85 386.75 1827.2 391.05 1814.55 401.85 1810.6 404.7 1799.3 410.95 1735.4 407.8 1671.45 419.3 1610.9 426.05 1549.7 453.5 1476 444.3 1397.45
L 471.7 1330.55
Q 475.7 1273.45 483.9 1214.8 509.3 1108.85 526.5 1004.8 540.2 967.25 563 998.7 579 1095 602.65 1190.45 612.2 1252.55 617.85 1318.3 631.15 1363.4 649.75 1406.6 644.65 1448.95 648.25 1491.85 672 1579.55 681.75 1668.45 685 1700.15 680.2 1730.8 687.9 1768.25 687.9 1805.45 692.55 1811 698.5 1814.55 700.45 1831.85 713.7 1843.45 731.25 1851.25 747.2 1860.2 765.85 1853.8 786.75 1849.55 814.35 1836.5 797.45 1811.45 759.25 1771.95 739.65 1720.2 736.45 1676.15 739.65 1631.85
L 754.85 1513.2
Q 757.85 1469.15 754.85 1424.85 736.4 1355.55 722.9 1284.85 742.35 1118.85 739.65 953.05 715.35 836.4 669.6 724.7 660.45 682.2 672.65 639.55 689.5 591.7 701.5 545.1 766.2 619.85 815.7 706.45 876.55 773.5 946.65 825.15 942.3 852.6 949.65 879.95 965.5 903.3 966.4 931.7 976.25 937.7 986.2 931.7
L 989.2 898.3
Q 1013.75 920.9 1002.95 953.05 1003.3 963.25 1010.5 971.35 1014.15 978.45 1021.2 975.85 1041 937.7 1028.75 895.2 976.4 777.1 903.95 672.95 801.05 588.45 763.95 459.9 742.65 388.2 668.1 397.5 644.6 389.1 622.45 379.25
M 546.25 129.6
Q 542.45 126.7 540.2 131.1 561.9 163.45 598 178.3 607.8 185.1 608.7 195.05 580.1 178.5 549.35 169.2 529.1 159.7 511.3 146.35 509.05 151.25 512.8 155.5 498 168 483.9 182.85 485.1 169.7 494.55 158.5
L 491.55 155.5
Q 471.4 178.1 470.2 208.75 465.3 218.65 456.45 225.5 449.65 260.25 480.9 274.25 492.6 302.35 485.45 332 437.65 261.8 447.4 176.75 450.55 127.5 491.55 100.7 494.15 101.9 496.05 103.7 506.2 89.25 521.95 82.45 614.95 64 645.2 152.45 672.5 252.2 611.7 335.1 608.6 341.25 605.7 335.1 596.85 308 605.7 280.25 641.75 263.15 633.1 222.5 628.2 218.85 622.45 219.45 618.1 180.6 598 146.35
L 595 149.45
Q 601.65 163.95 605.7 179.8 586.7 166.3 567.65 154 555.25 143.5 546.25 129.6
M 489.95 182.85
Q 503 169.25 515.9 158.5 556.75 178.65 598 193.5 624.4 213.7 614.75 246.85 602.5 275.75 593.45 304.65 543.3 360.05 496.05 301.6 489.3 276.05 477.8 252.9 470.3 215.5 489.95 182.85
M 476.3 262
L 473.2 265.1
Q 455.9 246.8 464.15 222.5 471.15 241.55 476.3 262
M 461.05 388.35
Q 476.2 381.7 485.45 368.6 489.65 384.7 485.45 402.1 464.95 400.5 445.8 408.15 435 404.9 424.55 403.6 440.8 395.8 461.05 388.35
M 622.45 222.5
Q 632.45 226.1 631.5 237.7 628.95 253.45 619.4 265.1
L 616.35 262
Q 622.75 243.1 622.45 222.5
M 493.05 386.85
Q 495.3 349.85 494.55 310.75 542.45 357.3 593.45 313.75 594.9 356.1 601.1 399 569.25 403.9 544.75 423.35 539.45 412.85 528 409.65 509.75 404.1 488.45 399 490.95 393.3 493.05 386.85
M 604.15 368.6
Q 610.1 372.55 613.25 379.25 638.7 392.55 665 403.6 655.3 405.4 645.2 408.15 626.65 402.5 607.2 399 602.75 383.85 604.15 368.6
M 252.55 654.7
Q 254.65 661.45 260.2 665.35 279.45 668.4 296.7 662.35 289.1 675.1 282.95 688.2 225.8 754.45 156.7 808.45 130.3 814.4 126.25 787.1 150.55 734.7 182.55 688.2 216.6 655.1 251.05 618.15 251.5 637.85 252.55 654.7
M 263.2 660.85
Q 260 658.55 258.65 654.7 252.65 614.85 276.9 581.65 307.8 531.7 357.55 502.55 395.3 498.9 386.45 536.05
L 380.4 548.15
Q 341.4 600.35 296.7 653.2 282.2 668 263.2 660.85
M 576.7 408.15
Q 606.25 407.4 634.6 409.65 685.8 447.5 728.95 494.9 688.6 503.3 672.65 542.1 651.65 563.4 622.45 555.8 576.55 554 550.9 517.7 547.7 472.1 550.9 426.4 562.95 415.6 576.7 408.15
M 531.1 415.75
Q 538.3 421.75 541.7 429.5 576.45 569.95 433.7 552.7 412.8 537.8 401.7 514.65 386.6 497.15 363.7 494.9 404.7 446.4 454.95 408.15 493.75 405.45 531.1 415.75
M 537.2 534.45
Q 540.75 529.5 543.25 523.85 556.15 537.65 573.7 546.65 611.05 563.05 652.85 561.85
L 626.95 587.8
Q 613.15 557.8 579.75 552.7 561.1 548.35 544.75 557.35 530.2 548.2 512.8 552.7 478.7 557.35 464.15 587.8 450.4 577.4 439.8 563.4 492.4 563.25 537.2 534.45
M 546.25 569.45
Q 549.5 556.4 563 554.3 591.2 557.45 613.25 575.6 624.2 589.85 614.75 606.05 610.55 717.7 602.65 822.15 590.55 869.05 566.1 910.4 557.95 921.7 544.75 925.65 514.95 903.6 502.2 867.85 486 823.8 483.9 776.45 480.15 679.5 474.8 578.6 494.1 563.1 515.9 554.3 525.95 553.6 537.2 555.8 539.75 564.3 546.25 569.45
M 363.7 412.75
Q 372.4 409.1 378.9 405.1 410.4 405.85 439.8 412.75 390.4 457.5 345.4 504.05 328.25 513.75 313.45 526.85 321.65 462.45 363.7 412.75
M 395.65 539.05
Q 393.2 528.25 394.05 517.7 429.25 563.05 468.7 602.95 466.85 657.75 462.55 764.35 456.2 820.75 400.2 811.45 397.6 808.95 397.15 805.4 412.95 764.1 429.15 718.65 432.15 692.95 429.15 666.9 412.05 606.05 395.65 539.05
M 465.65 773.4
Q 470.1 731.4 471.7 688.2 476.75 744.35 480.9 803.85 486.75 874.55 534.15 927.15 544.6 930.35 555.45 927.15 598.6 881.3 608.7 819.1 616.35 748.8 616.35 679.1 622.95 722.65 623.95 767.35 626.65 809.8 668.1 817.6 650.05 827.7 636.15 843.45 602.8 914.85 544.75 968.3 488.4 912.05 453.45 840.4 439.1 826.15 421.45 817.6 458.6 810.85 465.65 773.4
M 633.1 779.55
L 619.4 625.85
Q 616.8 605.9 630 590.8 667.65 559.1 695.45 517.7 700.5 525.95 696.95 536.05 673.9 614.95 658.95 689.7 659.25 707.65 663.45 724.7 677.6 767.2 695.45 808.45 650.45 824 633.1 779.55
M 742.65 429.5
Q 754.05 446.7 760.95 466 770.15 498.3 782.2 532.95 765.8 512.3 741.15 500.95 699.55 453.35 652.85 412.75 667.65 408.05 680.2 405.1 719.45 399.15 742.65 429.5
M 703.1 532.95
Q 697.7 515.05 710.7 502.55 729.8 502.1 747.2 510.1 816.6 558.55 835.45 641.05 837.35 661.45 817.2 663.85 802.7 658.15 789.85 650.15 759.25 604.5 721.35 563.4
L 703.1 532.95
M 806.6 685.15
Q 798.95 673.45 797.45 660.85 836.7 685.7 838.5 639.55 837.75 626.2 835.45 615.15 869.95 653.65 907 685.15 938.1 733.5 964.9 779.55 968.2 812.6 935.95 808.45 864.9 753.9 806.6 685.15
M 983.15 928.65
Q 978.3 933.6 972.45 930.2 966.8 903.7 955.7 879.95 948.25 856.9 954.2 832.85 954.2 824.7 948.15 819.1 954.05 812.6 963.35 806.9 969.85 800.85 969.45 791.7 1000.75 839.7 1022.7 892.15 1029.9 921.3 1028.75 950.05 1023.75 961.5 1016.65 971.35 1032.9 917.3 984.7 889.1 981.75 908.7 983.15 928.65
M 1009 959.1
Q 1004.25 950.3 1009 940.85 1014.8 949.55 1009 959.1
M 686.35 816.1
L 698.5 816.1
Q 720.65 882.45 733.5 953.05 735.3 1101.8 721.35 1251.35
L 710.7 1287.95
Q 696.4 1289.85 683.25 1289.45 670.35 1313.9 663.45 1339.7 650.1 1346.85 642.2 1333.55 635.1 1321.4 630 1306.2 602.6 1162.05 569.15 1001.8 563.3 984.85 549.35 974.35 574 944.45 599.6 916.55
L 645.2 840.4
Q 662.75 822.9 686.35 816.1
M 672.65 1333.55
Q 675.65 1315.2 681.75 1297.05 685 1292.3 690.9 1290.95 708.2 1305.4 716.75 1284.85 725.05 1333.35 733.5 1373.1 721.95 1395.4 713.7 1414.2 689.9 1422.15 665 1415.8 648.4 1383.9 633.1 1351.8 623.75 1329.75 623.95 1306.2 631.1 1329.3 646.75 1347.3 665.75 1352.7 672.65 1333.55
M 707.65 1423.35
Q 720.7 1416.4 727.45 1403.55 727.75 1388.15 735 1376.2 753.95 1418.85 750.25 1465.95 747.7 1553.75 733.5 1637.95 730.35 1679.05 733.5 1720.2 753.15 1771.9 791.4 1811.45 804.15 1825.9 792.9 1840.45 769.1 1848 745.7 1854.1 725.5 1845.5 709.2 1829.8
L 706.15 1811.45
Q 696.95 1807.1 690.9 1799.3 684.5 1733.75 687.9 1668.45 676.3 1581.55 654.4 1497.95 651.2 1455.45 654.4 1412.7
L 665 1423.35
Q 686.2 1426.55 707.65 1423.35
M 489.95 913.45
Q 514.95 941.95 540.2 974.35 525.4 988.4 520.45 1007.85 488.05 1154.35 462.55 1303.1 456.35 1319.95 447.4 1336.6 436.6 1349 426.05 1336.6 420.4 1311.2 409.3 1289.45 393.9 1290.2 380.4 1287.95 371.15 1262.55 368.2 1236.2 356.8 1097 356.05 959.1 369.5 885.65 394.05 816.1 428.2 819.85 450.45 846.55
L 489.95 913.45
M 144.5 816.1
Q 138.2 825.05 138.35 835.85 144.2 871.3 124.7 901.3
L 120.1 931.7
Q 114 932.7 109.5 928.65 106.7 914.05 111 899.8 110.85 893.6 106.45 889.1 57.7 915.65 77.5 966.7
L 74.5 971.35
Q 61.8 955.1 62.25 934.8 63.65 910.5 69.85 886.1 92.35 838.05 120.1 791.7 124.5 811.45 144.5 816.1
M 77.5 937.85
Q 85.7 946.9 82.1 959.1 76.3 949.25 77.5 937.85
M 372.8 1287.95
Q 379.25 1294.6 388.05 1297.05 396.15 1291.1 406.3 1292.45 414.05 1314.05 419.95 1336.6 436.6 1360.95 453.45 1336.6 462.4 1318.6 468.7 1297.05 469.45 1340.7 444.3 1376.2 439.95 1400.15 424.55 1417.3 372 1435.55 365.2 1382.3 361.7 1374.6 354.55 1368.55 367.8 1329.2 372.8 1287.95
M 351.45 1379.2
Q 356.1 1378.95 359.05 1382.3 367.3 1437.65 421.45 1423.35 432 1422 438.2 1412.7 446 1481.35 423.05 1546.7 410.95 1615.4 401.7 1677.55 403.55 1740.8 398.7 1802.35
L 383.45 1814.55
Q 383.9 1830.35 372.8 1840.45 357.5 1846.25 342.3 1854.1 322 1846.6 301.2 1841.95 287.7 1830.1 298.2 1814.55 345.1 1769.15 359.05 1704.95 360.35 1662.8 356.05 1622.8 338.25 1528.3 340.8 1430.95
L 351.45 1379.2 Z"/>

<path fill="#E4E4E5" stroke="none" d="
M 359.05 1382.3
Q 356.1 1378.95 351.45 1379.2
L 340.8 1430.95
Q 338.25 1528.3 356.05 1622.8 360.35 1662.8 359.05 1704.95 345.1 1769.15 298.2 1814.55 287.7 1830.1 301.2 1841.95 322 1846.6 342.3 1854.1 357.5 1846.25 372.8 1840.45 383.9 1830.35 383.45 1814.55
L 398.7 1802.35
Q 403.55 1740.8 401.7 1677.55 410.95 1615.4 423.05 1546.7 446 1481.35 438.2 1412.7 432 1422 421.45 1423.35 367.3 1437.65 359.05 1382.3
M 710.7 502.55
Q 697.7 515.05 703.1 532.95
L 721.35 563.4
Q 759.25 604.5 789.85 650.15 802.7 658.15 817.2 663.85 837.35 661.45 835.45 641.05 816.6 558.55 747.2 510.1 729.8 502.1 710.7 502.55
M 258.65 654.7
Q 260 658.55 263.2 660.85 282.2 668 296.7 653.2 341.4 600.35 380.4 548.15
L 386.45 536.05
Q 395.3 498.9 357.55 502.55 307.8 531.7 276.9 581.65 252.65 614.85 258.65 654.7
M 260.2 665.35
Q 254.65 661.45 252.55 654.7 251.5 637.85 251.05 618.15 216.6 655.1 182.55 688.2 150.55 734.7 126.25 787.1 130.3 814.4 156.7 808.45 225.8 754.45 282.95 688.2 289.1 675.1 296.7 662.35 279.45 668.4 260.2 665.35 Z"/>

<path fill="#DDE3E9" stroke="none" d="
M 388.05 1297.05
Q 379.25 1294.6 372.8 1287.95 367.8 1329.2 354.55 1368.55 361.7 1374.6 365.2 1382.3 372 1435.55 424.55 1417.3 439.95 1400.15 444.3 1376.2 469.45 1340.7 468.7 1297.05 462.4 1318.6 453.45 1336.6 436.6 1360.95 419.95 1336.6 414.05 1314.05 406.3 1292.45 396.15 1291.1 388.05 1297.05 Z"/>

<path fill="#BBBEC6" stroke="none" d="
M 82.1 959.1
Q 85.7 946.9 77.5 937.85 76.3 949.25 82.1 959.1 Z"/>

<path fill="#E1E2E3" stroke="none" d="
M 138.35 835.85
Q 138.2 825.05 144.5 816.1 124.5 811.45 120.1 791.7 92.35 838.05 69.85 886.1 63.65 910.5 62.25 934.8 61.8 955.1 74.5 971.35
L 77.5 966.7
Q 57.7 915.65 106.45 889.1 110.85 893.6 111 899.8 106.7 914.05 109.5 928.65 114 932.7 120.1 931.7
L 124.7 901.3
Q 144.2 871.3 138.35 835.85
M 972.45 930.2
Q 978.3 933.6 983.15 928.65 981.75 908.7 984.7 889.1 1032.9 917.3 1016.65 971.35 1023.75 961.5 1028.75 950.05 1029.9 921.3 1022.7 892.15 1000.75 839.7 969.45 791.7 969.85 800.85 963.35 806.9 954.05 812.6 948.15 819.1 954.2 824.7 954.2 832.85 948.25 856.9 955.7 879.95 966.8 903.7 972.45 930.2 Z"/>

<path fill="#E5E5E6" stroke="none" d="
M 540.2 974.35
Q 514.95 941.95 489.95 913.45
L 450.45 846.55
Q 428.2 819.85 394.05 816.1 369.5 885.65 356.05 959.1 356.8 1097 368.2 1236.2 371.15 1262.55 380.4 1287.95 393.9 1290.2 409.3 1289.45 420.4 1311.2 426.05 1336.6 436.6 1349 447.4 1336.6 456.35 1319.95 462.55 1303.1 488.05 1154.35 520.45 1007.85 525.4 988.4 540.2 974.35 Z"/>

<path fill="#E5E5E5" stroke="none" d="
M 727.45 1403.55
Q 720.7 1416.4 707.65 1423.35 686.2 1426.55 665 1423.35
L 654.4 1412.7
Q 651.2 1455.45 654.4 1497.95 676.3 1581.55 687.9 1668.45 684.5 1733.75 690.9 1799.3 696.95 1807.1 706.15 1811.45
L 709.2 1829.8
Q 725.5 1845.5 745.7 1854.1 769.1 1848 792.9 1840.45 804.15 1825.9 791.4 1811.45 753.15 1771.9 733.5 1720.2 730.35 1679.05 733.5 1637.95 747.7 1553.75 750.25 1465.95 753.95 1418.85 735 1376.2 727.75 1388.15 727.45 1403.55
M 541.7 429.5
Q 538.3 421.75 531.1 415.75 493.75 405.45 454.95 408.15 404.7 446.4 363.7 494.9 386.6 497.15 401.7 514.65 412.8 537.8 433.7 552.7 576.45 569.95 541.7 429.5
M 634.6 409.65
Q 606.25 407.4 576.7 408.15 562.95 415.6 550.9 426.4 547.7 472.1 550.9 517.7 576.55 554 622.45 555.8 651.65 563.4 672.65 542.1 688.6 503.3 728.95 494.9 685.8 447.5 634.6 409.65 Z"/>

<path fill="#DDE3EA" stroke="none" d="
M 681.75 1297.05
Q 675.65 1315.2 672.65 1333.55 665.75 1352.7 646.75 1347.3 631.1 1329.3 623.95 1306.2 623.75 1329.75 633.1 1351.8 648.4 1383.9 665 1415.8 689.9 1422.15 713.7 1414.2 721.95 1395.4 733.5 1373.1 725.05 1333.35 716.75 1284.85 708.2 1305.4 690.9 1290.95 685 1292.3 681.75 1297.05 Z"/>

<path fill="#E6E6E6" stroke="none" d="
M 698.5 816.1
L 686.35 816.1
Q 662.75 822.9 645.2 840.4
L 599.6 916.55
Q 574 944.45 549.35 974.35 563.3 984.85 569.15 1001.8 602.6 1162.05 630 1306.2 635.1 1321.4 642.2 1333.55 650.1 1346.85 663.45 1339.7 670.35 1313.9 683.25 1289.45 696.4 1289.85 710.7 1287.95
L 721.35 1251.35
Q 735.3 1101.8 733.5 953.05 720.65 882.45 698.5 816.1 Z"/>

<path fill="#B0B4BC" stroke="none" d="
M 1009 940.85
Q 1004.25 950.3 1009 959.1 1014.8 949.55 1009 940.85 Z"/>

<path fill="#E4E4E4" stroke="none" d="
M 797.45 660.85
Q 798.95 673.45 806.6 685.15 864.9 753.9 935.95 808.45 968.2 812.6 964.9 779.55 938.1 733.5 907 685.15 869.95 653.65 835.45 615.15 837.75 626.2 838.5 639.55 836.7 685.7 797.45 660.85
M 619.4 625.85
L 633.1 779.55
Q 650.45 824 695.45 808.45 677.6 767.2 663.45 724.7 659.25 707.65 658.95 689.7 673.9 614.95 696.95 536.05 700.5 525.95 695.45 517.7 667.65 559.1 630 590.8 616.8 605.9 619.4 625.85 Z"/>

<path fill="#E3E3E4" stroke="none" d="
M 760.95 466
Q 754.05 446.7 742.65 429.5 719.45 399.15 680.2 405.1 667.65 408.05 652.85 412.75 699.55 453.35 741.15 500.95 765.8 512.3 782.2 532.95 770.15 498.3 760.95 466
M 378.9 405.1
Q 372.4 409.1 363.7 412.75 321.65 462.45 313.45 526.85 328.25 513.75 345.4 504.05 390.4 457.5 439.8 412.75 410.4 405.85 378.9 405.1 Z"/>

<path fill="#DBE1E7" stroke="none" d="
M 471.7 688.2
Q 470.1 731.4 465.65 773.4 458.6 810.85 421.45 817.6 439.1 826.15 453.45 840.4 488.4 912.05 544.75 968.3 602.8 914.85 636.15 843.45 650.05 827.7 668.1 817.6 626.65 809.8 623.95 767.35 622.95 722.65 616.35 679.1 616.35 748.8 608.7 819.1 598.6 881.3 555.45 927.15 544.6 930.35 534.15 927.15 486.75 874.55 480.9 803.85 476.75 744.35 471.7 688.2 Z"/>

<path fill="#E3E4E4" stroke="none" d="
M 394.05 517.7
Q 393.2 528.25 395.65 539.05 412.05 606.05 429.15 666.9 432.15 692.95 429.15 718.65 412.95 764.1 397.15 805.4 397.6 808.95 400.2 811.45 456.2 820.75 462.55 764.35 466.85 657.75 468.7 602.95 429.25 563.05 394.05 517.7
M 563 554.3
Q 549.5 556.4 546.25 569.45 539.75 564.3 537.2 555.8 525.95 553.6 515.9 554.3 494.1 563.1 474.8 578.6 480.15 679.5 483.9 776.45 486 823.8 502.2 867.85 514.95 903.6 544.75 925.65 557.95 921.7 566.1 910.4 590.55 869.05 602.65 822.15 610.55 717.7 614.75 606.05 624.2 589.85 613.25 575.6 591.2 557.45 563 554.3
M 593.45 621.2
L 584.4 627.35
Q 568.5 622.65 552.4 625.85 549.75 632.4 546.25 639.55 542.9 631.9 537.2 625.85 520.85 622.65 505.2 627.35 498.85 617.85 489.95 624.3 481.45 620.15 491.55 616.65 517.05 609.65 540.2 606.05 544.2 594 543.25 581.65 550.9 592.9 552.4 607.55 579.95 609.2 604.15 621.2 599.45 625.85 593.45 621.2
M 503.7 692.8
Q 495.55 691.8 488.45 688.2 513.15 685.7 540.2 680.6 544.45 667.15 543.25 651.65 550.9 664.5 552.4 680.6 577.35 685.8 601.1 688.2 577.45 699.2 552.4 698.85 546.1 732.6 540.2 698.85 522.3 695.7 505.2 700.35 497 698.1 503.7 692.8
M 500.65 767.35
L 497.55 761.3
Q 510.9 757.15 537.2 756.7 544 745.25 546.25 730.85 549.35 741.95 552.4 755.15 565.7 759.7 579.75 758.2 589.7 752.45 601.1 758.2 600.5 761 598 761.3
L 585.9 761.3 588.95 767.35
Q 572.7 771.55 552.4 774.95
L 546.25 794.8
Q 543.55 783.9 537.2 774.95 518.55 772.7 500.65 767.35
M 543.25 806.9
Q 549.1 829.85 549.35 857.15
L 546.25 907.35
Q 541.75 856.7 543.25 806.9 Z"/>

<path fill="#5D6178" stroke="none" d="
M 549.35 857.15
Q 549.1 829.85 543.25 806.9 541.75 856.7 546.25 907.35
L 549.35 857.15 Z"/>

<path fill="#8D8FA0" stroke="none" d="
M 570.7 767.35
L 588.95 767.35 585.9 761.3 552.4 761.3 570.7 767.35 Z"/>

<path fill="#9697A7" stroke="none" d="
M 601.1 758.2
Q 589.7 752.45 579.75 758.2 590.1 757 598 761.3 600.5 761 601.1 758.2 Z"/>

<path fill="#464766" stroke="none" d="
M 544.75 755.15
Q 548 759.3 552.4 761.3
L 585.9 761.3 598 761.3
Q 590.1 757 579.75 758.2 565.7 759.7 552.4 755.15 549.35 741.95 546.25 730.85 544 745.25 537.2 756.7 510.9 757.15 497.55 761.3
L 540.2 761.3
Q 543.5 759.4 544.75 755.15 Z"/>

<path fill="#DBDBDE" stroke="none" d="
M 552.4 761.3
Q 548 759.3 544.75 755.15 543.5 759.4 540.2 761.3
L 521.95 767.35
Q 535.25 766.45 546.25 773.4 556.95 765.85 570.7 767.35
L 552.4 761.3 Z"/>

<path fill="#9295A4" stroke="none" d="
M 500.65 767.35
L 521.95 767.35 540.2 761.3 497.55 761.3 500.65 767.35 Z"/>

<path fill="#555672" stroke="none" d="
M 521.95 767.35
L 500.65 767.35
Q 518.55 772.7 537.2 774.95 543.55 783.9 546.25 794.8
L 552.4 774.95
Q 572.7 771.55 588.95 767.35
L 570.7 767.35
Q 556.95 765.85 546.25 773.4 535.25 766.45 521.95 767.35 Z"/>

<path fill="#5E607A" stroke="none" d="
M 488.45 688.2
Q 495.55 691.8 503.7 692.8 497 698.1 505.2 700.35 522.3 695.7 540.2 698.85 546.1 732.6 552.4 698.85 577.45 699.2 601.1 688.2 577.35 685.8 552.4 680.6 550.9 664.5 543.25 651.65 544.45 667.15 540.2 680.6 513.15 685.7 488.45 688.2
M 534.15 689.7
Q 540.6 688.2 543.25 682.1 568.75 688.25 546.25 697.35 540.75 692.65 534.15 689.7 Z"/>

<path fill="#D1D2D6" stroke="none" d="
M 543.25 682.1
Q 540.6 688.2 534.15 689.7 540.75 692.65 546.25 697.35 568.75 688.25 543.25 682.1 Z"/>

<path fill="#60637C" stroke="none" d="
M 584.4 627.35
L 593.45 621.2
Q 599.45 625.85 604.15 621.2 579.95 609.2 552.4 607.55 550.9 592.9 543.25 581.65 544.2 594 540.2 606.05 517.05 609.65 491.55 616.65 481.45 620.15 489.95 624.3 498.85 617.85 505.2 627.35 520.85 622.65 537.2 625.85 542.9 631.9 546.25 639.55 549.75 632.4 552.4 625.85 568.5 622.65 584.4 627.35
M 540.2 613.6
Q 542.5 612.05 543.25 609.1 558.4 616.2 576.7 616.65 560.5 616.95 546.25 624.3 531.1 616.95 512.8 616.65
L 540.2 613.6 Z"/>

<path fill="#CBCDD2" stroke="none" d="
M 543.25 609.1
Q 542.5 612.05 540.2 613.6
L 512.8 616.65
Q 531.1 616.95 546.25 624.3 560.5 616.95 576.7 616.65 558.4 616.2 543.25 609.1 Z"/>

<path fill="#CFD5DD" stroke="none" d="
M 543.25 523.85
Q 540.75 529.5 537.2 534.45 492.4 563.25 439.8 563.4 450.4 577.4 464.15 587.8 478.7 557.35 512.8 552.7 530.2 548.2 544.75 557.35 561.1 548.35 579.75 552.7 613.15 557.8 626.95 587.8
L 652.85 561.85
Q 611.05 563.05 573.7 546.65 556.15 537.65 543.25 523.85 Z"/>

<path fill="#DDDEE0" stroke="none" d="
M 613.25 379.25
Q 610.1 372.55 604.15 368.6 602.75 383.85 607.2 399 626.65 402.5 645.2 408.15 655.3 405.4 665 403.6 638.7 392.55 613.25 379.25
M 485.45 368.6
Q 476.2 381.7 461.05 388.35 440.8 395.8 424.55 403.6 435 404.9 445.8 408.15 464.95 400.5 485.45 402.1 489.65 384.7 485.45 368.6 Z"/>

<path fill="#DEE4EA" stroke="none" d="
M 494.55 310.75
Q 495.3 349.85 493.05 386.85 490.95 393.3 488.45 399 509.75 404.1 528 409.65 539.45 412.85 544.75 423.35 569.25 403.9 601.1 399 594.9 356.1 593.45 313.75 542.45 357.3 494.55 310.75 Z"/>

<path fill="#CFD4DC" stroke="none" d="
M 631.5 237.7
Q 632.45 226.1 622.45 222.5 622.75 243.1 616.35 262
L 619.4 265.1
Q 628.95 253.45 631.5 237.7 Z"/>

<path fill="#D0D6DD" stroke="none" d="
M 473.2 265.1
L 476.3 262
Q 471.15 241.55 464.15 222.5 455.9 246.8 473.2 265.1 Z"/>

<path fill="#DFE5EB" stroke="none" d="
M 515.9 158.5
Q 503 169.25 489.95 182.85 470.3 215.5 477.8 252.9 489.3 276.05 496.05 301.6 543.3 360.05 593.45 304.65 602.5 275.75 614.75 246.85 624.4 213.7 598 193.5 556.75 178.65 515.9 158.5 Z"/>

<path fill="#DCE1E8" stroke="none" d="
M 540.2 131.1
Q 542.45 126.7 546.25 129.6 555.25 143.5 567.65 154 586.7 166.3 605.7 179.8 601.65 163.95 595 149.45
L 598 146.35
Q 618.1 180.6 622.45 219.45 628.2 218.85 633.1 222.5 641.75 263.15 605.7 280.25 596.85 308 605.7 335.1 608.6 341.25 611.7 335.1 672.5 252.2 645.2 152.45 614.95 64 521.95 82.45 506.2 89.25 496.05 103.7 494.15 101.9 491.55 100.7 450.55 127.5 447.4 176.75 437.65 261.8 485.45 332 492.6 302.35 480.9 274.25 449.65 260.25 456.45 225.5 465.3 218.65 470.2 208.75 471.4 178.1 491.55 155.5
L 494.55 158.5
Q 485.1 169.7 483.9 182.85 498 168 512.8 155.5 509.05 151.25 511.3 146.35 529.1 159.7 549.35 169.2 580.1 178.5 608.7 195.05 607.8 185.1 598 178.3 561.9 163.45 540.2 131.1 Z"/>
</g>
</defs>

<g transform="matrix( 1, 0, 0, 1, 0,0) ">
<use xlink:href="#Layer4_0_FILL"/>
</g>

<g transform="matrix( 1, 0, 0, 1, 0,0) ">
<use xlink:href="#Layer3_0_FILL"/>
</g>

<g transform="matrix( 0.63262939453125, 0, 0, 0.63262939453125, -2586,52) ">
<use xlink:href="#S_logo_7_png"/>
</g>

<g transform="matrix( 1, 0, 0, 1, 0,0) ">
<use xlink:href="#Layer2_0_FILL"/>
</g>

<g transform="matrix( 1, 0, 0, 1, 0,0) ">
<use xlink:href="#Layer1_0_FILL"/>
</g>

<g transform="matrix( 1, 0, 0, 1, 0,0) ">
<use xlink:href="#Layer0_0_FILL"/>
</g>
</svg>
