
<svg xmlns="http://www.w3.org/2000/svg" version="1.1" xmlns:xlink="http://www.w3.org/1999/xlink" preserveAspectRatio="none" x="0px" y="0px" width="1080px" height="1920px" viewBox="0 0 1080 1920">
<defs>
<g id="Layer4_0_FILL">
<path fill="#045EB8" stroke="none" d="
M 797.45 660.85
Q 798.95 673.45 806.55 685.2 865 754 935.95 808.5 968.2 812.65 964.9 779.55 937.55 732.75 907 685.2 870.3 654.05 835.45 615.2 837.75 626.55 838.5 639.55 836.65 685.7 797.45 660.85
M 260.2 665.35
Q 254.55 661.35 252.55 654.75 251.45 637.9 251.05 618.2 216.05 655.65 182.55 688.25 150.35 734.95 126.25 787.1 130.25 814.45 156.65 808.5 225.75 754.55 282.95 688.25 289.35 674.65 296.7 662.35 279.45 668.45 260.2 665.35 Z"/>
</g>
</defs>

<g transform="matrix( 1, 0, 0, 1, 0,0) ">
<use xlink:href="#Layer4_0_FILL"/>
</g>
</svg>
