
<svg xmlns="http://www.w3.org/2000/svg" version="1.1" xmlns:xlink="http://www.w3.org/1999/xlink" preserveAspectRatio="none" x="0px" y="0px" width="1080px" height="1920px" viewBox="0 0 1080 1920">
<defs>
<g id="Layer3_0_FILL">
<path fill="#045EB8" stroke="none" d="
M 555.5 830.3
Q 548.3 897.7 552.45 967.25 576.4 993.55 611.75 1002.3 678.7 1014.2 695.5 949 695.9 892.25 683.3 836.45 669.65 776.6 608.75 781.6 571.4 793.85 555.5 830.3
M 543.25 967.25
Q 547.1 902.2 540.25 836.45 519.6 777.2 456.5 781.6 437.35 789.35 424.6 806 398.55 864 398.7 927.75 392.25 976.75 435.25 999.25 498.95 1015.9 543.25 967.25 Z"/>
</g>
</defs>

<g transform="matrix( 1, 0, 0, 1, 0,0) ">
<use xlink:href="#Layer3_0_FILL"/>
</g>
</svg>
