
<svg xmlns="http://www.w3.org/2000/svg" version="1.1" xmlns:xlink="http://www.w3.org/1999/xlink" preserveAspectRatio="none" x="0px" y="0px" width="1080px" height="1920px" viewBox="0 0 1080 1920">
<defs>
<g id="Layer2_0_FILL">
<path fill="#045EB8" stroke="none" d="
M 627.8 1034.45
Q 601.35 1039.4 574 1035.95 562.95 1032.65 554.6 1025.5 552.2 1041.2 553.1 1055.4 585.8 1197.7 617.35 1327.2 622.1 1341.25 633.75 1349.6 646.15 1353.8 653.2 1342.15 662.45 1311.55 660.65 1279.4 666.3 1278.85 671.1 1282.4 680.35 1304.8 693.5 1325.75 700.7 1329.15 706.95 1324.25 734.45 1257.15 735.35 1183.85
L 735.35 1103.15
Q 732.95 1046.1 721.9 989.65 707.7 940.8 701 891.1 688.75 874.8 672.6 859.7 668.85 856.85 666.6 861.2 679.9 895.25 689.05 929.9 711 1014.3 627.8 1034.45
M 390.3 894.05
L 387.3 926.9
Q 374.15 961.9 369.4 998.6 354.9 1071.2 355.95 1145
L 355.95 1150.95
Q 355.05 1238.95 384.35 1321.25 389.4 1330.8 397.75 1327.2 411.65 1305.4 421.65 1282.4 425.4 1277.8 430.65 1280.9 433.45 1312 438.1 1339.15 445.7 1353.05 460.5 1349.6 474.1 1335.3 479.9 1315.25 487.7 1279.55 494.85 1240.6 523.25 1147.7 538.15 1049.4 539.5 1038.2 535.2 1028.5 527.4 1035.05 517.25 1035.95 489.95 1039.1 463.5 1034.45 385.2 1015.8 402.25 935.9 411.05 895.85 427.65 859.7 402.4 868.65 390.3 894.05 Z"/>
</g>
</defs>

<g transform="matrix( 1, 0, 0, 1, 0,0) ">
<use xlink:href="#Layer2_0_FILL"/>
</g>
</svg>
