
<svg xmlns="http://www.w3.org/2000/svg" version="1.1" xmlns:xlink="http://www.w3.org/1999/xlink" preserveAspectRatio="none" x="0px" y="0px" width="1080px" height="1920px" viewBox="0 0 1080 1920">
<defs>
<g id="Layer3_0_FILL">
<path fill="#045EB8" stroke="none" d="
M 441.35 783.1
Q 435.05 781 429.1 781.6 417.6 786.3 406.25 793.75 363.7 892.4 359.1 1000.75
L 371.25 1277.75
Q 370.35 1293 368.25 1309.75
L 371.25 1320.45
Q 380.6 1313.4 388 1305.2 404.45 1276.2 423 1247.35 425.9 1248.7 427.6 1250.45
L 430.6 1302.2
Q 433.35 1330.4 452 1350.85 467.8 1336.2 470.25 1314.35 471 1262.6 479.35 1210.85 507.05 1104.85 526.5 994.7
L 523.5 991.7
Q 502.7 1002.65 480.85 1008.35 424.75 1016.6 397.2 967.25 385.25 890.7 412.35 818.1 420.95 795.6 441.35 783.1
M 684.8 789.25
Q 675.85 786.45 659 781.6 655.3 782.05 654.4 784.7 681.9 804.7 689.4 839.45 698.55 884.95 703.05 930.75 705.4 968.1 678.75 993.2 621.9 1027 567.65 988.6 586.85 1103.65 616.3 1219.95 620.5 1273.4 625.5 1323.45 629.25 1330.6 631.55 1338.7 638.05 1351.2 649.8 1344.75 668.9 1299.85 668.05 1250.45 669.7 1248.65 672.7 1247.35 689.8 1274 704.65 1302.2
L 722.9 1320.45
Q 726.65 1192.25 733.5 999.25 730.5 889 684.8 789.25 Z"/>
</g>
</defs>

<g transform="matrix( 1, 0, 0, 1, 0,0) ">
<use xlink:href="#Layer3_0_FILL"/>
</g>
</svg>
