
<svg xmlns="http://www.w3.org/2000/svg" version="1.1" xmlns:xlink="http://www.w3.org/1999/xlink" preserveAspectRatio="none" x="0px" y="0px" width="1080px" height="1920px" viewBox="0 0 1080 1920">
<defs>
<g id="Layer3_0_FILL">
<path fill="#045EB8" stroke="none" d="
M 522 577.7
L 488.5 458.9
Q 480.15 439.7 467.2 422.4 462.35 418.75 456.5 419.4
L 398.7 463.5
Q 391.15 468.85 389.6 477.15 399.25 557.4 427.6 635.5 439.95 685.1 433.7 735.95 423 758.8 415.45 781.6 441.7 775.45 468.75 772.5 473.75 737.15 485.45 702.5 507.35 675.9 525 647.7 528.25 612.8 522 577.7
M 706.15 477.15
Q 697.65 466.7 687.9 457.4 659.1 435.45 630 419.4 615.85 435.85 607.25 455.9 580.25 532.95 567.65 614.2 561.35 643.25 579.8 665.95 623.65 709.8 625.5 772.5 651.6 775.6 678.75 781.6 675.05 765.4 665 748.1 649.55 688.6 668.05 629.45 695.65 555.4 706.15 477.15 Z"/>
</g>
</defs>

<g transform="matrix( 1, 0, 0, 1, 0,0) ">
<use xlink:href="#Layer3_0_FILL"/>
</g>
</svg>
