
<svg xmlns="http://www.w3.org/2000/svg" version="1.1" xmlns:xlink="http://www.w3.org/1999/xlink" preserveAspectRatio="none" x="0px" y="0px" width="1080px" height="1920px" viewBox="0 0 1080 1920">
<defs>
<g id="Layer1_0_FILL">
<path fill="#575974" stroke="none" d="
M 859.75 568.15
Q 847.2 550.85 832.2 534.5 817.1 440.85 726.7 415.15 680.95 399.7 637.95 380 630.9 371.6 621.15 366.2 611.5 323.1 622.65 280.55 631.1 281.65 636.45 274.45 652.05 246.6 634.9 220.9 645.6 190 636.45 158.2 623.25 138.3 616.55 115.35
L 607.35 107.7
Q 577.7 102.05 549.25 100.05 447.35 118.75 472.75 219.4 463.6 241.4 468.15 265.25 470.95 282.55 488.05 280.55 493.4 323.55 488.05 366.2 480.85 370.95 475.8 376.95 438.8 390.55 405.45 410.6 298.1 427.85 278.5 534.5 255.4 557.25 238.75 586.5 224.65 624.9 208.15 662.95 167.75 700.9 140.85 748.65 135.15 762.85 129.55 777.05 105 839.4 82.7 901.6 80.25 919.35 81.2 935.25 68.35 965.7 63.2 999.85 63 1001.2 62.8 1002.55 63 1003.95 63.2 1005.4 66.35 1026.8 73.55 1048.45 85.45 1065.1 102.6 1075.95 110.55 1062.65 114.85 1048.45
L 108.7 1023.95
Q 108.25 1007.3 116.35 993.35 120.65 1001.8 122.5 1011.7 130.45 1025.05 143.9 1017.85 144.35 979.75 140.85 944.4 126 926.5 140.85 907.7 172.65 863.65 211.2 825.1
L 263.2 739.45
Q 312.9 681 358.05 614 375.15 668.15 400.85 721.1 405.3 748.65 405.45 776.15 405.4 776.6 405.4 777.05 400.35 857.35 388.65 938.3 361.55 1029.9 356.5 1124.9 350.4 1169.45 356.5 1213.65 358.8 1269.45 368.75 1325.3 363.55 1367.35 358.05 1418.6 344.25 1458.35 336.6 1498.15 334.2 1602.3 348.85 1706.15 351.9 1733.7 348.85 1761.25 346.55 1817.05 292.25 1833.15 278.65 1842.9 286.15 1857.6 309.25 1866 335.1 1872.9 357.45 1896.75 390.15 1891.25 410.8 1888.95 413.1 1868.3 414 1830.7 417.7 1793.35
L 414.65 1778.05
Q 428.4 1675.75 468.15 1580.75 465.9 1504.25 459 1427.8 479.65 1405.45 489.6 1375.75 499.7 1322.25 507.95 1268.7 534.25 1181.65 549.25 1091.25 553.7 1081.45 552.3 1069.85 551.4 1059.75 553.85 1048.45 559.2 1066.65 558.4 1085.15 563.15 1123.55 572.2 1161.6 604.9 1270.7 621.15 1381.9 632.45 1404.85 648.65 1424.7 640.25 1506.85 642.55 1586.85
L 667 1654.15
Q 696.4 1739.5 696.1 1830.05 686 1860.65 705.25 1885.15 743.8 1901.5 775.6 1872.9 797.5 1863.7 821.5 1857.6 833.9 1842.3 802.7 1826.1 804.1 1826.55 790.9 1820.9
L 768 1797.95
Q 761.85 1783.1 760.35 1767.35
L 760.35 1724.5
Q 766.3 1640.7 775.6 1544.05 775.45 1510.4 768 1476.75 756.65 1442.45 748.1 1406.35 749.45 1388.95 745.05 1372.7
L 738.9 1322.25
Q 757.4 1231.05 754.2 1137.15 755.6 1119.7 751.15 1103.5 749.15 1061.3 740.45 1017.85 711.35 898.2 702.3 777.05 702.25 776.6 702.2 776.15 701.45 744.5 709.85 715 734.5 666.35 751.15 614
L 795.5 678.25
Q 836.45 724.8 869.75 777.05 883.8 799.05 896.45 822.05
L 966.85 904.65
Q 973.55 916.9 977.55 929.1 972.8 939.2 966.85 947.5 965.3 977.6 962.25 1007.15 963.6 1024.9 980.6 1019.35 989 1005.9 991.3 990.3
L 997.4 996.45
Q 998.8 1011.7 1002 1027 996.05 1037.1 992.85 1048.45 998.35 1059.15 1002 1069.85 1005.85 1074.9 1011.2 1071.4 1023.6 1063.6 1034.15 1051.5 1046.85 1019.05 1043.3 984.2 1028.95 947 1028 907.7 1026.2 898.7 1020.35 892.4 999.25 821.15 969.9 751.7 939.75 701.65 899.5 659.9 882.4 613.7 859.75 568.15
M 821.5 532.95
Q 838.95 549 853.65 568.15 870.15 606.2 890.35 644.6 894.95 659.75 894.95 675.2 879.95 672.9 864.35 673.7 858.2 677.5 858.2 684.4 859.75 730.1 824.55 699.7 779.9 655 751.15 598.7 753.75 560.65 758.8 519.2 789.7 528.8 821.5 532.95
M 654.8 445.75
Q 660.6 452.2 668.55 454.95 705.4 491.05 749.6 519.2 753.75 526.2 754.2 534.5 747.8 557.25 745.05 580.35 741.95 648.3 706.8 705.8
L 700.65 730.25
Q 699.15 753.65 699.05 777.05 698.95 804.15 700.65 831.25 706.05 867 709.85 901.6 702.95 890.25 693.05 881.7 661.8 866.55 636.45 846.5 632.35 812.3 628.85 777.05 628 769 627.25 760.85 612.25 726.45 596.65 696.6 588.25 674.15 582.9 650.75
L 582.9 614
Q 608.75 525.3 654.8 445.75
M 659.35 441.15
Q 685.05 413.05 723.6 418.25 807 443.95 821.5 528.35 789.7 521 757.25 514.6 710.15 485.4 668.55 451.9 664.75 445.75 659.35 441.15
M 898 679.8
Q 900.9 676.1 902.6 672.15 953.5 720.5 979.05 785.35 995.9 838.85 1017.3 895.45 1012.25 926.85 982.1 916.9 967.45 895.25 951.1 875.05 928.5 847.15 902.6 822.05
L 835.3 711.9
Q 847.35 724.3 859.75 711.9 861.9 697.7 861.3 684.4 865.1 680.25 872 678.25 885.15 682.55 898 679.8
M 533.95 106.2
Q 539.9 105.6 546.2 107.7 537.75 110.3 543.1 115.35 575.25 104.95 607.35 113.85
L 610.45 116.9
Q 606.6 118.45 604.3 121.5 633.2 149 637.95 188.8 626.05 227.8 624.2 268.35
L 596.65 308.1
Q 577.4 294.2 553.85 292.8 531.8 296.45 509.45 303.5 494.95 284.85 483.45 262.2 482.85 234.05 474.3 207.15 459.45 129.6 533.95 106.2
M 480.4 274.45
Q 476.15 270.95 474.3 265.25 471.85 246.3 472.75 228.55 480.4 251.05 480.4 274.45
M 636.45 262.2
Q 635.05 272 627.25 277.5 630.9 258.25 634.9 231.6 640.1 246.3 636.45 262.2
M 498.75 298.9
Q 505.05 307.05 514.05 311.15 533.35 302.3 553.85 298.9 575.4 300.9 595.15 311.15 609.35 305.5 613.5 289.75 613.05 328.15 615 366.2
L 625.7 376.95
Q 555.05 374.5 485 376.95
L 495.7 366.2 498.75 298.9
M 497.25 381.5
Q 566.05 380 634.9 386.1 668.7 396.5 699.15 413.65 665.8 421.3 644.1 447.3 598.2 446.2 552.3 442.7 507.8 446.2 463.6 447.3 442.95 422.5 411.6 413.65 450.75 388.25 497.25 381.5
M 295.35 523.75
Q 289.8 532.05 286.15 523.75 304.8 440.1 387.1 418.25 425.2 413.65 451.35 441.15 411.25 476.05 365.7 508.5 332.35 525.6 295.35 523.75
M 260.15 562
Q 271.3 548.25 283.1 536 309.55 528.2 335.1 522.25
L 350.4 522.25
Q 357.25 562.65 358.05 604.85 326.4 659.75 280.05 704.25 267.8 714.65 254.05 708.85 253.85 690.65 246.4 673.7 229.1 672.45 212.75 675.2 213.2 657.45 220.35 641.55 239.2 601.35 260.15 562
M 134.35 777.05
Q 139 765.8 143.9 754.75 169.3 708.55 206.6 672.15 210.6 675.5 209.65 681.3 226.05 678.55 243.3 679.8 246.4 694.8 250.95 711.9 259.55 722 270.85 715 275.3 717.4 272.4 721.1 252 748.05 233.9 777.05 222.05 796.05 211.2 815.95 168.5 861.5 131.65 913.85 110.4 928.2 94.95 907.7 91.75 897.15 94.95 886.3 112.35 829.8 134.35 777.05
M 518.65 448.8
Q 578.9 447.75 641 454.95 622.5 500.05 599.7 543.65 583.05 591.7 566.05 635.45 551.25 660.65 541.6 632.4 510.85 540.75 466.65 456.45 492.8 454 518.65 448.8
M 359.55 517.65
Q 408.35 484.15 454.4 445.75 505.8 531.1 527.85 627.8 526 657.15 517.1 684.4 499.7 723.85 480.4 760.85 478.25 769.3 478.75 777.05 478.8 778.15 478.9 779.2 478.85 779.5 478.8 779.75 478.7 780.65 478.65 781.55 478.2 784 477.85 786.5 475.35 804 475.45 821.75 475.45 828 475.8 834.3 475.65 846.35 466.65 854.15 427.8 867.95 400.85 898.55 406.4 855.85 410.05 812.85 411.75 794.85 411.55 777.05 411.1 744.15 403.95 711.9 351.3 620.75 359.55 517.65
M 576.75 647.65
Q 575.55 653.8 579.85 656.85 583.95 680.7 593.6 702.75 609.2 732.55 624.2 767 624.2 772.05 624.3 777.05 625.1 814.95 631.85 852.65 575.7 844.85 552.3 895.45
L 552.3 892.4
Q 545.9 876.5 533.95 863.35 506.25 850.05 475.8 851.1 484.1 826.95 481.95 800.65
L 481.95 794.5
Q 482.45 785.6 483.95 777.05 485.9 765.6 489.6 754.75 524.45 696.45 535.45 629.3 554.75 678.1 575.25 629.3 577.4 638.95 576.75 647.65
M 494.2 858.75
Q 535.3 857.25 549.25 895.45 555.95 967.95 547.7 1039.25 541.75 1052.7 527.85 1056.1 502.15 1058.55 478.9 1057.6 394.6 1042.75 413.1 956.65 421.35 924.4 431.45 892.4 451.35 855.55 494.2 858.75
M 558.4 898.55
Q 579.85 844.25 637.95 860.3 674.05 870.7 682.3 907.7 690.9 936.75 697.6 968.9 704 1046.15 635.15 1056.3 630.55 1057 625.6 1057.4 625.1 1057.35 624.55 1057.35 622.1 1057.5 619.6 1057.6 594.05 1059.75 570.65 1051.5
L 563 1042.3
Q 556.1 970.9 558.4 898.55
M 391.7 950.55
L 394.75 916.9
Q 407.15 890.9 433 881.7 416 918.7 407 959.7 389.55 1041.55 469.7 1060.65 496.8 1065.4 524.75 1062.2 535.15 1061.3 543.1 1054.55 547.55 1064.5 546.2 1075.95 530.9 1176.6 501.8 1271.75 494.5 1311.7 486.55 1348.25 480.55 1368.75 466.65 1383.4 451.5 1386.95 443.7 1372.7 438.95 1344.85 436.05 1313.05 430.7 1309.85 426.85 1314.6 416.6 1338.15 402.4 1360.45 393.85 1364.15 388.65 1354.35 358.65 1270.05 359.55 1180
L 359.55 1173.85
Q 358.5 1098.3 373.35 1023.95 378.25 986.35 391.7 950.55
M 582.9 1062.2
Q 610.9 1065.7 637.95 1060.65 723.15 1040 700.65 953.6 691.35 918.1 677.75 883.25 680 878.8 683.85 881.7 700.35 897.15 712.9 913.85 719.8 964.75 734.35 1014.8 745.65 1072.6 748.1 1131.05
L 748.1 1213.65
Q 747.15 1288.75 719.05 1357.4 712.6 1362.45 705.25 1358.95 691.8 1337.55 682.3 1314.6 677.4 1310.9 671.6 1311.55 673.45 1344.4 663.95 1375.75 656.75 1387.7 644.1 1383.4 632.15 1374.85 627.25 1360.45 595 1227.85 561.5 1082.1 560.55 1067.55 563 1051.5 571.55 1058.85 582.9 1062.2
M 139.3 958.2
Q 137.15 967.95 136.25 976.55 141.15 995.65 140.85 1014.8 133.5 1020.6 128.6 1011.7 123.85 997.8 120.95 984.2
L 96.45 999.5
Q 91.25 1018.3 90.35 1036.2 94.8 1048.45 104.1 1057.6 107.35 1062.95 102.6 1066.8 89.15 1060.35 79.65 1048.45 71.85 1025.5 68.95 1002.55 72.9 970.55 84.25 941.35 82.25 922.1 88.85 904.65 100.3 928.2 127.05 923 132.9 942.45 139.3 958.2
M 102.6 999.5
Q 106.9 1006.35 105.65 1014.8 100.45 1023.05 104.1 1033.15 112.4 1043.4 108.7 1054.55 99.55 1044.15 93.4 1033.15 96.8 1016.3 102.6 999.5
M 625.7 1377.3
L 627.25 1372.7
Q 641.15 1397.5 665.5 1381.9 680 1351.6 679.25 1317.65 688 1343.95 705.25 1365.05 711.25 1368.3 717.5 1365.05 730.05 1353 734.35 1336 740.6 1366.9 741.95 1400.25 740.6 1409.25 745.05 1415.55 747.35 1427.15 748.1 1436.95 739.7 1436.95 732.8 1441.55 719.8 1455.9 705.25 1466 689.8 1465.55 674.65 1461.45 661.65 1459.9 654.8 1470.6
L 654.8 1427.8
Q 638.55 1404.05 625.7 1377.3
M 429.95 1317.65
Q 432.85 1338.75 437.6 1369.65 444.45 1395.2 469.7 1386.5 482.25 1369.8 484.25 1371.8 486.05 1373.65 477.35 1394.15 446.15 1424.1 452.9 1467.55 446 1460.65 436.05 1461.45 420.75 1465.55 405.45 1466 390.6 1455.9 377.9 1441.55 369.5 1436.5 359.55 1436.95 368.75 1389.85 374.85 1339.05 381.75 1364 405.45 1365.05 420.45 1343.2 429.95 1317.65
M 434.5 1464.5
Q 446 1466.95 452.9 1476.75 467.55 1532.55 462.05 1589.9 455.65 1609.65 439.1 1622.05 430.1 1625.55 422.3 1620.5 412.5 1598.5 410.05 1574.6 407.15 1572.15 403.95 1571.55 387.7 1594.95 371.8 1615.9 354.85 1619.15 348.85 1602.15 324.1 1518.95 359.55 1440 364.45 1439.55 368.75 1441.55 382.35 1457 399.35 1469.1 417.55 1472.6 434.5 1464.5
M 980.6 923
Q 1009.05 930.2 1020.35 904.65 1026.95 951.75 1038.7 999.5 1036.1 1025.65 1031.05 1048.45 1021.45 1060.35 1008.15 1066.8
L 1005.05 1062.2
Q 1014.85 1046.45 1020.35 1030.1 1017.9 1012.8 1011.2 996.45 997.25 988.95 983.65 984.2 985.05 1000.25 979.05 1014.8 965.6 1020.15 968.35 1004.05 971.25 976.25 972.95 947.5 982.1 937.1 980.6 923
M 1002 999.5
Q 1006.6 999.2 1009.65 1002.55 1022.5 1032.05 1000.5 1054.55 1001.7 1038.8 1005.05 1022.45 1004 1012.2 1002 999.5
M 741.95 1440
Q 749.3 1439.55 752.7 1446.15 783.9 1528.9 755.75 1611.35 743.8 1623.1 731.25 1611.35 720.85 1590.4 705.25 1571.55 700.5 1574 697.6 1577.7 697 1596.2 691.5 1614.4 676.5 1632.3 660.9 1614.4 652.5 1604 648.65 1589.9 643.75 1534.1 654.8 1479.8 660.6 1465.4 676.2 1464.5 689.5 1472.15 705.25 1472.15 724.4 1456.85 741.95 1440
M 735.85 1622.05
Q 751.45 1624.05 761.85 1611.35 755.15 1685.8 754.2 1764.3 753 1770.4 757.25 1773.45 756.8 1786.3 761.85 1797.95 772.55 1807.3 780.2 1819.35 792.4 1824.6 812.5 1836.25 821.9 1845.3 818.45 1853 795.95 1862.05 772.55 1866.8 764.3 1876.4 754.2 1882.05 725.45 1894.75 703.75 1874.45 708.8 1746.55 662.45 1626.65 674.05 1626.65 686.9 1625.1 691.2 1623.4 694.55 1620.5 701 1600.45 705.25 1577.7 716.6 1602.75 735.85 1622.05
M 413.1 1617.45
L 420.75 1625.1
Q 434.85 1627.4 448.3 1625.1 400.85 1745 407 1874.45 372.55 1899.8 341.2 1869.85 317.95 1861.25 292.25 1854.55 280.35 1844.3 295.35 1836.2 363.4 1814.75 356.5 1742.9 350.4 1678.5 345.8 1608.25 357.75 1628 377.9 1619 392.9 1600.3 402.4 1577.7 409.75 1597.1 413.1 1617.45 Z"/>

<path fill="#DEE4EB" stroke="none" d="
M 420.75 1625.1
L 413.1 1617.45
Q 409.75 1597.1 402.4 1577.7 392.9 1600.3 377.9 1619 357.75 1628 345.8 1608.25 350.4 1678.5 356.5 1742.9 363.4 1814.75 295.35 1836.2 280.35 1844.3 292.25 1854.55 317.95 1861.25 341.2 1869.85 372.55 1899.8 407 1874.45 400.85 1745 448.3 1625.1 434.85 1627.4 420.75 1625.1 Z"/>

<path fill="#DEE4EA" stroke="none" d="
M 761.85 1611.35
Q 751.45 1624.05 735.85 1622.05 716.6 1602.75 705.25 1577.7 701 1600.45 694.55 1620.5 691.2 1623.4 686.9 1625.1 674.05 1626.65 662.45 1626.65 708.8 1746.55 703.75 1874.45 725.45 1894.75 754.2 1882.05 764.3 1876.4 772.55 1866.8 795.95 1862.05 818.45 1853 821.9 1845.3 812.5 1836.25 792.4 1824.6 780.2 1819.35 772.55 1807.3 761.85 1797.95 756.8 1786.3 757.25 1773.45 753 1770.4 754.2 1764.3 755.15 1685.8 761.85 1611.35
M 514.05 311.15
Q 505.05 307.05 498.75 298.9
L 495.7 366.2 485 376.95
Q 555.05 374.5 625.7 376.95
L 615 366.2
Q 613.05 328.15 613.5 289.75 609.35 305.5 595.15 311.15 575.4 300.9 553.85 298.9 533.35 302.3 514.05 311.15 Z"/>

<path fill="#E4E5E5" stroke="none" d="
M 752.7 1446.15
Q 749.3 1439.55 741.95 1440 724.4 1456.85 705.25 1472.15 689.5 1472.15 676.2 1464.5 660.6 1465.4 654.8 1479.8 643.75 1534.1 648.65 1589.9 652.5 1604 660.9 1614.4 676.5 1632.3 691.5 1614.4 697 1596.2 697.6 1577.7 700.5 1574 705.25 1571.55 720.85 1590.4 731.25 1611.35 743.8 1623.1 755.75 1611.35 783.9 1528.9 752.7 1446.15
M 902.6 672.15
Q 900.9 676.1 898 679.8 885.15 682.55 872 678.25 865.1 680.25 861.3 684.4 861.9 697.7 859.75 711.9 847.35 724.3 835.3 711.9
L 902.6 822.05
Q 928.5 847.15 951.1 875.05 967.45 895.25 982.1 916.9 1012.25 926.85 1017.3 895.45 995.9 838.85 979.05 785.35 953.5 720.5 902.6 672.15 Z"/>

<path fill="#D5D6DA" stroke="none" d="
M 1009.65 1002.55
Q 1006.6 999.2 1002 999.5 1004 1012.2 1005.05 1022.45 1001.7 1038.8 1000.5 1054.55 1022.5 1032.05 1009.65 1002.55 Z"/>

<path fill="#E2E2E3" stroke="none" d="
M 1020.35 904.65
Q 1009.05 930.2 980.6 923 982.1 937.1 972.95 947.5 971.25 976.25 968.35 1004.05 965.6 1020.15 979.05 1014.8 985.05 1000.25 983.65 984.2 997.25 988.95 1011.2 996.45 1017.9 1012.8 1020.35 1030.1 1014.85 1046.45 1005.05 1062.2
L 1008.15 1066.8
Q 1021.45 1060.35 1031.05 1048.45 1036.1 1025.65 1038.7 999.5 1026.95 951.75 1020.35 904.65 Z"/>

<path fill="#E4E4E4" stroke="none" d="
M 452.9 1476.75
Q 446 1466.95 434.5 1464.5 417.55 1472.6 399.35 1469.1 382.35 1457 368.75 1441.55 364.45 1439.55 359.55 1440 324.1 1518.95 348.85 1602.15 354.85 1619.15 371.8 1615.9 387.7 1594.95 403.95 1571.55 407.15 1572.15 410.05 1574.6 412.5 1598.5 422.3 1620.5 430.1 1625.55 439.1 1622.05 455.65 1609.65 462.05 1589.9 467.55 1532.55 452.9 1476.75
M 143.9 754.75
Q 139 765.8 134.35 777.05 112.35 829.8 94.95 886.3 91.75 897.15 94.95 907.7 110.4 928.2 131.65 913.85 168.5 861.5 211.2 815.95 222.05 796.05 233.9 777.05 252 748.05 272.4 721.1 275.3 717.4 270.85 715 259.55 722 250.95 711.9 246.4 694.8 243.3 679.8 226.05 678.55 209.65 681.3 210.6 675.5 206.6 672.15 169.3 708.55 143.9 754.75 Z"/>

<path fill="#DDE3E9" stroke="none" d="
M 437.6 1369.65
Q 432.85 1338.75 429.95 1317.65 420.45 1343.2 405.45 1365.05 381.75 1364 374.85 1339.05 368.75 1389.85 359.55 1436.95 369.5 1436.5 377.9 1441.55 390.6 1455.9 405.45 1466 420.75 1465.55 436.05 1461.45 446 1460.65 452.9 1467.55 446.15 1424.1 477.35 1394.15 486.05 1373.65 484.25 1371.8 482.25 1369.8 469.7 1386.5 444.45 1395.2 437.6 1369.65
M 627.25 1372.7
L 625.7 1377.3
Q 638.55 1404.05 654.8 1427.8
L 654.8 1470.6
Q 661.65 1459.9 674.65 1461.45 689.8 1465.55 705.25 1466 719.8 1455.9 732.8 1441.55 739.7 1436.95 748.1 1436.95 747.35 1427.15 745.05 1415.55 740.6 1409.25 741.95 1400.25 740.6 1366.9 734.35 1336 730.05 1353 717.5 1365.05 711.25 1368.3 705.25 1365.05 688 1343.95 679.25 1317.65 680 1351.6 665.5 1381.9 641.15 1397.5 627.25 1372.7 Z"/>

<path fill="#D9DADC" stroke="none" d="
M 105.65 1014.8
Q 106.9 1006.35 102.6 999.5 96.8 1016.3 93.4 1033.15 99.55 1044.15 108.7 1054.55 112.4 1043.4 104.1 1033.15 100.45 1023.05 105.65 1014.8 Z"/>

<path fill="#E0E0E1" stroke="none" d="
M 136.25 976.55
Q 137.15 967.95 139.3 958.2 132.9 942.45 127.05 923 100.3 928.2 88.85 904.65 82.25 922.1 84.25 941.35 72.9 970.55 68.95 1002.55 71.85 1025.5 79.65 1048.45 89.15 1060.35 102.6 1066.8 107.35 1062.95 104.1 1057.6 94.8 1048.45 90.35 1036.2 91.25 1018.3 96.45 999.5
L 120.95 984.2
Q 123.85 997.8 128.6 1011.7 133.5 1020.6 140.85 1014.8 141.15 995.65 136.25 976.55 Z"/>

<path fill="#E5E5E6" stroke="none" d="
M 637.95 1060.65
Q 610.9 1065.7 582.9 1062.2 571.55 1058.85 563 1051.5 560.55 1067.55 561.5 1082.1 595 1227.85 627.25 1360.45 632.15 1374.85 644.1 1383.4 656.75 1387.7 663.95 1375.75 673.45 1344.4 671.6 1311.55 677.4 1310.9 682.3 1314.6 691.8 1337.55 705.25 1358.95 712.6 1362.45 719.05 1357.4 747.15 1288.75 748.1 1213.65
L 748.1 1131.05
Q 745.65 1072.6 734.35 1014.8 719.8 964.75 712.9 913.85 700.35 897.15 683.85 881.7 680 878.8 677.75 883.25 691.35 918.1 700.65 953.6 723.15 1040 637.95 1060.65
M 394.75 916.9
L 391.7 950.55
Q 378.25 986.35 373.35 1023.95 358.5 1098.3 359.55 1173.85
L 359.55 1180
Q 358.65 1270.05 388.65 1354.35 393.85 1364.15 402.4 1360.45 416.6 1338.15 426.85 1314.6 430.7 1309.85 436.05 1313.05 438.95 1344.85 443.7 1372.7 451.5 1386.95 466.65 1383.4 480.55 1368.75 486.55 1348.25 494.5 1311.7 501.8 1271.75 530.9 1176.6 546.2 1075.95 547.55 1064.5 543.1 1054.55 535.15 1061.3 524.75 1062.2 496.8 1065.4 469.7 1060.65 389.55 1041.55 407 959.7 416 918.7 433 881.7 407.15 890.9 394.75 916.9
M 637.95 860.3
Q 579.85 844.25 558.4 898.55 556.1 970.9 563 1042.3
L 570.65 1051.5
Q 594.05 1059.75 619.6 1057.6 622.1 1057.5 624.55 1057.35 630.05 1056.95 635.15 1056.3 704 1046.15 697.6 968.9 690.9 936.75 682.3 907.7 674.05 870.7 637.95 860.3 Z"/>

<path fill="#E5E5E5" stroke="none" d="
M 549.25 895.45
Q 535.3 857.25 494.2 858.75 451.35 855.55 431.45 892.4 421.35 924.4 413.1 956.65 394.6 1042.75 478.9 1057.6 502.15 1058.55 527.85 1056.1 541.75 1052.7 547.7 1039.25 555.95 967.95 549.25 895.45
M 579.85 656.85
Q 575.55 653.8 576.75 647.65 577.4 638.95 575.25 629.3 554.75 678.1 535.45 629.3 524.45 696.45 489.6 754.75 485.9 765.6 483.95 777.05 482.45 785.6 481.95 794.5
L 481.95 800.65
Q 484.1 826.95 475.8 851.1 506.25 850.05 533.95 863.35 545.9 876.5 552.3 892.4
L 552.3 895.45
Q 575.7 844.85 631.85 852.65 625.1 814.95 624.3 777.05 624.2 772.05 624.2 767 609.2 732.55 593.6 702.75 583.95 680.7 579.85 656.85
M 641 454.95
Q 578.9 447.75 518.65 448.8 492.8 454 466.65 456.45 510.85 540.75 541.6 632.4 551.25 660.65 566.05 635.45 583.05 591.7 599.7 543.65 622.5 500.05 641 454.95
M 283.1 536
Q 271.3 548.25 260.15 562 239.2 601.35 220.35 641.55 213.2 657.45 212.75 675.2 229.1 672.45 246.4 673.7 253.85 690.65 254.05 708.85 267.8 714.65 280.05 704.25 326.4 659.75 358.05 604.85 357.25 562.65 350.4 522.25
L 335.1 522.25
Q 309.55 528.2 283.1 536
M 668.55 454.95
Q 660.6 452.2 654.8 445.75 608.75 525.3 582.9 614
L 582.9 650.75
Q 588.25 674.15 596.65 696.6 612.25 726.45 627.25 760.85 628 769 628.85 777.05 632.35 812.3 636.45 846.5 661.8 866.55 693.05 881.7 702.95 890.25 709.85 901.6 706.05 867 700.65 831.25 698.95 804.15 699.05 777.05 699.15 753.65 700.65 730.25
L 706.8 705.8
Q 741.95 648.3 745.05 580.35 747.8 557.25 754.2 534.5 753.75 526.2 749.6 519.2 705.4 491.05 668.55 454.95
M 853.65 568.15
Q 838.95 549 821.5 532.95 789.7 528.8 758.8 519.2 753.75 560.65 751.15 598.7 779.9 655 824.55 699.7 859.75 730.1 858.2 684.4 858.2 677.5 864.35 673.7 879.95 672.9 894.95 675.2 894.95 659.75 890.35 644.6 870.15 606.2 853.65 568.15 Z"/>

<path fill="#E5E6E6" stroke="none" d="
M 454.4 445.75
Q 408.35 484.15 359.55 517.65 351.3 620.75 403.95 711.9 411.1 744.15 411.55 777.05 411.75 794.85 410.05 812.85 406.4 855.85 400.85 898.55 427.8 867.95 466.65 854.15 475.65 846.35 475.8 834.3 475.45 828 475.45 821.75 475.35 804 477.85 786.5 478.25 783.1 478.8 779.75 478.85 779.5 478.9 779.2 478.8 778.15 478.75 777.05 478.25 769.3 480.4 760.85 499.7 723.85 517.1 684.4 526 657.15 527.85 627.8 505.8 531.1 454.4 445.75 Z"/>

<path fill="#E3E4E4" stroke="none" d="
M 286.15 523.75
Q 289.8 532.05 295.35 523.75 332.35 525.6 365.7 508.5 411.25 476.05 451.35 441.15 425.2 413.65 387.1 418.25 304.8 440.1 286.15 523.75 Z"/>

<path fill="#E4E4E5" stroke="none" d="
M 634.9 386.1
Q 566.05 380 497.25 381.5 450.75 388.25 411.6 413.65 442.95 422.5 463.6 447.3 507.8 446.2 552.3 442.7 598.2 446.2 644.1 447.3 665.8 421.3 699.15 413.65 668.7 396.5 634.9 386.1
M 723.6 418.25
Q 685.05 413.05 659.35 441.15 664.75 445.75 668.55 451.9 710.15 485.4 757.25 514.6 789.7 521 821.5 528.35 807 443.95 723.6 418.25 Z"/>

<path fill="#CCD2DA" stroke="none" d="
M 627.25 277.5
Q 635.05 272 636.45 262.2 640.1 246.3 634.9 231.6 630.9 258.25 627.25 277.5 Z"/>

<path fill="#C3C8D1" stroke="none" d="
M 474.3 265.25
Q 476.15 270.95 480.4 274.45 480.4 251.05 472.75 228.55 471.85 246.3 474.3 265.25 Z"/>

<path fill="#DFE5EB" stroke="none" d="
M 546.2 107.7
Q 539.9 105.6 533.95 106.2 459.45 129.6 474.3 207.15 482.85 234.05 483.45 262.2 494.95 284.85 509.45 303.5 531.8 296.45 553.85 292.8 577.4 294.2 596.65 308.1
L 624.2 268.35
Q 626.05 227.8 637.95 188.8 633.2 149 604.3 121.5 606.6 118.45 610.45 116.9
L 607.35 113.85
Q 575.25 104.95 543.1 115.35 537.75 110.3 546.2 107.7 Z"/>
</g>

<g id="Layer0_0_FILL">
<path fill="#575974" stroke="none" d="
M 4961.7 1911.25
Q 4960.6 1918.95 4964.85 1925.4 4950.2 1941.45 4958.55 1961.55 4959.65 1983.4 4980.55 1986.7 4986.05 2026.2 4980.55 2065.3 4973.15 2070.2 4968 2076.3 4929.95 2090.3 4895.65 2110.9 4784.4 2124.75 4765.2 2235.1 4745.7 2251.45 4733.75 2272.8 4711.75 2318.25 4692.9 2364 4638.65 2415.7 4608 2483.45 4589.3 2545.85 4564 2602.9 4561.3 2648.8 4545.15 2690.95 4543.7 2723.15 4554.55 2753.85 4566.2 2767.35 4581.3 2777.4 4585.7 2780.55 4589.15 2775.85 4593.85 2763.55 4597 2752.25 4585.2 2725.4 4595.45 2697.25 4597.15 2695.35 4600.15 2694.1 4602.5 2709.5 4609.6 2722.4 4618.2 2728.5 4626.85 2722.4 4627.35 2683.25 4623.75 2646.95 4618.4 2639.4 4615.85 2631.2 4625.95 2603.1 4645.75 2580.9 4708.6 2522.45 4746.35 2445.75 4801.65 2382.55 4846.95 2313.7 4854.8 2342.45 4865.8 2370.25 4901.15 2421.35 4895.65 2483.45 4893.15 2524.5 4889.4 2562.05 4878.85 2603.4 4878.4 2646.95 4867.7 2670.65 4862.65 2697.25 4849.3 2762 4845.35 2826.15 4839.7 2872.2 4843.8 2920.45 4849.3 2974.35 4857.95 3027.35 4851.95 3066.65 4850.1 3109.1 4839.55 3155 4826.5 3200.25 4821 3246.3 4824.95 3291.45 4835.8 3384.15 4837.5 3480.05 4827.6 3525.95 4782.5 3538.2 4757.65 3555.05 4782.5 3569.65 4814.85 3573.9 4839.1 3594.8 4852.75 3599.55 4867.4 3599.55 4910.9 3599.85 4905.1 3555.5
L 4905.1 3524.1
Q 4904.15 3497.2 4906.65 3467.5 4925.2 3374.25 4960.1 3285.15 4963.4 3256.4 4958.55 3228.55 4957.15 3192.85 4949.1 3159.4 4948.15 3147.45 4950.7 3134.25 4971.9 3111.3 4982.15 3080.8 4997.05 2975 5029.3 2873.3 5039.65 2833.35 5043.45 2791.55 5048 2781.5 5046.6 2769.55 5045.65 2760.6 5048.15 2750.7
L 5057.6 2826.15
Q 5074.7 2904.25 5098.45 2983.35 5107.25 3035.5 5117.3 3087.1 5127.7 3113 5145.6 3134.25 5145 3172.45 5139.3 3212.85 5136 3255.3 5139.3 3297.7 5191.05 3414.35 5194.35 3541.35 5183.35 3571.25 5203.75 3594.8 5246.05 3609.3 5279.2 3579.1
L 5323.25 3566.5
Q 5335.05 3553.15 5320.1 3541.35 5267.1 3524.85 5258.8 3470.65 5265.1 3356.5 5276.1 3249 5272.15 3183.75 5249.35 3121.65 5244.8 3074.5 5238.35 3030.5 5247.65 2983.15 5250.95 2936.15 5255.5 2926.1 5254.05 2914.15 5257.35 2802.7 5233.65 2694.1 5206.3 2585.8 5200.65 2474 5200.45 2443.2 5208.5 2414.3 5236.8 2367.15 5249.35 2313.7
L 5296.5 2379.7
Q 5358.15 2447 5401.85 2527.45 5442.7 2571 5478.85 2618.65 5469.75 2665.65 5467.85 2712.95 5470.35 2729.45 5486.7 2723.95 5496.8 2710.75 5497.7 2694.1 5506.35 2710.9 5508.75 2730.25 5488.75 2756.8 5513.45 2779
L 5538.6 2760.1
Q 5552.45 2726.95 5551.15 2690.95 5526.35 2572.6 5478.85 2461.45 5451.5 2407.55 5406.55 2367.15 5387.55 2321.85 5362.55 2269.65 5350.1 2251.75 5334.25 2238.25 5313.5 2128.05 5203.75 2110.9 5160.05 2092.35 5122.05 2070.05 5114.95 2063.45 5114.15 2052.75 5111.05 2017.85 5115.75 1983.6 5121.85 1984.5 5128.3 1982 5144.65 1953.25 5131.45 1922.25 5145.75 1872.15 5112.6 1831.1 5114.5 1829.35 5115.75 1826.4 5110.55 1819 5103.15 1812.25 5070.3 1806.4 5038.7 1804.4 5017.2 1805.3 4999.4 1815.4 4951.8 1843.7 4958.55 1898.7 4957.15 1906.25 4961.7 1911.25
M 4975.85 1967.85
Q 4972.7 1935.65 4964.85 1905
L 4964.85 1870.4
Q 4983.05 1812.7 5043.45 1809.1 5029.6 1813.35 5040.3 1816.95 5064.8 1808.6 5090.6 1812.25 5103.65 1815.85 5098.45 1826.4 5129.1 1851.05 5131.45 1890.85 5122.95 1932.95 5117.3 1974.15 5104.75 1995.5 5087.45 2011.85 5052.4 1984.85 5015.15 2007.15 5006.65 2010.95 4999.4 2005.6 4988.4 1986.25 4975.85 1967.85
M 5118.9 1978.85
L 5123.6 1974.15
Q 5124.85 1953.55 5128.3 1933.3 5133.65 1950.1 5129.9 1967.85 5129.75 1980.3 5118.9 1978.85
M 4851.65 2211.5
Q 4838.6 2214.65 4823.35 2219.35
L 4817.05 2216.2
Q 4853.4 2158.05 4911.4 2121.9 4923.65 2125.05 4933.4 2132.9 4940.45 2137 4938.1 2143.9 4897.7 2178.2 4851.65 2211.5
M 4810.8 2225.65
Q 4819.75 2225.05 4829.65 2227.25 4802.95 2278.45 4747.9 2293.25 4722.75 2318.4 4705.45 2348.25 4720.4 2316.65 4733.75 2282.25 4750.9 2249.85 4782.5 2230.35 4797.4 2229.75 4810.8 2225.65
M 4845.35 2235.1
Q 4845.35 2226.3 4848.5 2217.8 4898.5 2185.75 4945.95 2147.05 4976.3 2201.9 5001 2257.1 5035.25 2319.65 5010.4 2386 4993.15 2425 4972.7 2464.6 4968.15 2509.7 4963.25 2552.6 4924.1 2571.35 4890.95 2599.8 4890.95 2586.1 4892.55 2568.35 4905.1 2510.2 4898.8 2452 4899.45 2440.05 4897.25 2426.85 4882 2388.65 4865.8 2354.55 4852.45 2323.75 4854.8 2291.7 4849.95 2263.4 4845.35 2235.1
M 4699.2 2364
Q 4721.65 2336.8 4740.05 2307.4 4763 2290.1 4788.8 2279.1 4791.3 2279.55 4791.9 2282.25 4775.75 2305.05 4776.2 2332.55 4777.6 2362.55 4784.05 2389.15 4766.45 2412.1 4740.05 2411.15 4739.25 2392.75 4732.2 2376.55 4715.05 2373.1 4697.6 2376.55 4696.65 2370.45 4699.2 2364
M 4807.65 2220.95
Q 4791 2221.75 4776.2 2228.8 4779.35 2178.65 4820.2 2145.5 4843.95 2128.65 4870.5 2118.75 4886.7 2118.15 4905.1 2120.35 4841.75 2156.95 4807.65 2220.95
M 4784.05 2307.4
Q 4808.45 2266.35 4835.95 2225.65 4847.75 2263.4 4846.95 2304.25 4820.85 2344.2 4790.35 2382.85 4779.05 2346.2 4784.05 2307.4
M 5111.05 2065.3
Q 5113.4 2073.95 5122.05 2076.3 5049.55 2079.6 4977.4 2076.3 4987.95 2069.1 4988.4 2055.9 4991.1 2027.45 4988.4 1999.3 4993.3 2011.55 5005.7 2015 5024.4 2004.8 5046.6 2002.45 5069.35 2003.55 5089 2015 5102.85 2011.25 5106.3 1996.15 5107.55 2029.8 5111.05 2065.3
M 5159.75 2143.9
Q 5154.9 2141.55 5158.2 2137.65 5169.2 2129.6 5181.75 2121.9 5242.3 2156 5279.2 2216.2 5262.7 2221.75 5247.8 2211.5 5203 2181.65 5159.75 2143.9
M 5137.75 2148.65
Q 5092.15 2145.35 5046.6 2143.9 5002.1 2144.85 4958.55 2148.65 4937.15 2123.95 4905.1 2112.5 4939.7 2090.65 4980.55 2081.05 5056 2079.45 5131.45 2085.75 5163.05 2095.05 5191.2 2112.5 5161.35 2126 5137.75 2148.65
M 4958.55 2156.5
Q 4988.4 2156.8 5018.3 2147.05 5079.45 2146.1 5137.75 2159.65 5115.9 2202.25 5093.75 2249.25 5047.5 2253.3 5002.55 2247.65 4982.45 2202.85 4958.55 2156.5
M 5005.7 2258.65
Q 5014.35 2258.05 5021.45 2253.95 5056.15 2251.9 5090.6 2260.25 5075.2 2302.35 5057.6 2342 5050.8 2351.75 5041.85 2345.1 5021.9 2299.85 5005.7 2258.65
M 5029.3 2332.55
Q 5033.85 2348.25 5048.15 2354.55 5065.9 2346.2 5070.15 2326.25 5071.1 2363.5 5085.9 2398.55 5108.05 2438.65 5122.05 2480.3 5120.45 2509.25 5125.15 2536.9 5124.4 2545.55 5128.3 2552.6 5067.5 2546.5 5048.15 2602.9 5041.55 2566.6 5005.7 2557.35 4986.7 2556.7 4968 2552.6 4969.4 2549 4972.7 2546.35 4973.5 2504.7 4979 2464.6 5014.65 2402.65 5029.3 2332.55
M 5082.75 2291.7
Q 5109.45 2215.1 5153.45 2147.05 5199.05 2186.05 5249.35 2219.35 5252.5 2238.25 5249.35 2257.1 5244.35 2292.45 5239.95 2329.4 5222.3 2380 5199.05 2430 5192.9 2517.55 5208.5 2602.9
L 5188.05 2582.5
Q 5159.3 2567.7 5133.05 2549.5 5126.25 2517.25 5128.3 2483.45 5129.1 2478.9 5125.15 2477.15 5125.8 2469.8 5123.6 2461.45 5102.85 2422 5085.9 2382.85 5067 2337.75 5082.75 2291.7
M 4964.85 1933.3
Q 4968 1955.3 4972.7 1980.45 4956.2 1959.2 4964.85 1933.3
M 5194.35 2121.9
Q 5261.45 2116.7 5302.8 2172.2 5319 2197.85 5326.4 2227.25 5308.8 2224.4 5288.65 2219.35 5253.9 2158.2 5194.35 2121.9
M 5304.35 2271.25
Q 5280 2250.5 5266.65 2222.5 5293.7 2229.1 5323.25 2233.5 5370.7 2279.4 5387.7 2342 5373.85 2317 5354.7 2296.4
L 5304.35 2271.25
M 5249.35 2301.1
L 5257.2 2222.5
Q 5289.3 2262.15 5312.25 2307.4 5323.1 2346.7 5305.95 2382.85 5275.15 2343.4 5249.35 2301.1
M 5362.55 2313.7
Q 5375.45 2337.1 5394 2357.7 5399.15 2366.5 5398.7 2376.55 5383.3 2374.2 5367.25 2375
L 5362.55 2379.7
Q 5360.35 2397.95 5357.8 2414.3 5346.65 2414.75 5335.8 2411.15 5343.5 2423.1 5357.8 2419 5364.25 2401.4 5367.25 2382.85 5451.05 2494.75 5511.85 2620.2 5495.7 2624.45 5482 2615.5 5471.45 2595.05 5456.85 2577.75 5393.35 2517.1 5353.1 2439.45 5344.45 2427.35 5334.25 2417.45 5330.8 2413.05 5335.8 2411.15 5322.15 2400.95 5310.65 2386 5338.95 2328.8 5301.25 2277.55 5336.75 2286.5 5362.55 2313.7
M 5524.45 2601.35
Q 5522.55 2610.8 5515 2615.5 5454.35 2491.45 5373.55 2381.3 5382.95 2380.5 5392.4 2382.85 5400.9 2383.8 5405 2376.55 5456.05 2417.9 5482 2480.3 5504 2543.95 5524.45 2601.35
M 5508.75 2703.55
Q 5514.55 2704 5516.6 2709.8 5529.3 2736.7 5508.75 2756.95 5514.05 2731.35 5508.75 2703.55
M 5513.45 2760.1
Q 5521.45 2748.65 5527.6 2734.95 5522.55 2717.05 5519.75 2700.4 5503.05 2692.85 5489.85 2687.8 5490.5 2699.9 5488.3 2712.95 5482.8 2720.35 5474.15 2719.25 5476.35 2684.35 5478.85 2650.1 5486.7 2639.25 5489.85 2624.95 5513.15 2635 5524.45 2612.35 5531.05 2649 5544.9 2687.8 5549.15 2718.75 5538.6 2747.55 5529.3 2763.1 5513.45 2772.7 5510.15 2766.55 5513.45 2760.1
M 5247.8 2857.6
L 5247.8 2920.45
Q 5243.4 2982.05 5227.35 3043.05 5222 3056.1 5213.2 3066.65 5208.65 3069.8 5205.35 3065.05 5194.8 3047.6 5189.6 3027.35 5157.25 2896.1 5155.05 2760.1 5191.8 2745.5 5202.2 2706.65 5201.75 2640.95 5172.35 2582.5 5216.35 2600.7 5214.75 2650.1 5247.15 2751.3 5247.8 2857.6
M 5200.65 3069.8
Q 5210.05 3073.1 5219.5 3069.8 5226.9 3057.2 5233.65 3043.05 5241.35 3094.15 5247.8 3143.65 5239.15 3143.65 5232.05 3148.4 5214.95 3163.8 5195.9 3175.1 5173.3 3157.5 5151.9 3175.1 5151.45 3154.85 5151.9 3134.25 5143.1 3117.9 5129.9 3102.8 5119.35 3088.5 5120.45 3071.35 5130.05 3102.65 5159.75 3091.8 5170.3 3081.1 5170.75 3065.05 5172.95 3043.7 5172.35 3024.2 5176.25 3023.75 5178.6 3027.35 5186.3 3050.3 5200.65 3069.8
M 5096.9 2558.9
Q 5107.1 2557.65 5115.75 2562.05 5110.4 2580.6 5114.15 2599.8 5137.9 2627.45 5170.75 2643.8 5230.65 2711.4 5153.45 2755.4 5113.25 2762.65 5071.75 2758.55 5057.9 2752.55 5054.45 2738.1 5051.15 2669.1 5054.45 2599.8 5065.75 2568.8 5096.9 2558.9
M 4958.55 2562.05
L 4977.4 2562.05
Q 4984 2583.1 4975.85 2602.9 4938.1 2628.05 4906.65 2659.5 4910.6 2620.55 4928.7 2584.05 4942.05 2569.9 4958.55 2562.05
M 4881.5 2653.2
L 4884.65 2621.8
Q 4898.65 2596.95 4922.4 2580.9 4900.7 2631.85 4895.65 2689.4 4895.5 2739.7 4941.25 2760.1 4940.8 2908.2 4900.4 3049.35 4896.6 3061.95 4886.25 3068.2 4880.1 3063.2 4875.25 3055.65 4845.2 2962.1 4848.5 2863.85 4849.45 2756.05 4881.5 2653.2
M 4980.55 2760.1
Q 4962.8 2760.9 4945.95 2755.4 4879.5 2724.75 4912.95 2659.5 4944.85 2630.1 4979 2606.05 4992.05 2583.9 4983.7 2558.9 5031.35 2560.3 5045 2606.05 5048.15 2670.65 5045 2734.95 5038.25 2755.1 5018.3 2760.1
L 4980.55 2760.1
M 5005.7 2767.95
Q 5009.8 2765.95 5015.15 2766.4 5021.1 2767.65 5024.55 2763.25 5032.75 2761.7 5040.3 2756.95
L 5040.3 2775.85
Q 5036.5 2809 5029.3 2845 5007.45 2809.65 5005.7 2767.95
M 4949.1 2763.25
Q 4972.55 2766.55 4996.25 2767.95 5000.7 2770 5004.15 2772.7 5001.8 2808.05 5019.85 2838.7 5023.65 2875.2 5013.55 2911 4991.7 2985.85 4975.85 3061.95 4971.1 3083.95 4950.7 3090.2 4936.25 3087.1 4934.95 3071.35
L 4933.4 3019.5
Q 4939.7 2888.25 4949.1 2763.25
M 5172.35 2639.1
Q 5147 2621.45 5120.45 2599.8 5110.25 2580.45 5122.05 2562.05 5170.45 2564.4 5180.2 2612.35 5189.45 2639.1 5192.75 2665.8 5186 2649.9 5172.35 2639.1
M 5056 2753.85
Q 5070.45 2767.05 5090.6 2767.95 5086.8 2787.3 5085.9 2807.25 5076.75 2826.75 5070.15 2848.15 5056.8 2802.4 5056 2753.85
M 5137.75 2763.25
L 5147.2 2763.25
Q 5157.4 2895.3 5166.05 3027.35 5166.35 3052.95 5161.35 3077.65 5150.95 3098.4 5133.05 3083.95 5125 3072.75 5120.45 3058.8
L 5074.85 2857.6 5076.45 2838.7
Q 5094.35 2808.55 5095.3 2772.7
L 5100 2767.95
Q 5119.65 2767.35 5137.75 2763.25
M 4738.5 2417.45
L 4746.35 2420.6
Q 4755.45 2417.45 4763.65 2415.85 4725.75 2466.65 4696.05 2518.05 4650.3 2568.65 4609.6 2620.2 4598.25 2624.15 4587.55 2618.65 4647.45 2494 4729.05 2382.85 4731.55 2400.15 4738.5 2417.45
M 4716.45 2379.7
Q 4723.05 2380.95 4721.2 2386 4642.1 2495.25 4582.85 2615.5 4571.55 2605.45 4576.55 2590.35 4602.2 2498.7 4652 2417.45 4672.3 2393.05 4691.3 2373.4 4695.4 2376.9 4694.45 2382.85 4705.45 2383.3 4716.45 2379.7
M 4564 2650.1
Q 4564.8 2629.5 4568.7 2609.2 4581.45 2634.65 4609.6 2628.05 4616.65 2645.35 4622.15 2661.1 4619.95 2671.15 4619 2679.95 4623.1 2698.65 4625.3 2719.25 4617.6 2720.35 4611.15 2716.1 4606.3 2701.8 4603.3 2687.8 4589.75 2696.3 4576.55 2703.55 4574.05 2715.15 4575 2725.55 4581.45 2715.8 4584.45 2703.55 4589.45 2716.75 4584.45 2730.25 4586.65 2742.65 4593.85 2752.25 4588.35 2760.75 4582.85 2750.7 4574.85 2739.5 4575 2725.55 4569.2 2727.4 4568.7 2733.4 4577.5 2750.35 4587.55 2766.4 4586 2770.35 4582.85 2772.7 4575.6 2764.05 4565.55 2758.55 4550.15 2733.25 4549.85 2703.55 4553.3 2676 4564 2650.1
M 4840.65 3162.55
Q 4843.5 3151.85 4853.25 3146.8 4881.35 3164.25 4892.55 3193.95 4895.65 3258.4 4868.95 3316.6 4855.1 3334.8 4840.65 3316.6 4820.55 3261.1 4829.65 3203.4 4833.6 3188 4840.65 3162.55
M 4862.65 3039.9
L 4875.25 3065.05
Q 4878.55 3069.3 4883.1 3071.35 4886.55 3076.55 4892.55 3072.95
L 4903.55 3061.95 4922.4 3024.2
Q 4923.65 3051.7 4928.7 3077.65 4954.6 3116.45 4975.85 3074.5 4975.55 3087.85 4969.55 3099.65 4956.2 3114.75 4947.55 3131.1 4945.05 3147.6 4945.95 3162.55 4946.9 3168.2 4942.85 3171.95 4933.85 3166.15 4923.95 3165.65 4908.7 3172.45 4892.55 3170.4 4869.9 3152.8 4851.65 3132.65 4858.75 3083.8 4862.65 3039.9
M 4923.95 3014.75
Q 4919.1 3017.3 4916.1 3021.05 4921.6 2992.45 4927.1 2958.2 4932.3 2986.65 4923.95 3014.75
M 5172.35 3014.75
Q 5167.6 2992.75 5169.2 2970.75 5177.85 2994.65 5180.2 3021.05 5177.05 3017.3 5172.35 3014.75
M 5166.05 3327.6
Q 5140.75 3305.25 5140.9 3271 5143.9 3231.2 5148.75 3187.7 5162.9 3163.95 5188.05 3176.7 5199.35 3187.7 5197.5 3203.4
L 5197.5 3263.15
Q 5198.45 3296 5186.5 3326 5176.4 3331.35 5166.05 3327.6
M 4955.15 3239.25
L 4955.4 3241.15
Q 4957.9 3276.65 4947.55 3310.3 4938.45 3333.7 4914.55 3327.6 4903.85 3316.9 4903.55 3300.85 4897.7 3249.3 4898.8 3197.1 4901.65 3190.5 4905.1 3179.8 4929 3162.2 4947.55 3184.55
L 4954.95 3238
Q 4954.95 3238.1 4955 3238.25
L 4955.1 3238.85
Q 4955.1 3238.63125 4955.1 3238.4 4955.1119140625 3238.83125 4955.15 3239.25
M 4897.25 3190.85
Q 4891.6 3185.95 4892.55 3178.25 4901 3181.7 4897.25 3190.85
M 4906.65 3329.15
Q 4921 3338.25 4936.55 3335.45 4921.3 3383.55 4909.8 3429.75 4879 3453.35 4845.35 3432.9 4836.7 3375.85 4834.35 3316.6 4844.9 3333.7 4864.25 3327.6 4883.1 3309.65 4892.55 3285.15 4898.5 3306.7 4906.65 3329.15
M 4890.95 3282
Q 4890.65 3270.85 4892.55 3260 4898.95 3271.15 4890.95 3282
M 4908.25 3443.9
Q 4904.8 3450.5 4903.55 3458.05 4901 3484.45 4901.95 3508.35 4901.85 3508.9 4901.8 3509.45 4901.05 3514.65 4900.5 3519.9 4897.5 3546.9 4898.8 3574.4 4899.3 3585.85 4889.4 3591.65 4852.15 3602.5 4823.35 3575.95
L 4779.35 3563.4
Q 4766.6 3555.65 4779.35 3547.65 4814.55 3535.85 4837.5 3505.2 4844.6 3472.65 4846.95 3439.2 4861.85 3449.4 4879.95 3448.6 4895.05 3448.15 4908.25 3443.9
M 5202.2 3190.85
Q 5198.45 3185.15 5197.5 3178.25 5205.95 3181.7 5202.2 3190.85
M 5210.05 3263.15
Q 5211 3257.15 5206.9 3253.7 5205.95 3220.85 5208.5 3184.55 5221.05 3159.55 5246.2 3146.8 5263.5 3178.4 5268.2 3216 5272.3 3260.8 5261.95 3304 5248.1 3343.3 5224.2 3310.3 5214.75 3287.5 5210.05 3263.15
M 5200.65 3285.15
Q 5204.55 3284.65 5206.9 3288.3 5215.1 3310.6 5232.05 3327.6 5252.05 3334.65 5261.95 3316.6 5261 3375.2 5252.5 3432.9 5228.15 3445.8 5200.65 3440.75 5193.7 3438.55 5189.6 3432.9 5176.4 3382.45 5159.75 3335.45 5173.1 3334.95 5184.9 3333.85
L 5192.75 3326
Q 5199.05 3305.9 5200.65 3285.15
M 5232.05 3447.05
Q 5242.15 3446.9 5247.8 3439.2 5256.1 3466.85 5258.8 3498.95 5276.25 3534.15 5313.8 3544.5 5333.95 3558.8 5310.65 3566.5 5294.95 3570.75 5282.35 3572.8 5264.3 3587.45 5241.5 3594.8 5213.5 3601.9 5199.05 3577.5 5198.25 3508.5 5192.75 3442.35 5211.15 3451.75 5232.05 3447.05
M 3864.2 1848.55
Q 3859.5 1860.8 3859.5 1873.7 3863.45 1897.9 3861.1 1920.85 3854.8 1924.15 3851.65 1930.3 3847.1 1953.7 3857.95 1974.3 3863.3 1981.7 3872.1 1980.6 3876.65 2020.65 3873.65 2059.2
L 3859.5 2073.35
Q 3824.6 2087 3793.5 2106.35 3766.6 2119.4 3736.9 2123.65 3708.3 2136.5 3691.3 2162.95 3671.35 2208.5 3656.75 2257.25 3619.3 2306.45 3597 2364.15 3556.75 2403.45 3530.95 2452.15
L 3439.8 2669.1
Q 3428.8 2716.9 3442.95 2763.4 3445.6 2766.1 3449.25 2766.55 3461.2 2756.8 3471.25 2747.7 3471.7 2710.9 3480.65 2675.4 3481.75 2690.8 3486.95 2706.8 3494.8 2715.45 3504.25 2709.95 3512.6 2682.95 3515.25 2653.35 3532.25 2634.5 3519.95 2612.5
L 3527.85 2596.8 3606.45 2524.45 3634.7 2483.6
Q 3678.4 2398.25 3746.35 2329.55 3766 2384.75 3791.9 2439.6 3788.95 2593.95 3751.05 2744.55 3725.4 2893.25 3762.05 3040.05 3756.05 3073.55 3754.2 3106.1 3737.35 3146.95 3733.75 3191 3733.65 3191.7 3733.6 3192.4 3733.6 3192.55 3733.6 3192.65 3728.1 3237.8 3732.2 3285.3 3738.6 3337 3746.05 3386.85 3746.1 3387.9 3746.35 3389.05 3757.95 3485.25 3681.9 3543.1 3673.1 3552.7 3670.9 3565.1
L 3672.45 3574.55
Q 3700.75 3605.5 3743.2 3598.1 3751.05 3592 3755.75 3582.4 3779.65 3575.15 3779.35 3549.4 3795.7 3538.85 3807.65 3524.25 3810 3503.65 3806.05 3483.35 3813.9 3425.8 3816.3 3381.95 3830.45 3329.15 3839.05 3288.45 3846.45 3278.2 3851.65 3266.45 3852.6 3202 3846.95 3137.55 3859.2 3111.45 3873.65 3087.25 3884.65 3007.55 3900.4 2933.2 3929.95 2871.85 3939.7 2804.3 3954.3 2871.25 3979 2933.2 3995.3 3004.85 4005.7 3080.95 4016.05 3109.85 4034 3134.4 4031.95 3191 4027.7 3260.15 4069.35 3346.45 4067 3440.9 4074.25 3484.3 4074.85 3527.35 4084.6 3539.65 4098.45 3546.25 4101.75 3561.5 4109.45 3574.55 4127.35 3583.15 4139.3 3598.1 4182.85 3605.8 4210.05 3571.4 4204.4 3534.3 4169.2 3517.95 4160.05 3498.15 4147.15 3480.2 4135.55 3455.2 4136.15 3426.75
L 4136.15 3389.05
Q 4139.8 3336.2 4147.15 3285.3 4157.4 3196.65 4128.3 3112.4
L 4120.45 3043.2
Q 4131.15 2991.2 4136.15 2936.3 4140.75 2921.55 4139.3 2904.9 4143.55 2812.9 4125.15 2722.55 4095.6 2599 4085.85 2471.05 4087.75 2446.35 4093.75 2423.85 4120.15 2377.35 4136.15 2326.4 4175.95 2372 4213.2 2423.85 4243.7 2484.7 4285.5 2537.05 4319.75 2563.75 4351.5 2593.65 4363.8 2611.4 4356.25 2631.35 4370.7 2664.2 4370.4 2700.55 4371.95 2704.8 4375.1 2708.4 4384.7 2710.9 4393.95 2709.95 4393.8 2701.65 4398.7 2694.25
L 4404.95 2700.55
Q 4410.3 2724.9 4411.25 2750.85 4420.2 2754.15 4425.4 2761.85 4431.7 2764.35 4438 2763.4 4449.45 2715.15 4439.55 2665.95
L 4364.1 2483.6
Q 4336.45 2413.8 4282.35 2361 4259.7 2303.3 4222.65 2254.1 4209.75 2204.9 4188.05 2159.8 4167.5 2133.45 4160.1 2129.3 4149.8 2126.05 4142.45 2123.65 4122.8 2117.95 4095.3 2111.05 4082.4 2100.05 4067 2092.2 4031.15 2084.65 4005.7 2059.2 4002.4 2020.65 4007.25 1980.6 4014.65 1981.7 4021.4 1977.45 4030.55 1963.15 4029.3 1946 4031 1931.4 4021.4 1920.85
L 4018.25 1839.1
Q 4014.75 1825.3 3993.65 1815.05 3987.4 1812.95 3965.05 1810.1 3916.8 1802.95 3894.1 1813.95 3877.25 1831.9 3864.2 1848.55
M 3857.95 1930.3
Q 3866.4 1927.15 3873.65 1927.15 3873.95 1896.5 3879.95 1867.4 3884.95 1860.95 3892.5 1857.95 3913.45 1869.9 3938.1 1870.55 3967.2 1865.05 3994.7 1862.7 4004.9 1878.35 4008.5 1895.75 4009.55 1901 4010.05 1906.45 4010.2 1907.65 4010.3 1908.95 4010.35 1908.65 4010.4 1908.4 4010.35 1908.7 4010.3 1909 4010.35 1910.2 4010.4 1911.4 4008.05 1929.8 4023 1930.3 4027.85 1948.85 4021.4 1968 4014.65 1976.05 4004.15 1974.3 3996.4 2029.95 3939.7 2037.15 3924.25 2033.7 3909.8 2027.75 3896.15 2016.6 3883.1 2002.6 3877.75 1990.5 3876.8 1977.45 3870.2 1974.15 3862.65 1972.7 3853.55 1952.45 3857.95 1930.3
M 3876.8 1864.25
Q 3868.15 1878.9 3867.35 1895.7 3853.85 1842.4 3903.5 1820.25 3902.25 1817.4 3900.4 1815.55 3922.1 1807.15 3961.2 1813.2 3975.55 1815.4 3983 1816.15 4022.55 1828.4 4016.7 1873.7 4019.55 1903.55 4013.55 1905.15 4014.2 1895.4 4010.4 1886.25 4009.95 1867.25 3994.7 1856.4 3955.7 1861.6 3938.1 1864.25 3914.35 1863.15 3892.5 1854.85 3882.3 1855.45 3876.8 1864.25
M 3780.9 2122.05
Q 3746.8 2136.5 3729.05 2169.2 3710.8 2202.7 3708.6 2241.55 3685.65 2241.85 3666.15 2254.1 3675.1 2194.5 3711.75 2145.65 3742.85 2120.95 3780.9 2122.05 3811.4 2114.65 3840.65 2126.75 3796.15 2146.25 3773.05 2188.1 3747.1 2217 3716.45 2238.4 3716.3 2197.65 3738.45 2162.95 3759.55 2141.1 3780.9 2122.05
M 3868.95 2115.75
Q 3861.1 2120.95 3851.65 2122.05 3821.95 2115.95 3796.65 2109.5 3835 2091.55 3873.65 2068.6 3878.2 2093.45 3868.95 2115.75
M 3872.1 2118.9
Q 3876.35 2114.05 3879.95 2106.35
L 3883.1 2012
Q 3892.85 2024.3 3906.65 2030.9 3956.05 2054.8 3994.7 2015.15 3995 2012.65 3997.85 2012 4002.4 2055.1 4001 2096.9 3998.95 2110.25 4010.4 2117.35 3969.25 2112 3941.25 2140.9 3928.2 2123.45 3906.65 2122.05 3903.2 2117.95 3897.25 2118.9
L 3872.1 2118.9
M 3815.5 2145.65
Q 3839.4 2127.55 3868.95 2125.2
L 3900.4 2125.2
Q 3905.4 2124.75 3909.8 2126.75 3857 2160.75 3809.2 2202.25 3774.45 2226.1 3733.75 2233.65 3751.05 2221.1 3766.75 2203.8 3788.3 2174.55 3815.5 2145.65
M 3686.6 2247.8
Q 3694 2246.85 3700.75 2250.95 3704.05 2272.65 3694.45 2291.85 3662.4 2344.5 3628.45 2392.45 3622.3 2402.95 3619 2414.45 3599.5 2328 3661.45 2261.95 3673.25 2253.95 3686.6 2247.8
M 3707.05 2272.95
Q 3704.5 2258.35 3705.45 2244.65 3718.35 2244.5 3730.6 2249.4
L 3707.05 2272.95
M 3736.9 2250.95
Q 3748.2 2257.1 3751.05 2269.8 3754.65 2296.25 3744.75 2320.1 3710.15 2361.3 3667.75 2409.7 3652.35 2422.3 3633.15 2419.15 3626.85 2415.4 3626.85 2408.15 3652.15 2362.1 3685 2320.1 3702.95 2279.25 3736.9 2250.95
M 3859.5 2310.7
Q 3858.9 2313.5 3856.35 2313.85 3849.6 2320.3 3850.1 2329.55 3852.45 2339 3851.65 2348.4 3828.05 2323.75 3802.9 2302.85 3807 2300.8 3812.35 2301.25 3796.45 2292.75 3780.9 2280.8 3760.65 2258.5 3736.9 2241.55 3774.45 2227.7 3809.2 2208.5
L 3872.1 2158.2
Q 3893.6 2142.8 3919.25 2131.5 3931.35 2135.25 3936.55 2147.2 3940.8 2199.25 3933.4 2250.95 3904.45 2304.25 3843.8 2304.4 3849.6 2307.1 3859.5 2310.7
M 3861.1 2354.7
Q 3854.95 2337.75 3857.95 2320.1 3883.4 2297.35 3917.65 2294.95 3934.35 2291.85 3939.7 2307.55 3943.9 2303 3947.55 2296.55 3991.25 2291.35 4024.55 2320.1 4017.5 2444.15 4008.85 2559.05 4000.05 2592.4 3986.85 2625.1 3972.7 2655.75 3944.4 2672.25 3938.1 2673.2 3931.8 2670.65 3879.3 2620.05 3870.5 2546.5 3868.45 2515.15 3865.7 2480.1 3864.55 2465.8 3863.35 2450.95 3863.172265625 2448.5501953125 3863 2446.15 3862.95 2446.2 3863 2446.25 3863 2446.3 3863 2446.4 3862.95 2446.45 3863 2446.55 3863 2446.6 3863 2446.7 3863 2448.8 3862.8 2450.8 3863 2448.2 3862.9 2445.45 3862.8 2444.15 3862.65 2442.75 3863.45 2397.6 3861.1 2354.7
M 3799.75 2309.1
Q 3829 2334.1 3851.65 2354.7 3856.35 2365.4 3856.35 2376.7 3854.15 2395.4 3853.2 2411.3 3854.15 2423.55 3857.95 2411.3 3860.15 2419.65 3859.5 2427
L 3859.5 2461.6
Q 3859.5 2539.4 3879.95 2612.5 3861.55 2593.5 3837.5 2584.2
L 3812.35 2576.35 3831.2 2566.9
Q 3858.7 2533.75 3853.2 2489.9
L 3846.95 2518.2
Q 3845.35 2529.2 3842.2 2540.2 3829.15 2577 3790.35 2571.65 3797.1 2507.95 3798.2 2445.9 3774.6 2391.15 3754.2 2332.7 3756.4 2297.65 3752.6 2263.55 3778.25 2280.65 3799.75 2309.1
M 4095.3 2120.5
Q 4100.8 2129.45 4111 2128.35 4108.8 2124.1 4104.75 2120.5 4131.75 2124.25 4158.2 2134.65 4172 2149.55 4184.9 2166.05 4206.9 2207.1 4211.6 2250.95 4196.55 2243.4 4180.2 2241.55 4168.55 2240.9 4170.75 2228.95 4167.75 2232.7 4164.45 2238.4 4161.65 2237.9 4161.3 2235.25 4140.75 2220.3 4122 2203.8 4100.35 2174.55 4073.3 2145.65 4057.9 2132.6 4038.7 2126.75 4065.75 2116.4 4095.3 2120.5
M 4004.15 2065.45
Q 4010.75 2070.05 4016.7 2076.45 4053.35 2091.9 4085.85 2111.05 4056.45 2113.4 4029.3 2122.05 4010.4 2118.6 4005.7 2100.05 4003.2 2081.95 4004.15 2065.45
M 3945.95 2144.05
Q 3952.55 2135.1 3963.25 2131.5 3974.75 2138.1 3988.4 2140.9 3982.45 2131.65 3972.7 2126.75 4031.65 2116.25 4076.45 2155.05 4105.5 2199.7 4148.75 2233.65 4125.8 2229.75 4104.75 2222.65 4123.1 2235.55 4145.6 2241.55 4116.2 2267.3 4082.7 2293.4 4012.15 2324.5 3958.55 2269.8 3949.9 2259.15 3945.95 2244.65 3942.65 2194.5 3945.95 2144.05
M 3939.7 2298.1
Q 3929 2287.6 3912.95 2287.1 3931.95 2271.7 3938.1 2247.8 3949.6 2270.45 3969.55 2287.1 3952.1 2287.1 3939.7 2298.1
M 4027.7 2348.4
Q 4029.1 2340.4 4032.4 2331.15 4031.3 2319.8 4023 2312.25 4048.45 2311.8 4070.15 2301.25 4075.2 2300.8 4079.6 2302.85
L 4027.7 2348.4
M 4131.45 2263.55
Q 4135.7 2258.95 4139.3 2252.55 4144.35 2250.35 4148.75 2254.1 4162.1 2269.8 4175.45 2282.4 4206.1 2338.35 4244.65 2389.3 4255.5 2403.45 4249.35 2419.15 4228.15 2423.25 4211.6 2409.7 4174.35 2364.3 4136.15 2320.1 4127.5 2292.6 4131.45 2263.55
M 4148.75 2250.95
Q 4150.15 2247.05 4155.05 2247.8 4165.25 2241.85 4177.05 2247.8 4176.4 2250.65 4173.9 2250.95
L 4173.9 2269.8
Q 4162.25 2258.35 4148.75 2250.95
M 4180.2 2254.1
L 4180.2 2247.8
Q 4211.6 2249.7 4232.05 2272.95 4270.1 2330.5 4269.8 2398.7 4268.35 2408.8 4260.35 2414.45 4258.3 2401.1 4250.9 2389.3
L 4191.2 2301.25
Q 4179.25 2279.4 4180.2 2254.1
M 4129.9 2317
Q 4127.05 2327.8 4125.15 2339 4105.85 2390.85 4081.15 2449 4081.95 2509.85 4092.15 2568.5 4064.5 2578.85 4046.55 2555.9 4024.4 2512.85 4035.55 2464.75 4027.85 2413.95 4024.55 2361 4077.05 2314 4123.6 2263.55 4121.7 2290.1 4129.9 2317
M 4217.9 2423.85
Q 4242.9 2429.35 4269.8 2423.85 4332.05 2506.1 4378.25 2599.95 4370.85 2605.25 4362.55 2601.5 4347.45 2582 4327.95 2563.75 4283 2533.1 4254.05 2486.75 4239.15 2452.5 4217.9 2423.85
M 4362.55 2629.8
Q 4363.65 2620.35 4365.65 2609.35 4394.1 2615.5 4400.25 2587.35 4415.2 2629.95 4436.4 2672.25 4446.8 2717.35 4431.7 2760.25 4428.7 2759.3 4427 2757.1 4431.2 2710.3 4404.95 2672.25 4399.95 2668.45 4393.95 2669.1 4394.45 2686.85 4389.25 2703.7 4381.7 2709.65 4376.7 2700.55 4375.6 2664.05 4362.55 2629.8
M 4395.55 2574.8
Q 4400.75 2591.3 4386.1 2599.95 4335 2502.15 4268.2 2412.85 4283.45 2388.65 4274.5 2361 4294.3 2388.2 4320.1 2411.3 4364.9 2489.4 4395.55 2574.8
M 4409.7 2697.4
Q 4415.65 2700.2 4417.55 2706.8 4421.3 2727.75 4415.95 2747.7 4412.5 2724.4 4409.7 2697.4
M 4015.15 2546.5
Q 4019.55 2483 4024.55 2417.6 4028.65 2473.55 4030.85 2533.9 4038.85 2564.25 4067 2576.35 4058.85 2579.5 4051.3 2581.05 4043.9 2580.9 4041.85 2587.35 4048 2586.7 4054.45 2588.9 4023.45 2607.3 4005.7 2637.65
L 3961.7 2750.85
Q 3938.25 2770.65 3917.65 2747.7
L 3873.65 2634.5
Q 3858.7 2608.75 3834.35 2592.05 3842.7 2589.7 3850.1 2595.2
L 3884.65 2623.5
Q 3904 2651 3925.55 2673.8 3938.4 2681.65 3950.7 2675.4 3964.2 2664.2 3977.4 2650.25 4002.85 2611.4 4041.85 2587.35 4015.75 2593.95 3999.4 2615.65 4008.55 2582.5 4015.15 2546.5
M 3980.55 2725.7
Q 3992.5 2665.65 4027.7 2615.65 4045 2602.3 4060.7 2587.35 4073.3 2583.6 4085.85 2582.65 4064 2606.7 4056 2637.65 4039.95 2731.8 4027.7 2826.3 4019.2 2877.7 3986.85 2917.45 3984.5 2921.85 3985.25 2926.9 3945.65 2852.05 3949.1 2766.55 3972.55 2752.55 3980.55 2725.7
M 4079.6 2603.05
Q 4081 2590.65 4092.15 2584.2 4101.75 2650.25 4118.9 2716.25 4131 2777.1 4133.05 2838.85
L 4133.05 2920.6
Q 4130.2 2980.8 4109.45 3036.95 4078.8 3046.2 4068.6 3014.9 4065.25 2980.5 4068.6 2945.75 4081.95 2870.3 4085.85 2794.85 4090.45 2781.65 4089 2766.55 4091.35 2684.5 4079.6 2603.05
M 4062.3 2634.5
Q 4067.5 2619.25 4074.85 2606.2 4081.3 2650.7 4082.7 2694.25
L 4082.7 2779.15
Q 4073 2864.8 4060.7 2983.5 4057.9 3014.6 4076.45 3038.5 4068.4 3050.45 4070.15 3065.2 4077.4 3057.05 4079.6 3044.8 4088.4 3044.8 4096.85 3046.35 4106.45 3047.15 4112.6 3040.05 4121.1 3075.6 4118.9 3112.4 4102.7 3127 4089 3145.4 4061.8 3157.2 4041.85 3134.4 4014.8 3102.8 4008.85 3062.1 4024.4 3097.9 4060.7 3085.65 4070 3077.65 4070.15 3065.2 4065.25 3073.1 4057.55 3082.5 4023.3 3090.35 4013.55 3055.8 4018.6 3049.8 4021.4 3043.2 4023.8 2975.95 4023 2904.9 4027.4 2896.85 4026.15 2886 4041.4 2762.45 4062.3 2634.5
M 3934.95 2787
Q 3933.85 2808.5 3930.25 2829.45 3914.05 2882.9 3898.8 2926.9 3874.9 2895 3861.1 2857.75 3841.9 2776.15 3835.95 2691.1 3830.75 2647.85 3812.35 2609.35 3806.4 2590.8 3790.35 2579.5 3810 2583.25 3828.05 2593.65 3863.45 2619.1 3879.95 2659.65 3892.2 2711.2 3917.65 2757.1 3937.8 2764.8 3934.95 2787
M 4016.7 2879.75
Q 4021.1 2885.1 4019.85 2892.3 4016.05 2967.75 4015.15 3043.2 4013.55 3051.7 4008.85 3046.35 3992.65 2986 3990 2923.75 4006.5 2903.15 4016.7 2879.75
M 4070.15 3156.4
Q 4077.4 3157.8 4082.7 3153.25 4095.95 3150.25 4103.15 3137.55 4110.55 3242.05 4114.15 3351.3
L 4114.15 3439.35 4101.6 3439.35
Q 4099.55 3426.9 4098.45 3411.05 4085.25 3283.7 4070.15 3156.4
M 4060.7 3151.7
Q 4064.8 3158.45 4063.85 3165.8 4074.15 3244.25 4083.2 3318.65 4089.3 3368.5 4094.85 3416.6 4094.9 3417.35 4095 3418.1 4095 3418.003125 4095 3417.95 4095 3417.4 4095.1 3416.9 4095 3417.5 4095.05 3418.15 4095.05 3419.25 4095.3 3420.5 4096.55 3430.85 4092.15 3439.35
L 4076.45 3426.75
Q 4069.85 3341.1 4034 3263.3 4030.2 3202.45 4045 3143.8 4051.45 3149.95 4060.7 3151.7
M 4107.85 3140.65
Q 4106.45 3122.45 4123.6 3120.25 4136 3148.2 4140.9 3178.4 4150 3274.6 4133.05 3370.2 4128.3 3381.95 4129.9 3395.35
L 4129.9 3436.2 4120.45 3436.2 4120.45 3389.05
Q 4121.85 3354.15 4117.3 3319.85 4116.7 3230.25 4107.85 3140.65
M 3614.3 2417.6
Q 3625.15 2424.5 3637.85 2427 3651.25 2423.55 3664.6 2422.3 3640.85 2452.95 3625.3 2489.9 3592.9 2541.15 3542 2573.2 3528.45 2585.8 3519.95 2601.5 3511.8 2604 3504.25 2603.05 3513.2 2575.7 3527.85 2549.65 3568.05 2485.5 3614.3 2417.6
M 3807.65 2609.35
Q 3809.5 2610.6 3809.2 2612.5 3825.1 2651.65 3829.65 2694.25 3844.55 2809.45 3856.35 2908.05 3854.8 2971.05 3859.5 3033.8 3858.9 3045.9 3865.8 3055.8 3853.2 3099.5 3817.05 3074.65 3813.15 3055.3 3802.9 3038.5 3814.1 3029.4 3817.05 3014.9 3819.25 2986.8 3818.65 2961.45 3815.8 2963.7 3815.35 2967 3815.2 2968.1 3815.3 2969.3 3815.3 2969.389453125 3815.3 2969.45 3815.3224609375 2969.5671875 3815.35 2969.65 3815.35 2969.7 3815.35 2969.75 3815.35 2969.8 3815.35 2969.85 3815.4 2970.35 3815.5 2970.9 3816.1 2986 3813.9 3002.35 3813 3042.45 3774.6 3038.5 3763.8 3025.45 3760.5 3008.65 3738.3 2896.4 3751.05 2782.25 3768.5 2683.1 3788.75 2584.2 3802.3 2594.1 3799.75 2610.95 3786.4 2702.25 3793.5 2794.85 3792.05 2805.7 3796.65 2813.7 3795.35 2807.75 3799.75 2804.3 3801.2 2790.9 3796.65 2779.15 3795.7 2706.8 3801.35 2634.5 3802.3 2621.8 3807.65 2609.35
M 3530.95 2464.75
Q 3543.1 2438.35 3559.25 2414.45 3582.4 2388.95 3601.7 2364.15
L 3609.55 2417.6
Q 3545.9 2503.7 3494.8 2599.95 3484.15 2593.5 3482.25 2581.05
L 3530.95 2464.75
M 3494.8 2607.8
Q 3506.15 2610.3 3516.85 2609.35 3524.05 2634.8 3508.95 2656.5 3508 2681.05 3502.7 2703.7 3495.15 2709.65 3490.1 2700.55 3489.15 2683.25 3485.4 2665.95 3446.4 2698.95 3457.1 2749.25 3457.55 2757.1 3450.8 2760.25 3443.9 2752.1 3442.95 2741.4 3439.65 2713.1 3442.95 2684.8 3462.1 2640 3475.95 2593.65 3485.7 2599.6 3494.8 2607.8
M 3469.65 2694.25
Q 3472.2 2694.7 3472.8 2697.4 3465.6 2721.9 3463.4 2747.7 3456.15 2720 3469.65 2694.25
M 3859.5 2892.3
Q 3858.55 2883.35 3861.1 2873.45 3870.05 2896.25 3886.25 2914.3 3892.35 2929.4 3890.95 2945.75 3886.4 2999.35 3870.5 3049.5 3865.15 3043.05 3864.2 3033.8 3861.7 2974.7 3862.65 2920.6 3864.05 2905.65 3859.5 2892.3
M 3782.5 3046.35
Q 3793 3041.8 3802.9 3046.35 3804.95 3072.75 3824.95 3088.8 3862.65 3093.5 3873.65 3055.8 3867.05 3115.2 3818.65 3148.55 3807.5 3151.85 3796.65 3148.55 3779.95 3132.2 3762.05 3112.4
L 3758.9 3101.4
Q 3765.2 3071.5 3765.2 3040.05 3772.9 3044.15 3782.5 3046.35
M 3751.05 3131.25
Q 3756.25 3111.9 3769.9 3124.95 3767.7 3202.45 3765.2 3279 3760.5 3297.1 3762.05 3316.75
L 3762.05 3345.05
Q 3764.85 3393.3 3756.15 3437.3
L 3756.15 3437.4
Q 3751.35 3409.6 3749.45 3379.6 3735.5 3295.05 3736.9 3209.85 3740.65 3170.25 3751.05 3131.25
M 3817.05 3156.4
Q 3829.5 3150.1 3839.05 3140.65 3841.25 3150.6 3840.65 3159.55 3848.65 3214.4 3845.35 3269.55 3821.55 3311.25 3816.35 3357.9 3814.9 3360.6 3807.65 3389.05
L 3804.5 3426.75
Q 3798.35 3433.35 3790.35 3436.2 3787.2 3428.95 3787.2 3418.9 3790.05 3386.2 3793.5 3357.6 3804.35 3256.35 3817.05 3156.4
M 3779.35 3137.55
Q 3790.5 3156.25 3812.35 3156.4 3799 3248.8 3790.35 3338.75 3790.3 3339.1 3790.3 3339.45 3790.25 3339.85 3790.2 3340.25
L 3790.15 3340.6
Q 3790.141015625 3340.6625 3790.1 3340.7 3790.1 3341.003515625 3790.1 3341.25 3789.85 3343.2 3789.55 3345.2
L 3789.35 3346.5
Q 3784.05 3386.2 3780.9 3426.75
L 3780.9 3439.35 3765.2 3439.35 3765.2 3348.15
Q 3769.75 3325.2 3768.35 3301 3770.2 3220.85 3779.35 3137.55
M 3749.45 3444.05
Q 3750.9 3439.35 3755.75 3439.35 3781.55 3453.8 3804.5 3433.05 3797.55 3478.35 3801.35 3524.25 3791.45 3536.5 3777.75 3543.1 3775.25 3558.35 3766.75 3571.4 3750.4 3576.55 3743.2 3591.8 3728.9 3601.55 3716.45 3590.25 3697.45 3593.1 3683.45 3577.65 3674.95 3569.95 3678.75 3558.8 3704.35 3531.95 3729.05 3499.1 3747.9 3474.55 3749.45 3444.05
M 4073.3 3436.2
Q 4100.8 3452.55 4129.9 3439.35 4133.65 3453.35 4134.6 3467.65
L 4159.75 3511.65
Q 4182.7 3533.2 4203.75 3558.8 4205.95 3571.25 4195.9 3579.25 4185.7 3587.4 4173.9 3593.4 4160.7 3588.85 4148.75 3596.55 4129.55 3583 4112.6 3568.25 4109.6 3539.65 4082.7 3528.95 4072.5 3507.9 4079.6 3484.95 4073.15 3461.65 4073.3 3436.2
M 3863 2446.15
Q 3862.972265625 2445.8501953125 3862.95 2445.55 3862.95 2445.7671875 3862.95 2445.95 3862.9880859375 2446.0671875 3863 2446.15 Z"/>

<path fill="#E4E4E4" stroke="none" d="
M 5247.8 3439.2
Q 5242.15 3446.9 5232.05 3447.05 5211.15 3451.75 5192.75 3442.35 5198.25 3508.5 5199.05 3577.5 5213.5 3601.9 5241.5 3594.8 5264.3 3587.45 5282.35 3572.8 5294.95 3570.75 5310.65 3566.5 5333.95 3558.8 5313.8 3544.5 5276.25 3534.15 5258.8 3498.95 5256.1 3466.85 5247.8 3439.2
M 4740.05 2307.4
Q 4721.65 2336.8 4699.2 2364 4696.65 2370.45 4697.6 2376.55 4715.05 2373.1 4732.2 2376.55 4739.25 2392.75 4740.05 2411.15 4766.45 2412.1 4784.05 2389.15 4777.6 2362.55 4776.2 2332.55 4775.75 2305.05 4791.9 2282.25 4791.3 2279.55 4788.8 2279.1 4763 2290.1 4740.05 2307.4
M 4074.85 2606.2
Q 4067.5 2619.25 4062.3 2634.5 4041.4 2762.45 4026.15 2886 4027.4 2896.85 4023 2904.9 4023.8 2975.95 4021.4 3043.2 4018.6 3049.8 4013.55 3055.8 4023.3 3090.35 4057.55 3082.5 4065.25 3073.1 4070.15 3065.2 4068.4 3050.45 4076.45 3038.5 4057.9 3014.6 4060.7 2983.5 4073 2864.8 4082.7 2779.15
L 4082.7 2694.25
Q 4081.3 2650.7 4074.85 2606.2
M 4139.3 2252.55
Q 4135.7 2258.95 4131.45 2263.55 4127.5 2292.6 4136.15 2320.1 4174.35 2364.3 4211.6 2409.7 4228.15 2423.25 4249.35 2419.15 4255.5 2403.45 4244.65 2389.3 4206.1 2338.35 4175.45 2282.4 4162.1 2269.8 4148.75 2254.1 4144.35 2250.35 4139.3 2252.55 Z"/>

<path fill="#DFE5EB" stroke="none" d="
M 5206.9 3288.3
Q 5204.55 3284.65 5200.65 3285.15 5199.05 3305.9 5192.75 3326
L 5184.9 3333.85
Q 5173.1 3334.95 5159.75 3335.45 5176.4 3382.45 5189.6 3432.9 5193.7 3438.55 5200.65 3440.75 5228.15 3445.8 5252.5 3432.9 5261 3375.2 5261.95 3316.6 5252.05 3334.65 5232.05 3327.6 5215.1 3310.6 5206.9 3288.3
M 4964.85 1905
Q 4972.7 1935.65 4975.85 1967.85 4988.4 1986.25 4999.4 2005.6 5006.65 2010.95 5015.15 2007.15 5052.4 1984.85 5087.45 2011.85 5104.75 1995.5 5117.3 1974.15 5122.95 1932.95 5131.45 1890.85 5129.1 1851.05 5098.45 1826.4 5103.65 1815.85 5090.6 1812.25 5064.8 1808.6 5040.3 1816.95 5029.6 1813.35 5043.45 1809.1 4983.05 1812.7 4964.85 1870.4
L 4964.85 1905
M 3873.65 1927.15
Q 3866.4 1927.15 3857.95 1930.3 3853.55 1952.45 3862.65 1972.7 3870.2 1974.15 3876.8 1977.45 3877.75 1990.5 3883.1 2002.6 3896.15 2016.6 3909.8 2027.75 3924.25 2033.7 3939.7 2037.15 3996.4 2029.95 4004.15 1974.3 4014.65 1976.05 4021.4 1968 4027.85 1948.85 4023 1930.3 4008.05 1929.8 4010.4 1911.4 4010.35 1910.2 4010.3 1909
L 4010.3 1908.95
Q 4010.2 1907.65 4010.05 1906.45 4009.55 1901 4008.5 1895.75 4004.9 1878.35 3994.7 1862.7 3967.2 1865.05 3938.1 1870.55 3913.45 1869.9 3892.5 1857.95 3884.95 1860.95 3879.95 1867.4 3873.95 1896.5 3873.65 1927.15 Z"/>

<path fill="#E4E4E5" stroke="none" d="
M 5206.9 3253.7
Q 5211 3257.15 5210.05 3263.15 5214.75 3287.5 5224.2 3310.3 5248.1 3343.3 5261.95 3304 5272.3 3260.8 5268.2 3216 5263.5 3178.4 5246.2 3146.8 5221.05 3159.55 5208.5 3184.55 5205.95 3220.85 5206.9 3253.7
M 4903.55 3458.05
Q 4904.8 3450.5 4908.25 3443.9 4895.05 3448.15 4879.95 3448.6 4861.85 3449.4 4846.95 3439.2 4844.6 3472.65 4837.5 3505.2 4814.55 3535.85 4779.35 3547.65 4766.6 3555.65 4779.35 3563.4
L 4823.35 3575.95
Q 4852.15 3602.5 4889.4 3591.65 4899.3 3585.85 4898.8 3574.4 4897.5 3546.9 4900.5 3519.9 4901.05 3514.65 4901.8 3509.45 4901.85 3508.9 4901.95 3508.35 4901 3484.45 4903.55 3458.05
M 4955.4 3241.15
L 4955.15 3239.25 4955.1 3238.85 4955 3238.25
Q 4954.95 3238.1 4954.95 3238
L 4947.55 3184.55
Q 4929 3162.2 4905.1 3179.8 4901.65 3190.5 4898.8 3197.1 4897.7 3249.3 4903.55 3300.85 4903.85 3316.9 4914.55 3327.6 4938.45 3333.7 4947.55 3310.3 4957.9 3276.65 4955.4 3241.15
M 5147.2 2763.25
L 5137.75 2763.25
Q 5119.65 2767.35 5100 2767.95
L 5095.3 2772.7
Q 5094.35 2808.55 5076.45 2838.7
L 5074.85 2857.6 5120.45 3058.8
Q 5125 3072.75 5133.05 3083.95 5150.95 3098.4 5161.35 3077.65 5166.35 3052.95 5166.05 3027.35 5157.4 2895.3 5147.2 2763.25
M 3755.75 3439.35
Q 3750.9 3439.35 3749.45 3444.05 3747.9 3474.55 3729.05 3499.1 3704.35 3531.95 3678.75 3558.8 3674.95 3569.95 3683.45 3577.65 3697.45 3593.1 3716.45 3590.25 3728.9 3601.55 3743.2 3591.8 3750.4 3576.55 3766.75 3571.4 3775.25 3558.35 3777.75 3543.1 3791.45 3536.5 3801.35 3524.25 3797.55 3478.35 3804.5 3433.05 3781.55 3453.8 3755.75 3439.35
M 3809.2 2612.5
Q 3809.5 2610.6 3807.65 2609.35 3802.3 2621.8 3801.35 2634.5 3795.7 2706.8 3796.65 2779.15 3801.2 2790.9 3799.75 2804.3 3807.8 2883.05 3818.65 2961.45 3819.25 2986.8 3817.05 3014.9 3814.1 3029.4 3802.9 3038.5 3813.15 3055.3 3817.05 3074.65 3853.2 3099.5 3865.8 3055.8 3858.9 3045.9 3859.5 3033.8 3854.8 2971.05 3856.35 2908.05 3844.55 2809.45 3829.65 2694.25 3825.1 2651.65 3809.2 2612.5
M 3930.25 2829.45
Q 3933.85 2808.5 3934.95 2787 3937.8 2764.8 3917.65 2757.1 3892.2 2711.2 3879.95 2659.65 3863.45 2619.1 3828.05 2593.65 3810 2583.25 3790.35 2579.5 3806.4 2590.8 3812.35 2609.35 3830.75 2647.85 3835.95 2691.1 3841.9 2776.15 3861.1 2857.75 3874.9 2895 3898.8 2926.9 3914.05 2882.9 3930.25 2829.45
M 4092.15 2584.2
Q 4081 2590.65 4079.6 2603.05 4091.35 2684.5 4089 2766.55 4090.45 2781.65 4085.85 2794.85 4081.95 2870.3 4068.6 2945.75 4065.25 2980.5 4068.6 3014.9 4078.8 3046.2 4109.45 3036.95 4130.2 2980.8 4133.05 2920.6
L 4133.05 2838.85
Q 4131 2777.1 4118.9 2716.25 4101.75 2650.25 4092.15 2584.2
M 4027.7 2615.65
Q 3992.5 2665.65 3980.55 2725.7 3972.55 2752.55 3949.1 2766.55 3945.65 2852.05 3985.25 2926.9 3984.5 2921.85 3986.85 2917.45 4019.2 2877.7 4027.7 2826.3 4039.95 2731.8 4056 2637.65 4064 2606.7 4085.85 2582.65 4073.3 2583.6 4060.7 2587.35 4045 2602.3 4027.7 2615.65
M 4125.15 2339
Q 4127.05 2327.8 4129.9 2317 4121.7 2290.1 4123.6 2263.55 4077.05 2314 4024.55 2361 4027.85 2413.95 4035.55 2464.75 4024.4 2512.85 4046.55 2555.9 4064.5 2578.85 4092.15 2568.5 4081.95 2509.85 4081.15 2449 4105.85 2390.85 4125.15 2339
M 3851.65 2354.7
Q 3829 2334.1 3799.75 2309.1 3778.25 2280.65 3752.6 2263.55 3756.4 2297.65 3754.2 2332.7 3774.6 2391.15 3798.2 2445.9 3797.1 2507.95 3790.35 2571.65 3829.15 2577 3842.2 2540.2 3845.35 2529.2 3846.95 2518.2 3846 2473.25 3848.5 2423.85 3849.45 2416.8 3853.2 2411.3 3854.15 2395.4 3856.35 2376.7 3856.35 2365.4 3851.65 2354.7 Z"/>

<path fill="#CBD1D9" stroke="none" d="
M 5197.5 3178.25
Q 5198.45 3185.15 5202.2 3190.85 5205.95 3181.7 5197.5 3178.25 Z"/>

<path fill="#B7BCC6" stroke="none" d="
M 4892.55 3260
Q 4890.65 3270.85 4890.95 3282 4898.95 3271.15 4892.55 3260 Z"/>

<path fill="#DEE4EB" stroke="none" d="
M 4936.55 3335.45
Q 4921 3338.25 4906.65 3329.15 4898.5 3306.7 4892.55 3285.15 4883.1 3309.65 4864.25 3327.6 4844.9 3333.7 4834.35 3316.6 4836.7 3375.85 4845.35 3432.9 4879 3453.35 4909.8 3429.75 4921.3 3383.55 4936.55 3335.45 Z"/>

<path fill="#C0C5CE" stroke="none" d="
M 4892.55 3178.25
Q 4891.6 3185.95 4897.25 3190.85 4901 3181.7 4892.55 3178.25 Z"/>

<path fill="#E3E4E4" stroke="none" d="
M 5140.9 3271
Q 5140.75 3305.25 5166.05 3327.6 5176.4 3331.35 5186.5 3326 5198.45 3296 5197.5 3263.15
L 5197.5 3203.4
Q 5199.35 3187.7 5188.05 3176.7 5162.9 3163.95 5148.75 3187.7 5143.9 3231.2 5140.9 3271
M 5018.3 2147.05
Q 4988.4 2156.8 4958.55 2156.5 4982.45 2202.85 5002.55 2247.65 5047.5 2253.3 5093.75 2249.25 5115.9 2202.25 5137.75 2159.65 5079.45 2146.1 5018.3 2147.05
M 3799.75 2610.95
Q 3802.3 2594.1 3788.75 2584.2 3768.5 2683.1 3751.05 2782.25 3738.3 2896.4 3760.5 3008.65 3763.8 3025.45 3774.6 3038.5 3813 3042.45 3813.9 3002.35 3816.1 2986 3815.5 2970.9 3815.4 2970.35 3815.35 2969.85 3815.35 2969.8 3815.35 2969.75 3815.35 2969.7 3815.35 2969.65 3815.3224609375 2969.5671875 3815.3 2969.45 3815.1349609375 2968.659375 3815 2967.85
L 3814.85 2966.95
Q 3802.15 2891.55 3796.65 2813.7 3792.05 2805.7 3793.5 2794.85 3786.4 2702.25 3799.75 2610.95
M 3857.95 2320.1
Q 3854.95 2337.75 3861.1 2354.7 3863.45 2397.6 3862.65 2442.75 3862.8 2444.15 3862.9 2445.45 3862.9380859375 2445.7171875 3862.95 2445.95 3862.95 2445.7671875 3862.95 2445.55 3862.972265625 2445.8501953125 3863 2446.15 3863.172265625 2448.5501953125 3863.35 2450.95 3864.55 2465.8 3865.7 2480.1 3868.45 2515.15 3870.5 2546.5 3879.3 2620.05 3931.8 2670.65 3938.1 2673.2 3944.4 2672.25 3972.7 2655.75 3986.85 2625.1 4000.05 2592.4 4008.85 2559.05 4017.5 2444.15 4024.55 2320.1 3991.25 2291.35 3947.55 2296.55 3943.9 2303 3939.7 2307.55 3934.35 2291.85 3917.65 2294.95 3883.4 2297.35 3857.95 2320.1
M 3897.25 2354.7
Q 3900.4 2350.6 3906.65 2351.55 3918.6 2352.5 3931.8 2350 3938.1 2337.55 3941.25 2323.25
L 3947.55 2350
Q 3980.85 2350.45 4010.4 2362.55 4001.3 2365.4 3993.1 2361 3991.25 2365.55 3985.25 2367.3 3966.55 2362.55 3947.55 2365.7 3944.25 2375.6 3939.7 2383 3938.75 2372.65 3931.8 2365.7 3902.4 2364.45 3890.95 2364.15
L 3890.95 2361
Q 3881.5 2363.5 3872.1 2362.55 3883.25 2354.7 3897.25 2354.7
M 3983.7 2442.75
Q 3978.5 2442.75 3975.85 2439.6 3962.15 2438.95 3947.55 2441.15
L 3941.25 2458.45
Q 3933.1 2433.3 3906.65 2439.6 3903.85 2442.75 3898.8 2442.75 3887.95 2438.65 3878.35 2433.3 3895.05 2429.35 3919.25 2428.6 3927.9 2426.4 3934.95 2422.3 3937.95 2408.3 3941.25 2395.6
L 3947.55 2423.85
Q 3976.15 2430.3 4004.15 2433.3 3994.2 2438.65 3983.7 2442.75
M 3947.55 2519.75
L 3941.25 2540.2
Q 3938.25 2532.8 3934.95 2522.9 3906.35 2515.5 3890.95 2511.9
L 3878.35 2505.6 3934.95 2499.3
Q 3937.65 2486.3 3941.25 2474.15
L 3947.55 2500.9
Q 3977.55 2501.7 4001 2505.6
L 3988.4 2511.9
Q 3970.95 2516.95 3947.55 2519.75
M 3944.4 2604.65
L 3941.25 2656.5
Q 3936.55 2604.15 3938.1 2552.75 3944.25 2576.65 3944.4 2604.65 Z"/>

<path fill="#CCD1D9" stroke="none" d="
M 5169.2 2970.75
Q 5167.6 2992.75 5172.35 3014.75 5177.05 3017.3 5180.2 3021.05 5177.85 2994.65 5169.2 2970.75 Z"/>

<path fill="#C1C5CF" stroke="none" d="
M 4916.1 3021.05
Q 4919.1 3017.3 4923.95 3014.75 4932.3 2986.65 4927.1 2958.2 4921.6 2992.45 4916.1 3021.05 Z"/>

<path fill="#DDE3EA" stroke="none" d="
M 4875.25 3065.05
L 4862.65 3039.9
Q 4858.75 3083.8 4851.65 3132.65 4869.9 3152.8 4892.55 3170.4 4908.7 3172.45 4923.95 3165.65 4933.85 3166.15 4942.85 3171.95 4946.9 3168.2 4945.95 3162.55 4945.05 3147.6 4947.55 3131.1 4956.2 3114.75 4969.55 3099.65 4975.55 3087.85 4975.85 3074.5 4954.6 3116.45 4928.7 3077.65 4923.65 3051.7 4922.4 3024.2
L 4903.55 3061.95 4892.55 3072.95
Q 4886.55 3076.55 4883.1 3071.35 4878.55 3069.3 4875.25 3065.05
M 3802.9 3046.35
Q 3793 3041.8 3782.5 3046.35 3772.9 3044.15 3765.2 3040.05 3765.2 3071.5 3758.9 3101.4
L 3762.05 3112.4
Q 3779.95 3132.2 3796.65 3148.55 3807.5 3151.85 3818.65 3148.55 3867.05 3115.2 3873.65 3055.8 3862.65 3093.5 3824.95 3088.8 3804.95 3072.75 3802.9 3046.35 Z"/>

<path fill="#E3E3E4" stroke="none" d="
M 4853.25 3146.8
Q 4843.5 3151.85 4840.65 3162.55 4833.6 3188 4829.65 3203.4 4820.55 3261.1 4840.65 3316.6 4855.1 3334.8 4868.95 3316.6 4895.65 3258.4 4892.55 3193.95 4881.35 3164.25 4853.25 3146.8
M 4746.35 2420.6
L 4738.5 2417.45
Q 4731.55 2400.15 4729.05 2382.85 4647.45 2494 4587.55 2618.65 4598.25 2624.15 4609.6 2620.2 4650.3 2568.65 4696.05 2518.05 4725.75 2466.65 4763.65 2415.85 4755.45 2417.45 4746.35 2420.6
M 5527.6 2734.95
Q 5521.45 2748.65 5513.45 2760.1 5510.15 2766.55 5513.45 2772.7 5529.3 2763.1 5538.6 2747.55 5549.15 2718.75 5544.9 2687.8 5531.05 2649 5524.45 2612.35 5513.15 2635 5489.85 2624.95 5486.7 2639.25 5478.85 2650.1 5476.35 2684.35 5474.15 2719.25 5482.8 2720.35 5488.3 2712.95 5490.5 2699.9 5489.85 2687.8 5503.05 2692.85 5519.75 2700.4 5522.55 2717.05 5527.6 2734.95
M 5367.25 2382.85
Q 5364.25 2401.4 5357.8 2419 5343.5 2423.1 5335.8 2411.15 5330.8 2413.05 5334.25 2417.45 5344.45 2427.35 5353.1 2439.45 5393.35 2517.1 5456.85 2577.75 5471.45 2595.05 5482 2615.5 5495.7 2624.45 5511.85 2620.2 5451.05 2494.75 5367.25 2382.85
M 5266.65 2222.5
Q 5280 2250.5 5304.35 2271.25
L 5354.7 2296.4
Q 5373.85 2317 5387.7 2342 5370.7 2279.4 5323.25 2233.5 5293.7 2229.1 5266.65 2222.5
M 5302.8 2172.2
Q 5261.45 2116.7 5194.35 2121.9 5253.9 2158.2 5288.65 2219.35 5308.8 2224.4 5326.4 2227.25 5319 2197.85 5302.8 2172.2
M 5046.6 2143.9
Q 5092.15 2145.35 5137.75 2148.65 5161.35 2126 5191.2 2112.5 5163.05 2095.05 5131.45 2085.75 5056 2079.45 4980.55 2081.05 4939.7 2090.65 4905.1 2112.5 4937.15 2123.95 4958.55 2148.65 5002.1 2144.85 5046.6 2143.9
M 5158.2 2137.65
Q 5154.9 2141.55 5159.75 2143.9 5203 2181.65 5247.8 2211.5 5262.7 2221.75 5279.2 2216.2 5242.3 2156 5181.75 2121.9 5169.2 2129.6 5158.2 2137.65
M 4835.95 2225.65
Q 4808.45 2266.35 4784.05 2307.4 4779.05 2346.2 4790.35 2382.85 4820.85 2344.2 4846.95 2304.25 4847.75 2263.4 4835.95 2225.65
M 3769.9 3124.95
Q 3756.25 3111.9 3751.05 3131.25 3740.65 3170.25 3736.9 3209.85 3735.5 3295.05 3749.45 3379.6 3751.35 3409.6 3756.15 3437.4
L 3756.15 3437.3 3762.05 3345.05 3762.05 3316.75
Q 3760.5 3297.1 3765.2 3279 3767.7 3202.45 3769.9 3124.95
M 4082.7 3153.25
Q 4077.4 3157.8 4070.15 3156.4 4085.25 3283.7 4098.45 3411.05 4099.55 3426.9 4101.6 3439.35
L 4114.15 3439.35 4114.15 3351.3
Q 4110.55 3242.05 4103.15 3137.55 4095.95 3150.25 4082.7 3153.25
M 4019.85 2892.3
Q 4021.1 2885.1 4016.7 2879.75 4006.5 2903.15 3990 2923.75 3992.65 2986 4008.85 3046.35 4013.55 3051.7 4015.15 3043.2 4016.05 2967.75 4019.85 2892.3
M 4041.85 2587.35
Q 4002.85 2611.4 3977.4 2650.25 3964.2 2664.2 3950.7 2675.4 3938.4 2681.65 3925.55 2673.8 3904 2651 3884.65 2623.5
L 3850.1 2595.2
Q 3842.7 2589.7 3834.35 2592.05 3858.7 2608.75 3873.65 2634.5
L 3917.65 2747.7
Q 3938.25 2770.65 3961.7 2750.85
L 4005.7 2637.65
Q 4023.45 2607.3 4054.45 2588.9 4048 2586.7 4041.85 2587.35
M 4386.1 2599.95
Q 4400.75 2591.3 4395.55 2574.8 4364.9 2489.4 4320.1 2411.3 4294.3 2388.2 4274.5 2361 4283.45 2388.65 4268.2 2412.85 4335 2502.15 4386.1 2599.95
M 4269.8 2423.85
Q 4242.9 2429.35 4217.9 2423.85 4239.15 2452.5 4254.05 2486.75 4283 2533.1 4327.95 2563.75 4347.45 2582 4362.55 2601.5 4370.85 2605.25 4378.25 2599.95 4332.05 2506.1 4269.8 2423.85
M 4180.2 2247.8
L 4180.2 2254.1
Q 4179.25 2279.4 4191.2 2301.25
L 4250.9 2389.3
Q 4258.3 2401.1 4260.35 2414.45 4268.35 2408.8 4269.8 2398.7 4270.1 2330.5 4232.05 2272.95 4211.6 2249.7 4180.2 2247.8 Z"/>

<path fill="#D8D9DB" stroke="none" d="
M 4582.85 2750.7
Q 4588.35 2760.75 4593.85 2752.25 4586.65 2742.65 4584.45 2730.25 4589.45 2716.75 4584.45 2703.55 4581.45 2715.8 4575 2725.55 4574.85 2739.5 4582.85 2750.7 Z"/>

<path fill="#E1E1E2" stroke="none" d="
M 4568.7 2609.2
Q 4564.8 2629.5 4564 2650.1 4553.3 2676 4549.85 2703.55 4550.15 2733.25 4565.55 2758.55 4575.6 2764.05 4582.85 2772.7 4586 2770.35 4587.55 2766.4 4577.5 2750.35 4568.7 2733.4 4569.2 2727.4 4575 2725.55 4574.05 2715.15 4576.55 2703.55 4589.75 2696.3 4603.3 2687.8 4606.3 2701.8 4611.15 2716.1 4617.6 2720.35 4625.3 2719.25 4623.1 2698.65 4619 2679.95 4619.95 2671.15 4622.15 2661.1 4616.65 2645.35 4609.6 2628.05 4581.45 2634.65 4568.7 2609.2
M 5090.6 2767.95
Q 5070.45 2767.05 5056 2753.85 5056.8 2802.4 5070.15 2848.15 5076.75 2826.75 5085.9 2807.25 5086.8 2787.3 5090.6 2767.95
M 5122.05 2076.3
Q 5113.4 2073.95 5111.05 2065.3 5107.55 2029.8 5106.3 1996.15 5102.85 2011.25 5089 2015 5069.35 2003.55 5046.6 2002.45 5024.4 2004.8 5005.7 2015 4993.3 2011.55 4988.4 1999.3 4991.1 2027.45 4988.4 2055.9 4987.95 2069.1 4977.4 2076.3 5049.55 2079.6 5122.05 2076.3
M 4123.6 3120.25
Q 4106.45 3122.45 4107.85 3140.65 4116.7 3230.25 4117.3 3319.85 4121.85 3354.15 4120.45 3389.05
L 4120.45 3436.2 4129.9 3436.2 4129.9 3395.35
Q 4128.3 3381.95 4133.05 3370.2 4150 3274.6 4140.9 3178.4 4136 3148.2 4123.6 3120.25
M 3851.65 2122.05
Q 3861.1 2120.95 3868.95 2115.75 3878.2 2093.45 3873.65 2068.6 3835 2091.55 3796.65 2109.5 3821.95 2115.95 3851.65 2122.05 Z"/>

<path fill="#E2E2E3" stroke="none" d="
M 4721.2 2386
Q 4723.05 2380.95 4716.45 2379.7 4705.45 2383.3 4694.45 2382.85 4695.4 2376.9 4691.3 2373.4 4672.3 2393.05 4652 2417.45 4602.2 2498.7 4576.55 2590.35 4571.55 2605.45 4582.85 2615.5 4642.1 2495.25 4721.2 2386
M 5120.45 2599.8
Q 5147 2621.45 5172.35 2639.1 5186 2649.9 5192.75 2665.8 5189.45 2639.1 5180.2 2612.35 5170.45 2564.4 5122.05 2562.05 5110.25 2580.45 5120.45 2599.8
M 5015.15 2766.4
Q 5009.8 2765.95 5005.7 2767.95 5007.45 2809.65 5029.3 2845 5036.5 2809 5040.3 2775.85
L 5040.3 2756.95
Q 5032.75 2761.7 5024.55 2763.25 5021.1 2767.65 5015.15 2766.4
M 5515 2615.5
Q 5522.55 2610.8 5524.45 2601.35 5504 2543.95 5482 2480.3 5456.05 2417.9 5405 2376.55 5400.9 2383.8 5392.4 2382.85 5382.95 2380.5 5373.55 2381.3 5454.35 2491.45 5515 2615.5
M 5394 2357.7
Q 5375.45 2337.1 5362.55 2313.7 5336.75 2286.5 5301.25 2277.55 5338.95 2328.8 5310.65 2386 5322.15 2400.95 5335.8 2411.15 5346.65 2414.75 5357.8 2414.3 5360.35 2397.95 5362.55 2379.7
L 5367.25 2375
Q 5383.3 2374.2 5398.7 2376.55 5399.15 2366.5 5394 2357.7
M 5257.2 2222.5
L 5249.35 2301.1
Q 5275.15 2343.4 5305.95 2382.85 5323.1 2346.7 5312.25 2307.4 5289.3 2262.15 5257.2 2222.5
M 4776.2 2228.8
Q 4791 2221.75 4807.65 2220.95 4841.75 2156.95 4905.1 2120.35 4886.7 2118.15 4870.5 2118.75 4843.95 2128.65 4820.2 2145.5 4779.35 2178.65 4776.2 2228.8
M 4823.35 2219.35
Q 4838.6 2214.65 4851.65 2211.5 4897.7 2178.2 4938.1 2143.9 4940.45 2137 4933.4 2132.9 4923.65 2125.05 4911.4 2121.9 4853.4 2158.05 4817.05 2216.2
L 4823.35 2219.35
M 3812.35 3156.4
Q 3790.5 3156.25 3779.35 3137.55 3770.2 3220.85 3768.35 3301 3769.75 3325.2 3765.2 3348.15
L 3765.2 3439.35 3780.9 3439.35 3780.9 3426.75
Q 3784.05 3386.2 3789.35 3346.5
L 3789.55 3345.2
Q 3789.8419921875 3342.9615234375 3790.1 3340.7 3790.141015625 3340.6625 3790.15 3340.6
L 3790.2 3340.25
Q 3790.25 3339.85 3790.3 3339.45 3790.3 3339.1 3790.35 3338.75 3799 3248.8 3812.35 3156.4
M 3516.85 2609.35
Q 3506.15 2610.3 3494.8 2607.8 3485.7 2599.6 3475.95 2593.65 3462.1 2640 3442.95 2684.8 3439.65 2713.1 3442.95 2741.4 3443.9 2752.1 3450.8 2760.25 3457.55 2757.1 3457.1 2749.25 3446.4 2698.95 3485.4 2665.95 3489.15 2683.25 3490.1 2700.55 3495.15 2709.65 3502.7 2703.7 3508 2681.05 3508.95 2656.5 3524.05 2634.8 3516.85 2609.35
M 3559.25 2414.45
Q 3543.1 2438.35 3530.95 2464.75
L 3482.25 2581.05
Q 3484.15 2593.5 3494.8 2599.95 3545.9 2503.7 3609.55 2417.6
L 3601.7 2364.15
Q 3582.4 2388.95 3559.25 2414.45
M 4063.85 3165.8
Q 4064.8 3158.45 4060.7 3151.7 4051.45 3149.95 4045 3143.8 4030.2 3202.45 4034 3263.3 4069.85 3341.1 4076.45 3426.75
L 4092.15 3439.35
Q 4096.55 3430.85 4095.3 3420.5 4095.05 3419.25 4095.05 3418.15 4095.0015625 3418.0044921875 4095 3417.95 4095 3418.003125 4095 3418.1 4094.9 3417.35 4094.85 3416.6 4089.3 3368.5 4083.2 3318.65 4074.15 3244.25 4063.85 3165.8
M 4365.65 2609.35
Q 4363.65 2620.35 4362.55 2629.8 4375.6 2664.05 4376.7 2700.55 4381.7 2709.65 4389.25 2703.7 4394.45 2686.85 4393.95 2669.1 4399.95 2668.45 4404.95 2672.25 4431.2 2710.3 4427 2757.1 4428.7 2759.3 4431.7 2760.25 4446.8 2717.35 4436.4 2672.25 4415.2 2629.95 4400.25 2587.35 4394.1 2615.5 4365.65 2609.35
M 3972.7 2126.75
Q 3982.45 2131.65 3988.4 2140.9 4000.65 2144.05 4010.4 2151.95 4043.1 2177.85 4076.45 2206.95 4087.75 2206 4092.15 2216.35 4101.45 2214.95 4104.75 2222.65 4125.8 2229.75 4148.75 2233.65 4105.5 2199.7 4076.45 2155.05 4031.65 2116.25 3972.7 2126.75
M 4104.75 2120.5
Q 4108.8 2124.1 4111 2128.35 4164.6 2163.55 4170.75 2228.95 4168.55 2240.9 4180.2 2241.55 4196.55 2243.4 4211.6 2250.95 4206.9 2207.1 4184.9 2166.05 4172 2149.55 4158.2 2134.65 4131.75 2124.25 4104.75 2120.5
M 3931.8 2361
Q 3941.25 2367.45 3950.7 2361
L 3950.7 2354.7
Q 3941.25 2348.55 3931.8 2354.7
L 3931.8 2361
M 3780.9 2122.05
Q 3759.55 2141.1 3738.45 2162.95 3716.3 2197.65 3716.45 2238.4 3747.1 2217 3773.05 2188.1 3796.15 2146.25 3840.65 2126.75 3811.4 2114.65 3780.9 2122.05 Z"/>

<path fill="#E5E5E5" stroke="none" d="
M 4996.25 2767.95
Q 4972.55 2766.55 4949.1 2763.25 4939.7 2888.25 4933.4 3019.5
L 4934.95 3071.35
Q 4936.25 3087.1 4950.7 3090.2 4971.1 3083.95 4975.85 3061.95 4991.7 2985.85 5013.55 2911 5023.65 2875.2 5019.85 2838.7 5001.8 2808.05 5004.15 2772.7 5000.7 2770 4996.25 2767.95
M 4945.95 2755.4
Q 4962.8 2760.9 4980.55 2760.1
L 5018.3 2760.1
Q 5038.25 2755.1 5045 2734.95 5048.15 2670.65 5045 2606.05 5031.35 2560.3 4983.7 2558.9 4992.05 2583.9 4979 2606.05 4944.85 2630.1 4912.95 2659.5 4879.5 2724.75 4945.95 2755.4
M 4884.65 2621.8
L 4881.5 2653.2
Q 4849.45 2756.05 4848.5 2863.85 4845.2 2962.1 4875.25 3055.65 4880.1 3063.2 4886.25 3068.2 4896.6 3061.95 4900.4 3049.35 4940.8 2908.2 4941.25 2760.1 4895.5 2739.7 4895.65 2689.4 4900.7 2631.85 4922.4 2580.9 4898.65 2596.95 4884.65 2621.8
M 5115.75 2562.05
Q 5107.1 2557.65 5096.9 2558.9 5065.75 2568.8 5054.45 2599.8 5051.15 2669.1 5054.45 2738.1 5057.9 2752.55 5071.75 2758.55 5113.25 2762.65 5153.45 2755.4 5230.65 2711.4 5170.75 2643.8 5137.9 2627.45 5114.15 2599.8 5110.4 2580.6 5115.75 2562.05
M 5247.8 2920.45
L 5247.8 2857.6
Q 5247.15 2751.3 5214.75 2650.1 5216.35 2600.7 5172.35 2582.5 5201.75 2640.95 5202.2 2706.65 5191.8 2745.5 5155.05 2760.1 5157.25 2896.1 5189.6 3027.35 5194.8 3047.6 5205.35 3065.05 5208.65 3069.8 5213.2 3066.65 5222 3056.1 5227.35 3043.05 5243.4 2982.05 5247.8 2920.45
M 5153.45 2147.05
Q 5109.45 2215.1 5082.75 2291.7 5067 2337.75 5085.9 2382.85 5102.85 2422 5123.6 2461.45 5125.8 2469.8 5125.15 2477.15 5129.1 2478.9 5128.3 2483.45 5126.25 2517.25 5133.05 2549.5 5159.3 2567.7 5188.05 2582.5
L 5208.5 2602.9
Q 5192.9 2517.55 5199.05 2430 5222.3 2380 5239.95 2329.4 5244.35 2292.45 5249.35 2257.1 5252.5 2238.25 5249.35 2219.35 5199.05 2186.05 5153.45 2147.05
M 5048.15 2354.55
Q 5033.85 2348.25 5029.3 2332.55 5014.65 2402.65 4979 2464.6 4973.5 2504.7 4972.7 2546.35 4969.4 2549 4968 2552.6 4986.7 2556.7 5005.7 2557.35 5041.55 2566.6 5048.15 2602.9 5067.5 2546.5 5128.3 2552.6 5124.4 2545.55 5125.15 2536.9 5120.45 2509.25 5122.05 2480.3 5108.05 2438.65 5085.9 2398.55 5071.1 2363.5 5070.15 2326.25 5065.9 2346.2 5048.15 2354.55
M 3963.25 2131.5
Q 3952.55 2135.1 3945.95 2144.05 3942.65 2194.5 3945.95 2244.65 3949.9 2259.15 3958.55 2269.8 4012.15 2324.5 4082.7 2293.4 4116.2 2267.3 4145.6 2241.55 4123.1 2235.55 4104.75 2222.65 4096.85 2222.05 4092.15 2216.35 4080.7 2217.45 4076.45 2206.95 4065.45 2206.45 4057.55 2199.1 4022.7 2171.25 3988.4 2140.9 3974.75 2138.1 3963.25 2131.5
M 3812.35 2301.25
Q 3828.85 2302.65 3840.65 2304.4
L 3843.8 2304.4
Q 3904.45 2304.25 3933.4 2250.95 3940.8 2199.25 3936.55 2147.2 3931.35 2135.25 3919.25 2131.5 3893.6 2142.8 3872.1 2158.2
L 3809.2 2208.5
Q 3774.45 2227.7 3736.9 2241.55 3760.65 2258.5 3780.9 2280.8 3796.45 2292.75 3812.35 2301.25 Z"/>

<path fill="#E0E0E1" stroke="none" d="
M 4977.4 2562.05
L 4958.55 2562.05
Q 4942.05 2569.9 4928.7 2584.05 4910.6 2620.55 4906.65 2659.5 4938.1 2628.05 4975.85 2602.9 4984 2583.1 4977.4 2562.05
M 4829.65 2227.25
Q 4819.75 2225.05 4810.8 2225.65 4797.4 2229.75 4782.5 2230.35 4750.9 2249.85 4733.75 2282.25 4720.4 2316.65 4705.45 2348.25 4722.75 2318.4 4747.9 2293.25 4802.95 2278.45 4829.65 2227.25
M 3861.1 2873.45
Q 3858.55 2883.35 3859.5 2892.3 3864.05 2905.65 3862.65 2920.6 3861.7 2974.7 3864.2 3033.8 3865.15 3043.05 3870.5 3049.5 3886.4 2999.35 3890.95 2945.75 3892.35 2929.4 3886.25 2914.3 3870.05 2896.25 3861.1 2873.45
M 4016.7 2076.45
Q 4010.75 2070.05 4004.15 2065.45 4003.2 2081.95 4005.7 2100.05 4010.4 2118.6 4029.3 2122.05 4056.45 2113.4 4085.85 2111.05 4053.35 2091.9 4016.7 2076.45
M 3729.05 2169.2
Q 3746.8 2136.5 3780.9 2122.05 3742.85 2120.95 3711.75 2145.65 3675.1 2194.5 3666.15 2254.1 3685.65 2241.85 3708.6 2241.55 3710.8 2202.7 3729.05 2169.2 Z"/>

<path fill="#DCE2E8" stroke="none" d="
M 5219.5 3069.8
Q 5210.05 3073.1 5200.65 3069.8 5186.3 3050.3 5178.6 3027.35 5176.25 3023.75 5172.35 3024.2 5172.95 3043.7 5170.75 3065.05 5170.3 3081.1 5159.75 3091.8 5130.05 3102.65 5120.45 3071.35 5119.35 3088.5 5129.9 3102.8 5143.1 3117.9 5151.9 3134.25 5151.45 3154.85 5151.9 3175.1 5173.3 3157.5 5195.9 3175.1 5214.95 3163.8 5232.05 3148.4 5239.15 3143.65 5247.8 3143.65 5241.35 3094.15 5233.65 3043.05 5226.9 3057.2 5219.5 3069.8
M 4155.05 2247.8
Q 4150.15 2247.05 4148.75 2250.95 4162.25 2258.35 4173.9 2269.8
L 4173.9 2250.95
Q 4165.7 2246.55 4155.05 2247.8
M 3912.95 2287.1
Q 3929 2287.6 3939.7 2298.1 3952.1 2287.1 3969.55 2287.1 3949.6 2270.45 3938.1 2247.8 3931.95 2271.7 3912.95 2287.1 Z"/>

<path fill="#D9D9DC" stroke="none" d="
M 5516.6 2709.8
Q 5514.55 2704 5508.75 2703.55 5514.05 2731.35 5508.75 2756.95 5529.3 2736.7 5516.6 2709.8 Z"/>

<path fill="#C4CAD2" stroke="none" d="
M 4972.7 1980.45
Q 4968 1955.3 4964.85 1933.3 4956.2 1959.2 4972.7 1980.45 Z"/>

<path fill="#E2E3E3" stroke="none" d="
M 5021.45 2253.95
Q 5014.35 2258.05 5005.7 2258.65 5021.9 2299.85 5041.85 2345.1 5050.8 2351.75 5057.6 2342 5075.2 2302.35 5090.6 2260.25 5056.15 2251.9 5021.45 2253.95
M 3637.85 2427
Q 3625.15 2424.5 3614.3 2417.6 3568.05 2485.5 3527.85 2549.65 3513.2 2575.7 3504.25 2603.05 3511.8 2604 3519.95 2601.5 3528.45 2585.8 3542 2573.2 3592.9 2541.15 3625.3 2489.9 3640.85 2452.95 3664.6 2422.3 3651.25 2423.55 3637.85 2427
M 3700.75 2250.95
Q 3694 2246.85 3686.6 2247.8 3673.25 2253.95 3661.45 2261.95 3599.5 2328 3619 2414.45 3622.3 2402.95 3628.45 2392.45 3662.4 2344.5 3694.45 2291.85 3704.05 2272.65 3700.75 2250.95 Z"/>

<path fill="#E5E5E6" stroke="none" d="
M 4848.5 2217.8
Q 4845.35 2226.3 4845.35 2235.1 4849.95 2263.4 4854.8 2291.7 4852.45 2323.75 4865.8 2354.55 4882 2388.65 4897.25 2426.85 4899.45 2440.05 4898.8 2452 4905.1 2510.2 4892.55 2568.35 4890.95 2586.1 4890.95 2599.8 4924.1 2571.35 4963.25 2552.6 4968.15 2509.7 4972.7 2464.6 4993.15 2425 5010.4 2386 5035.25 2319.65 5001 2257.1 4976.3 2201.9 4945.95 2147.05 4898.5 2185.75 4848.5 2217.8 Z"/>

<path fill="#C4CAD3" stroke="none" d="
M 5123.6 1974.15
L 5118.9 1978.85
Q 5129.75 1980.3 5129.9 1967.85 5133.65 1950.1 5128.3 1933.3 5124.85 1953.55 5123.6 1974.15 Z"/>

<path fill="#E4E5E5" stroke="none" d="
M 4129.9 3439.35
Q 4100.8 3452.55 4073.3 3436.2 4073.15 3461.65 4079.6 3484.95 4072.5 3507.9 4082.7 3528.95 4109.6 3539.65 4112.6 3568.25 4129.55 3583 4148.75 3596.55 4160.7 3588.85 4173.9 3593.4 4185.7 3587.4 4195.9 3579.25 4205.95 3571.25 4203.75 3558.8 4182.7 3533.2 4159.75 3511.65
L 4134.6 3467.65
Q 4133.65 3453.35 4129.9 3439.35
M 3879.95 2106.35
Q 3876.35 2114.05 3872.1 2118.9
L 3897.25 2118.9
Q 3903.2 2117.95 3906.65 2122.05 3928.2 2123.45 3941.25 2140.9 3969.25 2112 4010.4 2117.35 3998.95 2110.25 4001 2096.9
L 3994.7 2015.15
Q 3956.05 2054.8 3906.65 2030.9 3892.85 2024.3 3883.1 2012
L 3879.95 2106.35 Z"/>

<path fill="#E3E3E3" stroke="none" d="
M 3839.05 3140.65
Q 3829.5 3150.1 3817.05 3156.4 3804.35 3256.35 3793.5 3357.6 3790.05 3386.2 3787.2 3418.9 3787.2 3428.95 3790.35 3436.2 3798.35 3433.35 3804.5 3426.75
L 3807.65 3389.05
Q 3814.9 3360.6 3816.35 3357.9 3821.55 3311.25 3845.35 3269.55 3848.65 3214.4 3840.65 3159.55 3841.25 3150.6 3839.05 3140.65
M 4111 2128.35
Q 4100.8 2129.45 4095.3 2120.5 4065.75 2116.4 4038.7 2126.75 4057.9 2132.6 4073.3 2145.65 4100.35 2174.55 4122 2203.8 4140.75 2220.3 4161.3 2235.25 4165.55 2192.5 4137.75 2156.65 4123.6 2143.6 4111 2128.35
M 3751.05 2269.8
Q 3748.2 2257.1 3736.9 2250.95 3702.95 2279.25 3685 2320.1 3652.15 2362.1 3626.85 2408.15 3626.85 2415.4 3633.15 2419.15 3652.35 2422.3 3667.75 2409.7 3710.15 2361.3 3744.75 2320.1 3754.65 2296.25 3751.05 2269.8 Z"/>

<path fill="#9798A7" stroke="none" d="
M 3756.15 3437.3
Q 3764.85 3393.3 3762.05 3345.05
L 3756.15 3437.3 Z"/>

<path fill="#D8D8DB" stroke="none" d="
M 3472.8 2697.4
Q 3472.2 2694.7 3469.65 2694.25 3456.15 2720 3463.4 2747.7 3465.6 2721.9 3472.8 2697.4 Z"/>

<path fill="#61627B" stroke="none" d="
M 3799.75 2804.3
Q 3795.35 2807.75 3796.65 2813.7 3802.15 2891.55 3814.85 2966.95
L 3815 2967.85
Q 3815.15 2968.55 3815.3 2969.3 3815.2 2968.1 3815.35 2967 3815.8 2963.7 3818.65 2961.45 3807.8 2883.05 3799.75 2804.3 Z"/>

<path fill="#DEE4EA" stroke="none" d="
M 4008.85 3062.1
Q 4014.8 3102.8 4041.85 3134.4 4061.8 3157.2 4089 3145.4 4102.7 3127 4118.9 3112.4 4121.1 3075.6 4112.6 3040.05 4106.45 3047.15 4096.85 3046.35 4088.4 3044.8 4079.6 3044.8 4077.4 3057.05 4070.15 3065.2 4070 3077.65 4060.7 3085.65 4024.4 3097.9 4008.85 3062.1 Z"/>

<path fill="#D6DCE2" stroke="none" d="
M 4024.55 2417.6
Q 4019.55 2483 4015.15 2546.5 4008.55 2582.5 3999.4 2615.65 4015.75 2593.95 4041.85 2587.35 4043.9 2580.9 4051.3 2581.05 4058.85 2579.5 4067 2576.35 4038.85 2564.25 4030.85 2533.9 4028.65 2473.55 4024.55 2417.6 Z"/>

<path fill="#CDCDD3" stroke="none" d="
M 4417.55 2706.8
Q 4415.65 2700.2 4409.7 2697.4 4412.5 2724.4 4415.95 2747.7 4421.3 2727.75 4417.55 2706.8 Z"/>

<path fill="#9B9FAE" stroke="none" d="
M 4173.9 2250.95
Q 4176.4 2250.65 4177.05 2247.8 4165.25 2241.85 4155.05 2247.8 4165.7 2246.55 4173.9 2250.95 Z"/>

<path fill="#D7DDE4" stroke="none" d="
M 4032.4 2331.15
Q 4029.1 2340.4 4027.7 2348.4
L 4079.6 2302.85
Q 4075.2 2300.8 4070.15 2301.25 4048.45 2311.8 4023 2312.25 4031.3 2319.8 4032.4 2331.15
M 3831.2 2307.55
Q 3819.9 2308.8 3812.35 2301.25 3807 2300.8 3802.9 2302.85 3828.05 2323.75 3851.65 2348.4 3852.45 2339 3850.1 2329.55 3849.6 2320.3 3856.35 2313.85
L 3831.2 2307.55 Z"/>

<path fill="#5A5D78" stroke="none" d="
M 4092.15 2216.35
Q 4087.75 2206 4076.45 2206.95 4080.7 2217.45 4092.15 2216.35 Z"/>

<path fill="#76758C" stroke="none" d="
M 4104.75 2222.65
Q 4101.45 2214.95 4092.15 2216.35 4096.85 2222.05 4104.75 2222.65 Z"/>

<path fill="#64667F" stroke="none" d="
M 4010.4 2151.95
Q 4000.65 2144.05 3988.4 2140.9 4022.7 2171.25 4057.55 2199.1 4065.45 2206.45 4076.45 2206.95 4043.1 2177.85 4010.4 2151.95 Z"/>

<path fill="#5C5D77" stroke="none" d="
M 4111 2128.35
Q 4123.6 2143.6 4137.75 2156.65 4165.55 2192.5 4161.3 2235.25 4161.65 2237.9 4164.45 2238.4 4167.75 2232.7 4170.75 2228.95 4164.6 2163.55 4111 2128.35 Z"/>

<path fill="#D9DFE6" stroke="none" d="
M 3859.5 2461.6
L 3859.5 2427
Q 3856.35 2426.55 3854.8 2423.85 3852.3 2458.45 3853.2 2489.9 3858.7 2533.75 3831.2 2566.9
L 3812.35 2576.35 3837.5 2584.2
Q 3861.55 2593.5 3879.95 2612.5 3859.5 2539.4 3859.5 2461.6 Z"/>

<path fill="#6C6E85" stroke="none" d="
M 3857.95 2411.3
Q 3854.15 2423.55 3853.2 2411.3 3849.45 2416.8 3848.5 2423.85 3846 2473.25 3846.95 2518.2
L 3853.2 2489.9
Q 3852.3 2458.45 3854.8 2423.85 3856.35 2426.55 3859.5 2427 3860.15 2419.65 3857.95 2411.3 Z"/>

<path fill="#6E6D85" stroke="none" d="
M 3941.25 2656.5
L 3944.4 2604.65
Q 3944.25 2576.65 3938.1 2552.75 3936.55 2604.15 3941.25 2656.5 Z"/>

<path fill="#5A5C76" stroke="none" d="
M 4001 2505.6
Q 3977.55 2501.7 3947.55 2500.9
L 3941.25 2474.15
Q 3937.65 2486.3 3934.95 2499.3
L 3878.35 2505.6
Q 3939.5 2499.95 4001 2505.6 Z"/>

<path fill="#CCCDD1" stroke="none" d="
M 3890.95 2511.9
Q 3915.8 2509.85 3939.7 2518.2 3963.4 2509.85 3988.4 2511.9
L 4001 2505.6
Q 3939.5 2499.95 3878.35 2505.6
L 3890.95 2511.9 Z"/>

<path fill="#585974" stroke="none" d="
M 3941.25 2540.2
L 3947.55 2519.75
Q 3970.95 2516.95 3988.4 2511.9 3963.4 2509.85 3939.7 2518.2 3915.8 2509.85 3890.95 2511.9 3906.35 2515.5 3934.95 2522.9 3938.25 2532.8 3941.25 2540.2 Z"/>

<path fill="#D4D5D8" stroke="none" d="
M 3928.65 2436.45
Q 3939.5 2442.9 3950.7 2436.45
L 3950.7 2430.15
Q 3943.45 2430.15 3939.7 2423.85 3935.75 2430.15 3928.65 2430.15
L 3928.65 2436.45 Z"/>

<path fill="#4E4E6C" stroke="none" d="
M 3894.1 2438
Q 3900.4 2440.55 3906.65 2439.6 3933.1 2433.3 3941.25 2458.45
L 3947.55 2441.15
Q 3962.15 2438.95 3975.85 2439.6 3970.15 2434.55 3950.7 2436.45 3939.5 2442.9 3928.65 2436.45 3912.35 2435.8 3894.1 2438 Z"/>

<path fill="#878799" stroke="none" d="
M 3898.8 2442.75
Q 3903.85 2442.75 3906.65 2439.6 3900.4 2440.55 3894.1 2438 3912.35 2435.8 3928.65 2436.45
L 3928.65 2430.15
Q 3903.5 2434.7 3878.35 2433.3 3887.95 2438.65 3898.8 2442.75 Z"/>

<path fill="#535470" stroke="none" d="
M 3947.55 2423.85
L 3941.25 2395.6
Q 3937.95 2408.3 3934.95 2422.3 3927.9 2426.4 3919.25 2428.6 3895.05 2429.35 3878.35 2433.3 3903.5 2434.7 3928.65 2430.15 3935.75 2430.15 3939.7 2423.85 3943.45 2430.15 3950.7 2430.15 3976.15 2434.7 4004.15 2433.3 3976.15 2430.3 3947.55 2423.85 Z"/>

<path fill="#8B8D9E" stroke="none" d="
M 3975.85 2439.6
Q 3978.5 2442.75 3983.7 2442.75 3994.2 2438.65 4004.15 2433.3 3976.15 2434.7 3950.7 2430.15
L 3950.7 2436.45
Q 3970.15 2434.55 3975.85 2439.6 Z"/>

<path fill="#8E909F" stroke="none" d="
M 3950.7 2354.7
L 3950.7 2361
Q 3984.95 2361 3984.95 2359.4 3984.95 2357.85 3950.7 2354.7 Z"/>

<path fill="#595B75" stroke="none" d="
M 3950.7 2361
Q 3941.25 2367.45 3931.8 2361 3911.4 2357.05 3890.95 2364.15 3902.4 2364.45 3931.8 2365.7 3938.75 2372.65 3939.7 2383 3944.25 2375.6 3947.55 2365.7 3966.55 2362.55 3985.25 2367.3 3991.25 2365.55 3993.1 2361 4001.3 2365.4 4010.4 2362.55 3980.85 2350.45 3947.55 2350
L 3941.25 2323.25
Q 3938.1 2337.55 3931.8 2350 3918.6 2352.5 3906.65 2351.55 3918.15 2356.45 3931.8 2354.7 3941.25 2348.55 3950.7 2354.7 3984.95 2357.85 3984.95 2359.4 3984.95 2361 3950.7 2361 Z"/>

<path fill="#4A4B69" stroke="none" d="
M 3890.95 2361
Q 3897.25 2358.15 3903.5 2356.3 3900.7 2354.25 3897.25 2354.7 3883.25 2354.7 3872.1 2362.55 3881.5 2363.5 3890.95 2361 Z"/>

<path fill="#9496A5" stroke="none" d="
M 3906.65 2351.55
Q 3900.4 2350.6 3897.25 2354.7 3900.7 2354.25 3903.5 2356.3 3897.25 2358.15 3890.95 2361
L 3890.95 2364.15
Q 3911.4 2357.05 3931.8 2361
L 3931.8 2354.7
Q 3918.15 2356.45 3906.65 2351.55 Z"/>

<path fill="#4D4E6B" stroke="none" d="
M 3840.65 2304.4
Q 3828.85 2302.65 3812.35 2301.25 3819.9 2308.8 3831.2 2307.55 3837.2 2308.8 3840.65 2304.4 Z"/>

<path fill="#828498" stroke="none" d="
M 3856.35 2313.85
Q 3858.9 2313.5 3859.5 2310.7 3849.6 2307.1 3843.8 2304.4
L 3840.65 2304.4
Q 3837.2 2308.8 3831.2 2307.55
L 3856.35 2313.85 Z"/>

<path fill="#C7CDD6" stroke="none" d="
M 3705.45 2244.65
Q 3704.5 2258.35 3707.05 2272.95
L 3730.6 2249.4
Q 3718.35 2244.5 3705.45 2244.65 Z"/>

<path fill="#E1E2E3" stroke="none" d="
M 3868.95 2125.2
Q 3839.4 2127.55 3815.5 2145.65 3788.3 2174.55 3766.75 2203.8 3751.05 2221.1 3733.75 2233.65 3774.45 2226.1 3809.2 2202.25 3857 2160.75 3909.8 2126.75 3905.4 2124.75 3900.4 2125.2
L 3868.95 2125.2 Z"/>

<path fill="#B5BBC2" stroke="none" d="
M 3997.85 2012
Q 3995 2012.65 3994.7 2015.15
L 4001 2096.9
Q 4002.4 2055.1 3997.85 2012 Z"/>

<path fill="#A7ACB8" stroke="none" d="
M 4010.4 1886.25
Q 4014.2 1895.4 4013.55 1905.15 4019.55 1903.55 4016.7 1873.7
L 4010.4 1886.25 Z"/>

<path fill="#DDE3E9" stroke="none" d="
M 3867.35 1895.7
Q 3868.15 1878.9 3876.8 1864.25 3882.3 1855.45 3892.5 1854.85 3914.35 1863.15 3938.1 1864.25 3955.7 1861.6 3994.7 1856.4 4009.95 1867.25 4010.4 1886.25
L 4016.7 1873.7
Q 4022.55 1828.4 3983 1816.15 3975.55 1815.4 3961.2 1813.2 3922.1 1807.15 3900.4 1815.55 3902.25 1817.4 3903.5 1820.25 3853.85 1842.4 3867.35 1895.7 Z"/>
</g>
</defs>

<g transform="matrix( 1, 0, 0, 1, 0,0) ">
<use xlink:href="#Layer1_0_FILL"/>
</g>

<g transform="matrix( 1, 0, 0, 1, 0,0) ">
<use xlink:href="#Layer0_0_FILL"/>
</g>
</svg>
