
<svg xmlns="http://www.w3.org/2000/svg" version="1.1" xmlns:xlink="http://www.w3.org/1999/xlink" preserveAspectRatio="none" x="0px" y="0px" width="1080px" height="1920px" viewBox="0 0 1080 1920">
<defs>
<image id="S_logo_7_png" x="0" y="0" width="2816" height="2816" xlink:href="./images/S_logo_7_png.png"/>

<g id="Layer7_0_FILL">
<path fill="#575974" stroke="none" d="
M 10933.3 -4205.8
Q 10928.95 -4191.65 10926.55 -4177 10924.15 -4162.45 10923.85 -4147.55 10923.6 -4133.05 10924.4 -4118.6 10925.15 -4104.35 10927.6 -4090.45 10931.1 -4070.95 10936.45 -4051.8 10945.65 -4018.9 10959.95 -3987.8 10972.95 -3959.7 10990.95 -3934.35 10996.8 -3926.15 11003.6 -3918.45 11021.3 -3898.5 11046.45 -3889.15 11081.9 -3875.8 11120.15 -3875.15 11136.5 -3874.85 11152.4 -3874.9 11258.7 -3875.15 11364 -3888.5 11387.55 -3891.7 11410.85 -3895.75 11446.55 -3901.8 11481.65 -3912.35 11496.45 -3916.85 11510.55 -3923.2 11524.5 -3929.5 11537.85 -3937.65 11540.55 -3939.25 11543.15 -3940.95 11545.75 -3942.65 11548.35 -3944.4 11549.55 -3945.2 11550.7 -3946.05 11558.45 -3951.7 11565.45 -3959.35 11576.25 -3971.1 11582.5 -3985.15 11586.25 -3993.6 11588.85 -4002.5 11591.7 -4012.4 11592.9 -4022.8 11594.1 -4033.45 11592.95 -4043.8 11592.05 -4051.8 11590.35 -4059.95 11588.45 -4069.05 11586.2 -4078.05 11584 -4087.1 11581.45 -4096.05 11578.9 -4105.05 11576.25 -4113.95 11571.15 -4131.2 11564.15 -4147.75 11554.15 -4171.35 11539.5 -4192.65 11538.25 -4194.45 11536.75 -4195.95 11514.65 -4218.6 11487.25 -4234.6 11448.35 -4257.4 11406.95 -4275.45 11347.6 -4301.2 11285.3 -4318.85 11283.6 -4319.35 11281.9 -4319.85 11284.95 -4320.65 11288 -4321.4 11303.35 -4325.6 11318.2 -4330.35 11331.35 -4334.75 11343.05 -4342.05 11359.95 -4352.55 11368.15 -4371 11376.8 -4390.45 11364.95 -4407.75 11358.35 -4417.4 11347.3 -4420.55 11336.75 -4423.4 11326.25 -4419.6 11309.1 -4413.2 11291.7 -4407.55 11276.6 -4402.65 11261.5 -4399.7 11248.85 -4397.35 11236.95 -4393.2 11227.5 -4389.9 11218.05 -4386.65 11208.6 -4383.25 11199.15 -4379.95 11189.6 -4376.75 11180.2 -4373.25 11163.55 -4367.3 11146 -4363.95 11129.1 -4360.55 11111.7 -4361.7 11093.9 -4362.3 11076.85 -4364.35 11058.8 -4366.55 11040.95 -4369.15 11021.2 -4372.15 11001.8 -4373.8 10986.7 -4374.7 10972.35 -4375.45 10952.85 -4375.8 10933.35 -4375.9 10913.8 -4376.05 10894.3 -4376.05 10874.4 -4376 10854.55 -4376.2 10835.55 -4376.4 10817.15 -4373.25 10809.75 -4372.1 10802.35 -4371 10792.7 -4369.8 10786.1 -4363.2 10771.85 -4348.9 10776.05 -4329 10776.55 -4326.6 10777.6 -4324.4 10782.75 -4313.8 10793 -4307.3 10810.55 -4296.2 10831.3 -4298.65 10832.3 -4298.65 10833.3 -4298.65
L 10996.95 -4295.6
Q 10977.2 -4281.25 10962.35 -4262.25 10953.3 -4250.55 10946.45 -4237.75 10942.8 -4231 10940.05 -4224.45 10936.2 -4215.2 10933.3 -4205.8
M 11021.85 -4030.8
Q 11014.65 -4049.4 11009.95 -4068.85 11005.35 -4088.1 11003.15 -4107.8 11000.95 -4127.35 11000.8 -4147.25 11000.65 -4162.65 11005 -4177.5 11010.55 -4196.45 11022.5 -4212.25 11034.5 -4228.2 11051.2 -4239.65 11068 -4251.1 11087.25 -4256.45 11106.2 -4261.9 11125.6 -4264.35 11144.8 -4266.4 11164.65 -4265.85 11184.35 -4264.95 11204.2 -4262 11223.7 -4258.95 11242.9 -4253.8 11261.9 -4248.6 11280.7 -4242.2 11299.35 -4235.95 11317.9 -4228.6 11336.4 -4221.35 11354.75 -4213.75 11373.05 -4206.25 11391.25 -4198.5 11409.25 -4190.75 11426.55 -4181.2 11443.55 -4171.7 11459.9 -4160.5 11473.85 -4150.9 11483.55 -4137.2 11495.05 -4120.9 11502.3 -4102.15 11509.5 -4083.5 11512.2 -4063.75 11512.65 -4062.4 11513.1 -4061.05 11519.25 -4042.3 11514.45 -4023.4 11512.9 -4017.4 11508.55 -4013.3 11501.75 -4006.8 11493.6 -4002 11476.9 -3992 11457.85 -3987.05 11440.1 -3982.55 11422.05 -3978.95 11402.7 -3975.2 11383.95 -3972.3 11364 -3969.3 11344.5 -3966.85 11329.05 -3964.85 11314.55 -3963.8 11294.9 -3962.45 11275.25 -3961.05 11255.95 -3960.3 11236.7 -3959.85 11217.2 -3959.35 11197.75 -3959.3 11178.05 -3959.25 11158.35 -3959.75 11143.65 -3960.1 11128.75 -3959.75 11115.6 -3958.7 11102.4 -3959.6 11084.2 -3961.3 11067.8 -3969.4 11049.75 -3978.2 11039.45 -3995.15 11029.1 -4012.2 11021.85 -4030.8 Z"/>

<path fill="#045EB8" stroke="none" d="
M 4899.05 -651.9
Q 4878.35 -646.25 4861.65 -659.6 4860.4 -660.65 4859.7 -661.95 4850.8 -677.65 4833.2 -680.2 4819.65 -649.45 4814.8 -616.3 4808.25 -571.4 4819.65 -527.75 4821.7 -519.85 4825.5 -513.25 4832.1 -501.85 4845.45 -504.3
L 4877.6 -548.65 4883.7 -545.6 4895.95 -499.7
Q 4898 -498.8 4900.1 -498.05 4905.3 -496.25 4910.45 -498.15 4923.25 -502.75 4929.35 -515.25 4930.15 -516.8 4930.55 -518.5 4940.2 -557.2 4934.75 -596.9 4933.1 -608.95 4932.4 -621.2 4932 -627.65 4930.25 -634 4925.45 -651.05 4908.15 -655.7 4903.85 -653.25 4899.05 -651.9
M 3642 -1418.4
Q 3629.95 -1404.1 3620.3 -1388.2 3610.15 -1371.45 3601.25 -1353.95 3592.4 -1336.5 3585.2 -1318.35 3577.95 -1300.15 3571.15 -1281.75 3566.05 -1267.95 3560.9 -1254.1 3556.6 -1242.45 3555.05 -1230.25 3553.75 -1220.2 3562.6 -1214.6 3572.5 -1208.45 3582.85 -1215 3586 -1217 3588.65 -1219.55 3603 -1233.7 3617.35 -1247.85 3624.5 -1254.9 3631.55 -1262.05 3638.6 -1269.2 3645.65 -1276.35 3656.05 -1286.9 3665.5 -1298.1 3678.15 -1313.2 3689.2 -1329.4 3701.15 -1347 3712.25 -1365.35 3720.3 -1378.65 3728.35 -1391.9 3722.2 -1389.3 3715.6 -1388.35 3709.55 -1387.5 3703.35 -1388.1 3697.3 -1388.8 3691.65 -1391.25 3685.5 -1393.85 3680.45 -1397.75 3679.45 -1398.45 3678.65 -1399.4 3677.85 -1400.35 3677.25 -1401.4 3671.2 -1412.1 3670.05 -1424.35 3669.35 -1431.8 3670.25 -1439.3
L 3668.1 -1444.9
Q 3654.05 -1432.65 3642 -1418.4
M 3807.25 -1498
Q 3813.75 -1515.7 3810.8 -1534.7 3808.35 -1550.55 3798.75 -1563.2 3774.75 -1568.05 3751.2 -1561.4 3727.3 -1554.7 3712.65 -1535.25 3694.55 -1511.15 3685.45 -1482.5 3681.2 -1469.05 3678.65 -1455.2 3677.5 -1448.8 3676.35 -1442.35 3673.75 -1422.15 3681.85 -1403.6 3683.35 -1400.1 3686.55 -1398.3 3705 -1387.5 3722.35 -1399.85 3727.55 -1403.55 3732.4 -1407.7 3747.3 -1420.35 3760.45 -1434.8 3770.4 -1445.7 3779.4 -1457.35 3790.85 -1472.2 3801.8 -1487.7 3805.25 -1492.55 3807.25 -1498
M 3826.45 -1700.15
Q 3819.45 -1698.25 3812.55 -1696.05 3807.4 -1694.45 3802.45 -1692.45 3794.2 -1689 3786.4 -1684.45 3771.8 -1676.05 3761.55 -1663.2 3753.7 -1653.35 3747.85 -1642 3742.5 -1631.55 3738.7 -1620.4 3734.75 -1608.9 3731.35 -1597.1 3728 -1585.45 3725.55 -1573.45 3724.75 -1569.5 3723.95 -1565.55 3741.4 -1570.85 3758 -1577.8 3773.8 -1584.4 3787.15 -1594.75 3800.85 -1605.35 3813.15 -1617.75 3824.45 -1629.15 3835.35 -1641.05 3846.65 -1653.4 3859 -1664.5 3871.35 -1675.7 3884.75 -1685.8 3889.25 -1689.15 3893.75 -1692.5
L 3826.45 -1700.15
M 5029.5 -1485.55
L 5028 -1503.9
Q 5026.15 -1495.2 5019.95 -1489 5013.6 -1482.55 5004.8 -1481.25 5000.5 -1482.95 4997.4 -1486.7 4991 -1494.35 4988.2 -1503.9
L 4928.55 -1282.1
Q 4951.55 -1283.05 4972.75 -1274.45 4985.3 -1269.4 4994.3 -1259.75 4996.45 -1257.5 4998.1 -1254.8 5003.05 -1246.85 5005.05 -1237.75 5013.9 -1258.65 5033.35 -1270.2 5056.95 -1284.1 5084.6 -1280.55
L 5029.5 -1485.55
M 3931.4 -1132.45
Q 3924.5 -1149.8 3912.7 -1164.3 3901.1 -1178.6 3885.75 -1189.1 3869.2 -1200.4 3850.15 -1206.35 3848.15 -1206.95 3846.2 -1207.5
L 3806.8 -957.1 3834 -745.55 3864.6 -745.55
Q 3867.75 -735.65 3870.7 -725.6 3872.6 -719.2 3876.3 -713.7 3878.45 -710.55 3881.25 -708.2 3883.75 -706.2 3886.7 -705.35 3899.95 -701.75 3910.75 -710.1 3917.95 -715.6 3921.55 -724.05 3922.45 -726.1 3923.15 -728.25 3924.85 -733.5 3926.45 -738.8 3939.7 -782.65 3947.6 -827.4 3952.5 -855.2 3962.7 -881.6 3971.25 -903.8 3977.25 -926.9 3988.15 -968.65 3989.75 -1011.8 3989.9 -1016.35 3990 -1020.9 3988.3 -1021.1 3986.65 -1021.25 3981.6 -1022 3978.4 -1025.85 3965.95 -1041 3958.9 -1059.35 3954.65 -1070.5 3950.65 -1081.7 3941.4 -1107.25 3931.4 -1132.45
M 4143.7 -1199.35
L 4135.3 -1204.45
Q 4122.85 -1200.15 4111.5 -1193.75 4100.2 -1187.35 4091.05 -1178 4066.6 -1152.95 4053.15 -1120.05 4051.75 -1116.7 4050.35 -1113.35 4041.35 -1092 4036.95 -1069.25 4034.5 -1056.4 4027.9 -1044.9 4023.3 -1036.9 4016.95 -1030.45 4011.7 -1025.15 4005.3 -1020.9 4004.35 -1012.7 4003.8 -1004.5 4003.25 -996.35 4003.35 -988.2 4003.6 -967.3 4008.55 -947.05 4010.15 -940.55 4012.4 -934.35 4031.1 -883 4042.95 -829.6 4049.6 -799.8 4054.75 -769.6 4059.4 -742.25 4073.55 -718.45 4074.05 -717.55 4074.75 -716.65 4079.9 -710.05 4087.3 -706.25 4093.15 -703.25 4099.65 -704.15 4105.2 -705.05 4109.8 -708.6 4110.85 -709.35 4111.3 -710.4 4119.75 -728.6 4127.65 -747.1
L 4155.2 -747.25
Q 4156.65 -749.85 4158.05 -752.45 4166.95 -769.1 4171.65 -787.05 4176.65 -806 4179.45 -825.6 4182.2 -845.1 4182.75 -864.85
L 4143.7 -1199.35
M 4067.15 -1451.2
Q 4068 -1464.65 4068.85 -1478.05 4069.25 -1484.8 4069.65 -1491.55
L 3997.75 -1517.55 3988.6 -1503.8
Q 3984.2 -1513.3 3974.75 -1517.45 3969.15 -1519.75 3963 -1519.35 3953.9 -1518.45 3945.15 -1515.25 3933.75 -1511.1 3922.9 -1505.65 3918.1 -1503.25 3914.15 -1499.9 3912.05 -1498.15 3910.25 -1496.1 3908.45 -1494.1 3907 -1491.8 3905.6 -1489.45 3904.55 -1486.9 3903.8 -1485.1 3903.45 -1483.2 3903.1 -1481.25 3903.55 -1479.45 3904.45 -1475.9 3905.95 -1472.45 3906.7 -1470.8 3907.35 -1469.05 3913.75 -1451.8 3913.7 -1433.45 3913.7 -1425.05 3912.95 -1416.55 3912.2 -1407.85 3912.4 -1399.3 3913.7 -1341.25 3918.75 -1283.55 3922.5 -1240.8 3938.75 -1201.2 3948.7 -1177.05 3966.25 -1157.5 3973.95 -1149 3984.45 -1144.5 3986.55 -1143.7 3988.6 -1142.8 4006.85 -1151.5 4019.75 -1166.9 4031.05 -1180.35 4036.75 -1197.1 4042.9 -1215.15 4047.4 -1233.65 4051.95 -1252.2 4053.85 -1271.4 4055.2 -1285.1 4056.3 -1298.85 4057.9 -1318.65 4059.35 -1338.45 4060.8 -1358.3 4062.15 -1378.1 4063.55 -1398 4064.9 -1417.9 4066.05 -1434.55 4067.15 -1451.2
M 3940.6 -1448.75
L 3939.65 -1451.8 3921.25 -1451.8 3951.85 -1460.95
Q 3966.25 -1454.65 3978.35 -1464 3984.25 -1468.5 3986.9 -1475.4 3989.3 -1481.75 3988.6 -1488.5
L 3994.7 -1464.05 4055.9 -1450.25
Q 4025.3 -1448.75 3994.7 -1447.2
L 3987.05 -1433.45 3979.4 -1447.2 3940.6 -1448.75
M 3979.4 -1389.1
L 3985.5 -1418.15 3994.7 -1389.1 4049.75 -1381.45 4034.45 -1376.85 4037.5 -1373.8 3994.7 -1370.7 3988.5 -1353.7 3982.45 -1370.7 3924.35 -1381.45 3979.4 -1389.1
M 4037.5 -1308
L 4034.45 -1298.85 3994.7 -1294.25 3988.6 -1274.35 3979.4 -1294.25 3939.65 -1301.9 3939.65 -1308 3979.4 -1312.6 3988.6 -1338.6 3994.7 -1312.6 4037.5 -1308
M 4265.25 -1396.45
L 4263.75 -1393.4 4407.5 -1211.4
Q 4418.55 -1208.8 4428.75 -1213.5 4431.5 -1214.8 4433.35 -1217.25 4443.55 -1230.8 4437.3 -1246.6 4429.95 -1265 4422.55 -1283.3 4415.1 -1301.75 4407.9 -1320.2 4400.65 -1338.55 4391.65 -1356.1 4382.6 -1373.7 4372.05 -1390.35 4361.4 -1407.05 4348.85 -1422.5 4336.25 -1437.9 4321.85 -1451.55 4323.15 -1444.9 4324.2 -1438.2 4327.2 -1418.75 4316.15 -1402.65 4314.45 -1400.2 4312.55 -1397.9 4311.7 -1396.85 4310.7 -1395.9 4307.75 -1392.95 4304.05 -1391.45 4299.25 -1389.4 4294 -1388.6 4287.95 -1387.65 4281.85 -1389.05 4272.75 -1390.8 4265.25 -1396.45
M 4285.85 -1529.05
Q 4277.05 -1541.7 4265.5 -1551.65 4257.6 -1558.45 4247.65 -1561.55 4229.6 -1567.35 4210.9 -1564.05 4197.4 -1561.9 4187.15 -1553.25 4185.6 -1551.9 4184.6 -1550 4180.55 -1542.55 4181.15 -1534.15 4179.75 -1513.95 4187.15 -1495.35 4194.7 -1476.55 4209.4 -1462.7 4222.15 -1450.7 4233.4 -1437.3 4243.55 -1425.3 4254.1 -1413.55 4259.85 -1407.2 4266 -1401.2 4268.65 -1398.55 4272.35 -1397.35 4292.4 -1391.15 4309.3 -1403.25 4317.25 -1408.95 4318.25 -1418.95 4318.65 -1422.65 4318.85 -1426.3 4319.95 -1443.95 4315.2 -1461 4310 -1479.65 4302.75 -1497.7 4296.1 -1514.3 4285.85 -1529.05
M 4125.4 -1699.3
Q 4105.55 -1698.15 4086.45 -1692.5
L 4107.9 -1678.75 4208.85 -1580.85 4224.15 -1577.8 4254.7 -1568.6 4257.8 -1573.2
Q 4256.3 -1578.95 4254.75 -1584.65 4249 -1605.5 4240.5 -1625.5 4235.2 -1637.9 4228.55 -1649.45 4220.4 -1663.6 4209.2 -1675.3 4205.65 -1679.05 4201 -1681.85 4184.4 -1691.95 4165.25 -1696.3 4145.5 -1700.9 4125.4 -1699.3
M 3997.8 -1673.7
Q 3994.1 -1649.55 3993.75 -1625.25 3993.4 -1600.9 3996.7 -1577.05 3997.75 -1569.6 3999.2 -1562.2 3999.55 -1560.45 4000.4 -1558.8 4006.35 -1546.8 4015.7 -1537.2 4026.2 -1526.45 4039.85 -1519.9 4052.35 -1513.85 4066.3 -1512.1 4088.75 -1509.1 4110.1 -1516.4 4121.7 -1520.2 4132.4 -1526.15 4143.1 -1532 4152.45 -1539.9 4160 -1546.25 4166.15 -1553.7 4170.9 -1559.4 4176.7 -1564.1 4185.45 -1571.15 4196.6 -1572.45 4198.9 -1572.6 4201.2 -1572.75 4185.3 -1584.1 4171.6 -1597.95 4157.8 -1611.85 4146.6 -1627.7 4135.7 -1643.05 4122.4 -1656.6 4109.95 -1669.35 4094.2 -1677.7 4076.7 -1687 4056.9 -1689.15 4037.15 -1691.65 4018.2 -1686.25 4006.3 -1682.85 3997.8 -1673.7
M 3943.75 -1690
Q 3930.2 -1691.15 3916.75 -1688.3 3903.15 -1685.2 3890.55 -1679.25 3866.7 -1668.2 3850.05 -1647.55 3833.4 -1626.8 3815.45 -1607.3 3800.95 -1591.5 3784.55 -1577.45 3781.8 -1575.05 3779.05 -1572.75 3798.4 -1569.55 3812.85 -1556.4 3821.4 -1548.7 3828.6 -1539.65 3830.6 -1537.05 3833.15 -1534.95 3849.5 -1521.2 3870.1 -1515.25 3887.6 -1510.1 3905.75 -1511.15 3909.7 -1511.35 3913.65 -1511.55 3933.5 -1514.95 3950.35 -1526.15 3967.15 -1537.25 3977.85 -1554.45 3984.15 -1564.6 3986.25 -1576.25 3989.35 -1593.7 3989.3 -1611.45 3989.3 -1629 3986.85 -1646.45 3985.7 -1654.5 3984.85 -1662.6 3984.45 -1666.65 3984 -1670.65 3967.25 -1687.4 3943.75 -1690
M 5093.75 -1684.45
L 4919.4 -1684.45 5006.55 -1486.45 5093.75 -1684.45
M 4812.3 -1615.55
Q 4811.95 -1608.8 4811.7 -1602.05 4811.15 -1588.5 4811.65 -1575.05 4812 -1565.65 4813.05 -1556.2 4814.85 -1540.25 4817.75 -1524.45 4820.15 -1511.2 4823.65 -1498.45 4829.25 -1478.05 4838.85 -1459.25 4845.9 -1445.55 4851.3 -1431.15 4855.5 -1420.05 4857.6 -1408.55 4863.85 -1374.15 4863.4 -1339.15 4862.85 -1295.7 4856.35 -1252.6 4855 -1243.65 4853.6 -1234.65 4858.2 -1239.35 4863 -1243.9 4877.15 -1257.4 4894.35 -1267.15 4895.95 -1268.05 4897.7 -1268.45 4913.2 -1272.5 4923.8 -1284.15 4925.6 -1286.2 4925.8 -1288.7 4926.95 -1303.6 4928.2 -1318.5 4929.35 -1332.6 4930.6 -1346.7 4930.85 -1350 4931.15 -1353.25 4931.75 -1359.75 4933.2 -1366.2 4934.95 -1374.2 4938.2 -1381.75 4942.75 -1392.3 4948.45 -1402.05 4954.45 -1412.4 4959.55 -1423.4 4965.8 -1436.85 4970.25 -1451.05 4976.25 -1470.3 4978.55 -1490.45 4979.05 -1494.75 4978.5 -1498.95 4973.6 -1535.4 4961.95 -1570.2 4945.2 -1620.05 4919.35 -1666.1 4913.3 -1676.85 4907.15 -1687.45
L 4812.3 -1615.55
M 5233.1 -652.85
Q 5231.3 -659 5230.1 -665.25 5227.75 -677.55 5215.6 -680.2
L 5178.9 -648.05
Q 5163.55 -651.8 5148.1 -654.75 5145.95 -655.25 5143.55 -654.55 5139.95 -653.4 5137.25 -650.8 5133.45 -647 5131.1 -641.8 5128.6 -636.25 5127.45 -630.45 5120.2 -593.4 5119.3 -555.4 5118.95 -541.6 5123.3 -528.6 5126.5 -519.1 5131.55 -510.5 5136.95 -501.3 5146.85 -498.1 5150.2 -497.05 5153.8 -497.75 5156.1 -498.2 5157.65 -500.15 5172.25 -518.65 5171.25 -542.5
L 5178.9 -548.65
Q 5187.9 -538.45 5194.25 -526.55 5197.95 -519.7 5202.1 -513.35 5209.35 -502.35 5222.05 -504.85 5222.9 -504.85 5223.3 -505.45 5233.65 -520.9 5238.35 -539.15 5242.85 -556.55 5243.35 -574.5 5243.85 -594.3 5241.25 -614.05 5238.7 -633.75 5233.1 -652.85
M 5206.1 -1599.2
Q 5206.05 -1601.8 5204.9 -1603.85 5196.65 -1618.4 5182.3 -1628.15 5165.85 -1639.2 5150.65 -1651.85 5135.45 -1664.45 5121.3 -1678.25
L 5107.55 -1687.45
Q 5089.6 -1655.7 5074.25 -1622.65 5067.5 -1608.1 5060.8 -1593.5 5045.65 -1560.5 5039.75 -1524.85 5032.8 -1483.15 5048.2 -1443.8 5051.05 -1436.55 5054.65 -1429.6 5067.5 -1404.8 5075.75 -1378.1 5080.3 -1363.35 5082.1 -1348.05 5085.75 -1317.4 5089.2 -1286.7
L 5162.6 -1231.6
Q 5161.05 -1244.15 5159.55 -1256.7 5157.45 -1274.2 5155.4 -1291.7 5153.05 -1311.4 5151.95 -1331.35 5150.85 -1351.15 5151.65 -1370.95 5152.45 -1390.5 5157.55 -1409.6 5162.1 -1426.6 5169.25 -1442.7 5177.1 -1460.35 5183.35 -1478.9 5189.6 -1497.35 5193.45 -1516.4 5197.4 -1535.65 5199.25 -1555.05 5199.7 -1559.5 5201 -1563.7 5206.3 -1581.1 5206.1 -1599.2 Z"/>
</g>

<g id="Layer6_0_FILL">
<path fill="#E5E5E6" stroke="none" d="
M 6637.7 -1698.8
Q 6599.5 -1699.25 6561.6 -1699.45 6522.95 -1699.65 6484.65 -1699.85 6445.75 -1700.15 6407 -1700.15 6367.6 -1700.05 6328.45 -1699.75 6296.5 -1690.95 6267.7 -1673.95 6234.85 -1654.65 6211.4 -1623.9 6189.45 -1595.2 6177.45 -1560.75 6174.9 -1553.45 6173.7 -1545.85 6167.45 -1507.65 6171.9 -1469.05 6176.35 -1430.85 6195.15 -1396.75 6213.55 -1363.6 6243.45 -1340.55 6272.45 -1318.2 6306.95 -1305.1 6317.65 -1300.95 6328.75 -1299.9 6366.8 -1295.9 6405.4 -1295.25 6444 -1294.75 6482.1 -1294.55 6520.75 -1294.35 6558.95 -1294.25 6597.15 -1294.25 6635.8 -1294.95 6661.35 -1295.45 6686.95 -1293.45 6726.75 -1292.65 6764.05 -1303.75 6799.65 -1313.95 6829.35 -1335.3 6860.7 -1357.95 6880.1 -1392 6899 -1425.05 6905.8 -1462.7 6910.55 -1488.55 6907.8 -1514.85 6903.85 -1553.45 6887.5 -1588.35 6870.2 -1625.25 6838.25 -1650.5 6807.25 -1674.85 6769.95 -1687.8 6759.5 -1691.15 6749 -1692.75 6718.7 -1696.3 6688.15 -1698.1 6662.85 -1698.5 6637.7 -1698.8
M 6488.3 -1671.75
Q 6527.7 -1671.55 6566.95 -1671.35 6606.05 -1671.15 6644.9 -1670.7 6683.7 -1670.3 6722 -1667.8 6740.3 -1667.5 6758 -1663.05 6768.6 -1660.6 6778.6 -1655.85 6814.4 -1639.2 6841.2 -1610.65 6868.3 -1581.85 6876.6 -1543.15 6884.55 -1505.75 6877.8 -1467.85 6873.35 -1443.05 6863.05 -1420.1 6855.15 -1402.85 6843.5 -1387.95 6821.1 -1359.45 6788.95 -1342.2 6753.35 -1322.85 6712.7 -1323.5 6687.05 -1323.9 6661.45 -1323.5 6622.75 -1322.95 6584.65 -1322.75 6546.4 -1322.45 6507.8 -1322.45 6469.3 -1322.45 6430.85 -1322.95 6392.45 -1323.5 6354.25 -1326.3 6337.05 -1326.2 6320.4 -1329.55 6312 -1331.45 6304 -1335.1 6267.2 -1352 6240.3 -1381.8 6214.55 -1410.3 6204.35 -1447.2 6194 -1484.3 6197.05 -1522.7 6197.55 -1529.6 6199.4 -1536.25 6210.2 -1574.5 6234.25 -1605.7 6257.7 -1636.05 6291.35 -1654.85 6309.25 -1664.85 6328.45 -1671.85 6368.6 -1671.85 6408.85 -1671.95 6448.55 -1671.95 6488.3 -1671.75 Z"/>

<path fill="#3979B8" stroke="none" d="
M 6566.95 -1671.35
Q 6527.7 -1671.55 6488.3 -1671.75 6448.55 -1671.95 6408.85 -1671.95 6368.6 -1671.85 6328.45 -1671.85 6309.25 -1664.85 6291.35 -1654.85 6257.7 -1636.05 6234.25 -1605.7 6210.2 -1574.5 6199.4 -1536.25 6197.55 -1529.6 6197.05 -1522.7 6194 -1484.3 6204.35 -1447.2 6214.55 -1410.3 6240.3 -1381.8 6267.2 -1352 6304 -1335.1 6312 -1331.45 6320.4 -1329.55 6337.05 -1326.2 6354.25 -1326.3 6392.45 -1323.5 6430.85 -1322.95 6469.3 -1322.45 6507.8 -1322.45 6546.4 -1322.45 6584.65 -1322.75 6622.75 -1322.95 6661.45 -1323.5 6687.05 -1323.9 6712.7 -1323.5 6753.35 -1322.85 6788.95 -1342.2 6821.1 -1359.45 6843.5 -1387.95 6855.15 -1402.85 6863.05 -1420.1 6873.35 -1443.05 6877.8 -1467.85 6884.55 -1505.75 6876.6 -1543.15 6868.3 -1581.85 6841.2 -1610.65 6814.4 -1639.2 6778.6 -1655.85 6768.6 -1660.6 6758 -1663.05 6740.3 -1667.5 6722 -1667.8 6683.7 -1670.3 6644.9 -1670.7 6606.05 -1671.15 6566.95 -1671.35
M 6508.2 -1544.15
Q 6511.05 -1535.05 6511.45 -1525.35 6512.25 -1504.65 6509.2 -1483.9 6503.35 -1444.3 6479.1 -1412.55 6456.25 -1382.8 6421.05 -1370.3 6383.95 -1356.95 6344.45 -1357.35 6305.1 -1359.65 6272.55 -1383 6242.35 -1404.95 6225.95 -1438.8 6208.9 -1474 6212.2 -1513.3 6214.05 -1535.65 6221 -1557.1 6233.35 -1594.5 6263.55 -1619.85 6294.5 -1645.75 6333.1 -1657.9 6372.05 -1660.1 6409.05 -1648.5 6445.45 -1636.85 6471.4 -1608.35 6496.9 -1580.25 6508.2 -1544.15 Z"/>

<path fill="#F6F7F8" stroke="none" d="
M 6511.45 -1525.35
Q 6511.05 -1535.05 6508.2 -1544.15 6496.9 -1580.25 6471.4 -1608.35 6445.45 -1636.85 6409.05 -1648.5 6372.05 -1660.1 6333.1 -1657.9 6294.5 -1645.75 6263.55 -1619.85 6233.35 -1594.5 6221 -1557.1 6214.05 -1535.65 6212.2 -1513.3 6208.9 -1474 6225.95 -1438.8 6242.35 -1404.95 6272.55 -1383 6305.1 -1359.65 6344.45 -1357.35 6383.95 -1356.95 6421.05 -1370.3 6456.25 -1382.8 6479.1 -1412.55 6503.35 -1444.3 6509.2 -1483.9 6512.25 -1504.65 6511.45 -1525.35
M 6407.4 -1556
Q 6407.3 -1556.6 6407.2 -1557.1 6407 -1557.6 6406.7 -1557.8 6405.5 -1558.7 6404.2 -1558.9 6397 -1560.95 6389 -1560.05
L 6389 -1574 6435.5 -1574 6435.5 -1527.5 6421.55 -1527.5 6419.85 -1545.05
Q 6419.35 -1545.35 6418.85 -1545.65 6418.35 -1545.65 6417.95 -1545.45 6416.5 -1544.95 6415.5 -1543.95 6409.55 -1538.8 6405.3 -1532.15 6406.2 -1528.8 6407.1 -1525.45 6414.4 -1498.55 6407.2 -1472.8 6406.2 -1469.15 6404.3 -1465.7 6389.55 -1439.95 6360.7 -1436.3 6338.9 -1433.95 6320.5 -1445.8 6314.2 -1449.65 6309.45 -1455.8 6288.15 -1483.6 6301.8 -1515.35 6311.9 -1539 6336.25 -1545.85 6358.5 -1551.95 6381.15 -1546.8 6387.4 -1545.25 6393.65 -1543.75
L 6407.4 -1556 Z"/>

<path fill="#293E7E" stroke="none" d="
M 6407.2 -1557.1
Q 6407.3 -1556.6 6407.4 -1556
L 6393.65 -1543.75
Q 6387.4 -1545.25 6381.15 -1546.8 6358.5 -1551.95 6336.25 -1545.85 6311.9 -1539 6301.8 -1515.35 6288.15 -1483.6 6309.45 -1455.8 6314.2 -1449.65 6320.5 -1445.8 6338.9 -1433.95 6360.7 -1436.3 6389.55 -1439.95 6404.3 -1465.7 6406.2 -1469.15 6407.2 -1472.8 6414.4 -1498.55 6407.1 -1525.45 6406.2 -1528.8 6405.3 -1532.15 6409.55 -1538.8 6415.5 -1543.95 6416.5 -1544.95 6417.95 -1545.45 6418.35 -1545.65 6418.85 -1545.65 6419.35 -1545.35 6419.85 -1545.05
L 6421.55 -1527.5 6435.5 -1527.5 6435.5 -1574 6389 -1574 6389 -1560.05
Q 6397 -1560.95 6404.2 -1558.9 6405.5 -1558.7 6406.7 -1557.8 6407 -1557.6 6407.2 -1557.1
M 6330.3 -1531.1
Q 6334.05 -1533.95 6337.75 -1536.8 6368.4 -1539.8 6386.9 -1516.45 6406.6 -1491.7 6388.6 -1465.9 6378.2 -1450.95 6359.9 -1448.95 6325.85 -1446.4 6312.9 -1477.45 6311.1 -1481.8 6310.7 -1486.45 6308.05 -1514.15 6330.3 -1531.1 Z"/>

<path fill="#F0F1F4" stroke="none" d="
M 6337.75 -1536.8
Q 6334.05 -1533.95 6330.3 -1531.1 6308.05 -1514.15 6310.7 -1486.45 6311.1 -1481.8 6312.9 -1477.45 6325.85 -1446.4 6359.9 -1448.95 6378.2 -1450.95 6388.6 -1465.9 6406.6 -1491.7 6386.9 -1516.45 6368.4 -1539.8 6337.75 -1536.8 Z"/>
</g>

<g id="Layer5_0_FILL">
<path fill="#E5E5E6" stroke="none" d="
M 7845.65 -1108.55
Q 7836.55 -1113.2 7827.45 -1117.65 7790.65 -1136.55 7749.7 -1136.25 7710.9 -1136.05 7672.25 -1136.65 7633.05 -1137.25 7594.1 -1137.45 7554.8 -1137.65 7515.25 -1137.65 7475.25 -1137.75 7435.6 -1137.75 7395.7 -1137.85 7355.15 -1137.65 7322.2 -1128.8 7292.75 -1111.3 7259 -1091.25 7235.05 -1060.05 7212.4 -1030.4 7200.25 -995.15 7197.75 -987.65 7196.55 -979.95 7190.25 -940.75 7194.7 -901.2 7199.05 -861.7 7218.25 -826.9 7237.05 -792.95 7268 -769.2 7297.8 -746.35 7333 -733 7344 -728.75 7355.45 -727.15 7380.8 -724.1 7406.5 -723.6 7445 -722.9 7483.4 -722.4 7521.95 -721.9 7560.35 -722 7598.75 -722.1 7637.4 -722.3 7676.1 -722.6 7714.4 -723.5 7740 -724.1 7765.45 -726.95 7801.95 -729.75 7835.4 -744.75 7869.3 -759.7 7894.75 -787.1 7920.55 -814.8 7935.1 -849.65 7950.45 -886.75 7949.75 -926.5 7949.05 -962.9 7938.65 -997.45 7927.7 -1033.25 7903.85 -1061.95 7879.5 -1091.05 7845.65 -1108.55
M 7816 -1092.6
Q 7850.3 -1077 7876.15 -1049.6 7903.85 -1020.2 7914.05 -981 7924.2 -941.85 7919 -901.85 7917.7 -891.7 7915 -882.2 7904.75 -845.7 7881 -816.4 7857.35 -787.1 7823.8 -769.2 7811.85 -762.85 7798.7 -760.7 7775.25 -756.95 7751.5 -755.65 7727.65 -754.65 7703.8 -753.65 7679.95 -752.8 7656.1 -752.1 7632.25 -751.5 7608.35 -751.1 7584.5 -750.7 7560.65 -750.5 7536.7 -750.2 7512.85 -750.2 7489 -750.2 7465.15 -750.4 7441.15 -750.7 7417.2 -751 7376.35 -750.8 7337.65 -763.05 7299.85 -775.15 7271.85 -803.45 7243.25 -832.7 7229.6 -871 7216.55 -907.3 7218.55 -945.6 7219.7 -967.75 7226.45 -988.45 7238.7 -1025.35 7266.5 -1052.95 7289.05 -1075.3 7316.95 -1089.95 7346.25 -1109.75 7381.3 -1109.65 7407.2 -1107.45 7433.2 -1107.85 7472.2 -1108.55 7511 -1108.75 7550.05 -1109.05 7588.85 -1108.95 7627.7 -1108.85 7666.7 -1108.25 7705.7 -1107.75 7744.55 -1108.05 7781.75 -1108.35 7816 -1092.6
M 7854.2 -1665.35
Q 7836.65 -1675.55 7818.05 -1683.85 7785.3 -1698.4 7749.6 -1697.9 7710.9 -1697.4 7672.15 -1697.9 7633.05 -1698.5 7594 -1698.7 7554.6 -1699.05 7515.15 -1699.15 7475.25 -1699.35 7435.5 -1699.25 7395.15 -1699.15 7355.05 -1699.05 7322.1 -1690.15 7292.65 -1672.65 7259 -1652.65 7235.15 -1621.3 7212.4 -1591.65 7200.15 -1556.5 7197.65 -1549 7196.45 -1541.35 7190.15 -1502.1 7194.6 -1462.5 7199.15 -1422.85 7218.25 -1388.25 7237.05 -1354.3 7267.9 -1330.55 7297.6 -1307.7 7332.9 -1294.25 7343.9 -1290.1 7355.35 -1288.8 7393.85 -1284.65 7432.05 -1284.15 7470.5 -1283.65 7509 -1283.65 7547.2 -1283.65 7585.95 -1283.65 7624.65 -1283.65 7662.95 -1284.15 7701.5 -1284.65 7740 -1285.35 7757.6 -1286.5 7774.95 -1289.1 7810.85 -1293.75 7843 -1309.75 7876.15 -1326.3 7900 -1354.4 7924.8 -1383.4 7938.05 -1419.5 7948.25 -1447.4 7949.15 -1476.55 7950.25 -1513.85 7941.25 -1549.6 7932.05 -1586 7909.3 -1616.25 7886.85 -1646.15 7854.2 -1665.35
M 7779.9 -1664.25
Q 7789.3 -1662.65 7798.5 -1659.7 7835.6 -1647.35 7864.95 -1622 7895.25 -1595.7 7908.7 -1557.8 7922.05 -1519.9 7920.25 -1479.65 7918.6 -1442.05 7901.15 -1408 7882.75 -1372.4 7850.5 -1347.85 7826.65 -1329.85 7798.1 -1323.6 7775.15 -1318.3 7751.4 -1317 7727.55 -1316 7703.7 -1315 7679.85 -1314.2 7656 -1313.45 7632.15 -1312.85 7608.25 -1312.45 7584.4 -1311.95 7560.55 -1311.75 7536.6 -1311.45 7512.75 -1311.45 7488.9 -1311.45 7465.05 -1311.65 7441.05 -1311.95 7417.1 -1312.35 7376.45 -1312.05 7337.55 -1324.4 7299.65 -1336.5 7271.75 -1364.8 7243.25 -1393.85 7229.5 -1432.35 7216.45 -1468.75 7218.55 -1506.95 7219.8 -1529.1 7226.55 -1549.8 7238.7 -1586.7 7266.4 -1614.3 7289.05 -1636.75 7316.85 -1651.3 7346.25 -1671 7381.1 -1668.4 7407.1 -1668.8 7433.1 -1669.2 7472.2 -1669.9 7510.9 -1670 7549.85 -1670.2 7588.85 -1670.2 7627.7 -1670.2 7666.7 -1669.7 7705.7 -1669.2 7744.55 -1668.4 7762.35 -1667 7779.9 -1664.25 Z"/>

<path fill="#3979B8" stroke="none" d="
M 7876.15 -1049.6
Q 7850.3 -1077 7816 -1092.6 7781.75 -1108.35 7744.55 -1108.05 7705.7 -1107.75 7666.7 -1108.25 7627.7 -1108.85 7588.85 -1108.95 7550.05 -1109.05 7511 -1108.75 7472.2 -1108.55 7433.2 -1107.85 7407.2 -1107.45 7381.3 -1109.65 7346.25 -1109.75 7316.95 -1089.95 7289.05 -1075.3 7266.5 -1052.95 7238.7 -1025.35 7226.45 -988.45 7219.7 -967.75 7218.55 -945.6 7216.55 -907.3 7229.6 -871 7243.25 -832.7 7271.85 -803.45 7299.85 -775.15 7337.65 -763.05 7376.35 -750.8 7417.2 -751 7441.15 -750.7 7465.15 -750.4 7489 -750.2 7512.85 -750.2 7536.7 -750.2 7560.65 -750.5 7584.5 -750.7 7608.35 -751.1 7632.25 -751.5 7656.1 -752.1 7679.95 -752.8 7703.8 -753.65 7727.65 -754.65 7751.5 -755.65 7775.25 -756.95 7798.7 -760.7 7811.85 -762.85 7823.8 -769.2 7857.35 -787.1 7881 -816.4 7904.75 -845.7 7915 -882.2 7917.7 -891.7 7919 -901.85 7924.2 -941.85 7914.05 -981 7903.85 -1020.2 7876.15 -1049.6
M 7779.1 -1079.25
Q 7814.4 -1068.1 7845.55 -1047.4 7872.3 -1020.1 7886.75 -985.25 7902.55 -947.1 7894.95 -906.7 7887.9 -869.4 7865.95 -838.15 7861.4 -831.55 7855.75 -825.9 7827.35 -797.7 7789.75 -784.75 7753.95 -772.35 7716.85 -778.4 7686.9 -783.35 7660.25 -798.2 7652.55 -802.55 7645.75 -808.3 7615.35 -834.7 7599.05 -871.4 7582.7 -908.3 7589.45 -948.55 7595.65 -985.45 7614.95 -1018.2 7620.3 -1027.3 7627.4 -1034.95 7653.45 -1062.95 7689.15 -1076.2 7695.7 -1078.65 7702.4 -1080.75 7710.55 -1082.15 7718.85 -1083.6 7749.7 -1088.55 7779.1 -1079.25 Z"/>

<path fill="#F8F8F9" stroke="none" d="
M 7845.55 -1047.4
Q 7814.4 -1068.1 7779.1 -1079.25 7749.7 -1088.55 7718.85 -1083.6 7710.55 -1082.15 7702.4 -1080.75 7695.7 -1078.65 7689.15 -1076.2 7653.45 -1062.95 7627.4 -1034.95 7620.3 -1027.3 7614.95 -1018.2 7595.65 -985.45 7589.45 -948.55 7582.7 -908.3 7599.05 -871.4 7615.35 -834.7 7645.75 -808.3 7652.55 -802.55 7660.25 -798.2 7686.9 -783.35 7716.85 -778.4 7753.95 -772.35 7789.75 -784.75 7827.35 -797.7 7855.75 -825.9 7861.4 -831.55 7865.95 -838.15 7887.9 -869.4 7894.95 -906.7 7902.55 -947.1 7886.75 -985.25 7872.3 -1020.1 7845.55 -1047.4
M 7270.85 -1600.35
Q 7266.3 -1594.8 7262.75 -1588.75 7243.55 -1556.3 7237.25 -1519.1 7230.6 -1478.95 7247.05 -1441.95 7263.35 -1405.15 7293.7 -1378.85 7300.45 -1373.1 7308.15 -1368.75 7334.8 -1354 7364.75 -1348.95 7401.85 -1342.9 7437.65 -1355.3 7475.15 -1368.05 7503.65 -1396.35 7509.3 -1402 7513.85 -1408.6 7535.6 -1439.85 7542.75 -1477.15 7550.45 -1517.45 7534.8 -1555.8 7520.4 -1590.95 7493.55 -1617.85 7462.4 -1638.7 7427 -1649.9 7397.7 -1659.1 7366.75 -1654.15 7358.5 -1652.75 7350.3 -1651.3 7340.3 -1648.4 7330.7 -1644.35 7295.5 -1629.5 7270.85 -1600.35 Z"/>

<path fill="#666666" stroke="none" d="
M 7798.5 -1659.7
Q 7789.3 -1662.65 7779.9 -1664.25 7762.35 -1667 7744.55 -1668.4 7705.7 -1669.2 7666.7 -1669.7 7627.7 -1670.2 7588.85 -1670.2 7549.85 -1670.2 7510.9 -1670 7472.2 -1669.9 7433.1 -1669.2 7407.1 -1668.8 7381.1 -1668.4 7346.25 -1671 7316.85 -1651.3 7289.05 -1636.75 7266.4 -1614.3 7238.7 -1586.7 7226.55 -1549.8 7219.8 -1529.1 7218.55 -1506.95 7216.45 -1468.75 7229.5 -1432.35 7243.25 -1393.85 7271.75 -1364.8 7299.65 -1336.5 7337.55 -1324.4 7376.45 -1312.05 7417.1 -1312.35 7441.05 -1311.95 7465.05 -1311.65 7488.9 -1311.45 7512.75 -1311.45 7536.6 -1311.45 7560.55 -1311.75 7584.4 -1311.95 7608.25 -1312.45 7632.15 -1312.85 7656 -1313.45 7679.85 -1314.2 7703.7 -1315 7727.55 -1316 7751.4 -1317 7775.15 -1318.3 7798.1 -1323.6 7826.65 -1329.85 7850.5 -1347.85 7882.75 -1372.4 7901.15 -1408 7918.6 -1442.05 7920.25 -1479.65 7922.05 -1519.9 7908.7 -1557.8 7895.25 -1595.7 7864.95 -1622 7835.6 -1647.35 7798.5 -1659.7
M 7262.75 -1588.75
Q 7266.3 -1594.8 7270.85 -1600.35 7295.5 -1629.5 7330.7 -1644.35 7340.3 -1648.4 7350.3 -1651.3 7358.5 -1652.75 7366.75 -1654.15 7397.7 -1659.1 7427 -1649.9 7462.4 -1638.7 7493.55 -1617.85 7520.4 -1590.95 7534.8 -1555.8 7550.45 -1517.45 7542.75 -1477.15 7535.6 -1439.85 7513.85 -1408.6 7509.3 -1402 7503.65 -1396.35 7475.15 -1368.05 7437.65 -1355.3 7401.85 -1342.9 7364.75 -1348.95 7334.8 -1354 7308.15 -1368.75 7300.45 -1373.1 7293.7 -1378.85 7263.35 -1405.15 7247.05 -1441.95 7230.6 -1478.95 7237.25 -1519.1 7243.55 -1556.3 7262.75 -1588.75 Z"/>
</g>

<g id="Layer4_0_FILL">
<path fill="#E5E5E6" stroke="none" d="
M 6796.1 -1131
Q 6763.45 -1145.45 6727.65 -1145.15 6689.05 -1144.75 6650.25 -1145.15 6611.1 -1145.65 6572.1 -1145.85 6532.65 -1146.05 6493.25 -1146.25 6453.3 -1146.45 6413.6 -1146.45 6373.45 -1146.55 6333.1 -1146.15 6300.05 -1137.15 6270.75 -1119.8 6237 -1099.65 6213.1 -1068.45 6190.5 -1038.9 6178.25 -1003.65 6175.7 -996.15 6174.5 -988.45 6168.05 -949.25 6172.7 -909.7 6177.35 -870.1 6196.55 -835.4 6215.15 -801.55 6246.1 -777.7 6275.8 -754.95 6311.1 -741.5 6322 -737.25 6333.4 -735.65 6359.4 -732.6 6385.7 -732.2 6424.8 -731.6 6464.45 -731.1 6503.85 -730.6 6543.1 -730.5 6582.6 -730.3 6621.95 -730.8 6661.35 -731.4 6700.8 -732.1 6726.95 -732.6 6752.95 -735.85 6787.8 -739.6 6819.45 -755.45 6855.35 -773.55 6880.7 -804.6 6904.3 -833.3 6916.8 -868.05 6926.5 -895.25 6927.35 -923.65 6928.45 -960.55 6919.35 -996.55 6910.05 -1032.95 6887.4 -1063.15 6864.75 -1093.1 6832.3 -1112.3 6814.6 -1122.8 6796.1 -1131
M 6732.4 -1116.45
Q 6769.1 -1116.75 6801.35 -1098.15 6819.15 -1087.95 6835.85 -1075.5 6865.55 -1053.45 6882.45 -1020.4 6899.3 -987.45 6899.1 -950.25 6898.9 -912.35 6887.4 -876.15 6875.45 -838.45 6847.15 -810.55 6818.45 -782.25 6780.45 -769.2 6767 -764.45 6753.15 -763.25 6726.95 -761.3 6700.8 -760.8 6661.35 -760 6621.95 -759.6 6582.6 -759.3 6543.1 -759.3 6503.85 -759.3 6464.45 -759.7 6424.8 -760.2 6385.7 -760.9 6359.4 -761.3 6333.4 -764.65 6324.4 -765.25 6315.75 -768.6 6280.25 -783.05 6252.25 -808.7 6223.35 -835.3 6209.8 -872.1 6196.65 -908 6195.85 -946.1 6195.45 -966.75 6202.1 -986.15 6214.25 -1021.5 6237.7 -1051.05 6262.75 -1082.6 6298.45 -1101 6317.45 -1110.9 6337.85 -1117.55 6378.1 -1117.65 6418.35 -1117.75 6458.15 -1117.75 6498 -1117.55 6537.5 -1117.45 6576.85 -1117.25 6616.15 -1116.95 6655 -1116.55 6693.6 -1116.15 6732.4 -1116.45 Z"/>

<path fill="#F96A88" stroke="none" d="
M 6801.35 -1098.15
Q 6769.1 -1116.75 6732.4 -1116.45 6693.6 -1116.15 6655 -1116.55 6616.15 -1116.95 6576.85 -1117.25 6537.5 -1117.45 6498 -1117.55 6458.15 -1117.75 6418.35 -1117.75 6378.1 -1117.65 6337.85 -1117.55 6317.45 -1110.9 6298.45 -1101 6262.75 -1082.6 6237.7 -1051.05 6214.25 -1021.5 6202.1 -986.15 6195.45 -966.75 6195.85 -946.1 6196.65 -908 6209.8 -872.1 6223.35 -835.3 6252.25 -808.7 6280.25 -783.05 6315.75 -768.6 6324.4 -765.25 6333.4 -764.65 6359.4 -761.3 6385.7 -760.9 6424.8 -760.2 6464.45 -759.7 6503.85 -759.3 6543.1 -759.3 6582.6 -759.3 6621.95 -759.6 6661.35 -760 6700.8 -760.8 6726.95 -761.3 6753.15 -763.25 6767 -764.45 6780.45 -769.2 6818.45 -782.25 6847.15 -810.55 6875.45 -838.45 6887.4 -876.15 6898.9 -912.35 6899.1 -950.25 6899.3 -987.45 6882.45 -1020.4 6865.55 -1053.45 6835.85 -1075.5 6819.15 -1087.95 6801.35 -1098.15
M 6691.2 -1103.2
Q 6731.8 -1104.3 6770.45 -1092.7 6806.85 -1081.65 6832.5 -1053.55 6858.7 -1024.95 6867.8 -987.05 6874.95 -957.35 6873.45 -926.7 6873.05 -918.8 6870.9 -911.05 6860.6 -872.8 6834.3 -843.1 6807.15 -812.55 6767.9 -800.55 6731.5 -789.4 6694.4 -796 6656.7 -803.05 6626.6 -826.7 6594.15 -852.1 6578.25 -890.4 6563.2 -926.5 6569.65 -966.1 6573.2 -987.95 6581.6 -1008.5 6596.55 -1045.15 6628.1 -1069.35 6656.9 -1091.6 6691.2 -1103.2 Z"/>

<path fill="#F9F7F7" stroke="none" d="
M 6770.45 -1092.7
Q 6731.8 -1104.3 6691.2 -1103.2 6656.9 -1091.6 6628.1 -1069.35 6596.55 -1045.15 6581.6 -1008.5 6573.2 -987.95 6569.65 -966.1 6563.2 -926.5 6578.25 -890.4 6594.15 -852.1 6626.6 -826.7 6656.7 -803.05 6694.4 -796 6731.5 -789.4 6767.9 -800.55 6807.15 -812.55 6834.3 -843.1 6860.6 -872.8 6870.9 -911.05 6873.05 -918.8 6873.45 -926.7 6874.95 -957.35 6867.8 -987.05 6858.7 -1024.95 6832.5 -1053.55 6806.85 -1081.65 6770.45 -1092.7
M 6748.7 -1020.1
Q 6760.95 -1014.95 6770.45 -1005.65 6782.95 -993.3 6782.65 -975.3 6782.45 -963.4 6780.05 -951.75 6776.9 -936.8 6765.6 -925.6 6751.55 -911.75 6734.15 -902.75 6736.95 -900.1 6740.9 -898.5 6747 -896.45 6753.25 -898
L 6753.25 -883.65
Q 6746.25 -877.45 6736.95 -878.4 6735.55 -878.7 6734.15 -878.9
L 6734.15 -859.8 6715.05 -859.8 6715.05 -878.9
Q 6705.75 -876.65 6698.05 -882.1 6696.95 -882.8 6695.95 -883.65
L 6695.95 -898
Q 6699.75 -897 6703.5 -897.5 6710.1 -898.4 6715.05 -902.75 6681.7 -917.3 6670.15 -950.85 6667.2 -959.35 6668.35 -968.65 6671.45 -994.1 6686.45 -1014.95 6716.75 -1033.65 6748.7 -1020.1 Z"/>

<path fill="#CC9EA9" stroke="none" d="
M 6719.9 -883.65
L 6695.95 -883.65
Q 6696.95 -882.8 6698.05 -882.1 6705.75 -876.65 6715.05 -878.9
L 6715.05 -859.8 6734.15 -859.8 6734.15 -878.9
Q 6735.55 -878.7 6736.95 -878.4 6746.25 -877.45 6753.25 -883.65
L 6729.4 -883.65 6724.65 -864.55 6719.9 -883.65 Z"/>

<path fill="#9B3D53" stroke="none" d="
M 6770.45 -1005.65
Q 6760.95 -1014.95 6748.7 -1020.1 6716.75 -1033.65 6686.45 -1014.95 6671.45 -994.1 6668.35 -968.65 6667.2 -959.35 6670.15 -950.85 6681.7 -917.3 6715.05 -902.75 6710.1 -898.4 6703.5 -897.5 6699.75 -897 6695.95 -898
L 6695.95 -883.65 6719.9 -883.65 6724.65 -864.55 6729.4 -883.65 6753.25 -883.65 6753.25 -898
Q 6747 -896.45 6740.9 -898.5 6736.95 -900.1 6734.15 -902.75 6751.55 -911.75 6765.6 -925.6 6776.9 -936.8 6780.05 -951.75 6782.45 -963.4 6782.65 -975.3 6782.95 -993.3 6770.45 -1005.65
M 6705.55 -1012.5
Q 6735.25 -1016.55 6756 -996.35 6760.1 -992.4 6762.15 -987.55 6770.45 -967.05 6761.65 -947.7 6759.4 -942.75 6755.9 -938.4 6736.25 -914.45 6708.85 -926.3 6697.85 -931.15 6689.55 -939.85 6686.75 -942.75 6684 -945.7 6679.45 -967.15 6684 -988.65
L 6705.55 -1012.5 Z"/>

<path fill="#F6F3F4" stroke="none" d="
M 6756 -996.35
Q 6735.25 -1016.55 6705.55 -1012.5
L 6684 -988.65
Q 6679.45 -967.15 6684 -945.7 6686.75 -942.75 6689.55 -939.85 6697.85 -931.15 6708.85 -926.3 6736.25 -914.45 6755.9 -938.4 6759.4 -942.75 6761.65 -947.7 6770.45 -967.05 6762.15 -987.55 6760.1 -992.4 6756 -996.35 Z"/>
</g>

<g id="Layer2_0_FILL">
<path fill="#575974" stroke="none" d="
M 606.9 111.4
L 597.9 103.95
Q 568.95 98.4 541.15 96.45 441.7 114.7 466.5 212.95 457.5 234.45 462 257.8 464.7 274.65 481.4 272.7 486.65 314.7 481.4 356.35 474.4 361 469.45 366.8 433.3 380.1 400.75 399.65 295.9 416.55 276.8 520.65 254.25 542.9 237.95 571.45 224.2 608.95 208.1 646.1 168.65 683.15 142.35 729.75 112.35 804.6 85.6 879.15 83.2 896.45 84.1 912 71.1 942.9 66.2 977.7 69.15 999.95 76.65 1022.5 88.3 1038.8 105 1049.4 112.8 1036.4 116.95 1022.5
L 111 998.6
Q 110.55 982.35 118.45 968.75 122.65 976.95 124.45 986.65 132.2 999.65 145.35 992.65 145.8 955.45 142.35 920.95 127.85 903.45 142.35 885.1 173.4 842.1 211.05 804.45
L 261.85 720.8
Q 310.4 663.75 354.45 598.3 371.2 651.2 396.25 702.9 400.6 729.75 400.75 756.65 395.85 835.5 384.35 915 357.9 1004.45 352.95 1097.2 347 1140.65 352.95 1183.85 355.2 1238.35 364.9 1292.85 359.85 1333.95 354.45 1384 341 1422.8 333.55 1461.65 331.15 1563.35 345.5 1664.8 348.5 1691.65 345.5 1718.55 343.25 1773.05 290.25 1788.75 276.95 1798.3 284.25 1812.65 306.8 1820.85 332.05 1827.6 353.85 1850.9 385.8 1845.5 406 1843.25 408.2 1823.1 409.1 1786.35 412.7 1749.9
L 409.7 1735
Q 423.15 1635.05 462 1542.3 459.75 1467.6 453.05 1392.95 473.2 1371.15 482.9 1342.15 492.75 1289.9 500.85 1237.6 526.5 1152.6 541.15 1064.35 545.5 1054.8 544.15 1043.45 543.25 1033.55 545.65 1022.5 550.85 1040.3 550.1 1058.35 554.75 1095.85 563.55 1133.05 595.55 1239.55 611.35 1348.15 622.4 1370.55 638.25 1389.95 630.05 1470.15 632.25 1548.3
L 656.15 1614
Q 684.85 1697.35 684.55 1785.75 674.7 1815.65 693.5 1839.55 731.15 1855.5 762.2 1827.6 783.55 1818.65 807 1812.65 819.1 1797.7 801.05 1790.25 790 1782.35 777.15 1776.8
L 754.75 1754.4
Q 748.75 1739.9 747.3 1724.55
L 747.3 1682.7
Q 753.1 1600.85 762.2 1506.45 762.05 1473.6 754.75 1440.75 743.7 1407.3 735.35 1372.05 736.65 1355 732.35 1339.15
L 726.35 1289.9
Q 744.45 1200.85 741.3 1109.15 742.65 1092.1 738.3 1076.3 736.4 1035.05 727.85 992.65 699.35 875.4 690.5 756.65 689.75 725.75 698 696.9 722.05 649.4 738.3 598.3
L 781.65 661.05
Q 838.4 725.6 880.2 801.45
L 948.9 882.1
Q 955.5 894.05 959.4 906 954.75 915.85 948.9 923.95 947.45 953.35 944.45 982.2 945.8 999.5 962.35 994.15 970.6 981 972.8 965.75
L 978.8 971.75
Q 980.15 986.65 983.25 1001.6 977.45 1011.45 974.3 1022.5 979.7 1032.95 983.25 1043.45 987 1048.35 992.25 1044.9 1004.35 1037.3 1014.65 1025.5 1027.05 993.85 1023.6 959.8 1009.55 923.5 1008.65 885.1 1006.85 876.3 1001.2 870.15 980.6 800.55 951.9 732.75 922.5 683.9 883.2 643.15 866.45 598.05 844.35 553.5 832.1 536.65 817.5 520.65 802.7 429.25 714.4 404.15 669.75 389.05 627.8 369.8 620.9 361.6 611.35 356.35 601.95 314.25 612.85 272.7 621.05 273.75 626.3 266.75 641.55 239.55 624.8 214.45 635.25 184.3 626.3 153.2 613.45 133.8 606.9 111.4
M 538.15 103.95
Q 529.95 106.45 535.2 111.4 566.55 101.25 597.9 109.9
L 600.9 112.9
Q 597.15 114.4 594.95 117.35 623.15 144.25 627.8 183.1 616.15 221.2 614.35 260.75
L 587.45 299.6
Q 568.65 286 545.65 284.65 524.15 288.25 502.3 295.1 488.15 276.9 476.95 254.8 476.35 227.3 467.95 201 453.5 125.3 526.2 102.45 532.05 101.85 538.15 103.95
M 473.95 266.75
Q 469.75 263.3 467.95 257.8 465.6 239.25 466.5 221.95 473.95 243.9 473.95 266.75
M 626.3 254.8
Q 624.95 264.35 617.35 269.7 620.9 250.9 624.8 224.9 629.9 239.25 626.3 254.8
M 605.4 356.35
L 615.85 366.8
Q 546.85 364.4 478.4 366.8
L 488.9 356.35 491.85 290.65
Q 498 298.55 506.8 302.6 525.6 293.9 545.65 290.65 566.7 292.6 585.95 302.6 599.85 297.05 603.9 281.65 603.45 319.15 605.4 356.35
M 490.35 371.3
Q 557.6 369.8 624.8 375.75 657.8 385.95 687.55 402.65 654.95 410.15 633.75 435.5 588.95 434.45 544.15 431.05 500.7 434.45 457.5 435.5 437.35 411.3 406.75 402.65 444.95 377.85 490.35 371.3
M 293.2 510.2
Q 287.85 518.25 284.25 510.2 302.45 428.5 382.85 407.15 420 402.65 445.55 429.55 406.45 463.6 361.9 495.25 329.35 512 293.2 510.2
M 258.85 547.55
Q 269.75 534.1 281.25 522.15 307.1 514.55 332.05 508.7
L 347 508.7
Q 353.7 548.15 354.45 589.35 323.55 643 278.3 686.45 266.35 696.6 252.9 690.95 252.75 673.15 245.4 656.6 228.55 655.4 212.55 658.05 213 640.75 220.05 625.2 238.4 585.95 258.85 547.55
M 209.55 664.05
Q 225.55 661.35 242.45 662.55 245.4 677.2 249.9 693.9 258.25 703.8 269.3 696.9 273.65 699.3 270.8 702.9 237.8 746.5 211.05 795.5 169.4 840 133.4 891.1 112.65 905.1 97.55 885.1 94.4 874.8 97.55 864.2 118.15 797.3 145.35 735.75 170.15 690.65 206.6 655.1 210.45 658.35 209.55 664.05
M 511.3 437
Q 570.15 435.95 630.8 443 612.7 487.05 590.45 529.6 574.15 576.5 557.6 619.25 543.1 643.9 533.7 616.25 503.65 526.8 460.5 444.5 486.05 442.1 511.3 437
M 355.95 504.25
Q 403.6 471.5 448.55 434 498.75 517.35 520.25 611.75 518.45 640.45 509.8 667.05 492.75 705.55 473.95 741.7 471.55 751.1 472.45 759.65
L 472.4 760.2
Q 472.3 760.9 472.25 761.65 472.3 761.25 472.4 760.85 472.05 763.1 472.2 765.25 472.55 770.5 475.45 774.55 476.65 754.25 482.9 735.75 516.95 678.85 527.7 613.25 546.55 660.9 566.55 613.25 568.65 622.65 568.05 631.2 566.85 637.15 571.05 640.15 575.05 663.45 584.45 684.95 599.7 714.1 614.35 747.7 614.35 789.65 621.8 831.35 567 823.7 544.15 873.15
L 544.15 870.15
Q 537.85 854.65 526.2 841.8 499.2 828.8 469.45 829.85 477.55 806.25 475.45 780.55
L 469.45 813.4
Q 469.3 825.2 460.5 832.85 422.55 846.25 396.25 876.15 401.65 834.45 405.25 792.5 410 742.45 399.25 693.9 347.9 604.9 355.95 504.25
M 574 634.15
L 574 598.3
Q 599.25 511.7 644.2 434 649.9 440.3 657.65 443 693.65 478.25 736.8 505.7 740.85 512.6 741.3 520.65 735.05 542.9 732.35 565.45 729.35 631.8 695 687.95
L 689.05 711.85
Q 685.9 761.15 689.05 810.4 694.25 845.35 698 879.15 691.25 868.1 681.55 859.7 651.1 844.9 626.3 825.35 621.35 784.3 617.35 741.7 602.7 708.1 587.45 679 579.25 657 574 634.15
M 657.65 440
Q 653.95 434 648.7 429.55 673.8 402.05 711.45 407.15 792.85 432.25 807 514.7 775.95 507.5 744.3 501.25 698.3 472.7 657.65 440
M 738.3 583.4
Q 740.85 546.2 745.8 505.7 775.95 515.15 807 519.15 824.05 534.85 838.4 553.5 854.5 590.7 874.25 628.2 878.7 643 878.7 658.05 864.1 655.85 848.85 656.6 842.85 660.3 842.85 667.05 844.35 711.7 810 681.95 766.4 638.35 738.3 583.4
M 856.3 661.05
Q 869.15 665.25 881.7 662.55 884.55 658.95 886.2 655.1 935.95 702.3 960.85 765.6 977.3 817.9 998.2 873.15 993.3 903.75 963.85 894.05 929.8 843.75 886.2 801.45
L 820.45 693.9
Q 832.25 706 844.35 693.9 846.45 680.05 845.85 667.05 849.6 663 856.3 661.05
M 983.25 974.7
Q 987.75 974.4 990.75 977.7 1003.3 1006.55 981.8 1028.5 982.95 1013.1 986.25 997.15 985.2 987.1 983.25 974.7
M 1001.2 882.1
Q 1007.6 928.1 1019.1 974.7 1016.6 1000.25 1011.65 1022.5 1002.25 1034.15 989.25 1040.45
L 986.25 1035.95
Q 995.8 1020.6 1001.2 1004.6 998.8 987.7 992.25 971.75 978.65 964.4 965.35 959.8 966.7 975.45 960.85 989.65 947.75 994.9 950.4 979.2 953.25 952 954.9 923.95 963.85 913.8 962.35 900.05 990.15 907.05 1001.2 882.1
M 666.6 861.2
Q 668.85 856.85 672.6 859.7 688.75 874.8 701 891.1 707.7 940.8 721.9 989.65 732.95 1046.1 735.35 1103.15
L 735.35 1183.85
Q 734.45 1257.15 706.95 1324.25 700.7 1329.15 693.5 1325.75 680.35 1304.8 671.1 1282.4 666.3 1278.85 660.65 1279.4 662.45 1311.55 653.2 1342.15 646.15 1353.8 633.75 1349.6 622.1 1341.25 617.35 1327.2 585.8 1197.7 553.1 1055.4 552.2 1041.2 554.6 1025.5 562.95 1032.65 574 1035.95 601.35 1039.4 627.8 1034.45 711 1014.3 689.05 929.9 679.9 895.25 666.6 861.2
M 671.1 885.1
Q 679.45 913.5 686.05 944.85 692.25 1020.2 625.2 1030.2 620.75 1030.9 615.95 1031.3 615.4 1031.25 614.8 1031.25 612.35 1031.4 609.85 1031.5 584.9 1033.55 562.05 1025.5
L 554.6 1016.55
Q 547.9 946.8 550.1 876.15 571.05 823.1 627.8 838.8 663.05 848.95 671.1 885.1
M 693.5 1331.7
Q 699.35 1334.85 705.45 1331.7 717.7 1319.9 721.9 1303.3 728 1333.5 729.35 1366.05 728 1374.85 732.35 1381 734.6 1392.35 735.35 1401.9 727.1 1401.9 720.4 1406.4 707.7 1420.4 693.5 1430.3 678.4 1429.85 663.65 1425.8 650.95 1424.3 644.2 1434.75
L 644.2 1392.95
Q 628.4 1369.8 615.85 1343.65
L 617.35 1339.15
Q 630.9 1363.35 654.65 1348.15 668.85 1318.55 668.1 1285.4 676.65 1311.1 693.5 1331.7
M 729.35 1404.9
Q 736.5 1404.45 739.8 1410.85 770.3 1491.65 742.8 1572.2 731.15 1583.7 718.9 1572.2 708.75 1551.7 693.5 1533.35 688.9 1535.75 686.05 1539.3 685.45 1557.4 680.05 1575.15 665.45 1592.65 650.2 1575.15 642 1565 638.25 1551.25 633.45 1496.75 644.2 1443.7 649.9 1429.7 665.15 1428.8 678.1 1436.25 693.5 1436.25 712.2 1421.3 729.35 1404.9
M 693.5 1539.3
Q 704.55 1563.8 723.4 1582.65 738.6 1584.55 748.75 1572.2 742.2 1644.9 741.3 1721.55 740.1 1727.5 744.3 1730.5 743.85 1743.05 748.75 1754.4 759.25 1763.5 766.7 1775.3 778.8 1780.55 789.1 1788.75 801.1 1794 803.65 1794.05 807.3 1800.85 804.05 1808.15 782.1 1817 759.25 1821.6 751.15 1831 741.3 1836.55 713.2 1848.95 692 1829.1 696.95 1704.2 651.7 1587.1 663.05 1587.1 675.6 1585.6 679.75 1584 683.05 1581.15 689.35 1561.55 693.5 1539.3
M 487.4 837.3
Q 527.55 835.8 541.15 873.15 547.75 943.95 539.65 1013.55 533.85 1026.7 520.25 1030 495.15 1032.4 472.45 1031.5 390.15 1017 408.2 932.9 416.3 901.4 426.15 870.15 445.55 834.15 487.4 837.3
M 387.3 926.9
L 390.3 894.05
Q 402.4 868.65 427.65 859.7 411.05 895.85 402.25 935.9 385.2 1015.8 463.5 1034.45 489.95 1039.1 517.25 1035.95 527.4 1035.05 535.2 1028.5 539.5 1038.2 538.15 1049.4 523.25 1147.7 494.85 1240.6 487.7 1279.55 479.9 1315.25 474.1 1335.3 460.5 1349.6 445.7 1353.05 438.1 1339.15 433.45 1312 430.65 1280.9 425.4 1277.8 421.65 1282.4 411.65 1305.4 397.75 1327.2 389.4 1330.8 384.35 1321.25 355.05 1238.95 355.95 1150.95
L 355.95 1145
Q 354.9 1071.2 369.4 998.6 374.15 961.9 387.3 926.9
M 128.9 900.05
Q 134.6 919 140.85 934.4 138.75 943.95 137.9 952.3 142.65 971 142.35 989.65 135.2 995.35 130.4 986.65 125.8 973.1 122.95 959.8
L 99.05 974.7
Q 93.95 993.1 93.05 1010.55 97.4 1022.5 106.5 1031.5 109.65 1036.7 105 1040.45 91.85 1034.15 82.6 1022.5 75 1000.1 72.15 977.7 76.05 946.5 87.1 917.95 85.15 899.15 91.55 882.1 102.75 905.1 128.9 900.05
M 105 974.7
Q 109.2 981.45 108 989.65 102.9 997.7 106.5 1007.6 114.55 1017.6 111 1028.5 102.05 1018.35 96.05 1007.6 99.35 991.15 105 974.7
M 370.9 1306.3
Q 377.6 1330.65 400.75 1331.7 415.4 1310.35 424.65 1285.4 427.5 1306 432.1 1336.2 438.85 1361.15 463.5 1352.6 475.75 1336.35 477.7 1338.25 479.45 1340.05 470.95 1360.1 440.5 1389.35 447.05 1431.75 440.35 1425.05 430.65 1425.8 415.7 1429.85 400.75 1430.3 386.25 1420.4 373.85 1406.4 365.65 1401.45 355.95 1401.9 364.9 1355.9 370.9 1306.3
M 429.15 1428.8
Q 440.35 1431.2 447.05 1440.75 461.4 1495.25 456 1551.25 449.75 1570.55 433.6 1582.65 424.8 1586.05 417.2 1581.15 407.65 1559.65 405.25 1536.35 402.4 1533.95 399.25 1533.35 383.45 1556.2 367.9 1576.65 351.3 1579.8 345.5 1563.2 321.3 1481.95 355.95 1404.9 360.75 1404.45 364.9 1406.4 378.2 1421.45 394.8 1433.25 412.55 1436.7 429.15 1428.8
M 373.85 1579.65
Q 388.5 1561.4 397.75 1539.3 404.95 1558.3 408.2 1578.15
L 415.7 1585.6
Q 429.45 1587.85 442.6 1585.6 396.25 1702.7 402.25 1829.1 368.65 1853.9 338 1824.6 315.3 1816.25 290.25 1809.65 278.6 1799.65 293.2 1791.75 359.7 1770.85 352.95 1700.65 347 1637.75 342.5 1569.2 354.15 1588.45 373.85 1579.65 Z"/>

<path fill="#DEE4EB" stroke="none" d="
M 397.75 1539.3
Q 388.5 1561.4 373.85 1579.65 354.15 1588.45 342.5 1569.2 347 1637.75 352.95 1700.65 359.7 1770.85 293.2 1791.75 278.6 1799.65 290.25 1809.65 315.3 1816.25 338 1824.6 368.65 1853.9 402.25 1829.1 396.25 1702.7 442.6 1585.6 429.45 1587.85 415.7 1585.6
L 408.2 1578.15
Q 404.95 1558.3 397.75 1539.3 Z"/>

<path fill="#E4E4E4" stroke="none" d="
M 447.05 1440.75
Q 440.35 1431.2 429.15 1428.8 412.55 1436.7 394.8 1433.25 378.2 1421.45 364.9 1406.4 360.75 1404.45 355.95 1404.9 321.3 1481.95 345.5 1563.2 351.3 1579.8 367.9 1576.65 383.45 1556.2 399.25 1533.35 402.4 1533.95 405.25 1536.35 407.65 1559.65 417.2 1581.15 424.8 1586.05 433.6 1582.65 449.75 1570.55 456 1551.25 461.4 1495.25 447.05 1440.75
M 242.45 662.55
Q 225.55 661.35 209.55 664.05 210.45 658.35 206.6 655.1 170.15 690.65 145.35 735.75 118.15 797.3 97.55 864.2 94.4 874.8 97.55 885.1 112.65 905.1 133.4 891.1 169.4 840 211.05 795.5 237.8 746.5 270.8 702.9 273.65 699.3 269.3 696.9 258.25 703.8 249.9 693.9 245.4 677.2 242.45 662.55 Z"/>

<path fill="#DDE3E9" stroke="none" d="
M 400.75 1331.7
Q 377.6 1330.65 370.9 1306.3 364.9 1355.9 355.95 1401.9 365.65 1401.45 373.85 1406.4 386.25 1420.4 400.75 1430.3 415.7 1429.85 430.65 1425.8 440.35 1425.05 447.05 1431.75 440.5 1389.35 470.95 1360.1 479.45 1340.05 477.7 1338.25 475.75 1336.35 463.5 1352.6 438.85 1361.15 432.1 1336.2 427.5 1306 424.65 1285.4 415.4 1310.35 400.75 1331.7
M 705.45 1331.7
Q 699.35 1334.85 693.5 1331.7 676.65 1311.1 668.1 1285.4 668.85 1318.55 654.65 1348.15 630.9 1363.35 617.35 1339.15
L 615.85 1343.65
Q 628.4 1369.8 644.2 1392.95
L 644.2 1434.75
Q 650.95 1424.3 663.65 1425.8 678.4 1429.85 693.5 1430.3 707.7 1420.4 720.4 1406.4 727.1 1401.9 735.35 1401.9 734.6 1392.35 732.35 1381 728 1374.85 729.35 1366.05 728 1333.5 721.9 1303.3 717.7 1319.9 705.45 1331.7 Z"/>

<path fill="#D9DADC" stroke="none" d="
M 108 989.65
Q 109.2 981.45 105 974.7 99.35 991.15 96.05 1007.6 102.05 1018.35 111 1028.5 114.55 1017.6 106.5 1007.6 102.9 997.7 108 989.65 Z"/>

<path fill="#E0E0E1" stroke="none" d="
M 140.85 934.4
Q 134.6 919 128.9 900.05 102.75 905.1 91.55 882.1 85.15 899.15 87.1 917.95 76.05 946.5 72.15 977.7 75 1000.1 82.6 1022.5 91.85 1034.15 105 1040.45 109.65 1036.7 106.5 1031.5 97.4 1022.5 93.05 1010.55 93.95 993.1 99.05 974.7
L 122.95 959.8
Q 125.8 973.1 130.4 986.65 135.2 995.35 142.35 989.65 142.65 971 137.9 952.3 138.75 943.95 140.85 934.4 Z"/>

<path fill="#E5E5E6" stroke="none" d="
M 390.3 894.05
L 387.3 926.9
Q 374.15 961.9 369.4 998.6 354.9 1071.2 355.95 1145
L 355.95 1150.95
Q 355.05 1238.95 384.35 1321.25 389.4 1330.8 397.75 1327.2 411.65 1305.4 421.65 1282.4 425.4 1277.8 430.65 1280.9 433.45 1312 438.1 1339.15 445.7 1353.05 460.5 1349.6 474.1 1335.3 479.9 1315.25 487.7 1279.55 494.85 1240.6 523.25 1147.7 538.15 1049.4 539.5 1038.2 535.2 1028.5 527.4 1035.05 517.25 1035.95 489.95 1039.1 463.5 1034.45 385.2 1015.8 402.25 935.9 411.05 895.85 427.65 859.7 402.4 868.65 390.3 894.05
M 686.05 944.85
Q 679.45 913.5 671.1 885.1 663.05 848.95 627.8 838.8 571.05 823.1 550.1 876.15 547.9 946.8 554.6 1016.55
L 562.05 1025.5
Q 584.9 1033.55 609.85 1031.5 612.35 1031.4 614.8 1031.25 620.2 1030.85 625.2 1030.2 692.25 1020.2 686.05 944.85
M 672.6 859.7
Q 668.85 856.85 666.6 861.2 679.9 895.25 689.05 929.9 711 1014.3 627.8 1034.45 601.35 1039.4 574 1035.95 562.95 1032.65 554.6 1025.5 552.2 1041.2 553.1 1055.4 585.8 1197.7 617.35 1327.2 622.1 1341.25 633.75 1349.6 646.15 1353.8 653.2 1342.15 662.45 1311.55 660.65 1279.4 666.3 1278.85 671.1 1282.4 680.35 1304.8 693.5 1325.75 700.7 1329.15 706.95 1324.25 734.45 1257.15 735.35 1183.85
L 735.35 1103.15
Q 732.95 1046.1 721.9 989.65 707.7 940.8 701 891.1 688.75 874.8 672.6 859.7 Z"/>

<path fill="#E5E5E5" stroke="none" d="
M 541.15 873.15
Q 527.55 835.8 487.4 837.3 445.55 834.15 426.15 870.15 416.3 901.4 408.2 932.9 390.15 1017 472.45 1031.5 495.15 1032.4 520.25 1030 533.85 1026.7 539.65 1013.55 547.75 943.95 541.15 873.15
M 745.8 505.7
Q 740.85 546.2 738.3 583.4 766.4 638.35 810 681.95 844.35 711.7 842.85 667.05 842.85 660.3 848.85 656.6 864.1 655.85 878.7 658.05 878.7 643 874.25 628.2 854.5 590.7 838.4 553.5 824.05 534.85 807 519.15 775.95 515.15 745.8 505.7
M 574 598.3
L 574 634.15
Q 579.25 657 587.45 679 602.7 708.1 617.35 741.7 621.35 784.3 626.3 825.35 651.1 844.9 681.55 859.7 691.25 868.1 698 879.15 694.25 845.35 689.05 810.4 685.9 761.15 689.05 711.85
L 695 687.95
Q 729.35 631.8 732.35 565.45 735.05 542.9 741.3 520.65 740.85 512.6 736.8 505.7 693.65 478.25 657.65 443 649.9 440.3 644.2 434 599.25 511.7 574 598.3
M 475.45 774.55
L 475.45 780.55
Q 477.55 806.25 469.45 829.85 499.2 828.8 526.2 841.8 537.85 854.65 544.15 870.15
L 544.15 873.15
Q 567 823.7 621.8 831.35 614.35 789.65 614.35 747.7 599.7 714.1 584.45 684.95 575.05 663.45 571.05 640.15 566.85 637.15 568.05 631.2 568.65 622.65 566.55 613.25 546.55 660.9 527.7 613.25 516.95 678.85 482.9 735.75 476.65 754.25 475.45 774.55
M 630.8 443
Q 570.15 435.95 511.3 437 486.05 442.1 460.5 444.5 503.65 526.8 533.7 616.25 543.1 643.9 557.6 619.25 574.15 576.5 590.45 529.6 612.7 487.05 630.8 443
M 281.25 522.15
Q 269.75 534.1 258.85 547.55 238.4 585.95 220.05 625.2 213 640.75 212.55 658.05 228.55 655.4 245.4 656.6 252.75 673.15 252.9 690.95 266.35 696.6 278.3 686.45 323.55 643 354.45 589.35 353.7 548.15 347 508.7
L 332.05 508.7
Q 307.1 514.55 281.25 522.15 Z"/>

<path fill="#DEE4EA" stroke="none" d="
M 723.4 1582.65
Q 704.55 1563.8 693.5 1539.3 689.35 1561.55 683.05 1581.15 679.75 1584 675.6 1585.6 663.05 1587.1 651.7 1587.1 696.95 1704.2 692 1829.1 713.2 1848.95 741.3 1836.55 751.15 1831 759.25 1821.6 782.1 1817 804.05 1808.15 807.3 1800.85 803.65 1794.05 801.1 1794 789.1 1788.75 778.8 1780.55 766.7 1775.3 759.25 1763.5 748.75 1754.4 743.85 1743.05 744.3 1730.5 740.1 1727.5 741.3 1721.55 742.2 1644.9 748.75 1572.2 738.6 1584.55 723.4 1582.65
M 615.85 366.8
L 605.4 356.35
Q 603.45 319.15 603.9 281.65 599.85 297.05 585.95 302.6 566.7 292.6 545.65 290.65 525.6 293.9 506.8 302.6 498 298.55 491.85 290.65
L 488.9 356.35 478.4 366.8
Q 546.85 364.4 615.85 366.8 Z"/>

<path fill="#E4E5E5" stroke="none" d="
M 739.8 1410.85
Q 736.5 1404.45 729.35 1404.9 712.2 1421.3 693.5 1436.25 678.1 1436.25 665.15 1428.8 649.9 1429.7 644.2 1443.7 633.45 1496.75 638.25 1551.25 642 1565 650.2 1575.15 665.45 1592.65 680.05 1575.15 685.45 1557.4 686.05 1539.3 688.9 1535.75 693.5 1533.35 708.75 1551.7 718.9 1572.2 731.15 1583.7 742.8 1572.2 770.3 1491.65 739.8 1410.85
M 881.7 662.55
Q 869.15 665.25 856.3 661.05 849.6 663 845.85 667.05 846.45 680.05 844.35 693.9 832.25 706 820.45 693.9
L 886.2 801.45
Q 929.8 843.75 963.85 894.05 993.3 903.75 998.2 873.15 977.3 817.9 960.85 765.6 935.95 702.3 886.2 655.1 884.55 658.95 881.7 662.55 Z"/>

<path fill="#E2E2E3" stroke="none" d="
M 1019.1 974.7
Q 1007.6 928.1 1001.2 882.1 990.15 907.05 962.35 900.05 963.85 913.8 954.9 923.95 953.25 952 950.4 979.2 947.75 994.9 960.85 989.65 966.7 975.45 965.35 959.8 978.65 964.4 992.25 971.75 998.8 987.7 1001.2 1004.6 995.8 1020.6 986.25 1035.95
L 989.25 1040.45
Q 1002.25 1034.15 1011.65 1022.5 1016.6 1000.25 1019.1 974.7 Z"/>

<path fill="#D5D6DA" stroke="none" d="
M 990.75 977.7
Q 987.75 974.4 983.25 974.7 985.2 987.1 986.25 997.15 982.95 1013.1 981.8 1028.5 1003.3 1006.55 990.75 977.7 Z"/>

<path fill="#E4E4E5" stroke="none" d="
M 648.7 429.55
Q 653.95 434 657.65 440 698.3 472.7 744.3 501.25 775.95 507.5 807 514.7 792.85 432.25 711.45 407.15 673.8 402.05 648.7 429.55
M 624.8 375.75
Q 557.6 369.8 490.35 371.3 444.95 377.85 406.75 402.65 437.35 411.3 457.5 435.5 500.7 434.45 544.15 431.05 588.95 434.45 633.75 435.5 654.95 410.15 687.55 402.65 657.8 385.95 624.8 375.75 Z"/>

<path fill="#7A7C8F" stroke="none" d="
M 475.45 780.55
L 475.45 774.55
Q 472.55 770.5 472.2 765.25 472.05 763.1 472.4 760.85 472.3 761.25 472.25 761.65 471.85 763.95 471.5 766.25 469.15 782.5 469.1 798.95 469.05 806.15 469.45 813.4
L 475.45 780.55 Z"/>

<path fill="#E5E6E6" stroke="none" d="
M 448.55 434
Q 403.6 471.5 355.95 504.25 347.9 604.9 399.25 693.9 410 742.45 405.25 792.5 401.65 834.45 396.25 876.15 422.55 846.25 460.5 832.85 469.3 825.2 469.45 813.4 469.05 806.15 469.1 798.95 469.15 782.5 471.5 766.25 471.85 763.2 472.4 760.2
L 472.45 759.65
Q 471.55 751.1 473.95 741.7 492.75 705.55 509.8 667.05 518.45 640.45 520.25 611.75 498.75 517.35 448.55 434 Z"/>

<path fill="#E3E4E4" stroke="none" d="
M 284.25 510.2
Q 287.85 518.25 293.2 510.2 329.35 512 361.9 495.25 406.45 463.6 445.55 429.55 420 402.65 382.85 407.15 302.45 428.5 284.25 510.2 Z"/>

<path fill="#CCD2DA" stroke="none" d="
M 617.35 269.7
Q 624.95 264.35 626.3 254.8 629.9 239.25 624.8 224.9 620.9 250.9 617.35 269.7 Z"/>

<path fill="#C3C8D1" stroke="none" d="
M 467.95 257.8
Q 469.75 263.3 473.95 266.75 473.95 243.9 466.5 221.95 465.6 239.25 467.95 257.8 Z"/>

<path fill="#DFE5EB" stroke="none" d="
M 535.2 111.4
Q 529.95 106.45 538.15 103.95 532.05 101.85 526.2 102.45 453.5 125.3 467.95 201 476.35 227.3 476.95 254.8 488.15 276.9 502.3 295.1 524.15 288.25 545.65 284.65 568.65 286 587.45 299.6
L 614.35 260.75
Q 616.15 221.2 627.8 183.1 623.15 144.25 594.95 117.35 597.15 114.4 600.9 112.9
L 597.9 109.9
Q 566.55 101.25 535.2 111.4 Z"/>
</g>
</defs>

<g transform="matrix( 1, 0, 0, 1, 0,0) ">
<use xlink:href="#Layer7_0_FILL"/>
</g>

<g transform="matrix( 1, 0, 0, 1, 0,0) ">
<use xlink:href="#Layer6_0_FILL"/>
</g>

<g transform="matrix( 0.63262939453125, 0, 0, 0.63262939453125, -4673,139) ">
<use xlink:href="#S_logo_7_png"/>
</g>

<g transform="matrix( 1, 0, 0, 1, 0,0) ">
<use xlink:href="#Layer5_0_FILL"/>
</g>

<g transform="matrix( 1, 0, 0, 1, 0,0) ">
<use xlink:href="#Layer4_0_FILL"/>
</g>

<g transform="matrix( 1, 0, 0, 1, 0,0) ">
<use xlink:href="#Layer2_0_FILL"/>
</g>
</svg>
