
<svg xmlns="http://www.w3.org/2000/svg" version="1.1" xmlns:xlink="http://www.w3.org/1999/xlink" preserveAspectRatio="none" x="0px" y="0px" width="1080px" height="1920px" viewBox="0 0 1080 1920">
<defs>
<image id="S_logo_7_png" x="0" y="0" width="2816" height="2816" xlink:href="./images/S_logo_7_png.png"/>

<g id="Layer7_0_FILL">
<path fill="#575974" stroke="none" d="
M 10933.3 -4205.8
Q 10928.95 -4191.65 10926.55 -4177 10924.15 -4162.45 10923.85 -4147.55 10923.6 -4133.05 10924.4 -4118.6 10925.15 -4104.35 10927.6 -4090.45 10931.1 -4070.95 10936.45 -4051.8 10945.65 -4018.9 10959.95 -3987.8 10972.95 -3959.7 10990.95 -3934.35 10996.8 -3926.15 11003.6 -3918.45 11021.3 -3898.5 11046.45 -3889.15 11081.9 -3875.8 11120.15 -3875.15 11136.5 -3874.85 11152.4 -3874.9 11258.7 -3875.15 11364 -3888.5 11387.55 -3891.7 11410.85 -3895.75 11446.55 -3901.8 11481.65 -3912.35 11496.45 -3916.85 11510.55 -3923.2 11524.5 -3929.5 11537.85 -3937.65 11540.55 -3939.25 11543.15 -3940.95 11545.75 -3942.65 11548.35 -3944.4 11549.55 -3945.2 11550.7 -3946.05 11558.45 -3951.7 11565.45 -3959.35 11576.25 -3971.1 11582.5 -3985.15 11586.25 -3993.6 11588.85 -4002.5 11591.7 -4012.4 11592.9 -4022.8 11594.1 -4033.45 11592.95 -4043.8 11592.05 -4051.8 11590.35 -4059.95 11588.45 -4069.05 11586.2 -4078.05 11584 -4087.1 11581.45 -4096.05 11578.9 -4105.05 11576.25 -4113.95 11571.15 -4131.2 11564.15 -4147.75 11554.15 -4171.35 11539.5 -4192.65 11538.25 -4194.45 11536.75 -4195.95 11514.65 -4218.6 11487.25 -4234.6 11448.35 -4257.4 11406.95 -4275.45 11347.6 -4301.2 11285.3 -4318.85 11283.6 -4319.35 11281.9 -4319.85 11284.95 -4320.65 11288 -4321.4 11303.35 -4325.6 11318.2 -4330.35 11331.35 -4334.75 11343.05 -4342.05 11359.95 -4352.55 11368.15 -4371 11376.8 -4390.45 11364.95 -4407.75 11358.35 -4417.4 11347.3 -4420.55 11336.75 -4423.4 11326.25 -4419.6 11309.1 -4413.2 11291.7 -4407.55 11276.6 -4402.65 11261.5 -4399.7 11248.85 -4397.35 11236.95 -4393.2 11227.5 -4389.9 11218.05 -4386.65 11208.6 -4383.25 11199.15 -4379.95 11189.6 -4376.75 11180.2 -4373.25 11163.55 -4367.3 11146 -4363.95 11129.1 -4360.55 11111.7 -4361.7 11093.9 -4362.3 11076.85 -4364.35 11058.8 -4366.55 11040.95 -4369.15 11021.2 -4372.15 11001.8 -4373.8 10986.7 -4374.7 10972.35 -4375.45 10952.85 -4375.8 10933.35 -4375.9 10913.8 -4376.05 10894.3 -4376.05 10874.4 -4376 10854.55 -4376.2 10835.55 -4376.4 10817.15 -4373.25 10809.75 -4372.1 10802.35 -4371 10792.7 -4369.8 10786.1 -4363.2 10771.85 -4348.9 10776.05 -4329 10776.55 -4326.6 10777.6 -4324.4 10782.75 -4313.8 10793 -4307.3 10810.55 -4296.2 10831.3 -4298.65 10832.3 -4298.65 10833.3 -4298.65
L 10996.95 -4295.6
Q 10977.2 -4281.25 10962.35 -4262.25 10953.3 -4250.55 10946.45 -4237.75 10942.8 -4231 10940.05 -4224.45 10936.2 -4215.2 10933.3 -4205.8
M 11021.85 -4030.8
Q 11014.65 -4049.4 11009.95 -4068.85 11005.35 -4088.1 11003.15 -4107.8 11000.95 -4127.35 11000.8 -4147.25 11000.65 -4162.65 11005 -4177.5 11010.55 -4196.45 11022.5 -4212.25 11034.5 -4228.2 11051.2 -4239.65 11068 -4251.1 11087.25 -4256.45 11106.2 -4261.9 11125.6 -4264.35 11144.8 -4266.4 11164.65 -4265.85 11184.35 -4264.95 11204.2 -4262 11223.7 -4258.95 11242.9 -4253.8 11261.9 -4248.6 11280.7 -4242.2 11299.35 -4235.95 11317.9 -4228.6 11336.4 -4221.35 11354.75 -4213.75 11373.05 -4206.25 11391.25 -4198.5 11409.25 -4190.75 11426.55 -4181.2 11443.55 -4171.7 11459.9 -4160.5 11473.85 -4150.9 11483.55 -4137.2 11495.05 -4120.9 11502.3 -4102.15 11509.5 -4083.5 11512.2 -4063.75 11512.65 -4062.4 11513.1 -4061.05 11519.25 -4042.3 11514.45 -4023.4 11512.9 -4017.4 11508.55 -4013.3 11501.75 -4006.8 11493.6 -4002 11476.9 -3992 11457.85 -3987.05 11440.1 -3982.55 11422.05 -3978.95 11402.7 -3975.2 11383.95 -3972.3 11364 -3969.3 11344.5 -3966.85 11329.05 -3964.85 11314.55 -3963.8 11294.9 -3962.45 11275.25 -3961.05 11255.95 -3960.3 11236.7 -3959.85 11217.2 -3959.35 11197.75 -3959.3 11178.05 -3959.25 11158.35 -3959.75 11143.65 -3960.1 11128.75 -3959.75 11115.6 -3958.7 11102.4 -3959.6 11084.2 -3961.3 11067.8 -3969.4 11049.75 -3978.2 11039.45 -3995.15 11029.1 -4012.2 11021.85 -4030.8 Z"/>

<path fill="#045EB8" stroke="none" d="
M 4899.05 -651.9
Q 4878.35 -646.25 4861.65 -659.6 4860.4 -660.65 4859.7 -661.95 4850.8 -677.65 4833.2 -680.2 4819.65 -649.45 4814.8 -616.3 4808.25 -571.4 4819.65 -527.75 4821.7 -519.85 4825.5 -513.25 4832.1 -501.85 4845.45 -504.3
L 4877.6 -548.65 4883.7 -545.6 4895.95 -499.7
Q 4898 -498.8 4900.1 -498.05 4905.3 -496.25 4910.45 -498.15 4923.25 -502.75 4929.35 -515.25 4930.15 -516.8 4930.55 -518.5 4940.2 -557.2 4934.75 -596.9 4933.1 -608.95 4932.4 -621.2 4932 -627.65 4930.25 -634 4925.45 -651.05 4908.15 -655.7 4903.85 -653.25 4899.05 -651.9
M 3642 -1418.4
Q 3629.95 -1404.1 3620.3 -1388.2 3610.15 -1371.45 3601.25 -1353.95 3592.4 -1336.5 3585.2 -1318.35 3577.95 -1300.15 3571.15 -1281.75 3566.05 -1267.95 3560.9 -1254.1 3556.6 -1242.45 3555.05 -1230.25 3553.75 -1220.2 3562.6 -1214.6 3572.5 -1208.45 3582.85 -1215 3586 -1217 3588.65 -1219.55 3603 -1233.7 3617.35 -1247.85 3624.5 -1254.9 3631.55 -1262.05 3638.6 -1269.2 3645.65 -1276.35 3656.05 -1286.9 3665.5 -1298.1 3678.15 -1313.2 3689.2 -1329.4 3701.15 -1347 3712.25 -1365.35 3720.3 -1378.65 3728.35 -1391.9 3722.2 -1389.3 3715.6 -1388.35 3709.55 -1387.5 3703.35 -1388.1 3697.3 -1388.8 3691.65 -1391.25 3685.5 -1393.85 3680.45 -1397.75 3679.45 -1398.45 3678.65 -1399.4 3677.85 -1400.35 3677.25 -1401.4 3671.2 -1412.1 3670.05 -1424.35 3669.35 -1431.8 3670.25 -1439.3
L 3668.1 -1444.9
Q 3654.05 -1432.65 3642 -1418.4
M 3807.25 -1498
Q 3813.75 -1515.7 3810.8 -1534.7 3808.35 -1550.55 3798.75 -1563.2 3774.75 -1568.05 3751.2 -1561.4 3727.3 -1554.7 3712.65 -1535.25 3694.55 -1511.15 3685.45 -1482.5 3681.2 -1469.05 3678.65 -1455.2 3677.5 -1448.8 3676.35 -1442.35 3673.75 -1422.15 3681.85 -1403.6 3683.35 -1400.1 3686.55 -1398.3 3705 -1387.5 3722.35 -1399.85 3727.55 -1403.55 3732.4 -1407.7 3747.3 -1420.35 3760.45 -1434.8 3770.4 -1445.7 3779.4 -1457.35 3790.85 -1472.2 3801.8 -1487.7 3805.25 -1492.55 3807.25 -1498
M 3826.45 -1700.15
Q 3819.45 -1698.25 3812.55 -1696.05 3807.4 -1694.45 3802.45 -1692.45 3794.2 -1689 3786.4 -1684.45 3771.8 -1676.05 3761.55 -1663.2 3753.7 -1653.35 3747.85 -1642 3742.5 -1631.55 3738.7 -1620.4 3734.75 -1608.9 3731.35 -1597.1 3728 -1585.45 3725.55 -1573.45 3724.75 -1569.5 3723.95 -1565.55 3741.4 -1570.85 3758 -1577.8 3773.8 -1584.4 3787.15 -1594.75 3800.85 -1605.35 3813.15 -1617.75 3824.45 -1629.15 3835.35 -1641.05 3846.65 -1653.4 3859 -1664.5 3871.35 -1675.7 3884.75 -1685.8 3889.25 -1689.15 3893.75 -1692.5
L 3826.45 -1700.15
M 5029.5 -1485.55
L 5028 -1503.9
Q 5026.15 -1495.2 5019.95 -1489 5013.6 -1482.55 5004.8 -1481.25 5000.5 -1482.95 4997.4 -1486.7 4991 -1494.35 4988.2 -1503.9
L 4928.55 -1282.1
Q 4951.55 -1283.05 4972.75 -1274.45 4985.3 -1269.4 4994.3 -1259.75 4996.45 -1257.5 4998.1 -1254.8 5003.05 -1246.85 5005.05 -1237.75 5013.9 -1258.65 5033.35 -1270.2 5056.95 -1284.1 5084.6 -1280.55
L 5029.5 -1485.55
M 3931.4 -1132.45
Q 3924.5 -1149.8 3912.7 -1164.3 3901.1 -1178.6 3885.75 -1189.1 3869.2 -1200.4 3850.15 -1206.35 3848.15 -1206.95 3846.2 -1207.5
L 3806.8 -957.1 3834 -745.55 3864.6 -745.55
Q 3867.75 -735.65 3870.7 -725.6 3872.6 -719.2 3876.3 -713.7 3878.45 -710.55 3881.25 -708.2 3883.75 -706.2 3886.7 -705.35 3899.95 -701.75 3910.75 -710.1 3917.95 -715.6 3921.55 -724.05 3922.45 -726.1 3923.15 -728.25 3924.85 -733.5 3926.45 -738.8 3939.7 -782.65 3947.6 -827.4 3952.5 -855.2 3962.7 -881.6 3971.25 -903.8 3977.25 -926.9 3988.15 -968.65 3989.75 -1011.8 3989.9 -1016.35 3990 -1020.9 3988.3 -1021.1 3986.65 -1021.25 3981.6 -1022 3978.4 -1025.85 3965.95 -1041 3958.9 -1059.35 3954.65 -1070.5 3950.65 -1081.7 3941.4 -1107.25 3931.4 -1132.45
M 4143.7 -1199.35
L 4135.3 -1204.45
Q 4122.85 -1200.15 4111.5 -1193.75 4100.2 -1187.35 4091.05 -1178 4066.6 -1152.95 4053.15 -1120.05 4051.75 -1116.7 4050.35 -1113.35 4041.35 -1092 4036.95 -1069.25 4034.5 -1056.4 4027.9 -1044.9 4023.3 -1036.9 4016.95 -1030.45 4011.7 -1025.15 4005.3 -1020.9 4004.35 -1012.7 4003.8 -1004.5 4003.25 -996.35 4003.35 -988.2 4003.6 -967.3 4008.55 -947.05 4010.15 -940.55 4012.4 -934.35 4031.1 -883 4042.95 -829.6 4049.6 -799.8 4054.75 -769.6 4059.4 -742.25 4073.55 -718.45 4074.05 -717.55 4074.75 -716.65 4079.9 -710.05 4087.3 -706.25 4093.15 -703.25 4099.65 -704.15 4105.2 -705.05 4109.8 -708.6 4110.85 -709.35 4111.3 -710.4 4119.75 -728.6 4127.65 -747.1
L 4155.2 -747.25
Q 4156.65 -749.85 4158.05 -752.45 4166.95 -769.1 4171.65 -787.05 4176.65 -806 4179.45 -825.6 4182.2 -845.1 4182.75 -864.85
L 4143.7 -1199.35
M 4067.15 -1451.2
Q 4068 -1464.65 4068.85 -1478.05 4069.25 -1484.8 4069.65 -1491.55
L 3997.75 -1517.55 3988.6 -1503.8
Q 3984.2 -1513.3 3974.75 -1517.45 3969.15 -1519.75 3963 -1519.35 3953.9 -1518.45 3945.15 -1515.25 3933.75 -1511.1 3922.9 -1505.65 3918.1 -1503.25 3914.15 -1499.9 3912.05 -1498.15 3910.25 -1496.1 3908.45 -1494.1 3907 -1491.8 3905.6 -1489.45 3904.55 -1486.9 3903.8 -1485.1 3903.45 -1483.2 3903.1 -1481.25 3903.55 -1479.45 3904.45 -1475.9 3905.95 -1472.45 3906.7 -1470.8 3907.35 -1469.05 3913.75 -1451.8 3913.7 -1433.45 3913.7 -1425.05 3912.95 -1416.55 3912.2 -1407.85 3912.4 -1399.3 3913.7 -1341.25 3918.75 -1283.55 3922.5 -1240.8 3938.75 -1201.2 3948.7 -1177.05 3966.25 -1157.5 3973.95 -1149 3984.45 -1144.5 3986.55 -1143.7 3988.6 -1142.8 4006.85 -1151.5 4019.75 -1166.9 4031.05 -1180.35 4036.75 -1197.1 4042.9 -1215.15 4047.4 -1233.65 4051.95 -1252.2 4053.85 -1271.4 4055.2 -1285.1 4056.3 -1298.85 4057.9 -1318.65 4059.35 -1338.45 4060.8 -1358.3 4062.15 -1378.1 4063.55 -1398 4064.9 -1417.9 4066.05 -1434.55 4067.15 -1451.2
M 3940.6 -1448.75
L 3939.65 -1451.8 3921.25 -1451.8 3951.85 -1460.95
Q 3966.25 -1454.65 3978.35 -1464 3984.25 -1468.5 3986.9 -1475.4 3989.3 -1481.75 3988.6 -1488.5
L 3994.7 -1464.05 4055.9 -1450.25
Q 4025.3 -1448.75 3994.7 -1447.2
L 3987.05 -1433.45 3979.4 -1447.2 3940.6 -1448.75
M 3979.4 -1389.1
L 3985.5 -1418.15 3994.7 -1389.1 4049.75 -1381.45 4034.45 -1376.85 4037.5 -1373.8 3994.7 -1370.7 3988.5 -1353.7 3982.45 -1370.7 3924.35 -1381.45 3979.4 -1389.1
M 4037.5 -1308
L 4034.45 -1298.85 3994.7 -1294.25 3988.6 -1274.35 3979.4 -1294.25 3939.65 -1301.9 3939.65 -1308 3979.4 -1312.6 3988.6 -1338.6 3994.7 -1312.6 4037.5 -1308
M 4265.25 -1396.45
L 4263.75 -1393.4 4407.5 -1211.4
Q 4418.55 -1208.8 4428.75 -1213.5 4431.5 -1214.8 4433.35 -1217.25 4443.55 -1230.8 4437.3 -1246.6 4429.95 -1265 4422.55 -1283.3 4415.1 -1301.75 4407.9 -1320.2 4400.65 -1338.55 4391.65 -1356.1 4382.6 -1373.7 4372.05 -1390.35 4361.4 -1407.05 4348.85 -1422.5 4336.25 -1437.9 4321.85 -1451.55 4323.15 -1444.9 4324.2 -1438.2 4327.2 -1418.75 4316.15 -1402.65 4314.45 -1400.2 4312.55 -1397.9 4311.7 -1396.85 4310.7 -1395.9 4307.75 -1392.95 4304.05 -1391.45 4299.25 -1389.4 4294 -1388.6 4287.95 -1387.65 4281.85 -1389.05 4272.75 -1390.8 4265.25 -1396.45
M 4285.85 -1529.05
Q 4277.05 -1541.7 4265.5 -1551.65 4257.6 -1558.45 4247.65 -1561.55 4229.6 -1567.35 4210.9 -1564.05 4197.4 -1561.9 4187.15 -1553.25 4185.6 -1551.9 4184.6 -1550 4180.55 -1542.55 4181.15 -1534.15 4179.75 -1513.95 4187.15 -1495.35 4194.7 -1476.55 4209.4 -1462.7 4222.15 -1450.7 4233.4 -1437.3 4243.55 -1425.3 4254.1 -1413.55 4259.85 -1407.2 4266 -1401.2 4268.65 -1398.55 4272.35 -1397.35 4292.4 -1391.15 4309.3 -1403.25 4317.25 -1408.95 4318.25 -1418.95 4318.65 -1422.65 4318.85 -1426.3 4319.95 -1443.95 4315.2 -1461 4310 -1479.65 4302.75 -1497.7 4296.1 -1514.3 4285.85 -1529.05
M 4125.4 -1699.3
Q 4105.55 -1698.15 4086.45 -1692.5
L 4107.9 -1678.75 4208.85 -1580.85 4224.15 -1577.8 4254.7 -1568.6 4257.8 -1573.2
Q 4256.3 -1578.95 4254.75 -1584.65 4249 -1605.5 4240.5 -1625.5 4235.2 -1637.9 4228.55 -1649.45 4220.4 -1663.6 4209.2 -1675.3 4205.65 -1679.05 4201 -1681.85 4184.4 -1691.95 4165.25 -1696.3 4145.5 -1700.9 4125.4 -1699.3
M 3997.8 -1673.7
Q 3994.1 -1649.55 3993.75 -1625.25 3993.4 -1600.9 3996.7 -1577.05 3997.75 -1569.6 3999.2 -1562.2 3999.55 -1560.45 4000.4 -1558.8 4006.35 -1546.8 4015.7 -1537.2 4026.2 -1526.45 4039.85 -1519.9 4052.35 -1513.85 4066.3 -1512.1 4088.75 -1509.1 4110.1 -1516.4 4121.7 -1520.2 4132.4 -1526.15 4143.1 -1532 4152.45 -1539.9 4160 -1546.25 4166.15 -1553.7 4170.9 -1559.4 4176.7 -1564.1 4185.45 -1571.15 4196.6 -1572.45 4198.9 -1572.6 4201.2 -1572.75 4185.3 -1584.1 4171.6 -1597.95 4157.8 -1611.85 4146.6 -1627.7 4135.7 -1643.05 4122.4 -1656.6 4109.95 -1669.35 4094.2 -1677.7 4076.7 -1687 4056.9 -1689.15 4037.15 -1691.65 4018.2 -1686.25 4006.3 -1682.85 3997.8 -1673.7
M 3943.75 -1690
Q 3930.2 -1691.15 3916.75 -1688.3 3903.15 -1685.2 3890.55 -1679.25 3866.7 -1668.2 3850.05 -1647.55 3833.4 -1626.8 3815.45 -1607.3 3800.95 -1591.5 3784.55 -1577.45 3781.8 -1575.05 3779.05 -1572.75 3798.4 -1569.55 3812.85 -1556.4 3821.4 -1548.7 3828.6 -1539.65 3830.6 -1537.05 3833.15 -1534.95 3849.5 -1521.2 3870.1 -1515.25 3887.6 -1510.1 3905.75 -1511.15 3909.7 -1511.35 3913.65 -1511.55 3933.5 -1514.95 3950.35 -1526.15 3967.15 -1537.25 3977.85 -1554.45 3984.15 -1564.6 3986.25 -1576.25 3989.35 -1593.7 3989.3 -1611.45 3989.3 -1629 3986.85 -1646.45 3985.7 -1654.5 3984.85 -1662.6 3984.45 -1666.65 3984 -1670.65 3967.25 -1687.4 3943.75 -1690
M 5093.75 -1684.45
L 4919.4 -1684.45 5006.55 -1486.45 5093.75 -1684.45
M 4812.3 -1615.55
Q 4811.95 -1608.8 4811.7 -1602.05 4811.15 -1588.5 4811.65 -1575.05 4812 -1565.65 4813.05 -1556.2 4814.85 -1540.25 4817.75 -1524.45 4820.15 -1511.2 4823.65 -1498.45 4829.25 -1478.05 4838.85 -1459.25 4845.9 -1445.55 4851.3 -1431.15 4855.5 -1420.05 4857.6 -1408.55 4863.85 -1374.15 4863.4 -1339.15 4862.85 -1295.7 4856.35 -1252.6 4855 -1243.65 4853.6 -1234.65 4858.2 -1239.35 4863 -1243.9 4877.15 -1257.4 4894.35 -1267.15 4895.95 -1268.05 4897.7 -1268.45 4913.2 -1272.5 4923.8 -1284.15 4925.6 -1286.2 4925.8 -1288.7 4926.95 -1303.6 4928.2 -1318.5 4929.35 -1332.6 4930.6 -1346.7 4930.85 -1350 4931.15 -1353.25 4931.75 -1359.75 4933.2 -1366.2 4934.95 -1374.2 4938.2 -1381.75 4942.75 -1392.3 4948.45 -1402.05 4954.45 -1412.4 4959.55 -1423.4 4965.8 -1436.85 4970.25 -1451.05 4976.25 -1470.3 4978.55 -1490.45 4979.05 -1494.75 4978.5 -1498.95 4973.6 -1535.4 4961.95 -1570.2 4945.2 -1620.05 4919.35 -1666.1 4913.3 -1676.85 4907.15 -1687.45
L 4812.3 -1615.55
M 5233.1 -652.85
Q 5231.3 -659 5230.1 -665.25 5227.75 -677.55 5215.6 -680.2
L 5178.9 -648.05
Q 5163.55 -651.8 5148.1 -654.75 5145.95 -655.25 5143.55 -654.55 5139.95 -653.4 5137.25 -650.8 5133.45 -647 5131.1 -641.8 5128.6 -636.25 5127.45 -630.45 5120.2 -593.4 5119.3 -555.4 5118.95 -541.6 5123.3 -528.6 5126.5 -519.1 5131.55 -510.5 5136.95 -501.3 5146.85 -498.1 5150.2 -497.05 5153.8 -497.75 5156.1 -498.2 5157.65 -500.15 5172.25 -518.65 5171.25 -542.5
L 5178.9 -548.65
Q 5187.9 -538.45 5194.25 -526.55 5197.95 -519.7 5202.1 -513.35 5209.35 -502.35 5222.05 -504.85 5222.9 -504.85 5223.3 -505.45 5233.65 -520.9 5238.35 -539.15 5242.85 -556.55 5243.35 -574.5 5243.85 -594.3 5241.25 -614.05 5238.7 -633.75 5233.1 -652.85
M 5206.1 -1599.2
Q 5206.05 -1601.8 5204.9 -1603.85 5196.65 -1618.4 5182.3 -1628.15 5165.85 -1639.2 5150.65 -1651.85 5135.45 -1664.45 5121.3 -1678.25
L 5107.55 -1687.45
Q 5089.6 -1655.7 5074.25 -1622.65 5067.5 -1608.1 5060.8 -1593.5 5045.65 -1560.5 5039.75 -1524.85 5032.8 -1483.15 5048.2 -1443.8 5051.05 -1436.55 5054.65 -1429.6 5067.5 -1404.8 5075.75 -1378.1 5080.3 -1363.35 5082.1 -1348.05 5085.75 -1317.4 5089.2 -1286.7
L 5162.6 -1231.6
Q 5161.05 -1244.15 5159.55 -1256.7 5157.45 -1274.2 5155.4 -1291.7 5153.05 -1311.4 5151.95 -1331.35 5150.85 -1351.15 5151.65 -1370.95 5152.45 -1390.5 5157.55 -1409.6 5162.1 -1426.6 5169.25 -1442.7 5177.1 -1460.35 5183.35 -1478.9 5189.6 -1497.35 5193.45 -1516.4 5197.4 -1535.65 5199.25 -1555.05 5199.7 -1559.5 5201 -1563.7 5206.3 -1581.1 5206.1 -1599.2 Z"/>
</g>

<g id="Layer6_0_FILL">
<path fill="#E5E5E6" stroke="none" d="
M 6637.7 -1698.8
Q 6599.5 -1699.25 6561.6 -1699.45 6522.95 -1699.65 6484.65 -1699.85 6445.75 -1700.15 6407 -1700.15 6367.6 -1700.05 6328.45 -1699.75 6296.5 -1690.95 6267.7 -1673.95 6234.85 -1654.65 6211.4 -1623.9 6189.45 -1595.2 6177.45 -1560.75 6174.9 -1553.45 6173.7 -1545.85 6167.45 -1507.65 6171.9 -1469.05 6176.35 -1430.85 6195.15 -1396.75 6213.55 -1363.6 6243.45 -1340.55 6272.45 -1318.2 6306.95 -1305.1 6317.65 -1300.95 6328.75 -1299.9 6366.8 -1295.9 6405.4 -1295.25 6444 -1294.75 6482.1 -1294.55 6520.75 -1294.35 6558.95 -1294.25 6597.15 -1294.25 6635.8 -1294.95 6661.35 -1295.45 6686.95 -1293.45 6726.75 -1292.65 6764.05 -1303.75 6799.65 -1313.95 6829.35 -1335.3 6860.7 -1357.95 6880.1 -1392 6899 -1425.05 6905.8 -1462.7 6910.55 -1488.55 6907.8 -1514.85 6903.85 -1553.45 6887.5 -1588.35 6870.2 -1625.25 6838.25 -1650.5 6807.25 -1674.85 6769.95 -1687.8 6759.5 -1691.15 6749 -1692.75 6718.7 -1696.3 6688.15 -1698.1 6662.85 -1698.5 6637.7 -1698.8
M 6488.3 -1671.75
Q 6527.7 -1671.55 6566.95 -1671.35 6606.05 -1671.15 6644.9 -1670.7 6683.7 -1670.3 6722 -1667.8 6740.3 -1667.5 6758 -1663.05 6768.6 -1660.6 6778.6 -1655.85 6814.4 -1639.2 6841.2 -1610.65 6868.3 -1581.85 6876.6 -1543.15 6884.55 -1505.75 6877.8 -1467.85 6873.35 -1443.05 6863.05 -1420.1 6855.15 -1402.85 6843.5 -1387.95 6821.1 -1359.45 6788.95 -1342.2 6753.35 -1322.85 6712.7 -1323.5 6687.05 -1323.9 6661.45 -1323.5 6622.75 -1322.95 6584.65 -1322.75 6546.4 -1322.45 6507.8 -1322.45 6469.3 -1322.45 6430.85 -1322.95 6392.45 -1323.5 6354.25 -1326.3 6337.05 -1326.2 6320.4 -1329.55 6312 -1331.45 6304 -1335.1 6267.2 -1352 6240.3 -1381.8 6214.55 -1410.3 6204.35 -1447.2 6194 -1484.3 6197.05 -1522.7 6197.55 -1529.6 6199.4 -1536.25 6210.2 -1574.5 6234.25 -1605.7 6257.7 -1636.05 6291.35 -1654.85 6309.25 -1664.85 6328.45 -1671.85 6368.6 -1671.85 6408.85 -1671.95 6448.55 -1671.95 6488.3 -1671.75 Z"/>

<path fill="#3979B8" stroke="none" d="
M 6566.95 -1671.35
Q 6527.7 -1671.55 6488.3 -1671.75 6448.55 -1671.95 6408.85 -1671.95 6368.6 -1671.85 6328.45 -1671.85 6309.25 -1664.85 6291.35 -1654.85 6257.7 -1636.05 6234.25 -1605.7 6210.2 -1574.5 6199.4 -1536.25 6197.55 -1529.6 6197.05 -1522.7 6194 -1484.3 6204.35 -1447.2 6214.55 -1410.3 6240.3 -1381.8 6267.2 -1352 6304 -1335.1 6312 -1331.45 6320.4 -1329.55 6337.05 -1326.2 6354.25 -1326.3 6392.45 -1323.5 6430.85 -1322.95 6469.3 -1322.45 6507.8 -1322.45 6546.4 -1322.45 6584.65 -1322.75 6622.75 -1322.95 6661.45 -1323.5 6687.05 -1323.9 6712.7 -1323.5 6753.35 -1322.85 6788.95 -1342.2 6821.1 -1359.45 6843.5 -1387.95 6855.15 -1402.85 6863.05 -1420.1 6873.35 -1443.05 6877.8 -1467.85 6884.55 -1505.75 6876.6 -1543.15 6868.3 -1581.85 6841.2 -1610.65 6814.4 -1639.2 6778.6 -1655.85 6768.6 -1660.6 6758 -1663.05 6740.3 -1667.5 6722 -1667.8 6683.7 -1670.3 6644.9 -1670.7 6606.05 -1671.15 6566.95 -1671.35
M 6508.2 -1544.15
Q 6511.05 -1535.05 6511.45 -1525.35 6512.25 -1504.65 6509.2 -1483.9 6503.35 -1444.3 6479.1 -1412.55 6456.25 -1382.8 6421.05 -1370.3 6383.95 -1356.95 6344.45 -1357.35 6305.1 -1359.65 6272.55 -1383 6242.35 -1404.95 6225.95 -1438.8 6208.9 -1474 6212.2 -1513.3 6214.05 -1535.65 6221 -1557.1 6233.35 -1594.5 6263.55 -1619.85 6294.5 -1645.75 6333.1 -1657.9 6372.05 -1660.1 6409.05 -1648.5 6445.45 -1636.85 6471.4 -1608.35 6496.9 -1580.25 6508.2 -1544.15 Z"/>

<path fill="#F6F7F8" stroke="none" d="
M 6511.45 -1525.35
Q 6511.05 -1535.05 6508.2 -1544.15 6496.9 -1580.25 6471.4 -1608.35 6445.45 -1636.85 6409.05 -1648.5 6372.05 -1660.1 6333.1 -1657.9 6294.5 -1645.75 6263.55 -1619.85 6233.35 -1594.5 6221 -1557.1 6214.05 -1535.65 6212.2 -1513.3 6208.9 -1474 6225.95 -1438.8 6242.35 -1404.95 6272.55 -1383 6305.1 -1359.65 6344.45 -1357.35 6383.95 -1356.95 6421.05 -1370.3 6456.25 -1382.8 6479.1 -1412.55 6503.35 -1444.3 6509.2 -1483.9 6512.25 -1504.65 6511.45 -1525.35
M 6407.4 -1556
Q 6407.3 -1556.6 6407.2 -1557.1 6407 -1557.6 6406.7 -1557.8 6405.5 -1558.7 6404.2 -1558.9 6397 -1560.95 6389 -1560.05
L 6389 -1574 6435.5 -1574 6435.5 -1527.5 6421.55 -1527.5 6419.85 -1545.05
Q 6419.35 -1545.35 6418.85 -1545.65 6418.35 -1545.65 6417.95 -1545.45 6416.5 -1544.95 6415.5 -1543.95 6409.55 -1538.8 6405.3 -1532.15 6406.2 -1528.8 6407.1 -1525.45 6414.4 -1498.55 6407.2 -1472.8 6406.2 -1469.15 6404.3 -1465.7 6389.55 -1439.95 6360.7 -1436.3 6338.9 -1433.95 6320.5 -1445.8 6314.2 -1449.65 6309.45 -1455.8 6288.15 -1483.6 6301.8 -1515.35 6311.9 -1539 6336.25 -1545.85 6358.5 -1551.95 6381.15 -1546.8 6387.4 -1545.25 6393.65 -1543.75
L 6407.4 -1556 Z"/>

<path fill="#293E7E" stroke="none" d="
M 6407.2 -1557.1
Q 6407.3 -1556.6 6407.4 -1556
L 6393.65 -1543.75
Q 6387.4 -1545.25 6381.15 -1546.8 6358.5 -1551.95 6336.25 -1545.85 6311.9 -1539 6301.8 -1515.35 6288.15 -1483.6 6309.45 -1455.8 6314.2 -1449.65 6320.5 -1445.8 6338.9 -1433.95 6360.7 -1436.3 6389.55 -1439.95 6404.3 -1465.7 6406.2 -1469.15 6407.2 -1472.8 6414.4 -1498.55 6407.1 -1525.45 6406.2 -1528.8 6405.3 -1532.15 6409.55 -1538.8 6415.5 -1543.95 6416.5 -1544.95 6417.95 -1545.45 6418.35 -1545.65 6418.85 -1545.65 6419.35 -1545.35 6419.85 -1545.05
L 6421.55 -1527.5 6435.5 -1527.5 6435.5 -1574 6389 -1574 6389 -1560.05
Q 6397 -1560.95 6404.2 -1558.9 6405.5 -1558.7 6406.7 -1557.8 6407 -1557.6 6407.2 -1557.1
M 6330.3 -1531.1
Q 6334.05 -1533.95 6337.75 -1536.8 6368.4 -1539.8 6386.9 -1516.45 6406.6 -1491.7 6388.6 -1465.9 6378.2 -1450.95 6359.9 -1448.95 6325.85 -1446.4 6312.9 -1477.45 6311.1 -1481.8 6310.7 -1486.45 6308.05 -1514.15 6330.3 -1531.1 Z"/>

<path fill="#F0F1F4" stroke="none" d="
M 6337.75 -1536.8
Q 6334.05 -1533.95 6330.3 -1531.1 6308.05 -1514.15 6310.7 -1486.45 6311.1 -1481.8 6312.9 -1477.45 6325.85 -1446.4 6359.9 -1448.95 6378.2 -1450.95 6388.6 -1465.9 6406.6 -1491.7 6386.9 -1516.45 6368.4 -1539.8 6337.75 -1536.8 Z"/>
</g>

<g id="Layer5_0_FILL">
<path fill="#E5E5E6" stroke="none" d="
M 7845.65 -1108.55
Q 7836.55 -1113.2 7827.45 -1117.65 7790.65 -1136.55 7749.7 -1136.25 7710.9 -1136.05 7672.25 -1136.65 7633.05 -1137.25 7594.1 -1137.45 7554.8 -1137.65 7515.25 -1137.65 7475.25 -1137.75 7435.6 -1137.75 7395.7 -1137.85 7355.15 -1137.65 7322.2 -1128.8 7292.75 -1111.3 7259 -1091.25 7235.05 -1060.05 7212.4 -1030.4 7200.25 -995.15 7197.75 -987.65 7196.55 -979.95 7190.25 -940.75 7194.7 -901.2 7199.05 -861.7 7218.25 -826.9 7237.05 -792.95 7268 -769.2 7297.8 -746.35 7333 -733 7344 -728.75 7355.45 -727.15 7380.8 -724.1 7406.5 -723.6 7445 -722.9 7483.4 -722.4 7521.95 -721.9 7560.35 -722 7598.75 -722.1 7637.4 -722.3 7676.1 -722.6 7714.4 -723.5 7740 -724.1 7765.45 -726.95 7801.95 -729.75 7835.4 -744.75 7869.3 -759.7 7894.75 -787.1 7920.55 -814.8 7935.1 -849.65 7950.45 -886.75 7949.75 -926.5 7949.05 -962.9 7938.65 -997.45 7927.7 -1033.25 7903.85 -1061.95 7879.5 -1091.05 7845.65 -1108.55
M 7816 -1092.6
Q 7850.3 -1077 7876.15 -1049.6 7903.85 -1020.2 7914.05 -981 7924.2 -941.85 7919 -901.85 7917.7 -891.7 7915 -882.2 7904.75 -845.7 7881 -816.4 7857.35 -787.1 7823.8 -769.2 7811.85 -762.85 7798.7 -760.7 7775.25 -756.95 7751.5 -755.65 7727.65 -754.65 7703.8 -753.65 7679.95 -752.8 7656.1 -752.1 7632.25 -751.5 7608.35 -751.1 7584.5 -750.7 7560.65 -750.5 7536.7 -750.2 7512.85 -750.2 7489 -750.2 7465.15 -750.4 7441.15 -750.7 7417.2 -751 7376.35 -750.8 7337.65 -763.05 7299.85 -775.15 7271.85 -803.45 7243.25 -832.7 7229.6 -871 7216.55 -907.3 7218.55 -945.6 7219.7 -967.75 7226.45 -988.45 7238.7 -1025.35 7266.5 -1052.95 7289.05 -1075.3 7316.95 -1089.95 7346.25 -1109.75 7381.3 -1109.65 7407.2 -1107.45 7433.2 -1107.85 7472.2 -1108.55 7511 -1108.75 7550.05 -1109.05 7588.85 -1108.95 7627.7 -1108.85 7666.7 -1108.25 7705.7 -1107.75 7744.55 -1108.05 7781.75 -1108.35 7816 -1092.6
M 7854.2 -1665.35
Q 7836.65 -1675.55 7818.05 -1683.85 7785.3 -1698.4 7749.6 -1697.9 7710.9 -1697.4 7672.15 -1697.9 7633.05 -1698.5 7594 -1698.7 7554.6 -1699.05 7515.15 -1699.15 7475.25 -1699.35 7435.5 -1699.25 7395.15 -1699.15 7355.05 -1699.05 7322.1 -1690.15 7292.65 -1672.65 7259 -1652.65 7235.15 -1621.3 7212.4 -1591.65 7200.15 -1556.5 7197.65 -1549 7196.45 -1541.35 7190.15 -1502.1 7194.6 -1462.5 7199.15 -1422.85 7218.25 -1388.25 7237.05 -1354.3 7267.9 -1330.55 7297.6 -1307.7 7332.9 -1294.25 7343.9 -1290.1 7355.35 -1288.8 7393.85 -1284.65 7432.05 -1284.15 7470.5 -1283.65 7509 -1283.65 7547.2 -1283.65 7585.95 -1283.65 7624.65 -1283.65 7662.95 -1284.15 7701.5 -1284.65 7740 -1285.35 7757.6 -1286.5 7774.95 -1289.1 7810.85 -1293.75 7843 -1309.75 7876.15 -1326.3 7900 -1354.4 7924.8 -1383.4 7938.05 -1419.5 7948.25 -1447.4 7949.15 -1476.55 7950.25 -1513.85 7941.25 -1549.6 7932.05 -1586 7909.3 -1616.25 7886.85 -1646.15 7854.2 -1665.35
M 7779.9 -1664.25
Q 7789.3 -1662.65 7798.5 -1659.7 7835.6 -1647.35 7864.95 -1622 7895.25 -1595.7 7908.7 -1557.8 7922.05 -1519.9 7920.25 -1479.65 7918.6 -1442.05 7901.15 -1408 7882.75 -1372.4 7850.5 -1347.85 7826.65 -1329.85 7798.1 -1323.6 7775.15 -1318.3 7751.4 -1317 7727.55 -1316 7703.7 -1315 7679.85 -1314.2 7656 -1313.45 7632.15 -1312.85 7608.25 -1312.45 7584.4 -1311.95 7560.55 -1311.75 7536.6 -1311.45 7512.75 -1311.45 7488.9 -1311.45 7465.05 -1311.65 7441.05 -1311.95 7417.1 -1312.35 7376.45 -1312.05 7337.55 -1324.4 7299.65 -1336.5 7271.75 -1364.8 7243.25 -1393.85 7229.5 -1432.35 7216.45 -1468.75 7218.55 -1506.95 7219.8 -1529.1 7226.55 -1549.8 7238.7 -1586.7 7266.4 -1614.3 7289.05 -1636.75 7316.85 -1651.3 7346.25 -1671 7381.1 -1668.4 7407.1 -1668.8 7433.1 -1669.2 7472.2 -1669.9 7510.9 -1670 7549.85 -1670.2 7588.85 -1670.2 7627.7 -1670.2 7666.7 -1669.7 7705.7 -1669.2 7744.55 -1668.4 7762.35 -1667 7779.9 -1664.25 Z"/>

<path fill="#3979B8" stroke="none" d="
M 7876.15 -1049.6
Q 7850.3 -1077 7816 -1092.6 7781.75 -1108.35 7744.55 -1108.05 7705.7 -1107.75 7666.7 -1108.25 7627.7 -1108.85 7588.85 -1108.95 7550.05 -1109.05 7511 -1108.75 7472.2 -1108.55 7433.2 -1107.85 7407.2 -1107.45 7381.3 -1109.65 7346.25 -1109.75 7316.95 -1089.95 7289.05 -1075.3 7266.5 -1052.95 7238.7 -1025.35 7226.45 -988.45 7219.7 -967.75 7218.55 -945.6 7216.55 -907.3 7229.6 -871 7243.25 -832.7 7271.85 -803.45 7299.85 -775.15 7337.65 -763.05 7376.35 -750.8 7417.2 -751 7441.15 -750.7 7465.15 -750.4 7489 -750.2 7512.85 -750.2 7536.7 -750.2 7560.65 -750.5 7584.5 -750.7 7608.35 -751.1 7632.25 -751.5 7656.1 -752.1 7679.95 -752.8 7703.8 -753.65 7727.65 -754.65 7751.5 -755.65 7775.25 -756.95 7798.7 -760.7 7811.85 -762.85 7823.8 -769.2 7857.35 -787.1 7881 -816.4 7904.75 -845.7 7915 -882.2 7917.7 -891.7 7919 -901.85 7924.2 -941.85 7914.05 -981 7903.85 -1020.2 7876.15 -1049.6
M 7779.1 -1079.25
Q 7814.4 -1068.1 7845.55 -1047.4 7872.3 -1020.1 7886.75 -985.25 7902.55 -947.1 7894.95 -906.7 7887.9 -869.4 7865.95 -838.15 7861.4 -831.55 7855.75 -825.9 7827.35 -797.7 7789.75 -784.75 7753.95 -772.35 7716.85 -778.4 7686.9 -783.35 7660.25 -798.2 7652.55 -802.55 7645.75 -808.3 7615.35 -834.7 7599.05 -871.4 7582.7 -908.3 7589.45 -948.55 7595.65 -985.45 7614.95 -1018.2 7620.3 -1027.3 7627.4 -1034.95 7653.45 -1062.95 7689.15 -1076.2 7695.7 -1078.65 7702.4 -1080.75 7710.55 -1082.15 7718.85 -1083.6 7749.7 -1088.55 7779.1 -1079.25 Z"/>

<path fill="#F8F8F9" stroke="none" d="
M 7845.55 -1047.4
Q 7814.4 -1068.1 7779.1 -1079.25 7749.7 -1088.55 7718.85 -1083.6 7710.55 -1082.15 7702.4 -1080.75 7695.7 -1078.65 7689.15 -1076.2 7653.45 -1062.95 7627.4 -1034.95 7620.3 -1027.3 7614.95 -1018.2 7595.65 -985.45 7589.45 -948.55 7582.7 -908.3 7599.05 -871.4 7615.35 -834.7 7645.75 -808.3 7652.55 -802.55 7660.25 -798.2 7686.9 -783.35 7716.85 -778.4 7753.95 -772.35 7789.75 -784.75 7827.35 -797.7 7855.75 -825.9 7861.4 -831.55 7865.95 -838.15 7887.9 -869.4 7894.95 -906.7 7902.55 -947.1 7886.75 -985.25 7872.3 -1020.1 7845.55 -1047.4
M 7270.85 -1600.35
Q 7266.3 -1594.8 7262.75 -1588.75 7243.55 -1556.3 7237.25 -1519.1 7230.6 -1478.95 7247.05 -1441.95 7263.35 -1405.15 7293.7 -1378.85 7300.45 -1373.1 7308.15 -1368.75 7334.8 -1354 7364.75 -1348.95 7401.85 -1342.9 7437.65 -1355.3 7475.15 -1368.05 7503.65 -1396.35 7509.3 -1402 7513.85 -1408.6 7535.6 -1439.85 7542.75 -1477.15 7550.45 -1517.45 7534.8 -1555.8 7520.4 -1590.95 7493.55 -1617.85 7462.4 -1638.7 7427 -1649.9 7397.7 -1659.1 7366.75 -1654.15 7358.5 -1652.75 7350.3 -1651.3 7340.3 -1648.4 7330.7 -1644.35 7295.5 -1629.5 7270.85 -1600.35 Z"/>

<path fill="#666666" stroke="none" d="
M 7798.5 -1659.7
Q 7789.3 -1662.65 7779.9 -1664.25 7762.35 -1667 7744.55 -1668.4 7705.7 -1669.2 7666.7 -1669.7 7627.7 -1670.2 7588.85 -1670.2 7549.85 -1670.2 7510.9 -1670 7472.2 -1669.9 7433.1 -1669.2 7407.1 -1668.8 7381.1 -1668.4 7346.25 -1671 7316.85 -1651.3 7289.05 -1636.75 7266.4 -1614.3 7238.7 -1586.7 7226.55 -1549.8 7219.8 -1529.1 7218.55 -1506.95 7216.45 -1468.75 7229.5 -1432.35 7243.25 -1393.85 7271.75 -1364.8 7299.65 -1336.5 7337.55 -1324.4 7376.45 -1312.05 7417.1 -1312.35 7441.05 -1311.95 7465.05 -1311.65 7488.9 -1311.45 7512.75 -1311.45 7536.6 -1311.45 7560.55 -1311.75 7584.4 -1311.95 7608.25 -1312.45 7632.15 -1312.85 7656 -1313.45 7679.85 -1314.2 7703.7 -1315 7727.55 -1316 7751.4 -1317 7775.15 -1318.3 7798.1 -1323.6 7826.65 -1329.85 7850.5 -1347.85 7882.75 -1372.4 7901.15 -1408 7918.6 -1442.05 7920.25 -1479.65 7922.05 -1519.9 7908.7 -1557.8 7895.25 -1595.7 7864.95 -1622 7835.6 -1647.35 7798.5 -1659.7
M 7262.75 -1588.75
Q 7266.3 -1594.8 7270.85 -1600.35 7295.5 -1629.5 7330.7 -1644.35 7340.3 -1648.4 7350.3 -1651.3 7358.5 -1652.75 7366.75 -1654.15 7397.7 -1659.1 7427 -1649.9 7462.4 -1638.7 7493.55 -1617.85 7520.4 -1590.95 7534.8 -1555.8 7550.45 -1517.45 7542.75 -1477.15 7535.6 -1439.85 7513.85 -1408.6 7509.3 -1402 7503.65 -1396.35 7475.15 -1368.05 7437.65 -1355.3 7401.85 -1342.9 7364.75 -1348.95 7334.8 -1354 7308.15 -1368.75 7300.45 -1373.1 7293.7 -1378.85 7263.35 -1405.15 7247.05 -1441.95 7230.6 -1478.95 7237.25 -1519.1 7243.55 -1556.3 7262.75 -1588.75 Z"/>
</g>

<g id="Layer4_0_FILL">
<path fill="#E5E5E6" stroke="none" d="
M 6796.1 -1131
Q 6763.45 -1145.45 6727.65 -1145.15 6689.05 -1144.75 6650.25 -1145.15 6611.1 -1145.65 6572.1 -1145.85 6532.65 -1146.05 6493.25 -1146.25 6453.3 -1146.45 6413.6 -1146.45 6373.45 -1146.55 6333.1 -1146.15 6300.05 -1137.15 6270.75 -1119.8 6237 -1099.65 6213.1 -1068.45 6190.5 -1038.9 6178.25 -1003.65 6175.7 -996.15 6174.5 -988.45 6168.05 -949.25 6172.7 -909.7 6177.35 -870.1 6196.55 -835.4 6215.15 -801.55 6246.1 -777.7 6275.8 -754.95 6311.1 -741.5 6322 -737.25 6333.4 -735.65 6359.4 -732.6 6385.7 -732.2 6424.8 -731.6 6464.45 -731.1 6503.85 -730.6 6543.1 -730.5 6582.6 -730.3 6621.95 -730.8 6661.35 -731.4 6700.8 -732.1 6726.95 -732.6 6752.95 -735.85 6787.8 -739.6 6819.45 -755.45 6855.35 -773.55 6880.7 -804.6 6904.3 -833.3 6916.8 -868.05 6926.5 -895.25 6927.35 -923.65 6928.45 -960.55 6919.35 -996.55 6910.05 -1032.95 6887.4 -1063.15 6864.75 -1093.1 6832.3 -1112.3 6814.6 -1122.8 6796.1 -1131
M 6732.4 -1116.45
Q 6769.1 -1116.75 6801.35 -1098.15 6819.15 -1087.95 6835.85 -1075.5 6865.55 -1053.45 6882.45 -1020.4 6899.3 -987.45 6899.1 -950.25 6898.9 -912.35 6887.4 -876.15 6875.45 -838.45 6847.15 -810.55 6818.45 -782.25 6780.45 -769.2 6767 -764.45 6753.15 -763.25 6726.95 -761.3 6700.8 -760.8 6661.35 -760 6621.95 -759.6 6582.6 -759.3 6543.1 -759.3 6503.85 -759.3 6464.45 -759.7 6424.8 -760.2 6385.7 -760.9 6359.4 -761.3 6333.4 -764.65 6324.4 -765.25 6315.75 -768.6 6280.25 -783.05 6252.25 -808.7 6223.35 -835.3 6209.8 -872.1 6196.65 -908 6195.85 -946.1 6195.45 -966.75 6202.1 -986.15 6214.25 -1021.5 6237.7 -1051.05 6262.75 -1082.6 6298.45 -1101 6317.45 -1110.9 6337.85 -1117.55 6378.1 -1117.65 6418.35 -1117.75 6458.15 -1117.75 6498 -1117.55 6537.5 -1117.45 6576.85 -1117.25 6616.15 -1116.95 6655 -1116.55 6693.6 -1116.15 6732.4 -1116.45 Z"/>

<path fill="#F96A88" stroke="none" d="
M 6801.35 -1098.15
Q 6769.1 -1116.75 6732.4 -1116.45 6693.6 -1116.15 6655 -1116.55 6616.15 -1116.95 6576.85 -1117.25 6537.5 -1117.45 6498 -1117.55 6458.15 -1117.75 6418.35 -1117.75 6378.1 -1117.65 6337.85 -1117.55 6317.45 -1110.9 6298.45 -1101 6262.75 -1082.6 6237.7 -1051.05 6214.25 -1021.5 6202.1 -986.15 6195.45 -966.75 6195.85 -946.1 6196.65 -908 6209.8 -872.1 6223.35 -835.3 6252.25 -808.7 6280.25 -783.05 6315.75 -768.6 6324.4 -765.25 6333.4 -764.65 6359.4 -761.3 6385.7 -760.9 6424.8 -760.2 6464.45 -759.7 6503.85 -759.3 6543.1 -759.3 6582.6 -759.3 6621.95 -759.6 6661.35 -760 6700.8 -760.8 6726.95 -761.3 6753.15 -763.25 6767 -764.45 6780.45 -769.2 6818.45 -782.25 6847.15 -810.55 6875.45 -838.45 6887.4 -876.15 6898.9 -912.35 6899.1 -950.25 6899.3 -987.45 6882.45 -1020.4 6865.55 -1053.45 6835.85 -1075.5 6819.15 -1087.95 6801.35 -1098.15
M 6691.2 -1103.2
Q 6731.8 -1104.3 6770.45 -1092.7 6806.85 -1081.65 6832.5 -1053.55 6858.7 -1024.95 6867.8 -987.05 6874.95 -957.35 6873.45 -926.7 6873.05 -918.8 6870.9 -911.05 6860.6 -872.8 6834.3 -843.1 6807.15 -812.55 6767.9 -800.55 6731.5 -789.4 6694.4 -796 6656.7 -803.05 6626.6 -826.7 6594.15 -852.1 6578.25 -890.4 6563.2 -926.5 6569.65 -966.1 6573.2 -987.95 6581.6 -1008.5 6596.55 -1045.15 6628.1 -1069.35 6656.9 -1091.6 6691.2 -1103.2 Z"/>

<path fill="#F9F7F7" stroke="none" d="
M 6770.45 -1092.7
Q 6731.8 -1104.3 6691.2 -1103.2 6656.9 -1091.6 6628.1 -1069.35 6596.55 -1045.15 6581.6 -1008.5 6573.2 -987.95 6569.65 -966.1 6563.2 -926.5 6578.25 -890.4 6594.15 -852.1 6626.6 -826.7 6656.7 -803.05 6694.4 -796 6731.5 -789.4 6767.9 -800.55 6807.15 -812.55 6834.3 -843.1 6860.6 -872.8 6870.9 -911.05 6873.05 -918.8 6873.45 -926.7 6874.95 -957.35 6867.8 -987.05 6858.7 -1024.95 6832.5 -1053.55 6806.85 -1081.65 6770.45 -1092.7
M 6748.7 -1020.1
Q 6760.95 -1014.95 6770.45 -1005.65 6782.95 -993.3 6782.65 -975.3 6782.45 -963.4 6780.05 -951.75 6776.9 -936.8 6765.6 -925.6 6751.55 -911.75 6734.15 -902.75 6736.95 -900.1 6740.9 -898.5 6747 -896.45 6753.25 -898
L 6753.25 -883.65
Q 6746.25 -877.45 6736.95 -878.4 6735.55 -878.7 6734.15 -878.9
L 6734.15 -859.8 6715.05 -859.8 6715.05 -878.9
Q 6705.75 -876.65 6698.05 -882.1 6696.95 -882.8 6695.95 -883.65
L 6695.95 -898
Q 6699.75 -897 6703.5 -897.5 6710.1 -898.4 6715.05 -902.75 6681.7 -917.3 6670.15 -950.85 6667.2 -959.35 6668.35 -968.65 6671.45 -994.1 6686.45 -1014.95 6716.75 -1033.65 6748.7 -1020.1 Z"/>

<path fill="#CC9EA9" stroke="none" d="
M 6719.9 -883.65
L 6695.95 -883.65
Q 6696.95 -882.8 6698.05 -882.1 6705.75 -876.65 6715.05 -878.9
L 6715.05 -859.8 6734.15 -859.8 6734.15 -878.9
Q 6735.55 -878.7 6736.95 -878.4 6746.25 -877.45 6753.25 -883.65
L 6729.4 -883.65 6724.65 -864.55 6719.9 -883.65 Z"/>

<path fill="#9B3D53" stroke="none" d="
M 6770.45 -1005.65
Q 6760.95 -1014.95 6748.7 -1020.1 6716.75 -1033.65 6686.45 -1014.95 6671.45 -994.1 6668.35 -968.65 6667.2 -959.35 6670.15 -950.85 6681.7 -917.3 6715.05 -902.75 6710.1 -898.4 6703.5 -897.5 6699.75 -897 6695.95 -898
L 6695.95 -883.65 6719.9 -883.65 6724.65 -864.55 6729.4 -883.65 6753.25 -883.65 6753.25 -898
Q 6747 -896.45 6740.9 -898.5 6736.95 -900.1 6734.15 -902.75 6751.55 -911.75 6765.6 -925.6 6776.9 -936.8 6780.05 -951.75 6782.45 -963.4 6782.65 -975.3 6782.95 -993.3 6770.45 -1005.65
M 6705.55 -1012.5
Q 6735.25 -1016.55 6756 -996.35 6760.1 -992.4 6762.15 -987.55 6770.45 -967.05 6761.65 -947.7 6759.4 -942.75 6755.9 -938.4 6736.25 -914.45 6708.85 -926.3 6697.85 -931.15 6689.55 -939.85 6686.75 -942.75 6684 -945.7 6679.45 -967.15 6684 -988.65
L 6705.55 -1012.5 Z"/>

<path fill="#F6F3F4" stroke="none" d="
M 6756 -996.35
Q 6735.25 -1016.55 6705.55 -1012.5
L 6684 -988.65
Q 6679.45 -967.15 6684 -945.7 6686.75 -942.75 6689.55 -939.85 6697.85 -931.15 6708.85 -926.3 6736.25 -914.45 6755.9 -938.4 6759.4 -942.75 6761.65 -947.7 6770.45 -967.05 6762.15 -987.55 6760.1 -992.4 6756 -996.35 Z"/>
</g>

<g id="Layer3_0_FILL">
<path fill="#E5E5E6" stroke="none" d="
M 702.5 484.3
Q 683.4 452.65 656.2 427.55 638.75 420.25 620.35 414.1 596.3 411.25 572.55 414.1 558.95 417.1 550.15 427.55 542.7 478.35 547.15 529.1 577.65 598.7 653.2 584.4 662.65 581.1 674.15 578.4 701.9 559.45 724.9 533.6 735.5 526.15 748.8 526.15 723.7 508.05 702.5 484.3
M 536.7 430.55
Q 526.1 417.85 509.85 414.1 457.7 405.15 417.25 438 382.3 487.15 336.55 526.15 351.05 527.9 363.45 536.6 388.7 569.45 426.2 584.4 448 586.75 468 585.9 552.7 566 539.7 478.35 539.55 455.05 536.7 430.55
M 469.5 902.55
Q 441.55 864.45 396.3 851.75 395.4 875.8 391.85 899.55 376.35 960.55 366.95 1021.75 361.6 1056.6 358.3 1091.5 358.05 1094.25 357.8 1097 357.8 1096.6765625 357.8 1096.35 357.7873046875 1096.714453125 357.75 1097.05 357.6 1098.35 357.5 1099.7 356.15 1161.2 361.95 1222.15 367.2 1264.6 384.35 1302.8 399.45 1298.8 414.25 1302.8 419.15 1318.65 426.2 1335.7 437.25 1347.65 453.05 1343.15 472.05 1326.85 478.45 1302.8 485.2 1259.65 497.9 1219.2 497.75 1204.1 502.35 1189.3 534.95 1115.5 536.7 1033.95 524.3 1033.05 517.3 1022 495.8 964.65 469.5 902.55 Z"/>

<path fill="#61647D" stroke="none" d="
M 668.15 432.05
Q 662.65 428.75 656.2 427.55 683.4 452.65 702.5 484.3 723.7 508.05 748.8 526.15
L 754.8 523.15
Q 704.6 484.45 668.15 432.05 Z"/>

<path fill="#535571" stroke="none" d="
M 710 409.65
Q 710.1 409.65 710.25 409.7 712.3 410.05 713.75 409.25 715.15 408.5 715.95 406.65 702.5 404.85 690.55 400.65 660.25 378.55 623.35 366.3 614.25 358.55 608.4 352.85 599.45 326.6 602.45 296.1
L 602.45 287.15
Q 583.75 317.45 548.65 326 549.5 328.45 551.7 329
L 552.25 329.1
Q 553.064453125 329.1580078125 554 329.05 554.3 329 554.65 328.95 580.05 322.25 597.95 302.1
L 600.95 397.7
Q 602.45 401.7 605.4 405.15 566.3 401.4 541.2 430.55 539.25 429.65 539.7 427.55 536.7 427.55 536.7 430.55 539.55 455.05 539.7 478.35 552.7 566 468 585.9
L 465 591.85
Q 453.35 602.6 456.05 618.75 459.05 618.75 459.05 615.75 458.9 607.85 463.55 600.8 488.3 581.1 520.3 576.9 536.7 576.45 542.7 591.85 545.85 584.55 551.65 578.4 592.6 575.85 621.85 603.8 614.25 728.2 603.95 851.75 593.65 881.75 580.05 908.5 567.8 933.45 542.7 944.35
L 539.7 950.3
Q 546.85 948.85 554.65 945.85 590.35 909.55 606.9 860.7 617.5 779.75 621.85 696.4 624.55 714.35 626.35 732.25 628.25 728.8 629 724.85 629.1 724.35 629.15 723.95 629.25 723.4 629.3 722.85 629.3 718.6 629.3 714.35 623.2 679.85 621.85 642.65
L 717.45 547.05
Q 719.4 549.75 718.95 553 717.75 559 721.95 562 721.05 536.6 745.85 532.1
L 769.7 526.15
Q 761.95 523.75 754.8 523.15
L 748.8 526.15
Q 735.5 526.15 724.9 533.6 701.9 559.45 674.15 578.4 662.65 581.1 653.2 584.4 577.65 598.7 547.15 529.1 542.7 478.35 550.15 427.55 558.95 417.1 572.55 414.1 596.3 411.25 620.35 414.1 638.75 420.25 656.2 427.55 648.3 417.25 635.3 414.1 672.05 402.75 710 409.65
M 668.15 582.9
Q 671.45 582.45 674.15 584.4 647.55 606.35 624.85 630.7 625.3 620.55 629.3 609.75 625.6 601.1 620.35 593.35 646.35 594.25 668.15 582.9
M 542.7 579.9
Q 528.65 572.75 512.8 572.45 532.4 557.8 539.7 535.1 552.1 556.45 572.55 572.45 556.45 572.75 542.7 579.9
M 603.95 388.7
Q 601.55 371.55 602.45 355.85 611.85 361.55 620.35 369.3 652.05 380.95 680.1 399.15 648.6 405.3 617.35 408.15 606.9 400.95 603.95 388.7 Z"/>

<path fill="#DEDFE0" stroke="none" d="
M 602.45 355.85
Q 601.55 371.55 603.95 388.7 606.9 400.95 617.35 408.15 648.6 405.3 680.1 399.15 652.05 380.95 620.35 369.3 611.85 361.55 602.45 355.85 Z"/>

<path fill="#D4DAE1" stroke="none" d="
M 512.8 572.45
Q 528.65 572.75 542.7 579.9 556.45 572.75 572.55 572.45 552.1 556.45 539.7 535.1 532.4 557.8 512.8 572.45 Z"/>

<path fill="#D6DCE2" stroke="none" d="
M 674.15 584.4
Q 671.45 582.45 668.15 582.9 646.35 594.25 620.35 593.35 625.6 601.1 629.3 609.75 625.3 620.55 624.85 630.7 647.55 606.35 674.15 584.4 Z"/>

<path fill="#E4E4E5" stroke="none" d="
M 768.25 442.5
Q 765.3 439.25 762.2 436.3 762 436.1 761.8 435.9 742.95 418.25 718.3 411.6 714.75 410.6 711.15 409.9 710.7 409.8 710.25 409.7 710.1 409.65 710 409.65 672.05 402.75 635.3 414.1 648.3 417.25 656.2 427.55 662.65 428.75 668.15 432.05 704.6 484.45 754.8 523.15 761.95 523.75 769.7 526.15 785.1 528.8 799.6 535.1
L 802.6 530.6
Q 790.65 485.05 768.25 442.5
M 223.05 654.6
Q 223.8 650.25 220.05 648.6 172.1 694.6 146.9 756.15 126.4 805.75 108.05 860.7 117.9 887 142.4 874.15
L 227.55 789
Q 252.35 745.1 279.8 700.9 219.3 719.1 223.05 654.6
M 715.95 567.95
Q 715.95 559.45 718.95 553 719.4 549.75 717.45 547.05
L 621.85 642.65
Q 623.2 679.85 629.3 714.35 629.3 718.6 629.3 722.85 629.3 722.9 629.3 722.95
L 629.3 723
Q 629.6 767.55 633.8 812.9 646.65 852.05 686.1 842.8 674.15 778.85 678.6 714.35 702.65 665.5 720.45 612.75 720.45 590.35 715.95 567.95 Z"/>

<path fill="#5C5D78" stroke="none" d="
M 363.45 536.6
Q 351.05 527.9 336.55 526.15
L 315.65 532.1
Q 331.05 531.5 348.5 533.6
L 356 541.05
Q 362.1 563 360.45 585.9 363.45 585.9 363.45 588.85
L 369.45 550.05
Q 410.95 593.95 457.55 636.65 462.05 646.8 462.05 657.55 459.95 675.35 459.05 690.45 459.95 702.1 463.55 690.45 465.6 699.85 465 708.35 463.1 787.05 478.45 863.7 493.85 910.75 527.75 945.85 533.45 947.65 539.7 950.3
L 542.7 944.35
Q 525.65 938.5 514.3 923.45 471.15 858.75 472.5 780.05 468.6 711.2 466.5 636.65 464.7 625.45 459.05 615.75 459.05 618.75 456.05 618.75 456.5 622.3 454.55 624.7 432.15 605.9 411.25 585.9
L 412.75 582.9
Q 437.25 595 465 591.85
L 468 585.9
Q 448 586.75 426.2 584.4 388.7 569.45 363.45 536.6 Z"/>

<path fill="#595B76" stroke="none" d="
M 762.2 436.3
Q 765.3 439.25 768.25 442.5 790.65 485.05 802.6 530.6
L 799.6 535.1
Q 785.1 528.8 769.7 526.15
L 745.85 532.1
Q 785.85 527.2 816.05 553 843.95 595.75 854.85 645.6 866.5 714.8 802.6 691.9 789 676.25 732.4 609.75 719.1 587.65 721.95 562 717.75 559 718.95 553 715.95 559.45 715.95 567.95 720.45 590.35 720.45 612.75 702.65 665.5 678.6 714.35 674.15 778.85 686.1 842.8 646.65 852.05 633.8 812.9 629.6 767.55 629.3 723
L 629.3 722.95
Q 629.3 722.9 629.3 722.85 629.25 723.4 629.15 723.95 629.1 724.35 629 724.85 628.25 728.8 626.35 732.25 626.35 755.7 623.35 780.05 621.85 830.25 665.15 853.25 619.75 875.05 597.95 920.45
L 568.1 1010.05
Q 539.7 1052.8 514.3 1007.1 499.95 967.2 487.45 926.4 465.45 874.9 414.25 853.25 441 847.4 451.6 821.85 461.6 788.85 459.05 753.15
L 453.05 723.3
Q 453.8 764.8 451.6 803.95 445.75 851 399.3 845.75 400.8 810.5 406.75 774.05 409.75 748.85 406.75 723.3 386.9 677 367.95 624.7 362.55 607.25 363.45 588.85 363.45 585.9 360.45 585.9 357.05 600.2 350 612.75 318.05 647.85 288.75 685.95
L 270.85 697.9
Q 257.4 701.05 243.95 697.9 229.05 691.65 229.05 675.5
L 223.05 654.6
Q 219.3 719.1 279.8 700.9 252.35 745.1 227.55 789
L 142.4 874.15
Q 117.9 887 108.05 860.7 126.4 805.75 146.9 756.15 172.1 694.6 220.05 648.6 220.95 642.2 224.55 636.65 225.15 645 229.05 651.6 236.5 599 266.35 556 285.65 533.45 315.65 532.1
L 336.55 526.15
Q 382.3 487.15 417.25 438 457.7 405.15 509.85 414.1 526.1 417.85 536.7 430.55 536.7 427.55 539.7 427.55 532.55 415.45 518.8 411.1 498.35 406.5 476.95 405.15 482.2 401.25 484.45 394.7
L 487.45 302.1
Q 512 332.9 548.45 329.75 551.1197265625 329.555859375 553.9 329.1 553.61796875 329.15 553.35 329.15 552.7875 329.15 552.25 329.1
L 551.7 329
Q 549.5 328.45 548.65 326 513.7 325.55 490.4 299.1 482.65 287 481.45 272.2 472.8 269.5 466.5 263.25 461 247.4 462.05 230.4 457.85 227.4 459.05 221.45 453.35 241.75 460.55 263.25 465.75 273.1 476.95 272.2 481.6 311.8 478.45 349.9
L 465 363.3
Q 428 377.35 396.3 399.15 351.95 406.2 317.15 433.5 285.8 482.05 275.35 538.1 238.6 587.65 215.6 645.6 170.65 687.45 146.9 744.2
L 66.2 941.35
Q 55.9 986.75 69.2 1031 73.7 1035.75 79.65 1032.45 85.5 1023.05 96.1 1019.05 96.4 982.75 105.05 947.35 106.1 961.95 111.05 977.2 118.65 986.75 128.95 980.2 136.1 954.05 137.9 926.4 154.35 907.9 142.4 886.1 148.65 875.8 152.85 866.7
L 221.55 803.95
Q 254.4 757.35 281.3 705.35 315.35 655.65 357.5 612.75 374.95 663.25 397.8 711.35 402.3 731.95 402.3 753.15 395.25 820.8 385.85 905.5 363.3 994.25 354.5 1084.75 356.2 1087.2 357 1090.1 357.85 1092.9 357.85 1096.15 357.841015625 1096.221484375 357.8 1096.3 357.821484375 1096.3412109375 357.8 1096.35 357.8 1096.6765625 357.8 1097 358.05 1094.25 358.3 1091.5 361.6 1056.6 366.95 1021.75 376.35 960.55 391.85 899.55 395.4 875.8 396.3 851.75 441.55 864.45 469.5 902.55 495.8 964.65 517.3 1022 524.3 1033.05 536.7 1033.95 534.95 1115.5 502.35 1189.3 497.75 1204.1 497.9 1219.2 525.2 1147.95 541.2 1072.8 557.5 1144.65 583 1216.2 593.5 1273.7 603.95 1341.65 616.35 1368.25 630.8 1392.45 628.15 1458.3 624.85 1514.9 650.25 1570.95 660.7 1631.4 661 1701.9 669.65 1771.8 678.75 1785.7 693.55 1792.75 694.75 1807.5 702.5 1819.6 721.5 1832.3 739.85 1846.5 758.5 1840.55 778.7 1836.05 792.15 1826.95 799.6 1812.15 794.65 1800.05 789.15 1789.75 751.05 1760.15 732.4 1715.05 725.5 1669.8 729.4 1622.45 737.75 1554.65 742.85 1486.55 741.5 1454.85 735.35 1422.3 715.65 1367.5 712.95 1308.8 723.1 1253.25 727.9 1195.3 728.8 1189.6 724.9 1186.3 722.25 1243.5 702.5 1296.85 698.8 1302.8 692.05 1302.8 681.3 1298.95 671.15 1301.35 662.65 1317.6 657.7 1335.7 634.55 1355.25 617.35 1329.7 606.6 1309.4 600.95 1287.9 588.55 1198.55 556.15 1114.6 544.95 1075.05 551.65 1033.95 569.9 1022.45 577.05 1001.1 589.75 951.05 612.9 905.5 636.65 868.45 678.6 854.75 684.45 856.05 687.55 860.7 698.6 919.2 708.8 979.05 716.8 1026.3 724.25 1074.35 724.45 1075.55 724.65 1076.75 724.55 1074.6 725.4 1072.9 726.2 1071.15 727.9 1069.8 724.9 1030.4 717.45 992.15 689.05 871.9 680.1 747.2 680.55 730.75 684.6 714.35 709.55 662.65 726.4 609.75 792.3 681.9 836.95 768.1
L 866.8 809.9
Q 899.65 838.15 932.55 869.65 945.1 885.35 937 904 950.45 936.15 950.45 971.25 953.6 981.4 963.9 983.2 974.65 982.3 972.85 971.25 964.05 981.85 956.45 971.25
L 953.45 935.4
Q 946.1 920.6 943 904 944.05 895.05 945.95 884.6 970.45 886.25 980.35 863.7 992.85 904.9 1013.2 944.35 1019.9 983.5 1013.2 1022 1010.2 1031 1004.25 1025
L 1001.25 983.2
Q 999 967.05 987.8 956.3
L 984.8 962.25
Q 992.15 967.95 995.25 977.2 997.35 999.45 996.75 1019.05 1002.75 1020.65 996.75 1022 999.9 1038.6 1014.7 1031 1025.75 984.7 1016.2 938.35
L 938.5 747.2
Q 912.5 688.2 866.8 642.65 845.6 590.05 813.05 544.05 799.75 503.3 783.15 457.4 761.5 415.9 715.95 406.65 715.15 408.5 713.75 409.25 712.65 409.9 711.15 409.9 714.75 410.6 718.3 411.6 742.95 418.25 761.8 435.9 762 436.1 762.2 436.3
M 802.6 699.4
L 804.1 696.4
Q 843.35 720.6 860.85 678.5 862.95 660.25 859.35 642.65 908.2 689.7 935.5 753.15
L 974.35 848.75
Q 977.05 883.4 943 877.15 938.95 871.45 935.5 863.7
L 866.8 800.95
Q 832.15 752.85 802.6 699.4
M 459.05 372.3
Q 469.95 366.45 476.95 355.85 482.05 373.5 478.45 391.7 474.75 409.65 456.05 409.65 431.7 403.8 405.3 399.15 429.75 381.7 459.05 372.3
M 281.3 538.1
Q 290.1 489.1 314.15 445.45 341.8 414.85 381.4 406.65 414.85 404.4 447.1 414.1
L 417.25 432.05
Q 383.45 474.15 345.55 512.7 313.4 526.75 281.3 538.1
M 100.6 866.7
Q 108.2 872.05 115.5 880.1 127.75 882.5 139.4 881.6 139.4 893.55 142.4 904 138.65 918.05 131.95 929.4 131.05 952.7 125.95 974.2 118.2 980.65 114 971.25 113.1 954.8 109.55 938.35 73.25 969.15 82.65 1016.05 83.4 1024.25 76.7 1028 65.9 1009.6 67.7 987.65 68.6 964.35 72.2 941.35 91.3 906.25 100.6 866.7
M 94.6 965.25
Q 97 965.7 97.6 968.25 90.85 993.35 88.65 1019.05 82.8 991.1 94.6 965.25
M 606.9 1320.75
Q 616.2 1342.85 638.3 1350.6 650.85 1349.25 660.7 1341.65 666.5 1321.95 677.1 1302.8 682.95 1305.35 690.55 1305.8 699.5 1306.7 704 1299.85 713.25 1334.8 711.45 1371.55 694.3 1389.15 680.1 1405.9 649.95 1413.05 633.8 1386.45 610.35 1357.65 606.9 1320.75
M 630.8 1517.9
Q 626.8 1459.2 639.8 1401.4 667.1 1424.55 693.55 1401.4 700.25 1389.15 710 1377.5 714.45 1377.2 717.45 1380.5 735.35 1431.85 736.85 1486.55 734.2 1554.95 723.4 1622.45 719.85 1668.75 726.4 1715.05 746.25 1762.85 786.15 1795.7 791.1 1803.2 793.6 1810.65 783 1837.25 756.3 1834.55 746.25 1842.6 733.9 1839.05 721.8 1823.35 705.5 1813.65
L 696.55 1789.75
Q 684 1780.95 672.65 1768.85 670.55 1749.25 674.15 1730 666.5 1682.65 666.65 1634.4 656.2 1573.75 630.8 1517.9 Z"/>

<path fill="#E5E5E5" stroke="none" d="
M 639.8 1401.4
Q 626.8 1459.2 630.8 1517.9 656.2 1573.75 666.65 1634.4 666.5 1682.65 674.15 1730 670.55 1749.25 672.65 1768.85 684 1780.95 696.55 1789.75
L 705.5 1813.65
Q 721.8 1823.35 733.9 1839.05 746.25 1842.6 756.3 1834.55 783 1837.25 793.6 1810.65 791.1 1803.2 786.15 1795.7 746.25 1762.85 726.4 1715.05 719.85 1668.75 723.4 1622.45 734.2 1554.95 736.85 1486.55 735.35 1431.85 717.45 1380.5 714.45 1377.2 710 1377.5 700.25 1389.15 693.55 1401.4 667.1 1424.55 639.8 1401.4
M 804.1 696.4
L 802.6 699.4
Q 832.15 752.85 866.8 800.95
L 935.5 863.7
Q 938.95 871.45 943 877.15 977.05 883.4 974.35 848.75
L 935.5 753.15
Q 908.2 689.7 859.35 642.65 862.95 660.25 860.85 678.5 843.35 720.6 804.1 696.4
M 315.65 532.1
Q 285.65 533.45 266.35 556 236.5 599 229.05 651.6
L 229.05 675.5
Q 229.05 691.65 243.95 697.9 257.4 701.05 270.85 697.9
L 288.75 685.95
Q 318.05 647.85 350 612.75 357.05 600.2 360.45 585.9 362.1 563 356 541.05
L 348.5 533.6
Q 331.05 531.5 315.65 532.1
M 745.85 532.1
Q 721.05 536.6 721.95 562 719.1 587.65 732.4 609.75 789 676.25 802.6 691.9 866.5 714.8 854.85 645.6 843.95 595.75 816.05 553 785.85 527.2 745.85 532.1
M 375.4 1379
Q 370.9 1376.15 366.45 1379 350.3 1421.55 348.5 1467.1 347.05 1549.4 360.45 1631.4 377.8 1731.05 299.25 1792.75 294.3 1800.8 291.75 1810.65 302.05 1837.1 329.1 1834.55 352.1 1849.8 363.45 1824.1 385.25 1814.25 385.85 1789.75 398.85 1781.55 409.75 1771.8 413.2 1710.45 415.75 1640.4 425.45 1576 453.05 1517.9 453.5 1466.35 447.1 1416.35 447.7 1407.8 445.6 1398.4 416.8 1427.85 388.85 1398.4 382.85 1388.7 375.4 1379 Z"/>

<path fill="#DDE3EA" stroke="none" d="
M 638.3 1350.6
Q 616.2 1342.85 606.9 1320.75 610.35 1357.65 633.8 1386.45 649.95 1413.05 680.1 1405.9 694.3 1389.15 711.45 1371.55 713.25 1334.8 704 1299.85 699.5 1306.7 690.55 1305.8 682.95 1305.35 677.1 1302.8 666.5 1321.95 660.7 1341.65 650.85 1349.25 638.3 1350.6 Z"/>

<path fill="#D2D4D7" stroke="none" d="
M 97.6 968.25
Q 97 965.7 94.6 965.25 82.8 991.1 88.65 1019.05 90.85 993.35 97.6 968.25 Z"/>

<path fill="#E2E2E3" stroke="none" d="
M 115.5 880.1
Q 108.2 872.05 100.6 866.7 91.3 906.25 72.2 941.35 68.6 964.35 67.7 987.65 65.9 1009.6 76.7 1028 83.4 1024.25 82.65 1016.05 73.25 969.15 109.55 938.35 113.1 954.8 114 971.25 118.2 980.65 125.95 974.2 131.05 952.7 131.95 929.4 138.65 918.05 142.4 904 139.4 893.55 139.4 881.6 127.75 882.5 115.5 880.1
M 476.95 355.85
Q 469.95 366.45 459.05 372.3 429.75 381.7 405.3 399.15 431.7 403.8 456.05 409.65 474.75 409.65 478.45 391.7 482.05 373.5 476.95 355.85
M 984.8 947.35
Q 987.35 951.05 987.8 956.3 999 967.05 1001.25 983.2
L 1004.25 1025
Q 1010.2 1031 1013.2 1022 1019.9 983.5 1013.2 944.35 992.85 904.9 980.35 863.7 970.45 886.25 945.95 884.6 944.05 895.05 943 904 946.1 920.6 953.45 935.4
L 956.45 971.25
Q 964.05 981.85 972.85 971.25 971.35 954.95 975.85 938.35 981.95 941.5 984.8 947.35 Z"/>

<path fill="#E3E4E4" stroke="none" d="
M 314.15 445.45
Q 290.1 489.1 281.3 538.1 313.4 526.75 345.55 512.7 383.45 474.15 417.25 432.05
L 447.1 414.1
Q 414.85 404.4 381.4 406.65 341.8 414.85 314.15 445.45 Z"/>

<path fill="#7A7C90" stroke="none" d="
M 724.9 1105.65
L 724.9 1186.3
Q 728.8 1189.6 727.9 1195.3 732.25 1184.4 730.9 1171.4
L 724.9 1105.65 Z"/>

<path fill="#50516E" stroke="none" d="
M 727.9 1069.8
Q 726.2 1071.15 725.4 1072.9 724.55 1074.6 724.65 1076.75 724.65 1077.0107421875 724.65 1077.25
L 724.7 1077.35
Q 724.8 1078.05 724.9 1078.8
L 724.9 1105.65 730.9 1171.4
Q 732.1 1119.1 727.9 1069.8
M 494.9 642.65
Q 498.35 639.35 503.85 638.15 501.15 636.2 497.9 636.65 486.7 638.75 476.95 642.65 485.8 647.4 494.9 642.65 Z"/>

<path fill="#C7C9CF" stroke="none" d="
M 995.25 977.2
Q 992.15 967.95 984.8 962.25 992.15 988.7 992.3 1016.05 993.75 1018.6 996.75 1019.05 997.35 999.45 995.25 977.2 Z"/>

<path fill="#60627C" stroke="none" d="
M 972.85 971.25
Q 976 966.6 981.8 965.25 980.5 955.25 984.8 947.35 981.95 941.5 975.85 938.35 971.35 954.95 972.85 971.25 Z"/>

<path fill="#474867" stroke="none" d="
M 984.8 962.25
L 987.8 956.3
Q 987.35 951.05 984.8 947.35 980.5 955.25 981.8 965.25 988.85 992 989.3 1019.05 992.15 1022.45 996.75 1022 1002.75 1020.65 996.75 1019.05 993.75 1018.6 992.3 1016.05 992.15 988.7 984.8 962.25 Z"/>

<path fill="#E6E6E6" stroke="none" d="
M 577.05 1001.1
Q 569.9 1022.45 551.65 1033.95 544.95 1075.05 556.15 1114.6 588.55 1198.55 600.95 1287.9 606.6 1309.4 617.35 1329.7 634.55 1355.25 657.7 1335.7 662.65 1317.6 671.15 1301.35 681.3 1298.95 692.05 1302.8 698.8 1302.8 702.5 1296.85 722.25 1243.5 724.9 1186.3
L 724.9 1105.65 724.9 1078.8
Q 724.8 1078.05 724.7 1077.35
L 724.65 1077.25
Q 724.4447265625 1075.8109375 724.25 1074.35 716.8 1026.3 708.8 979.05 698.6 919.2 687.55 860.7 684.45 856.05 678.6 854.75 636.65 868.45 612.9 905.5 589.75 951.05 577.05 1001.1 Z"/>

<path fill="#545672" stroke="none" d="
M 357.5 1099.7
Q 357.6 1098.35 357.75 1097.05 357.9 1093.3 357 1090.1 356.2 1087.2 354.5 1084.75 346.75 1195.3 372.4 1302.8 366.75 1334.8 364.95 1365.55 348.95 1404.4 345.55 1446.2 345.3 1447.95 345.25 1449.65 345.275 1449.425 345.3 1449.2 345.2 1450.2064453125 345.2 1451.2 345.15 1451.95 345.2 1452.7 345.35 1460.35 348.5 1467.1 350.3 1421.55 366.45 1379 370.9 1376.15 375.4 1379 382.85 1388.7 388.85 1398.4 416.8 1427.85 445.6 1398.4 447.7 1407.8 447.1 1416.35
L 453.05 1395.45
Q 462.8 1374.5 475.5 1353.6 491 1287.3 497.9 1219.2 485.2 1259.65 478.45 1302.8 472.05 1326.85 453.05 1343.15 437.25 1347.65 426.2 1335.7 419.15 1318.65 414.25 1302.8 399.45 1298.8 384.35 1302.8 395.25 1305.5 411.25 1308.8 413.5 1330.9 429.2 1346.15 446.35 1355.7 462.05 1343.15 472.2 1331.35 478.45 1317.75 473.55 1357.5 448.6 1389.45 431.7 1411.1 405.3 1405.9 389.15 1390.5 372.4 1371.55
L 369.45 1356.6
Q 375.4 1328.35 376.9 1299.85 379.75 1303.25 384.35 1302.8 367.2 1264.6 361.95 1222.15 356.15 1161.2 357.5 1099.7 Z"/>

<path fill="#DCE1E8" stroke="none" d="
M 465 708.35
Q 456.2 729.25 459.05 753.15 461.6 788.85 451.6 821.85 441 847.4 414.25 853.25 465.45 874.9 487.45 926.4 499.95 967.2 514.3 1007.1 539.7 1052.8 568.1 1010.05
L 597.95 920.45
Q 619.75 875.05 665.15 853.25 621.85 830.25 623.35 780.05 626.35 755.7 626.35 732.25 624.55 714.35 621.85 696.4 617.5 779.75 606.9 860.7 590.35 909.55 554.65 945.85 546.85 948.85 539.7 950.3 533.45 947.65 527.75 945.85 493.85 910.75 478.45 863.7 463.1 787.05 465 708.35 Z"/>

<path fill="#74768C" stroke="none" d="
M 453.05 723.3
L 459.05 753.15
Q 456.2 729.25 465 708.35 465.6 699.85 463.55 690.45 459.95 702.1 459.05 690.45 452.05 705.5 453.05 723.3 Z"/>

<path fill="#E4E5E5" stroke="none" d="
M 369.45 550.05
L 363.45 588.85
Q 362.55 607.25 367.95 624.7 386.9 677 406.75 723.3 409.75 748.85 406.75 774.05 400.8 810.5 399.3 845.75 445.75 851 451.6 803.95 453.8 764.8 453.05 723.3 452.05 705.5 459.05 690.45 459.95 675.35 462.05 657.55 462.05 646.8 457.55 636.65 410.95 593.95 369.45 550.05 Z"/>

<path fill="#7E8293" stroke="none" d="
M 223.05 654.6
L 229.05 675.5 229.05 651.6
Q 225.15 645 224.55 636.65 220.95 642.2 220.05 648.6 223.8 650.25 223.05 654.6 Z"/>

<path fill="#DEE4EA" stroke="none" d="
M 553.35 329.15
Q 553.61796875 329.15 553.9 329.1 551.1197265625 329.555859375 548.45 329.75 512 332.9 487.45 302.1
L 484.45 394.7
Q 482.2 401.25 476.95 405.15 498.35 406.5 518.8 411.1 532.55 415.45 539.7 427.55 539.25 429.65 541.2 430.55 566.3 401.4 605.4 405.15 602.45 401.7 600.95 397.7
L 597.95 302.1
Q 580.05 322.25 554.65 328.95 554.3 329 554 329.05 553.65 329.1 553.35 329.15 Z"/>

<path fill="#484968" stroke="none" d="
M 468 179.6
Q 463.85 182.9 465 188.55 464 200.8 468 212.45 462.2 216.05 459.05 221.45 457.85 227.4 462.05 230.4 462.05 218.45 474 218.45 475.35 195.6 471 173.65 471.6 186.65 469.5 200.5 467.1 189.75 468 179.6 Z"/>

<path fill="#DFE5EB" stroke="none" d="
M 538.2 158.7
Q 513.55 160.65 491.9 149.75 479.2 156.45 476.95 170.65 478.3 195.3 474 218.45 462.05 218.45 462.05 230.4 461 247.4 466.5 263.25 472.8 269.5 481.45 272.2 482.65 287 490.4 299.1 513.7 325.55 548.65 326 583.75 317.45 602.45 287.15
L 602.45 269.2
Q 609.45 270.25 615.9 266.25 626.65 244.15 618.85 221.45
L 606.9 215.45
Q 602.6 195.3 600.95 173.65 598.4 162.15 590.5 154.2 564.65 158.25 538.2 158.7 Z"/>

<path fill="#575874" stroke="none" d="
M 456.05 1520.9
Q 456.05 1517.9 453.05 1517.9 425.45 1576 415.75 1640.4 413.2 1710.45 409.75 1771.8 398.85 1781.55 385.85 1789.75 385.25 1814.25 363.45 1824.1 352.1 1849.8 329.1 1834.55 302.05 1837.1 291.75 1810.65 294.3 1800.8 299.25 1792.75 377.8 1731.05 360.45 1631.4 358.45 1633 357.7 1635.15 357.25 1636.45 357.25 1637.95 357.25 1639.1 357.5 1640.4 359.25 1681.3 350 1721.05 335.25 1741.35 326.1 1762.85 238.45 1824.85 342.55 1846.5 359.1 1842.75 366.45 1827.1 375.55 1823.8 382.85 1816.65 385.85 1788.4 412.75 1777.8 420.05 1756 414.25 1733 421.55 1683.55 421.7 1634.4 431.85 1575.55 456.05 1520.9 Z"/>

<path fill="#61637C" stroke="none" d="
M 345.2 1451.2
Q 345.2 1450.2064453125 345.3 1449.2 345.275 1449.425 345.25 1449.65 340.35 1493.3 344.05 1538.8 350.1 1589.5 357.25 1637.95 357.25 1636.45 357.7 1635.15 358.45 1633 360.45 1631.4 347.05 1549.4 348.5 1467.1 345.35 1460.35 345.2 1452.7 345.15 1451.95 345.2 1451.2 Z"/>

<path fill="#696B83" stroke="none" d="
M 453.05 1395.45
L 447.1 1416.35
Q 453.5 1466.35 453.05 1517.9 456.05 1517.9 456.05 1520.9 458.75 1506.85 459.05 1489.55 455.75 1445.75 453.05 1395.45 Z"/>

<path fill="#DCE2E9" stroke="none" d="
M 384.35 1302.8
Q 379.75 1303.25 376.9 1299.85 375.4 1328.35 369.45 1356.6
L 372.4 1371.55
Q 389.15 1390.5 405.3 1405.9 431.7 1411.1 448.6 1389.45 473.55 1357.5 478.45 1317.75 472.2 1331.35 462.05 1343.15 446.35 1355.7 429.2 1346.15 413.5 1330.9 411.25 1308.8 395.25 1305.5 384.35 1302.8
M 503.85 106.4
Q 497.9 109.55 503.85 112.4 478.45 124.95 468 149.75
L 468 179.6
Q 467.1 189.75 469.5 200.5 471.6 186.65 471 173.65 469.8 167.95 474 164.65 477.1 156 482.95 148.25 510 149.9 535.2 155.7 560.6 152.4 586 146.75 602.9 154.35 605.4 173.65
L 611.4 170.65
Q 621.1 117.9 569.6 104.9
L 563.6 110.9
Q 535.05 95.35 503.85 106.4 Z"/>

<path fill="#E3E3E4" stroke="none" d="
M 551.65 578.4
Q 545.85 584.55 542.7 591.85 536.7 576.45 520.3 576.9 488.3 581.1 463.55 600.8 458.9 607.85 459.05 615.75 464.7 625.45 466.5 636.65 468.6 711.2 472.5 780.05 471.15 858.75 514.3 923.45 525.65 938.5 542.7 944.35 567.8 933.45 580.05 908.5 593.65 881.75 603.95 851.75 614.25 728.2 621.85 603.8 592.6 575.85 551.65 578.4
M 575.55 633.65
Q 593.2 637.1 608.4 644.15 599.75 646.8 592 642.65 591.25 648.6 583 648.6 566 644.45 548.65 647.1 544.65 652.95 541.2 660.55 540.3 652.05 533.75 647.1 505.8 645.9 494.9 645.6
L 494.9 642.65
Q 485.8 647.4 476.95 642.65 486.7 638.75 497.9 636.65 500.85 632.8 506.85 633.65 543 643.85 542.7 606.8 545.7 617.7 548.65 630.7 561.8 635.15 575.55 633.65
M 548.65 721.8
Q 542.55 754.95 536.7 721.8 506.85 721.8 479.95 711.35 505.5 708.5 533.75 703.85 541.95 691.2 539.7 675.5 547.15 688.05 548.65 703.85 576.3 708.8 602.45 711.35 595.25 714.95 587.5 715.8
L 590.5 718.8 548.65 721.8
M 494.9 789
L 494.9 783.05
Q 501.9 778.4 533.75 778.55 539.7 766.75 542.7 753.15
L 548.65 778.55
Q 578.85 778.85 590.5 783.05 591.4 789 587.5 792 568.1 793.35 548.65 796.5
L 542.7 815.9
Q 540 805.3 533.75 796.5 512.5 793.65 494.9 789
M 539.7 827.85
Q 545.55 851.3 545.7 878.65
L 542.7 929.4
Q 538.2 878.2 539.7 827.85 Z"/>

<path fill="#6E6E86" stroke="none" d="
M 545.7 878.65
Q 545.55 851.3 539.7 827.85 538.2 878.2 542.7 929.4
L 545.7 878.65 Z"/>

<path fill="#9899A8" stroke="none" d="
M 548.65 783.05
L 569.6 789
Q 579.75 787.8 587.5 792 591.4 789 590.5 783.05
L 548.65 783.05 Z"/>

<path fill="#D8D9DC" stroke="none" d="
M 548.65 783.05
Q 541.5 778.25 533.75 783.05
L 506.85 789
Q 525.05 787.65 542.7 795 554.5 787.2 569.6 789
L 548.65 783.05 Z"/>

<path fill="#494968" stroke="none" d="
M 548.65 778.55
L 542.7 753.15
Q 539.7 766.75 533.75 778.55 501.9 778.4 494.9 783.05
L 533.75 783.05
Q 541.5 778.25 548.65 783.05
L 590.5 783.05
Q 578.85 778.85 548.65 778.55 Z"/>

<path fill="#575873" stroke="none" d="
M 506.85 789
L 494.9 789
Q 512.5 793.65 533.75 796.5 540 805.3 542.7 815.9
L 548.65 796.5
Q 568.1 793.35 587.5 792 579.75 787.8 569.6 789 554.5 787.2 542.7 795 525.05 787.65 506.85 789 Z"/>

<path fill="#9293A3" stroke="none" d="
M 494.9 789
L 506.85 789 533.75 783.05 494.9 783.05 494.9 789 Z"/>

<path fill="#5D5E78" stroke="none" d="
M 536.7 721.8
Q 542.55 754.95 548.65 721.8
L 590.5 718.8 587.5 715.8
Q 595.25 714.95 602.45 711.35 576.3 708.8 548.65 703.85 547.15 688.05 539.7 675.5 541.95 691.2 533.75 703.85 505.5 708.5 479.95 711.35 506.85 721.8 536.7 721.8
M 539.7 705.35
Q 567.35 711.65 541.2 720.3 532.85 713.3 521.8 712.85 532.25 711.95 539.7 705.35 Z"/>

<path fill="#D3D4D8" stroke="none" d="
M 541.2 720.3
Q 567.35 711.65 539.7 705.35 532.25 711.95 521.8 712.85 532.85 713.3 541.2 720.3 Z"/>

<path fill="#8D8FA0" stroke="none" d="
M 503.85 638.15
Q 498.35 639.35 494.9 642.65
L 494.9 645.6 515.8 639.65 515.8 636.65
Q 509.85 637.85 506.85 633.65 500.85 632.8 497.9 636.65 501.15 636.2 503.85 638.15 Z"/>

<path fill="#CFD0D5" stroke="none" d="
M 545.7 635.15
L 541.2 630.7
Q 530 638.9 515.8 636.65
L 515.8 639.65
Q 529.1 639.05 541.2 645.6 556.9 639.8 572.55 636.65 559.55 637.55 545.7 635.15 Z"/>

<path fill="#5F627A" stroke="none" d="
M 575.55 633.65
Q 575.55 636.65 572.55 636.65 556.9 639.8 541.2 645.6 529.1 639.05 515.8 639.65
L 494.9 645.6
Q 505.8 645.9 533.75 647.1 540.3 652.05 541.2 660.55 544.65 652.95 548.65 647.1 566 644.45 583 648.6 591.25 648.6 592 642.65 599.75 646.8 608.4 644.15 593.2 637.1 575.55 633.65 Z"/>

<path fill="#4C4D6B" stroke="none" d="
M 572.55 636.65
Q 575.55 636.65 575.55 633.65 561.8 635.15 548.65 630.7 545.7 617.7 542.7 606.8 543 643.85 506.85 633.65 509.85 637.85 515.8 636.65 530 638.9 541.2 630.7
L 545.7 635.15
Q 559.55 637.55 572.55 636.65 Z"/>

<path fill="#AAAFBA" stroke="none" d="
M 608.4 352.85
L 602.45 296.1
Q 599.45 326.6 608.4 352.85 Z"/>

<path fill="#767990" stroke="none" d="
M 468 149.75
L 462.05 170.65
Q 460.7 180.95 465 188.55 463.85 182.9 468 179.6
L 468 149.75 Z"/>

<path fill="#848699" stroke="none" d="
M 476.95 170.65
Q 473.1 169.3 474 164.65 469.8 167.95 471 173.65 475.35 195.6 474 218.45 478.3 195.3 476.95 170.65 Z"/>

<path fill="#A4A9B6" stroke="none" d="
M 611.4 170.65
L 605.4 173.65
Q 607.8 189.3 609.9 206.5 612 187.8 611.4 170.65 Z"/>

<path fill="#535572" stroke="none" d="
M 503.85 112.4
Q 497.9 109.55 503.85 106.4 535.05 95.35 563.6 110.9
L 569.6 104.9
Q 621.1 117.9 611.4 170.65 612 187.8 609.9 206.5 607.8 189.3 605.4 173.65 602.9 154.35 586 146.75 560.6 152.4 535.2 155.7 510 149.9 482.95 148.25 477.1 156 474 164.65 473.1 169.3 476.95 170.65 479.2 156.45 491.9 149.75 513.55 160.65 538.2 158.7 564.65 158.25 590.5 154.2 598.4 162.15 600.95 173.65 602.6 195.3 606.9 215.45
L 618.85 221.45
Q 626.65 244.15 615.9 266.25 609.45 270.25 602.45 269.2
L 602.45 287.15
Q 612.3 272.95 624.85 257.3 627.85 239.35 624.85 221.45 621.55 215 614.4 215.45 615.15 172.6 612.9 131.8 602 104.5 572.55 100.45 564.8 97.6 557.65 101.95 527.6 90.45 497.9 103.45 482.5 119.55 466.5 137.8 461 153.9 462.05 170.65
L 468 149.75
Q 478.45 124.95 503.85 112.4 Z"/>

<path fill="#D9DFE6" stroke="none" d="
M 412.75 582.9
L 411.25 585.9
Q 432.15 605.9 454.55 624.7 456.5 622.3 456.05 618.75 453.35 602.6 465 591.85 437.25 595 412.75 582.9 Z"/>
</g>
</defs>

<g transform="matrix( 1, 0, 0, 1, 0,0) ">
<use xlink:href="#Layer7_0_FILL"/>
</g>

<g transform="matrix( 1, 0, 0, 1, 0,0) ">
<use xlink:href="#Layer6_0_FILL"/>
</g>

<g transform="matrix( 0.63262939453125, 0, 0, 0.63262939453125, -4673,139) ">
<use xlink:href="#S_logo_7_png"/>
</g>

<g transform="matrix( 1, 0, 0, 1, 0,0) ">
<use xlink:href="#Layer5_0_FILL"/>
</g>

<g transform="matrix( 1, 0, 0, 1, 0,0) ">
<use xlink:href="#Layer4_0_FILL"/>
</g>

<g transform="matrix( 1, 0, 0, 1, 0,0) ">
<use xlink:href="#Layer3_0_FILL"/>
</g>
</svg>
