
<svg xmlns="http://www.w3.org/2000/svg" version="1.1" xmlns:xlink="http://www.w3.org/1999/xlink" preserveAspectRatio="none" x="0px" y="0px" width="1080px" height="1920px" viewBox="0 0 1080 1920">
<defs>
<g id="Layer4_0_FILL">
<path fill="#045EB8" stroke="none" d="
M 619.4 625.85
L 633.05 779.55
Q 650.45 824 695.45 808.5 677.7 767.65 663.45 724.75 659.2 707.65 658.95 689.75 673.95 614.65 696.95 536.05 700.5 526 695.45 517.75 667.45 559.3 630 590.8 616.8 605.95 619.4 625.85
M 394 517.75
Q 393.2 528.2 395.6 539.05 411.55 604.25 429.1 666.95 432.1 693 429.1 718.7 413.75 762.05 397.1 805.45 397.55 808.9 400.2 811.5 456.2 820.75 462.5 764.35 466.7 661.7 468.7 603 429.7 563.65 394 517.75 Z"/>
</g>
</defs>

<g transform="matrix( 1, 0, 0, 1, 0,0) ">
<use xlink:href="#Layer4_0_FILL"/>
</g>
</svg>
