
<svg xmlns="http://www.w3.org/2000/svg" version="1.1" xmlns:xlink="http://www.w3.org/1999/xlink" preserveAspectRatio="none" x="0px" y="0px" width="1080px" height="1920px" viewBox="0 0 1080 1920">
<defs>
<g id="Layer4_0_FILL">
<path fill="#045EB8" stroke="none" d="
M 540.2 974.35
Q 515.3 942.4 489.95 913.5
L 450.45 846.55
Q 428.15 819.85 394 816.1 369.5 885.6 356 959.1 356.75 1096.4 368.2 1236.2 371.15 1262.6 380.35 1287.95 393.85 1290.2 409.25 1289.45 420.4 1311.25 426 1336.6 436.55 1349.05 447.35 1336.6 456.4 1319.9 462.5 1303.1 487.8 1155.5 520.45 1007.85 525.4 988.4 540.2 974.35
M 698.5 816.1
L 686.3 816.1
Q 662.6 822.95 645.2 840.45
L 599.55 916.55
Q 574.4 944 549.3 974.35 563.3 984.9 569.15 1001.8 602.1 1159.6 630 1306.2 635 1321.3 642.2 1333.6 650.1 1346.85 663.45 1339.7 670.3 1313.9 683.25 1289.45 696.4 1289.9 710.7 1287.95
L 721.3 1251.35
Q 735.3 1101.4 733.5 953.05 720.55 882.3 698.5 816.1 Z"/>
</g>
</defs>

<g transform="matrix( 1, 0, 0, 1, 0,0) ">
<use xlink:href="#Layer4_0_FILL"/>
</g>
</svg>
