
<svg xmlns="http://www.w3.org/2000/svg" version="1.1" xmlns:xlink="http://www.w3.org/1999/xlink" preserveAspectRatio="none" x="0px" y="0px" width="1080px" height="1920px" viewBox="0 0 1080 1920">
<defs>
<g id="Layer3_0_FILL">
<path fill="#045EB8" stroke="none" d="
M 248.05 608.05
Q 245.6 619.3 246.5 629.45 257.25 625.4 267.75 629.45 269.65 647.2 276.95 662.85 294.85 651.85 308.85 635.5 350.95 580.55 385 522.85 388 503.25 385 483.25 381.85 479.9 377.35 480.25 354.6 487.35 331.75 490.9 323.65 494.35 318 501.5 279.45 552.6 248.05 608.05
M 770.05 493.9
L 757.9 487.9
Q 732.9 487.4 709.2 480.25 704.05 499.6 707.7 519.8 751.2 592.4 806.55 658.3 813.4 663.15 821.8 662.85 820.3 645.4 826.4 629.45 837.8 623.6 847.7 632.45
L 849.25 624.8
Q 819.3 554.5 770.05 493.9 Z"/>
</g>
</defs>

<g transform="matrix( 1, 0, 0, 1, 0,0) ">
<use xlink:href="#Layer3_0_FILL"/>
</g>
</svg>
